<?xml version="1.0" encoding="utf-8" standalone="no"?>
<!DOCTYPE svg PUBLIC "-//W3C//DTD SVG 1.1//EN"
  "http://www.w3.org/Graphics/SVG/1.1/DTD/svg11.dtd">
<svg xmlns:xlink="http://www.w3.org/1999/xlink" width="460.8pt" height="345.6pt" viewBox="0 0 460.8 345.6" xmlns="http://www.w3.org/2000/svg" version="1.1">
 <metadata>
  <rdf:RDF xmlns:dc="http://purl.org/dc/elements/1.1/" xmlns:cc="http://creativecommons.org/ns#" xmlns:rdf="http://www.w3.org/1999/02/22-rdf-syntax-ns#">
   <cc:Work>
    <dc:type rdf:resource="http://purl.org/dc/dcmitype/StillImage"/>
    <dc:date>2025-09-30T09:46:29.349205</dc:date>
    <dc:format>image/svg+xml</dc:format>
    <dc:creator>
     <cc:Agent>
      <dc:title>Matplotlib v3.10.6, https://matplotlib.org/</dc:title>
     </cc:Agent>
    </dc:creator>
   </cc:Work>
  </rdf:RDF>
 </metadata>
 <defs>
  <style type="text/css">*{stroke-linejoin: round; stroke-linecap: butt}</style>
 </defs>
 <g id="figure_1">
  <g id="patch_1">
   <path d="M 0 345.6 
L 460.8 345.6 
L 460.8 0 
L 0 0 
z
" style="fill: #ffffff"/>
  </g>
  <g id="axes_1">
   <g id="patch_2">
    <path d="M 57.6 307.584 
L 414.72 307.584 
L 414.72 41.472 
L 57.6 41.472 
z
" style="fill: #ffffff"/>
   </g>
   <g id="matplotlib.axis_1">
    <g id="xtick_1">
     <g id="line2d_1">
      <defs>
       <path id="m954a9526cc" d="M 0 0 
L 0 3.5 
" style="stroke: #000000; stroke-width: 0.8"/>
      </defs>
      <g>
       <use xlink:href="#m954a9526cc" x="73.832727" y="307.584" style="stroke: #000000; stroke-width: 0.8"/>
      </g>
     </g>
     <g id="text_1">
      <!-- 0 -->
      <g transform="translate(70.651477 322.182437) scale(0.1 -0.1)">
       <defs>
        <path id="DejaVuSans-30" d="M 2034 4250 
Q 1547 4250 1301 3770 
Q 1056 3291 1056 2328 
Q 1056 1369 1301 889 
Q 1547 409 2034 409 
Q 2525 409 2770 889 
Q 3016 1369 3016 2328 
Q 3016 3291 2770 3770 
Q 2525 4250 2034 4250 
z
M 2034 4750 
Q 2819 4750 3233 4129 
Q 3647 3509 3647 2328 
Q 3647 1150 3233 529 
Q 2819 -91 2034 -91 
Q 1250 -91 836 529 
Q 422 1150 422 2328 
Q 422 3509 836 4129 
Q 1250 4750 2034 4750 
z
" transform="scale(0.015625)"/>
       </defs>
       <use xlink:href="#DejaVuSans-30"/>
      </g>
     </g>
    </g>
    <g id="xtick_2">
     <g id="line2d_2">
      <g>
       <use xlink:href="#m954a9526cc" x="114.928239" y="307.584" style="stroke: #000000; stroke-width: 0.8"/>
      </g>
     </g>
     <g id="text_2">
      <!-- 10 -->
      <g transform="translate(108.565739 322.182437) scale(0.1 -0.1)">
       <defs>
        <path id="DejaVuSans-31" d="M 794 531 
L 1825 531 
L 1825 4091 
L 703 3866 
L 703 4441 
L 1819 4666 
L 2450 4666 
L 2450 531 
L 3481 531 
L 3481 0 
L 794 0 
L 794 531 
z
" transform="scale(0.015625)"/>
       </defs>
       <use xlink:href="#DejaVuSans-31"/>
       <use xlink:href="#DejaVuSans-30" transform="translate(63.623047 0)"/>
      </g>
     </g>
    </g>
    <g id="xtick_3">
     <g id="line2d_3">
      <g>
       <use xlink:href="#m954a9526cc" x="156.023751" y="307.584" style="stroke: #000000; stroke-width: 0.8"/>
      </g>
     </g>
     <g id="text_3">
      <!-- 20 -->
      <g transform="translate(149.661251 322.182437) scale(0.1 -0.1)">
       <defs>
        <path id="DejaVuSans-32" d="M 1228 531 
L 3431 531 
L 3431 0 
L 469 0 
L 469 531 
Q 828 903 1448 1529 
Q 2069 2156 2228 2338 
Q 2531 2678 2651 2914 
Q 2772 3150 2772 3378 
Q 2772 3750 2511 3984 
Q 2250 4219 1831 4219 
Q 1534 4219 1204 4116 
Q 875 4013 500 3803 
L 500 4441 
Q 881 4594 1212 4672 
Q 1544 4750 1819 4750 
Q 2544 4750 2975 4387 
Q 3406 4025 3406 3419 
Q 3406 3131 3298 2873 
Q 3191 2616 2906 2266 
Q 2828 2175 2409 1742 
Q 1991 1309 1228 531 
z
" transform="scale(0.015625)"/>
       </defs>
       <use xlink:href="#DejaVuSans-32"/>
       <use xlink:href="#DejaVuSans-30" transform="translate(63.623047 0)"/>
      </g>
     </g>
    </g>
    <g id="xtick_4">
     <g id="line2d_4">
      <g>
       <use xlink:href="#m954a9526cc" x="197.119264" y="307.584" style="stroke: #000000; stroke-width: 0.8"/>
      </g>
     </g>
     <g id="text_4">
      <!-- 30 -->
      <g transform="translate(190.756764 322.182437) scale(0.1 -0.1)">
       <defs>
        <path id="DejaVuSans-33" d="M 2597 2516 
Q 3050 2419 3304 2112 
Q 3559 1806 3559 1356 
Q 3559 666 3084 287 
Q 2609 -91 1734 -91 
Q 1441 -91 1130 -33 
Q 819 25 488 141 
L 488 750 
Q 750 597 1062 519 
Q 1375 441 1716 441 
Q 2309 441 2620 675 
Q 2931 909 2931 1356 
Q 2931 1769 2642 2001 
Q 2353 2234 1838 2234 
L 1294 2234 
L 1294 2753 
L 1863 2753 
Q 2328 2753 2575 2939 
Q 2822 3125 2822 3475 
Q 2822 3834 2567 4026 
Q 2313 4219 1838 4219 
Q 1578 4219 1281 4162 
Q 984 4106 628 3988 
L 628 4550 
Q 988 4650 1302 4700 
Q 1616 4750 1894 4750 
Q 2613 4750 3031 4423 
Q 3450 4097 3450 3541 
Q 3450 3153 3228 2886 
Q 3006 2619 2597 2516 
z
" transform="scale(0.015625)"/>
       </defs>
       <use xlink:href="#DejaVuSans-33"/>
       <use xlink:href="#DejaVuSans-30" transform="translate(63.623047 0)"/>
      </g>
     </g>
    </g>
    <g id="xtick_5">
     <g id="line2d_5">
      <g>
       <use xlink:href="#m954a9526cc" x="238.214776" y="307.584" style="stroke: #000000; stroke-width: 0.8"/>
      </g>
     </g>
     <g id="text_5">
      <!-- 40 -->
      <g transform="translate(231.852276 322.182437) scale(0.1 -0.1)">
       <defs>
        <path id="DejaVuSans-34" d="M 2419 4116 
L 825 1625 
L 2419 1625 
L 2419 4116 
z
M 2253 4666 
L 3047 4666 
L 3047 1625 
L 3713 1625 
L 3713 1100 
L 3047 1100 
L 3047 0 
L 2419 0 
L 2419 1100 
L 313 1100 
L 313 1709 
L 2253 4666 
z
" transform="scale(0.015625)"/>
       </defs>
       <use xlink:href="#DejaVuSans-34"/>
       <use xlink:href="#DejaVuSans-30" transform="translate(63.623047 0)"/>
      </g>
     </g>
    </g>
    <g id="xtick_6">
     <g id="line2d_6">
      <g>
       <use xlink:href="#m954a9526cc" x="279.310288" y="307.584" style="stroke: #000000; stroke-width: 0.8"/>
      </g>
     </g>
     <g id="text_6">
      <!-- 50 -->
      <g transform="translate(272.947788 322.182437) scale(0.1 -0.1)">
       <defs>
        <path id="DejaVuSans-35" d="M 691 4666 
L 3169 4666 
L 3169 4134 
L 1269 4134 
L 1269 2991 
Q 1406 3038 1543 3061 
Q 1681 3084 1819 3084 
Q 2600 3084 3056 2656 
Q 3513 2228 3513 1497 
Q 3513 744 3044 326 
Q 2575 -91 1722 -91 
Q 1428 -91 1123 -41 
Q 819 9 494 109 
L 494 744 
Q 775 591 1075 516 
Q 1375 441 1709 441 
Q 2250 441 2565 725 
Q 2881 1009 2881 1497 
Q 2881 1984 2565 2268 
Q 2250 2553 1709 2553 
Q 1456 2553 1204 2497 
Q 953 2441 691 2322 
L 691 4666 
z
" transform="scale(0.015625)"/>
       </defs>
       <use xlink:href="#DejaVuSans-35"/>
       <use xlink:href="#DejaVuSans-30" transform="translate(63.623047 0)"/>
      </g>
     </g>
    </g>
    <g id="xtick_7">
     <g id="line2d_7">
      <g>
       <use xlink:href="#m954a9526cc" x="320.4058" y="307.584" style="stroke: #000000; stroke-width: 0.8"/>
      </g>
     </g>
     <g id="text_7">
      <!-- 60 -->
      <g transform="translate(314.0433 322.182437) scale(0.1 -0.1)">
       <defs>
        <path id="DejaVuSans-36" d="M 2113 2584 
Q 1688 2584 1439 2293 
Q 1191 2003 1191 1497 
Q 1191 994 1439 701 
Q 1688 409 2113 409 
Q 2538 409 2786 701 
Q 3034 994 3034 1497 
Q 3034 2003 2786 2293 
Q 2538 2584 2113 2584 
z
M 3366 4563 
L 3366 3988 
Q 3128 4100 2886 4159 
Q 2644 4219 2406 4219 
Q 1781 4219 1451 3797 
Q 1122 3375 1075 2522 
Q 1259 2794 1537 2939 
Q 1816 3084 2150 3084 
Q 2853 3084 3261 2657 
Q 3669 2231 3669 1497 
Q 3669 778 3244 343 
Q 2819 -91 2113 -91 
Q 1303 -91 875 529 
Q 447 1150 447 2328 
Q 447 3434 972 4092 
Q 1497 4750 2381 4750 
Q 2619 4750 2861 4703 
Q 3103 4656 3366 4563 
z
" transform="scale(0.015625)"/>
       </defs>
       <use xlink:href="#DejaVuSans-36"/>
       <use xlink:href="#DejaVuSans-30" transform="translate(63.623047 0)"/>
      </g>
     </g>
    </g>
    <g id="xtick_8">
     <g id="line2d_8">
      <g>
       <use xlink:href="#m954a9526cc" x="361.501312" y="307.584" style="stroke: #000000; stroke-width: 0.8"/>
      </g>
     </g>
     <g id="text_8">
      <!-- 70 -->
      <g transform="translate(355.138812 322.182437) scale(0.1 -0.1)">
       <defs>
        <path id="DejaVuSans-37" d="M 525 4666 
L 3525 4666 
L 3525 4397 
L 1831 0 
L 1172 0 
L 2766 4134 
L 525 4134 
L 525 4666 
z
" transform="scale(0.015625)"/>
       </defs>
       <use xlink:href="#DejaVuSans-37"/>
       <use xlink:href="#DejaVuSans-30" transform="translate(63.623047 0)"/>
      </g>
     </g>
    </g>
    <g id="xtick_9">
     <g id="line2d_9">
      <g>
       <use xlink:href="#m954a9526cc" x="402.596824" y="307.584" style="stroke: #000000; stroke-width: 0.8"/>
      </g>
     </g>
     <g id="text_9">
      <!-- 80 -->
      <g transform="translate(396.234324 322.182437) scale(0.1 -0.1)">
       <defs>
        <path id="DejaVuSans-38" d="M 2034 2216 
Q 1584 2216 1326 1975 
Q 1069 1734 1069 1313 
Q 1069 891 1326 650 
Q 1584 409 2034 409 
Q 2484 409 2743 651 
Q 3003 894 3003 1313 
Q 3003 1734 2745 1975 
Q 2488 2216 2034 2216 
z
M 1403 2484 
Q 997 2584 770 2862 
Q 544 3141 544 3541 
Q 544 4100 942 4425 
Q 1341 4750 2034 4750 
Q 2731 4750 3128 4425 
Q 3525 4100 3525 3541 
Q 3525 3141 3298 2862 
Q 3072 2584 2669 2484 
Q 3125 2378 3379 2068 
Q 3634 1759 3634 1313 
Q 3634 634 3220 271 
Q 2806 -91 2034 -91 
Q 1263 -91 848 271 
Q 434 634 434 1313 
Q 434 1759 690 2068 
Q 947 2378 1403 2484 
z
M 1172 3481 
Q 1172 3119 1398 2916 
Q 1625 2713 2034 2713 
Q 2441 2713 2670 2916 
Q 2900 3119 2900 3481 
Q 2900 3844 2670 4047 
Q 2441 4250 2034 4250 
Q 1625 4250 1398 4047 
Q 1172 3844 1172 3481 
z
" transform="scale(0.015625)"/>
       </defs>
       <use xlink:href="#DejaVuSans-38"/>
       <use xlink:href="#DejaVuSans-30" transform="translate(63.623047 0)"/>
      </g>
     </g>
    </g>
   </g>
   <g id="matplotlib.axis_2">
    <g id="ytick_1">
     <g id="line2d_10">
      <defs>
       <path id="mf3fe73c38b" d="M 0 0 
L -3.5 0 
" style="stroke: #000000; stroke-width: 0.8"/>
      </defs>
      <g>
       <use xlink:href="#mf3fe73c38b" x="57.6" y="295.542744" style="stroke: #000000; stroke-width: 0.8"/>
      </g>
     </g>
     <g id="text_10">
      <!-- 0.0 -->
      <g transform="translate(34.696875 299.341962) scale(0.1 -0.1)">
       <defs>
        <path id="DejaVuSans-2e" d="M 684 794 
L 1344 794 
L 1344 0 
L 684 0 
L 684 794 
z
" transform="scale(0.015625)"/>
       </defs>
       <use xlink:href="#DejaVuSans-30"/>
       <use xlink:href="#DejaVuSans-2e" transform="translate(63.623047 0)"/>
       <use xlink:href="#DejaVuSans-30" transform="translate(95.410156 0)"/>
      </g>
     </g>
    </g>
    <g id="ytick_2">
     <g id="line2d_11">
      <g>
       <use xlink:href="#mf3fe73c38b" x="57.6" y="247.493462" style="stroke: #000000; stroke-width: 0.8"/>
      </g>
     </g>
     <g id="text_11">
      <!-- 0.1 -->
      <g transform="translate(34.696875 251.292681) scale(0.1 -0.1)">
       <use xlink:href="#DejaVuSans-30"/>
       <use xlink:href="#DejaVuSans-2e" transform="translate(63.623047 0)"/>
       <use xlink:href="#DejaVuSans-31" transform="translate(95.410156 0)"/>
      </g>
     </g>
    </g>
    <g id="ytick_3">
     <g id="line2d_12">
      <g>
       <use xlink:href="#mf3fe73c38b" x="57.6" y="199.44418" style="stroke: #000000; stroke-width: 0.8"/>
      </g>
     </g>
     <g id="text_12">
      <!-- 0.2 -->
      <g transform="translate(34.696875 203.243399) scale(0.1 -0.1)">
       <use xlink:href="#DejaVuSans-30"/>
       <use xlink:href="#DejaVuSans-2e" transform="translate(63.623047 0)"/>
       <use xlink:href="#DejaVuSans-32" transform="translate(95.410156 0)"/>
      </g>
     </g>
    </g>
    <g id="ytick_4">
     <g id="line2d_13">
      <g>
       <use xlink:href="#mf3fe73c38b" x="57.6" y="151.394899" style="stroke: #000000; stroke-width: 0.8"/>
      </g>
     </g>
     <g id="text_13">
      <!-- 0.3 -->
      <g transform="translate(34.696875 155.194117) scale(0.1 -0.1)">
       <use xlink:href="#DejaVuSans-30"/>
       <use xlink:href="#DejaVuSans-2e" transform="translate(63.623047 0)"/>
       <use xlink:href="#DejaVuSans-33" transform="translate(95.410156 0)"/>
      </g>
     </g>
    </g>
    <g id="ytick_5">
     <g id="line2d_14">
      <g>
       <use xlink:href="#mf3fe73c38b" x="57.6" y="103.345617" style="stroke: #000000; stroke-width: 0.8"/>
      </g>
     </g>
     <g id="text_14">
      <!-- 0.4 -->
      <g transform="translate(34.696875 107.144836) scale(0.1 -0.1)">
       <use xlink:href="#DejaVuSans-30"/>
       <use xlink:href="#DejaVuSans-2e" transform="translate(63.623047 0)"/>
       <use xlink:href="#DejaVuSans-34" transform="translate(95.410156 0)"/>
      </g>
     </g>
    </g>
    <g id="ytick_6">
     <g id="line2d_15">
      <g>
       <use xlink:href="#mf3fe73c38b" x="57.6" y="55.296335" style="stroke: #000000; stroke-width: 0.8"/>
      </g>
     </g>
     <g id="text_15">
      <!-- 0.5 -->
      <g transform="translate(34.696875 59.095554) scale(0.1 -0.1)">
       <use xlink:href="#DejaVuSans-30"/>
       <use xlink:href="#DejaVuSans-2e" transform="translate(63.623047 0)"/>
       <use xlink:href="#DejaVuSans-35" transform="translate(95.410156 0)"/>
      </g>
     </g>
    </g>
   </g>
   <g id="line2d_16">
    <path d="M 73.832727 295.488 
L 77.942278 295.456718 
L 82.05183 295.401974 
L 86.161381 295.323769 
L 90.270932 295.222102 
L 94.380483 295.096974 
L 98.490035 294.854538 
L 102.599586 294.666845 
L 106.709137 294.463512 
L 110.818688 294.088127 
L 114.928239 293.767485 
L 119.037791 293.274793 
L 123.147342 292.48492 
L 127.256893 291.749791 
L 131.366444 290.725303 
L 135.475995 290.005815 
L 139.585547 288.910942 
L 143.695098 287.761325 
L 147.804649 286.838504 
L 151.9142 285.837477 
L 156.023751 284.656578 
L 160.133303 283.264526 
L 164.242854 282.545038 
L 168.352405 281.747344 
L 172.461956 280.840164 
L 176.571507 279.800035 
L 180.681059 278.861572 
L 184.79061 277.891828 
L 188.900161 277.062852 
L 193.009712 276.2808 
L 197.119264 275.52221 
L 201.228815 274.787081 
L 205.338366 273.715669 
L 209.447917 273.488874 
L 213.557468 272.83195 
L 217.66702 272.573873 
L 221.776571 272.83195 
L 225.886122 272.026437 
L 229.995673 271.61977 
L 234.105224 271.463359 
L 238.214776 271.213102 
L 242.324327 271.486821 
L 246.433878 271.197461 
L 250.543429 271.690154 
L 254.65298 271.103615 
L 258.762532 271.314769 
L 262.872083 272.104642 
L 266.981634 271.862206 
L 271.091185 272.190668 
L 275.200736 271.729257 
L 279.310288 271.572846 
L 283.419839 271.353872 
L 287.52939 272.034257 
L 291.638941 271.729257 
L 295.748493 271.455539 
L 299.858044 271.674513 
L 303.967595 271.611949 
L 308.077146 271.260026 
L 312.186697 271.611949 
L 316.296249 271.697975 
L 320.4058 271.072333 
L 324.515351 271.510282 
L 328.624902 271.127077 
L 332.734453 271.690154 
L 336.844005 271.103615 
L 340.953556 271.392974 
L 345.063107 271.737077 
L 349.172658 272.002975 
L 353.282209 271.791821 
L 357.391761 271.870026 
L 361.501312 272.128103 
L 365.610863 271.940411 
L 369.720414 271.580667 
L 373.829965 271.666693 
L 377.939517 271.838744 
L 382.049068 271.588487 
L 386.158619 271.823103 
L 390.26817 271.228744 
L 394.377722 271.502462 
L 398.487273 271.197461 
" clip-path="url(#pe22bc72aa0)" style="fill: none; stroke: #1f77b4; stroke-width: 1.5; stroke-linecap: square"/>
   </g>
   <g id="line2d_17">
    <path d="M 73.832727 295.073512 
L 77.942278 294.557358 
L 82.05183 293.571972 
L 86.161381 292.328509 
L 90.270932 290.647097 
L 94.380483 288.402608 
L 98.490035 285.759272 
L 102.599586 282.920423 
L 106.709137 278.548751 
L 110.818688 273.942464 
L 114.928239 268.116176 
L 119.037791 261.977067 
L 123.147342 254.876034 
L 127.256893 247.149359 
L 131.366444 238.570247 
L 135.475995 229.279468 
L 139.585547 219.54292 
L 143.695098 210.353807 
L 147.804649 202.087516 
L 151.9142 192.452634 
L 156.023751 183.842241 
L 160.133303 176.77249 
L 164.242854 169.374277 
L 168.352405 164.642861 
L 172.461956 159.019907 
L 176.571507 156.994392 
L 180.681059 154.515286 
L 184.79061 152.3099 
L 188.900161 149.588358 
L 193.009712 148.141562 
L 197.119264 146.890278 
L 201.228815 145.850149 
L 205.338366 144.731815 
L 209.447917 144.583225 
L 213.557468 144.841302 
L 217.66702 145.631175 
L 221.776571 147.461176 
L 225.886122 146.553996 
L 229.995673 146.31156 
L 234.105224 146.530534 
L 238.214776 146.053483 
L 242.324327 145.146302 
L 246.433878 146.037842 
L 250.543429 146.381945 
L 254.65298 145.013353 
L 258.762532 146.350662 
L 262.872083 145.036815 
L 266.981634 145.70938 
L 271.091185 145.357456 
L 275.200736 145.068097 
L 279.310288 145.545149 
L 283.419839 145.294892 
L 287.52939 145.396559 
L 291.638941 145.975277 
L 295.748493 144.802199 
L 299.858044 145.208866 
L 303.967595 145.537328 
L 308.077146 145.740662 
L 312.186697 146.16297 
L 316.296249 146.233355 
L 320.4058 144.81784 
L 324.515351 144.544122 
L 328.624902 144.262583 
L 332.734453 144.747456 
L 336.844005 144.911687 
L 340.953556 145.678098 
L 345.063107 145.912713 
L 349.172658 145.631175 
L 353.282209 144.598866 
L 357.391761 144.020147 
L 361.501312 145.028994 
L 365.610863 144.653609 
L 369.720414 144.911687 
L 373.829965 144.622327 
L 377.939517 144.872584 
L 382.049068 144.770917 
L 386.158619 144.082711 
L 390.26817 144.989892 
L 394.377722 143.699506 
L 398.487273 144.082711 
" clip-path="url(#pe22bc72aa0)" style="fill: none; stroke: #ff7f0e; stroke-width: 1.5; stroke-linecap: square"/>
   </g>
   <g id="line2d_18">
    <path d="M 73.832727 292.993254 
L 77.942278 289.997994 
L 82.05183 284.781707 
L 86.161381 278.306315 
L 90.270932 269.562973 
L 94.380483 260.006296 
L 98.490035 247.290128 
L 102.599586 234.167294 
L 106.709137 220.066894 
L 110.818688 204.183416 
L 114.928239 187.861988 
L 119.037791 170.539534 
L 123.147342 153.264003 
L 127.256893 135.878985 
L 131.366444 119.017941 
L 135.475995 103.572412 
L 139.585547 91.036117 
L 143.695098 82.816749 
L 147.804649 75.309049 
L 151.9142 72.845585 
L 156.023751 69.62353 
L 160.133303 67.120963 
L 164.242854 65.181474 
L 168.352405 61.935958 
L 172.461956 60.184161 
L 176.571507 59.824417 
L 180.681059 57.822363 
L 184.79061 56.062746 
L 188.900161 55.413643 
L 193.009712 55.093002 
L 197.119264 54.850565 
L 201.228815 55.053899 
L 205.338366 54.005949 
L 209.447917 54.655052 
L 213.557468 55.249412 
L 217.66702 54.553386 
L 221.776571 55.327617 
L 225.886122 54.678514 
L 229.995673 54.850565 
L 234.105224 55.914156 
L 238.214776 54.866207 
L 242.324327 55.765566 
L 246.433878 55.053899 
L 250.543429 54.271847 
L 254.65298 56.164413 
L 258.762532 57.087234 
L 262.872083 56.891721 
L 266.981634 56.195695 
L 271.091185 54.365693 
L 275.200736 55.9689 
L 279.310288 54.647232 
L 283.419839 55.108643 
L 287.52939 54.889668 
L 291.638941 54.905309 
L 295.748493 54.858386 
L 299.858044 54.694155 
L 303.967595 55.085181 
L 308.077146 55.139925 
L 312.186697 56.313003 
L 316.296249 55.859413 
L 320.4058 57.079414 
L 324.515351 56.305182 
L 328.624902 56.977747 
L 332.734453 57.220183 
L 336.844005 56.539798 
L 340.953556 56.492875 
L 345.063107 55.382361 
L 349.172658 55.358899 
L 353.282209 55.022617 
L 357.391761 55.444925 
L 361.501312 53.568 
L 365.610863 54.279667 
L 369.720414 55.139925 
L 373.829965 55.945438 
L 377.939517 55.734284 
L 382.049068 55.280694 
L 386.158619 55.468387 
L 390.26817 54.342232 
L 394.377722 54.131078 
L 398.487273 54.037231 
" clip-path="url(#pe22bc72aa0)" style="fill: none; stroke: #2ca02c; stroke-width: 1.5; stroke-linecap: square"/>
   </g>
   <g id="line2d_19">
    <path d="M 73.832727 285.87658 
L 77.942278 267.068226 
L 82.05183 243.583201 
L 86.161381 218.534072 
L 90.270932 192.562122 
L 94.380483 166.113119 
L 98.490035 141.861683 
L 102.599586 121.794226 
L 106.709137 102.610488 
L 110.818688 88.22855 
L 114.928239 77.913282 
L 119.037791 70.97648 
L 123.147342 66.354552 
L 127.256893 63.288908 
L 131.366444 61.161726 
L 135.475995 58.002235 
L 139.585547 56.258259 
L 143.695098 56.915183 
L 147.804649 56.477234 
L 151.9142 55.343258 
L 156.023751 54.819283 
L 160.133303 54.232744 
L 164.242854 54.334411 
L 168.352405 55.562233 
L 172.461956 54.748899 
L 176.571507 55.124284 
L 180.681059 55.749925 
L 184.79061 56.555439 
L 188.900161 56.328644 
L 193.009712 57.62685 
L 197.119264 57.001209 
L 201.228815 55.507489 
L 205.338366 56.86826 
L 209.447917 56.039285 
L 213.557468 54.61595 
L 217.66702 54.420437 
L 221.776571 55.108643 
L 225.886122 55.343258 
L 229.995673 54.960053 
L 234.105224 55.914156 
L 238.214776 55.757746 
L 242.324327 55.398002 
L 246.433878 56.57108 
L 250.543429 54.858386 
L 254.65298 54.670693 
L 258.762532 54.780181 
L 262.872083 54.858386 
L 266.981634 55.014796 
L 271.091185 54.303129 
L 275.200736 54.936591 
L 279.310288 55.36672 
L 283.419839 54.123257 
L 287.52939 54.983514 
L 291.638941 55.570053 
L 295.748493 54.701976 
L 299.858044 55.22595 
L 303.967595 55.765566 
L 308.077146 55.468387 
L 312.186697 54.631591 
L 316.296249 55.132104 
L 320.4058 55.679541 
L 324.515351 55.491848 
L 328.624902 55.945438 
L 332.734453 53.935564 
L 336.844005 54.694155 
L 340.953556 54.224924 
L 345.063107 55.616977 
L 349.172658 55.687361 
L 353.282209 56.524157 
L 357.391761 54.936591 
L 361.501312 56.242618 
L 365.610863 55.437105 
L 369.720414 55.781207 
L 373.829965 54.991335 
L 377.939517 54.999155 
L 382.049068 54.983514 
L 386.158619 54.569027 
L 390.26817 54.756719 
L 394.377722 54.748899 
L 398.487273 54.256206 
" clip-path="url(#pe22bc72aa0)" style="fill: none; stroke: #d62728; stroke-width: 1.5; stroke-linecap: square"/>
   </g>
   <g id="line2d_20">
    <path d="M 73.832727 272.128103 
L 77.942278 221.50587 
L 82.05183 178.923133 
L 86.161381 143.76207 
L 90.270932 116.358964 
L 94.380483 97.495867 
L 98.490035 82.410082 
L 102.599586 72.92379 
L 106.709137 66.651732 
L 110.818688 61.255572 
L 114.928239 60.199802 
L 119.037791 57.744158 
L 123.147342 57.478261 
L 127.256893 55.163386 
L 131.366444 56.508516 
L 135.475995 55.6639 
L 139.585547 56.289541 
L 143.695098 55.679541 
L 147.804649 56.618003 
L 151.9142 56.664926 
L 156.023751 55.398002 
L 160.133303 55.914156 
L 164.242854 55.616977 
L 168.352405 56.328644 
L 172.461956 56.539798 
L 176.571507 56.649285 
L 180.681059 56.829157 
L 184.79061 55.609156 
L 188.900161 56.180054 
L 193.009712 55.530951 
L 197.119264 55.343258 
L 201.228815 56.391208 
L 205.338366 57.384414 
L 209.447917 56.641465 
L 213.557468 56.406849 
L 217.66702 54.889668 
L 221.776571 54.655052 
L 225.886122 55.906336 
L 229.995673 55.687361 
L 234.105224 56.899542 
L 238.214776 54.670693 
L 242.324327 56.11749 
L 246.433878 56.727491 
L 250.543429 56.993388 
L 254.65298 56.281721 
L 258.762532 57.61903 
L 262.872083 55.843772 
L 266.981634 56.42249 
L 271.091185 55.765566 
L 275.200736 57.853646 
L 279.310288 56.930824 
L 283.419839 56.164413 
L 287.52939 55.882874 
L 291.638941 55.530951 
L 295.748493 55.546592 
L 299.858044 55.288515 
L 303.967595 56.26608 
L 308.077146 55.343258 
L 312.186697 54.928771 
L 316.296249 54.287488 
L 320.4058 55.038258 
L 324.515351 55.202489 
L 328.624902 55.398002 
L 332.734453 55.460566 
L 336.844005 55.929797 
L 340.953556 55.804669 
L 345.063107 54.983514 
L 349.172658 55.585694 
L 353.282209 55.116463 
L 357.391761 54.670693 
L 361.501312 53.919923 
L 365.610863 54.084154 
L 369.720414 54.952232 
L 373.829965 55.413643 
L 377.939517 56.070567 
L 382.049068 55.499669 
L 386.158619 55.429284 
L 390.26817 55.656079 
L 394.377722 55.585694 
L 398.487273 54.61595 
" clip-path="url(#pe22bc72aa0)" style="fill: none; stroke: #9467bd; stroke-width: 1.5; stroke-linecap: square"/>
   </g>
   <g id="patch_3">
    <path d="M 57.6 307.584 
L 57.6 41.472 
" style="fill: none; stroke: #000000; stroke-width: 0.8; stroke-linejoin: miter; stroke-linecap: square"/>
   </g>
   <g id="patch_4">
    <path d="M 414.72 307.584 
L 414.72 41.472 
" style="fill: none; stroke: #000000; stroke-width: 0.8; stroke-linejoin: miter; stroke-linecap: square"/>
   </g>
   <g id="patch_5">
    <path d="M 57.6 307.584 
L 414.72 307.584 
" style="fill: none; stroke: #000000; stroke-width: 0.8; stroke-linejoin: miter; stroke-linecap: square"/>
   </g>
   <g id="patch_6">
    <path d="M 57.6 41.472 
L 414.72 41.472 
" style="fill: none; stroke: #000000; stroke-width: 0.8; stroke-linejoin: miter; stroke-linecap: square"/>
   </g>
  </g>
 </g>
 <defs>
  <clipPath id="pe22bc72aa0">
   <rect x="57.6" y="41.472" width="357.12" height="266.112"/>
  </clipPath>
 </defs>
</svg>
