<?xml version="1.0" encoding="utf-8" standalone="no"?>
<!DOCTYPE svg PUBLIC "-//W3C//DTD SVG 1.1//EN"
  "http://www.w3.org/Graphics/SVG/1.1/DTD/svg11.dtd">
<svg xmlns:xlink="http://www.w3.org/1999/xlink" width="460.8pt" height="345.6pt" viewBox="0 0 460.8 345.6" xmlns="http://www.w3.org/2000/svg" version="1.1">
 <metadata>
  <rdf:RDF xmlns:dc="http://purl.org/dc/elements/1.1/" xmlns:cc="http://creativecommons.org/ns#" xmlns:rdf="http://www.w3.org/1999/02/22-rdf-syntax-ns#">
   <cc:Work>
    <dc:type rdf:resource="http://purl.org/dc/dcmitype/StillImage"/>
    <dc:date>2025-11-05T12:18:33.553077</dc:date>
    <dc:format>image/svg+xml</dc:format>
    <dc:creator>
     <cc:Agent>
      <dc:title>Matplotlib v3.10.6, https://matplotlib.org/</dc:title>
     </cc:Agent>
    </dc:creator>
   </cc:Work>
  </rdf:RDF>
 </metadata>
 <defs>
  <style type="text/css">*{stroke-linejoin: round; stroke-linecap: butt}</style>
 </defs>
 <g id="figure_1">
  <g id="patch_1">
   <path d="M 0 345.6 
L 460.8 345.6 
L 460.8 0 
L 0 0 
z
" style="fill: #ffffff"/>
  </g>
  <g id="axes_1">
   <g id="patch_2">
    <path d="M 57.6 241.92 
L 414.72 241.92 
L 414.72 41.472 
L 57.6 41.472 
z
" style="fill: #ffffff"/>
   </g>
   <g id="matplotlib.axis_1">
    <g id="xtick_1">
     <g id="line2d_1">
      <defs>
       <path id="m1a2a49e21b" d="M 0 0 
L 0 3.5 
" style="stroke: #000000; stroke-width: 0.8"/>
      </defs>
      <g>
       <use xlink:href="#m1a2a49e21b" x="73.832727" y="241.92" style="stroke: #000000; stroke-width: 0.8"/>
      </g>
     </g>
     <g id="text_1">
      <!-- 0 -->
      <g transform="translate(70.651477 256.518438) scale(0.1 -0.1)">
       <defs>
        <path id="DejaVuSans-30" d="M 2034 4250 
Q 1547 4250 1301 3770 
Q 1056 3291 1056 2328 
Q 1056 1369 1301 889 
Q 1547 409 2034 409 
Q 2525 409 2770 889 
Q 3016 1369 3016 2328 
Q 3016 3291 2770 3770 
Q 2525 4250 2034 4250 
z
M 2034 4750 
Q 2819 4750 3233 4129 
Q 3647 3509 3647 2328 
Q 3647 1150 3233 529 
Q 2819 -91 2034 -91 
Q 1250 -91 836 529 
Q 422 1150 422 2328 
Q 422 3509 836 4129 
Q 1250 4750 2034 4750 
z
" transform="scale(0.015625)"/>
       </defs>
       <use xlink:href="#DejaVuSans-30"/>
      </g>
     </g>
    </g>
    <g id="xtick_2">
     <g id="line2d_2">
      <g>
       <use xlink:href="#m1a2a49e21b" x="139.419504" y="241.92" style="stroke: #000000; stroke-width: 0.8"/>
      </g>
     </g>
     <g id="text_2">
      <!-- 20 -->
      <g transform="translate(133.057004 256.518438) scale(0.1 -0.1)">
       <defs>
        <path id="DejaVuSans-32" d="M 1228 531 
L 3431 531 
L 3431 0 
L 469 0 
L 469 531 
Q 828 903 1448 1529 
Q 2069 2156 2228 2338 
Q 2531 2678 2651 2914 
Q 2772 3150 2772 3378 
Q 2772 3750 2511 3984 
Q 2250 4219 1831 4219 
Q 1534 4219 1204 4116 
Q 875 4013 500 3803 
L 500 4441 
Q 881 4594 1212 4672 
Q 1544 4750 1819 4750 
Q 2544 4750 2975 4387 
Q 3406 4025 3406 3419 
Q 3406 3131 3298 2873 
Q 3191 2616 2906 2266 
Q 2828 2175 2409 1742 
Q 1991 1309 1228 531 
z
" transform="scale(0.015625)"/>
       </defs>
       <use xlink:href="#DejaVuSans-32"/>
       <use xlink:href="#DejaVuSans-30" transform="translate(63.623047 0)"/>
      </g>
     </g>
    </g>
    <g id="xtick_3">
     <g id="line2d_3">
      <g>
       <use xlink:href="#m1a2a49e21b" x="205.006281" y="241.92" style="stroke: #000000; stroke-width: 0.8"/>
      </g>
     </g>
     <g id="text_3">
      <!-- 40 -->
      <g transform="translate(198.643781 256.518438) scale(0.1 -0.1)">
       <defs>
        <path id="DejaVuSans-34" d="M 2419 4116 
L 825 1625 
L 2419 1625 
L 2419 4116 
z
M 2253 4666 
L 3047 4666 
L 3047 1625 
L 3713 1625 
L 3713 1100 
L 3047 1100 
L 3047 0 
L 2419 0 
L 2419 1100 
L 313 1100 
L 313 1709 
L 2253 4666 
z
" transform="scale(0.015625)"/>
       </defs>
       <use xlink:href="#DejaVuSans-34"/>
       <use xlink:href="#DejaVuSans-30" transform="translate(63.623047 0)"/>
      </g>
     </g>
    </g>
    <g id="xtick_4">
     <g id="line2d_4">
      <g>
       <use xlink:href="#m1a2a49e21b" x="270.593058" y="241.92" style="stroke: #000000; stroke-width: 0.8"/>
      </g>
     </g>
     <g id="text_4">
      <!-- 60 -->
      <g transform="translate(264.230558 256.518438) scale(0.1 -0.1)">
       <defs>
        <path id="DejaVuSans-36" d="M 2113 2584 
Q 1688 2584 1439 2293 
Q 1191 2003 1191 1497 
Q 1191 994 1439 701 
Q 1688 409 2113 409 
Q 2538 409 2786 701 
Q 3034 994 3034 1497 
Q 3034 2003 2786 2293 
Q 2538 2584 2113 2584 
z
M 3366 4563 
L 3366 3988 
Q 3128 4100 2886 4159 
Q 2644 4219 2406 4219 
Q 1781 4219 1451 3797 
Q 1122 3375 1075 2522 
Q 1259 2794 1537 2939 
Q 1816 3084 2150 3084 
Q 2853 3084 3261 2657 
Q 3669 2231 3669 1497 
Q 3669 778 3244 343 
Q 2819 -91 2113 -91 
Q 1303 -91 875 529 
Q 447 1150 447 2328 
Q 447 3434 972 4092 
Q 1497 4750 2381 4750 
Q 2619 4750 2861 4703 
Q 3103 4656 3366 4563 
z
" transform="scale(0.015625)"/>
       </defs>
       <use xlink:href="#DejaVuSans-36"/>
       <use xlink:href="#DejaVuSans-30" transform="translate(63.623047 0)"/>
      </g>
     </g>
    </g>
    <g id="xtick_5">
     <g id="line2d_5">
      <g>
       <use xlink:href="#m1a2a49e21b" x="336.179835" y="241.92" style="stroke: #000000; stroke-width: 0.8"/>
      </g>
     </g>
     <g id="text_5">
      <!-- 80 -->
      <g transform="translate(329.817335 256.518438) scale(0.1 -0.1)">
       <defs>
        <path id="DejaVuSans-38" d="M 2034 2216 
Q 1584 2216 1326 1975 
Q 1069 1734 1069 1313 
Q 1069 891 1326 650 
Q 1584 409 2034 409 
Q 2484 409 2743 651 
Q 3003 894 3003 1313 
Q 3003 1734 2745 1975 
Q 2488 2216 2034 2216 
z
M 1403 2484 
Q 997 2584 770 2862 
Q 544 3141 544 3541 
Q 544 4100 942 4425 
Q 1341 4750 2034 4750 
Q 2731 4750 3128 4425 
Q 3525 4100 3525 3541 
Q 3525 3141 3298 2862 
Q 3072 2584 2669 2484 
Q 3125 2378 3379 2068 
Q 3634 1759 3634 1313 
Q 3634 634 3220 271 
Q 2806 -91 2034 -91 
Q 1263 -91 848 271 
Q 434 634 434 1313 
Q 434 1759 690 2068 
Q 947 2378 1403 2484 
z
M 1172 3481 
Q 1172 3119 1398 2916 
Q 1625 2713 2034 2713 
Q 2441 2713 2670 2916 
Q 2900 3119 2900 3481 
Q 2900 3844 2670 4047 
Q 2441 4250 2034 4250 
Q 1625 4250 1398 4047 
Q 1172 3844 1172 3481 
z
" transform="scale(0.015625)"/>
       </defs>
       <use xlink:href="#DejaVuSans-38"/>
       <use xlink:href="#DejaVuSans-30" transform="translate(63.623047 0)"/>
      </g>
     </g>
    </g>
    <g id="xtick_6">
     <g id="line2d_6">
      <g>
       <use xlink:href="#m1a2a49e21b" x="401.766612" y="241.92" style="stroke: #000000; stroke-width: 0.8"/>
      </g>
     </g>
     <g id="text_6">
      <!-- 100 -->
      <g transform="translate(392.222862 256.518438) scale(0.1 -0.1)">
       <defs>
        <path id="DejaVuSans-31" d="M 794 531 
L 1825 531 
L 1825 4091 
L 703 3866 
L 703 4441 
L 1819 4666 
L 2450 4666 
L 2450 531 
L 3481 531 
L 3481 0 
L 794 0 
L 794 531 
z
" transform="scale(0.015625)"/>
       </defs>
       <use xlink:href="#DejaVuSans-31"/>
       <use xlink:href="#DejaVuSans-30" transform="translate(63.623047 0)"/>
       <use xlink:href="#DejaVuSans-30" transform="translate(127.246094 0)"/>
      </g>
     </g>
    </g>
   </g>
   <g id="matplotlib.axis_2">
    <g id="ytick_1">
     <g id="line2d_7">
      <defs>
       <path id="mbf3be267b8" d="M 0 0 
L -3.5 0 
" style="stroke: #000000; stroke-width: 0.8"/>
      </defs>
      <g>
       <use xlink:href="#mbf3be267b8" x="57.6" y="232.808727" style="stroke: #000000; stroke-width: 0.8"/>
      </g>
     </g>
     <g id="text_7">
      <!-- 0.00 -->
      <g transform="translate(28.334375 236.607946) scale(0.1 -0.1)">
       <defs>
        <path id="DejaVuSans-2e" d="M 684 794 
L 1344 794 
L 1344 0 
L 684 0 
L 684 794 
z
" transform="scale(0.015625)"/>
       </defs>
       <use xlink:href="#DejaVuSans-30"/>
       <use xlink:href="#DejaVuSans-2e" transform="translate(63.623047 0)"/>
       <use xlink:href="#DejaVuSans-30" transform="translate(95.410156 0)"/>
       <use xlink:href="#DejaVuSans-30" transform="translate(159.033203 0)"/>
      </g>
     </g>
    </g>
    <g id="ytick_2">
     <g id="line2d_8">
      <g>
       <use xlink:href="#mbf3be267b8" x="57.6" y="208.097089" style="stroke: #000000; stroke-width: 0.8"/>
      </g>
     </g>
     <g id="text_8">
      <!-- 0.02 -->
      <g transform="translate(28.334375 211.896307) scale(0.1 -0.1)">
       <use xlink:href="#DejaVuSans-30"/>
       <use xlink:href="#DejaVuSans-2e" transform="translate(63.623047 0)"/>
       <use xlink:href="#DejaVuSans-30" transform="translate(95.410156 0)"/>
       <use xlink:href="#DejaVuSans-32" transform="translate(159.033203 0)"/>
      </g>
     </g>
    </g>
    <g id="ytick_3">
     <g id="line2d_9">
      <g>
       <use xlink:href="#mbf3be267b8" x="57.6" y="183.38545" style="stroke: #000000; stroke-width: 0.8"/>
      </g>
     </g>
     <g id="text_9">
      <!-- 0.04 -->
      <g transform="translate(28.334375 187.184669) scale(0.1 -0.1)">
       <use xlink:href="#DejaVuSans-30"/>
       <use xlink:href="#DejaVuSans-2e" transform="translate(63.623047 0)"/>
       <use xlink:href="#DejaVuSans-30" transform="translate(95.410156 0)"/>
       <use xlink:href="#DejaVuSans-34" transform="translate(159.033203 0)"/>
      </g>
     </g>
    </g>
    <g id="ytick_4">
     <g id="line2d_10">
      <g>
       <use xlink:href="#mbf3be267b8" x="57.6" y="158.673811" style="stroke: #000000; stroke-width: 0.8"/>
      </g>
     </g>
     <g id="text_10">
      <!-- 0.06 -->
      <g transform="translate(28.334375 162.47303) scale(0.1 -0.1)">
       <use xlink:href="#DejaVuSans-30"/>
       <use xlink:href="#DejaVuSans-2e" transform="translate(63.623047 0)"/>
       <use xlink:href="#DejaVuSans-30" transform="translate(95.410156 0)"/>
       <use xlink:href="#DejaVuSans-36" transform="translate(159.033203 0)"/>
      </g>
     </g>
    </g>
    <g id="ytick_5">
     <g id="line2d_11">
      <g>
       <use xlink:href="#mbf3be267b8" x="57.6" y="133.962172" style="stroke: #000000; stroke-width: 0.8"/>
      </g>
     </g>
     <g id="text_11">
      <!-- 0.08 -->
      <g transform="translate(28.334375 137.761391) scale(0.1 -0.1)">
       <use xlink:href="#DejaVuSans-30"/>
       <use xlink:href="#DejaVuSans-2e" transform="translate(63.623047 0)"/>
       <use xlink:href="#DejaVuSans-30" transform="translate(95.410156 0)"/>
       <use xlink:href="#DejaVuSans-38" transform="translate(159.033203 0)"/>
      </g>
     </g>
    </g>
    <g id="ytick_6">
     <g id="line2d_12">
      <g>
       <use xlink:href="#mbf3be267b8" x="57.6" y="109.250534" style="stroke: #000000; stroke-width: 0.8"/>
      </g>
     </g>
     <g id="text_12">
      <!-- 0.10 -->
      <g transform="translate(28.334375 113.049752) scale(0.1 -0.1)">
       <use xlink:href="#DejaVuSans-30"/>
       <use xlink:href="#DejaVuSans-2e" transform="translate(63.623047 0)"/>
       <use xlink:href="#DejaVuSans-31" transform="translate(95.410156 0)"/>
       <use xlink:href="#DejaVuSans-30" transform="translate(159.033203 0)"/>
      </g>
     </g>
    </g>
    <g id="ytick_7">
     <g id="line2d_13">
      <g>
       <use xlink:href="#mbf3be267b8" x="57.6" y="84.538895" style="stroke: #000000; stroke-width: 0.8"/>
      </g>
     </g>
     <g id="text_13">
      <!-- 0.12 -->
      <g transform="translate(28.334375 88.338114) scale(0.1 -0.1)">
       <use xlink:href="#DejaVuSans-30"/>
       <use xlink:href="#DejaVuSans-2e" transform="translate(63.623047 0)"/>
       <use xlink:href="#DejaVuSans-31" transform="translate(95.410156 0)"/>
       <use xlink:href="#DejaVuSans-32" transform="translate(159.033203 0)"/>
      </g>
     </g>
    </g>
    <g id="ytick_8">
     <g id="line2d_14">
      <g>
       <use xlink:href="#mbf3be267b8" x="57.6" y="59.827256" style="stroke: #000000; stroke-width: 0.8"/>
      </g>
     </g>
     <g id="text_14">
      <!-- 0.14 -->
      <g transform="translate(28.334375 63.626475) scale(0.1 -0.1)">
       <use xlink:href="#DejaVuSans-30"/>
       <use xlink:href="#DejaVuSans-2e" transform="translate(63.623047 0)"/>
       <use xlink:href="#DejaVuSans-31" transform="translate(95.410156 0)"/>
       <use xlink:href="#DejaVuSans-34" transform="translate(159.033203 0)"/>
      </g>
     </g>
    </g>
   </g>
   <g id="line2d_15">
    <path d="M 73.832727 223.155743 
L 77.112066 232.808727 
L 80.391405 203.849776 
L 83.670744 223.155743 
L 86.950083 213.50276 
L 90.229421 203.849776 
L 93.50876 213.50276 
L 96.788099 213.50276 
L 100.067438 213.50276 
L 103.346777 213.50276 
L 106.626116 218.329251 
L 109.905455 213.50276 
L 113.184793 213.50276 
L 116.464132 232.808727 
L 119.743471 223.155743 
L 123.02281 213.50276 
L 126.302149 184.543808 
L 129.581488 213.50276 
L 132.860826 213.50276 
L 136.140165 203.849776 
L 139.419504 213.50276 
L 142.698843 213.50276 
L 145.978182 203.849776 
L 149.257521 232.808727 
L 152.53686 213.50276 
L 155.816198 213.50276 
L 159.095537 223.155743 
L 162.374876 232.808727 
L 165.654215 213.50276 
L 168.933554 203.849776 
L 172.212893 213.50276 
L 175.492231 223.155743 
L 178.77157 223.155743 
L 182.050909 213.50276 
L 185.330248 203.849776 
L 188.609587 213.50276 
L 191.888926 203.849776 
L 195.168264 223.155743 
L 198.447603 232.808727 
L 201.726942 203.849776 
L 205.006281 213.50276 
L 208.28562 189.3703 
L 211.564959 194.196792 
L 214.844298 199.023284 
L 218.123636 194.196792 
L 221.402975 199.023284 
L 224.682314 179.717316 
L 227.961653 199.023284 
L 231.240992 194.196792 
L 234.520331 203.849776 
L 237.799669 199.023284 
L 241.079008 184.543808 
L 244.358347 203.849776 
L 247.637686 199.023284 
L 250.917025 208.676268 
L 254.196364 213.50276 
L 257.475702 194.196792 
L 260.755041 199.023284 
L 264.03438 203.849776 
L 267.313719 203.849776 
L 270.593058 203.849776 
L 273.872397 184.543808 
L 277.151736 199.023284 
L 280.431074 203.849776 
L 283.710413 194.196792 
L 286.989752 184.543808 
L 290.269091 199.023284 
L 293.54843 189.3703 
L 296.827769 194.196792 
L 300.107107 194.196792 
L 303.386446 174.890824 
L 306.665785 194.196792 
L 309.945124 179.717316 
L 313.224463 165.23784 
L 316.503802 184.543808 
L 319.78314 199.023284 
L 323.062479 199.023284 
L 326.341818 189.3703 
L 329.621157 189.3703 
L 332.900496 170.064332 
L 336.179835 184.543808 
L 339.459174 194.196792 
L 342.738512 179.717316 
L 346.017851 170.064332 
L 349.29719 189.3703 
L 352.576529 194.196792 
L 355.855868 189.3703 
L 359.135207 179.717316 
L 362.414545 165.23784 
L 365.693884 165.23784 
L 368.973223 179.717316 
L 372.252562 165.23784 
L 375.531901 174.890824 
L 378.81124 160.411348 
L 382.090579 155.584856 
L 385.369917 150.758364 
L 388.649256 184.543808 
L 391.928595 189.3703 
L 395.207934 174.890824 
L 398.487273 179.717316 
" clip-path="url(#pa52133913c)" style="fill: none; stroke: #1f77b4; stroke-width: 1.5; stroke-linecap: square"/>
   </g>
   <g id="line2d_16">
    <path d="M 73.832727 221.345809 
L 77.112066 223.155743 
L 80.391405 226.775612 
L 83.670744 226.172301 
L 86.950083 225.568989 
L 90.229421 223.155743 
L 93.50876 213.50276 
L 96.788099 209.279579 
L 100.067438 216.519317 
L 103.346777 221.345809 
L 106.626116 207.469645 
L 109.905455 214.709382 
L 113.184793 212.899448 
L 116.464132 208.072956 
L 119.743471 208.676268 
L 123.02281 203.246464 
L 126.302149 202.039841 
L 129.581488 210.486202 
L 132.860826 202.643153 
L 136.140165 203.246464 
L 139.419504 206.263022 
L 142.698843 207.469645 
L 145.978182 203.849776 
L 149.257521 202.643153 
L 152.53686 199.023284 
L 155.816198 209.279579 
L 159.095537 212.296137 
L 162.374876 202.643153 
L 165.654215 196.610038 
L 168.933554 197.816661 
L 172.212893 197.213349 
L 175.492231 198.419972 
L 178.77157 199.023284 
L 182.050909 203.246464 
L 185.330248 196.610038 
L 188.609587 191.180234 
L 191.888926 192.990169 
L 195.168264 191.783546 
L 198.447603 185.750431 
L 201.726942 185.147119 
L 205.006281 187.560365 
L 208.28562 185.750431 
L 211.564959 186.353742 
L 214.844298 186.957054 
L 218.123636 176.097447 
L 221.402975 188.163677 
L 224.682314 189.973611 
L 227.961653 182.733873 
L 231.240992 188.163677 
L 234.520331 181.52725 
L 237.799669 176.097447 
L 241.079008 174.287512 
L 244.358347 180.923939 
L 247.637686 181.52725 
L 250.917025 188.766988 
L 254.196364 179.717316 
L 257.475702 174.890824 
L 260.755041 176.097447 
L 264.03438 171.874267 
L 267.313719 173.08089 
L 270.593058 181.52725 
L 273.872397 170.667644 
L 277.151736 167.047775 
L 280.431074 163.427906 
L 283.710413 158.601414 
L 286.989752 157.394791 
L 290.269091 153.17161 
L 293.54843 161.01466 
L 296.827769 158.601414 
L 300.107107 159.808037 
L 303.386446 161.617971 
L 306.665785 165.23784 
L 309.945124 167.651086 
L 313.224463 167.047775 
L 316.503802 158.601414 
L 319.78314 154.981545 
L 323.062479 153.774922 
L 326.341818 151.361676 
L 329.621157 147.741807 
L 332.900496 150.155053 
L 336.179835 144.725249 
L 339.459174 137.485511 
L 342.738512 141.10538 
L 346.017851 142.915315 
L 349.29719 140.502069 
L 352.576529 127.229216 
L 355.855868 127.229216 
L 359.135207 123.609347 
L 362.414545 119.386167 
L 365.693884 119.386167 
L 368.973223 116.369609 
L 372.252562 119.386167 
L 375.531901 108.52656 
L 378.81124 107.319937 
L 382.090579 94.047084 
L 385.369917 98.873576 
L 388.649256 80.774231 
L 391.928595 92.237149 
L 395.207934 82.584166 
L 398.487273 84.997412 
" clip-path="url(#pa52133913c)" style="fill: none; stroke: #ff7f0e; stroke-width: 1.5; stroke-linecap: square"/>
   </g>
   <g id="line2d_17">
    <path d="M 73.832727 217.524121 
L 77.112066 216.334301 
L 80.391405 215.51058 
L 83.670744 212.581793 
L 86.950083 214.50381 
L 90.229421 212.581793 
L 93.50876 214.320761 
L 96.788099 212.673318 
L 100.067438 214.137711 
L 103.346777 214.137711 
L 106.626116 209.561482 
L 109.905455 209.469957 
L 113.184793 210.293679 
L 116.464132 210.476728 
L 119.743471 208.737761 
L 123.02281 208.646236 
L 126.302149 209.92758 
L 129.581488 208.097089 
L 132.860826 205.717449 
L 136.140165 205.259826 
L 139.419504 200.042925 
L 142.698843 202.14799 
L 145.978182 203.795433 
L 149.257521 204.070007 
L 152.53686 201.507318 
L 155.816198 198.670056 
L 159.095537 199.585302 
L 162.374876 200.134449 
L 165.654215 199.310728 
L 168.933554 199.585302 
L 172.212893 196.656515 
L 175.492231 191.714187 
L 178.77157 191.988761 
L 182.050909 191.897236 
L 185.330248 192.629433 
L 188.609587 192.995532 
L 191.888926 194.093827 
L 195.168264 187.961679 
L 198.447603 187.137958 
L 201.726942 187.687105 
L 205.006281 187.412532 
L 208.28562 185.398991 
L 211.564959 184.849843 
L 214.844298 180.914286 
L 218.123636 181.829532 
L 221.402975 180.914286 
L 224.682314 176.61263 
L 227.961653 179.815991 
L 231.240992 175.148237 
L 234.520331 173.500794 
L 237.799669 168.466942 
L 241.079008 171.395729 
L 244.358347 172.310975 
L 247.637686 169.931335 
L 250.917025 166.270352 
L 254.196364 164.43986 
L 257.475702 162.334795 
L 260.755041 160.321254 
L 264.03438 158.399237 
L 267.313719 155.745024 
L 270.593058 156.294172 
L 273.872397 155.836549 
L 277.151736 153.182336 
L 280.431074 152.816237 
L 283.710413 149.521352 
L 286.989752 146.134943 
L 290.269091 147.233238 
L 293.54843 149.063729 
L 296.827769 148.789156 
L 300.107107 144.304451 
L 303.386446 142.199385 
L 306.665785 137.531631 
L 309.945124 136.341812 
L 313.224463 138.721451 
L 316.503802 133.687599 
L 319.78314 133.687599 
L 323.062479 130.941861 
L 326.341818 126.091058 
L 329.621157 122.613123 
L 332.900496 119.95891 
L 336.179835 118.128419 
L 339.459174 117.121648 
L 342.738512 113.277615 
L 346.017851 110.989501 
L 349.29719 107.145468 
L 352.576529 105.131927 
L 355.855868 103.759058 
L 359.135207 98.908255 
L 362.414545 88.565977 
L 365.693884 89.389698 
L 368.973223 88.108354 
L 372.252562 83.349075 
L 375.531901 80.694862 
L 378.81124 76.027108 
L 382.090579 76.210157 
L 385.369917 68.430567 
L 388.649256 62.481469 
L 391.928595 58.637436 
L 395.207934 55.800174 
L 398.487273 50.583273 
" clip-path="url(#pa52133913c)" style="fill: none; stroke: #2ca02c; stroke-width: 1.5; stroke-linecap: square"/>
   </g>
   <g id="line2d_18">
    <path d="M 73.832727 220.178334 
L 77.112066 215.785154 
L 80.391405 213.130941 
L 83.670744 215.419056 
L 86.950083 212.490269 
L 90.229421 211.1174 
L 93.50876 212.581793 
L 96.788099 209.103859 
L 100.067438 210.751302 
L 103.346777 208.463187 
L 106.626116 209.286908 
L 109.905455 212.398744 
L 113.184793 207.090318 
L 116.464132 207.090318 
L 119.743471 204.52763 
L 123.02281 202.056466 
L 126.302149 205.717449 
L 129.581488 200.775122 
L 132.860826 200.500548 
L 136.140165 200.683597 
L 139.419504 199.585302 
L 142.698843 200.592072 
L 145.978182 197.571761 
L 149.257521 197.022613 
L 152.53686 195.009072 
L 155.816198 197.937859 
L 159.095537 194.55145 
L 162.374876 194.826023 
L 165.654215 195.009072 
L 168.933554 195.466695 
L 172.212893 196.56499 
L 175.492231 192.995532 
L 178.77157 193.727728 
L 182.050909 191.714187 
L 185.330248 190.798941 
L 188.609587 186.131187 
L 191.888926 184.941368 
L 195.168264 185.948138 
L 198.447603 181.097335 
L 201.726942 184.026122 
L 205.006281 181.371909 
L 208.28562 182.378679 
L 211.564959 178.80922 
L 214.844298 178.99227 
L 218.123636 177.253302 
L 221.402975 173.043171 
L 224.682314 171.21268 
L 227.961653 169.382188 
L 231.240992 172.494024 
L 234.520331 169.290663 
L 237.799669 172.860122 
L 241.079008 172.310975 
L 244.358347 168.924565 
L 247.637686 167.917794 
L 250.917025 164.622909 
L 254.196364 162.700893 
L 257.475702 165.355106 
L 260.755041 162.975467 
L 264.03438 163.890713 
L 267.313719 159.680582 
L 270.593058 158.490762 
L 273.872397 157.300942 
L 277.151736 153.45691 
L 280.431074 150.528123 
L 283.710413 149.429828 
L 286.989752 148.88068 
L 290.269091 147.782385 
L 293.54843 144.762074 
L 296.827769 142.29091 
L 300.107107 137.806205 
L 303.386446 135.151992 
L 306.665785 133.779123 
L 309.945124 133.504549 
L 313.224463 126.914779 
L 316.503802 126.457156 
L 319.78314 124.169041 
L 323.062479 124.901238 
L 326.341818 119.135189 
L 329.621157 119.043664 
L 332.900496 114.55896 
L 336.179835 115.291156 
L 339.459174 110.440353 
L 342.738512 109.342058 
L 346.017851 104.125157 
L 349.29719 102.752288 
L 352.576529 102.386189 
L 355.855868 98.725206 
L 359.135207 98.084534 
L 362.414545 95.521845 
L 365.693884 92.776108 
L 368.973223 87.193108 
L 372.252562 83.989747 
L 375.531901 83.989747 
L 378.81124 77.216928 
L 382.090579 72.183075 
L 385.369917 69.071239 
L 388.649256 67.423797 
L 391.928595 64.128912 
L 395.207934 58.545912 
L 398.487273 56.074748 
" clip-path="url(#pa52133913c)" style="fill: none; stroke: #d62728; stroke-width: 1.5; stroke-linecap: square"/>
   </g>
   <g id="line2d_19">
    <path d="M 73.832727 220.178334 
L 77.112066 217.249547 
L 80.391405 216.974974 
L 83.670744 214.595334 
L 86.950083 213.771613 
L 90.229421 212.764843 
L 93.50876 214.229236 
L 96.788099 214.137711 
L 100.067438 212.215695 
L 103.346777 210.476728 
L 106.626116 210.568252 
L 109.905455 205.992023 
L 113.184793 207.73099 
L 116.464132 206.449646 
L 119.743471 207.181843 
L 123.02281 207.273367 
L 126.302149 206.815744 
L 129.581488 205.351351 
L 132.860826 206.083548 
L 136.140165 208.005564 
L 139.419504 202.331039 
L 142.698843 204.893728 
L 145.978182 201.507318 
L 149.257521 201.598843 
L 152.53686 199.859876 
L 155.816198 199.768351 
L 159.095537 199.493777 
L 162.374876 198.94463 
L 165.654215 198.120908 
L 168.933554 200.225974 
L 172.212893 195.009072 
L 175.492231 193.36163 
L 178.77157 196.015843 
L 182.050909 192.354859 
L 185.330248 194.185351 
L 188.609587 192.080286 
L 191.888926 191.073515 
L 195.168264 190.524368 
L 198.447603 192.904007 
L 201.726942 189.97522 
L 205.006281 187.595581 
L 208.28562 186.680335 
L 211.564959 186.405761 
L 214.844298 185.765089 
L 218.123636 185.215942 
L 221.402975 183.751548 
L 224.682314 185.673564 
L 227.961653 183.568499 
L 231.240992 183.751548 
L 234.520331 181.463433 
L 237.799669 179.175319 
L 241.079008 179.907515 
L 244.358347 181.005811 
L 247.637686 178.99227 
L 250.917025 178.534647 
L 254.196364 179.175319 
L 257.475702 176.521106 
L 260.755041 174.965188 
L 264.03438 172.036401 
L 267.313719 175.148237 
L 270.593058 173.226221 
L 273.872397 172.768598 
L 277.151736 169.656762 
L 280.431074 168.192368 
L 283.710413 170.02286 
L 286.989752 166.087303 
L 290.269091 166.453401 
L 293.54843 163.890713 
L 296.827769 162.334795 
L 300.107107 159.772106 
L 303.386446 159.406008 
L 306.665785 159.589057 
L 309.945124 156.934844 
L 313.224463 160.870401 
L 316.503802 157.483991 
L 319.78314 157.117893 
L 323.062479 154.097582 
L 326.341818 155.836549 
L 329.621157 151.443369 
L 332.900496 151.534893 
L 336.179835 151.260319 
L 339.459174 149.155254 
L 342.738512 146.409516 
L 346.017851 145.036647 
L 349.29719 144.029877 
L 352.576529 137.257057 
L 355.855868 137.348582 
L 359.135207 134.877418 
L 362.414545 138.263828 
L 365.693884 135.609615 
L 368.973223 131.399484 
L 372.252562 130.026615 
L 375.531901 125.267336 
L 378.81124 120.508058 
L 382.090579 119.775861 
L 385.369917 116.389451 
L 388.649256 114.650484 
L 391.928595 112.545419 
L 395.207934 106.596321 
L 398.487273 102.020091 
" clip-path="url(#pa52133913c)" style="fill: none; stroke: #9467bd; stroke-width: 1.5; stroke-linecap: square"/>
   </g>
   <g id="line2d_20">
    <path d="M 73.832727 217.066498 
L 77.112066 217.981744 
L 80.391405 216.974974 
L 83.670744 214.961433 
L 86.950083 213.31399 
L 90.229421 215.327531 
L 93.50876 209.744531 
L 96.788099 215.327531 
L 100.067438 209.836056 
L 103.346777 208.92081 
L 106.626116 208.097089 
L 109.905455 205.717449 
L 113.184793 209.469957 
L 116.464132 208.280138 
L 119.743471 205.5344 
L 123.02281 204.893728 
L 126.302149 205.808974 
L 129.581488 205.625925 
L 132.860826 202.239515 
L 136.140165 202.056466 
L 139.419504 201.964941 
L 142.698843 201.415794 
L 145.978182 201.598843 
L 149.257521 198.670056 
L 152.53686 196.56499 
L 155.816198 195.649745 
L 159.095537 195.009072 
L 162.374876 198.029384 
L 165.654215 194.642974 
L 168.933554 192.080286 
L 172.212893 194.002302 
L 175.492231 195.466695 
L 178.77157 194.3684 
L 182.050909 189.426073 
L 185.330248 192.080286 
L 188.609587 190.615892 
L 191.888926 190.524368 
L 195.168264 189.151499 
L 198.447603 190.524368 
L 201.726942 189.883696 
L 205.006281 191.348089 
L 208.28562 187.137958 
L 211.564959 185.307466 
L 214.844298 186.863384 
L 218.123636 186.131187 
L 221.402975 182.378679 
L 224.682314 181.280384 
L 227.961653 180.182089 
L 231.240992 180.731237 
L 234.520331 180.182089 
L 237.799669 180.731237 
L 241.079008 175.331286 
L 244.358347 176.338057 
L 247.637686 175.422811 
L 250.917025 174.232991 
L 254.196364 177.619401 
L 257.475702 174.232991 
L 260.755041 173.043171 
L 264.03438 171.487253 
L 267.313719 168.649991 
L 270.593058 166.178827 
L 273.872397 166.911024 
L 277.151736 161.968696 
L 280.431074 162.975467 
L 283.710413 158.948385 
L 286.989752 156.751795 
L 290.269091 155.012828 
L 293.54843 151.900992 
L 296.827769 150.619647 
L 300.107107 148.88068 
L 303.386446 149.795926 
L 306.665785 146.134943 
L 309.945124 148.423057 
L 313.224463 144.029877 
L 316.503802 146.317992 
L 319.78314 145.311221 
L 323.062479 141.192615 
L 326.341818 141.192615 
L 329.621157 141.10109 
L 332.900496 137.89773 
L 336.179835 133.596074 
L 339.459174 131.491008 
L 342.738512 129.111369 
L 346.017851 127.92155 
L 349.29719 126.182582 
L 352.576529 125.267336 
L 355.855868 123.802943 
L 359.135207 120.691107 
L 362.414545 118.494517 
L 365.693884 116.938599 
L 368.973223 112.270845 
L 372.252562 110.714927 
L 375.531901 105.681075 
L 378.81124 102.569239 
L 382.090579 98.084534 
L 385.369917 92.684583 
L 388.649256 90.487993 
L 391.928595 85.63719 
L 395.207934 82.525354 
L 398.487273 75.477961 
" clip-path="url(#pa52133913c)" style="fill: none; stroke: #8c564b; stroke-width: 1.5; stroke-linecap: square"/>
   </g>
   <g id="line2d_21">
    <path d="M 73.832727 220.544432 
L 77.112066 214.412285 
L 80.391405 216.974974 
L 83.670744 213.222465 
L 86.950083 214.137711 
L 90.229421 213.31399 
L 93.50876 213.405515 
L 96.788099 213.497039 
L 100.067438 214.229236 
L 103.346777 214.137711 
L 106.626116 213.863138 
L 109.905455 211.849597 
L 113.184793 211.1174 
L 116.464132 207.914039 
L 119.743471 208.188613 
L 123.02281 211.1174 
L 126.302149 208.371662 
L 129.581488 208.371662 
L 132.860826 206.358121 
L 136.140165 205.625925 
L 139.419504 208.005564 
L 142.698843 202.14799 
L 145.978182 202.605613 
L 149.257521 200.134449 
L 152.53686 199.768351 
L 155.816198 200.683597 
L 159.095537 198.670056 
L 162.374876 196.74804 
L 165.654215 198.761581 
L 168.933554 198.120908 
L 172.212893 196.931089 
L 175.492231 195.741269 
L 178.77157 196.931089 
L 182.050909 197.75481 
L 185.330248 194.734499 
L 188.609587 193.453154 
L 191.888926 195.192122 
L 195.168264 197.022613 
L 198.447603 192.995532 
L 201.726942 195.466695 
L 205.006281 197.297187 
L 208.28562 193.727728 
L 211.564959 193.087056 
L 214.844298 196.656515 
L 218.123636 192.720958 
L 221.402975 191.897236 
L 224.682314 186.405761 
L 227.961653 186.314237 
L 231.240992 183.934597 
L 234.520331 182.836302 
L 237.799669 183.934597 
L 241.079008 185.307466 
L 244.358347 182.378679 
L 247.637686 182.104106 
L 250.917025 180.731237 
L 254.196364 177.80245 
L 257.475702 181.463433 
L 260.755041 179.99904 
L 264.03438 182.19563 
L 267.313719 181.921056 
L 270.593058 178.168548 
L 273.872397 177.344827 
L 277.151736 175.331286 
L 280.431074 173.775368 
L 283.710413 172.768598 
L 286.989752 171.395729 
L 290.269091 167.094073 
L 293.54843 164.622909 
L 296.827769 162.883942 
L 300.107107 161.05345 
L 303.386446 157.117893 
L 306.665785 156.111123 
L 309.945124 150.619647 
L 313.224463 152.816237 
L 316.503802 152.450139 
L 319.78314 153.548434 
L 323.062479 152.175565 
L 326.341818 152.175565 
L 329.621157 151.626418 
L 332.900496 151.626418 
L 336.179835 147.416287 
L 339.459174 145.219697 
L 342.738512 145.219697 
L 346.017851 141.650238 
L 349.29719 137.257057 
L 352.576529 133.870648 
L 355.855868 129.385943 
L 359.135207 126.548681 
L 362.414545 128.196123 
L 365.693884 125.267336 
L 368.973223 122.796173 
L 372.252562 123.436845 
L 375.531901 120.416533 
L 378.81124 112.636943 
L 382.090579 110.074255 
L 385.369917 109.067484 
L 388.649256 106.321747 
L 391.928595 105.681075 
L 395.207934 99.731976 
L 398.487273 97.352337 
" clip-path="url(#pa52133913c)" style="fill: none; stroke: #e377c2; stroke-width: 1.5; stroke-linecap: square"/>
   </g>
   <g id="patch_3">
    <path d="M 57.6 241.92 
L 57.6 41.472 
" style="fill: none; stroke: #000000; stroke-width: 0.8; stroke-linejoin: miter; stroke-linecap: square"/>
   </g>
   <g id="patch_4">
    <path d="M 414.72 241.92 
L 414.72 41.472 
" style="fill: none; stroke: #000000; stroke-width: 0.8; stroke-linejoin: miter; stroke-linecap: square"/>
   </g>
   <g id="patch_5">
    <path d="M 57.6 241.92 
L 414.72 241.92 
" style="fill: none; stroke: #000000; stroke-width: 0.8; stroke-linejoin: miter; stroke-linecap: square"/>
   </g>
   <g id="patch_6">
    <path d="M 57.6 41.472 
L 414.72 41.472 
" style="fill: none; stroke: #000000; stroke-width: 0.8; stroke-linejoin: miter; stroke-linecap: square"/>
   </g>
   <g id="text_15">
    <!-- side-length        :[8, 16, 30, 30, 30, 30, 30] -->
    <g transform="translate(46.08 280.805906) scale(0.09 -0.09)">
     <defs>
      <path id="DejaVuSans-73" d="M 2834 3397 
L 2834 2853 
Q 2591 2978 2328 3040 
Q 2066 3103 1784 3103 
Q 1356 3103 1142 2972 
Q 928 2841 928 2578 
Q 928 2378 1081 2264 
Q 1234 2150 1697 2047 
L 1894 2003 
Q 2506 1872 2764 1633 
Q 3022 1394 3022 966 
Q 3022 478 2636 193 
Q 2250 -91 1575 -91 
Q 1294 -91 989 -36 
Q 684 19 347 128 
L 347 722 
Q 666 556 975 473 
Q 1284 391 1588 391 
Q 1994 391 2212 530 
Q 2431 669 2431 922 
Q 2431 1156 2273 1281 
Q 2116 1406 1581 1522 
L 1381 1569 
Q 847 1681 609 1914 
Q 372 2147 372 2553 
Q 372 3047 722 3315 
Q 1072 3584 1716 3584 
Q 2034 3584 2315 3537 
Q 2597 3491 2834 3397 
z
" transform="scale(0.015625)"/>
      <path id="DejaVuSans-69" d="M 603 3500 
L 1178 3500 
L 1178 0 
L 603 0 
L 603 3500 
z
M 603 4863 
L 1178 4863 
L 1178 4134 
L 603 4134 
L 603 4863 
z
" transform="scale(0.015625)"/>
      <path id="DejaVuSans-64" d="M 2906 2969 
L 2906 4863 
L 3481 4863 
L 3481 0 
L 2906 0 
L 2906 525 
Q 2725 213 2448 61 
Q 2172 -91 1784 -91 
Q 1150 -91 751 415 
Q 353 922 353 1747 
Q 353 2572 751 3078 
Q 1150 3584 1784 3584 
Q 2172 3584 2448 3432 
Q 2725 3281 2906 2969 
z
M 947 1747 
Q 947 1113 1208 752 
Q 1469 391 1925 391 
Q 2381 391 2643 752 
Q 2906 1113 2906 1747 
Q 2906 2381 2643 2742 
Q 2381 3103 1925 3103 
Q 1469 3103 1208 2742 
Q 947 2381 947 1747 
z
" transform="scale(0.015625)"/>
      <path id="DejaVuSans-65" d="M 3597 1894 
L 3597 1613 
L 953 1613 
Q 991 1019 1311 708 
Q 1631 397 2203 397 
Q 2534 397 2845 478 
Q 3156 559 3463 722 
L 3463 178 
Q 3153 47 2828 -22 
Q 2503 -91 2169 -91 
Q 1331 -91 842 396 
Q 353 884 353 1716 
Q 353 2575 817 3079 
Q 1281 3584 2069 3584 
Q 2775 3584 3186 3129 
Q 3597 2675 3597 1894 
z
M 3022 2063 
Q 3016 2534 2758 2815 
Q 2500 3097 2075 3097 
Q 1594 3097 1305 2825 
Q 1016 2553 972 2059 
L 3022 2063 
z
" transform="scale(0.015625)"/>
      <path id="DejaVuSans-2d" d="M 313 2009 
L 1997 2009 
L 1997 1497 
L 313 1497 
L 313 2009 
z
" transform="scale(0.015625)"/>
      <path id="DejaVuSans-6c" d="M 603 4863 
L 1178 4863 
L 1178 0 
L 603 0 
L 603 4863 
z
" transform="scale(0.015625)"/>
      <path id="DejaVuSans-6e" d="M 3513 2113 
L 3513 0 
L 2938 0 
L 2938 2094 
Q 2938 2591 2744 2837 
Q 2550 3084 2163 3084 
Q 1697 3084 1428 2787 
Q 1159 2491 1159 1978 
L 1159 0 
L 581 0 
L 581 3500 
L 1159 3500 
L 1159 2956 
Q 1366 3272 1645 3428 
Q 1925 3584 2291 3584 
Q 2894 3584 3203 3211 
Q 3513 2838 3513 2113 
z
" transform="scale(0.015625)"/>
      <path id="DejaVuSans-67" d="M 2906 1791 
Q 2906 2416 2648 2759 
Q 2391 3103 1925 3103 
Q 1463 3103 1205 2759 
Q 947 2416 947 1791 
Q 947 1169 1205 825 
Q 1463 481 1925 481 
Q 2391 481 2648 825 
Q 2906 1169 2906 1791 
z
M 3481 434 
Q 3481 -459 3084 -895 
Q 2688 -1331 1869 -1331 
Q 1566 -1331 1297 -1286 
Q 1028 -1241 775 -1147 
L 775 -588 
Q 1028 -725 1275 -790 
Q 1522 -856 1778 -856 
Q 2344 -856 2625 -561 
Q 2906 -266 2906 331 
L 2906 616 
Q 2728 306 2450 153 
Q 2172 0 1784 0 
Q 1141 0 747 490 
Q 353 981 353 1791 
Q 353 2603 747 3093 
Q 1141 3584 1784 3584 
Q 2172 3584 2450 3431 
Q 2728 3278 2906 2969 
L 2906 3500 
L 3481 3500 
L 3481 434 
z
" transform="scale(0.015625)"/>
      <path id="DejaVuSans-74" d="M 1172 4494 
L 1172 3500 
L 2356 3500 
L 2356 3053 
L 1172 3053 
L 1172 1153 
Q 1172 725 1289 603 
Q 1406 481 1766 481 
L 2356 481 
L 2356 0 
L 1766 0 
Q 1100 0 847 248 
Q 594 497 594 1153 
L 594 3053 
L 172 3053 
L 172 3500 
L 594 3500 
L 594 4494 
L 1172 4494 
z
" transform="scale(0.015625)"/>
      <path id="DejaVuSans-68" d="M 3513 2113 
L 3513 0 
L 2938 0 
L 2938 2094 
Q 2938 2591 2744 2837 
Q 2550 3084 2163 3084 
Q 1697 3084 1428 2787 
Q 1159 2491 1159 1978 
L 1159 0 
L 581 0 
L 581 4863 
L 1159 4863 
L 1159 2956 
Q 1366 3272 1645 3428 
Q 1925 3584 2291 3584 
Q 2894 3584 3203 3211 
Q 3513 2838 3513 2113 
z
" transform="scale(0.015625)"/>
      <path id="DejaVuSans-20" transform="scale(0.015625)"/>
      <path id="DejaVuSans-3a" d="M 750 794 
L 1409 794 
L 1409 0 
L 750 0 
L 750 794 
z
M 750 3309 
L 1409 3309 
L 1409 2516 
L 750 2516 
L 750 3309 
z
" transform="scale(0.015625)"/>
      <path id="DejaVuSans-5b" d="M 550 4863 
L 1875 4863 
L 1875 4416 
L 1125 4416 
L 1125 -397 
L 1875 -397 
L 1875 -844 
L 550 -844 
L 550 4863 
z
" transform="scale(0.015625)"/>
      <path id="DejaVuSans-2c" d="M 750 794 
L 1409 794 
L 1409 256 
L 897 -744 
L 494 -744 
L 750 256 
L 750 794 
z
" transform="scale(0.015625)"/>
      <path id="DejaVuSans-33" d="M 2597 2516 
Q 3050 2419 3304 2112 
Q 3559 1806 3559 1356 
Q 3559 666 3084 287 
Q 2609 -91 1734 -91 
Q 1441 -91 1130 -33 
Q 819 25 488 141 
L 488 750 
Q 750 597 1062 519 
Q 1375 441 1716 441 
Q 2309 441 2620 675 
Q 2931 909 2931 1356 
Q 2931 1769 2642 2001 
Q 2353 2234 1838 2234 
L 1294 2234 
L 1294 2753 
L 1863 2753 
Q 2328 2753 2575 2939 
Q 2822 3125 2822 3475 
Q 2822 3834 2567 4026 
Q 2313 4219 1838 4219 
Q 1578 4219 1281 4162 
Q 984 4106 628 3988 
L 628 4550 
Q 988 4650 1302 4700 
Q 1616 4750 1894 4750 
Q 2613 4750 3031 4423 
Q 3450 4097 3450 3541 
Q 3450 3153 3228 2886 
Q 3006 2619 2597 2516 
z
" transform="scale(0.015625)"/>
      <path id="DejaVuSans-5d" d="M 1947 4863 
L 1947 -844 
L 622 -844 
L 622 -397 
L 1369 -397 
L 1369 4416 
L 622 4416 
L 622 4863 
L 1947 4863 
z
" transform="scale(0.015625)"/>
     </defs>
     <use xlink:href="#DejaVuSans-73"/>
     <use xlink:href="#DejaVuSans-69" transform="translate(52.099609 0)"/>
     <use xlink:href="#DejaVuSans-64" transform="translate(79.882812 0)"/>
     <use xlink:href="#DejaVuSans-65" transform="translate(143.359375 0)"/>
     <use xlink:href="#DejaVuSans-2d" transform="translate(204.882812 0)"/>
     <use xlink:href="#DejaVuSans-6c" transform="translate(240.966797 0)"/>
     <use xlink:href="#DejaVuSans-65" transform="translate(268.75 0)"/>
     <use xlink:href="#DejaVuSans-6e" transform="translate(330.273438 0)"/>
     <use xlink:href="#DejaVuSans-67" transform="translate(393.652344 0)"/>
     <use xlink:href="#DejaVuSans-74" transform="translate(457.128906 0)"/>
     <use xlink:href="#DejaVuSans-68" transform="translate(496.337891 0)"/>
     <use xlink:href="#DejaVuSans-20" transform="translate(559.716797 0)"/>
     <use xlink:href="#DejaVuSans-20" transform="translate(591.503906 0)"/>
     <use xlink:href="#DejaVuSans-20" transform="translate(623.291016 0)"/>
     <use xlink:href="#DejaVuSans-20" transform="translate(655.078125 0)"/>
     <use xlink:href="#DejaVuSans-20" transform="translate(686.865234 0)"/>
     <use xlink:href="#DejaVuSans-20" transform="translate(718.652344 0)"/>
     <use xlink:href="#DejaVuSans-20" transform="translate(750.439453 0)"/>
     <use xlink:href="#DejaVuSans-20" transform="translate(782.226562 0)"/>
     <use xlink:href="#DejaVuSans-3a" transform="translate(814.013672 0)"/>
     <use xlink:href="#DejaVuSans-5b" transform="translate(847.705078 0)"/>
     <use xlink:href="#DejaVuSans-38" transform="translate(886.71875 0)"/>
     <use xlink:href="#DejaVuSans-2c" transform="translate(950.341797 0)"/>
     <use xlink:href="#DejaVuSans-20" transform="translate(982.128906 0)"/>
     <use xlink:href="#DejaVuSans-31" transform="translate(1013.916016 0)"/>
     <use xlink:href="#DejaVuSans-36" transform="translate(1077.539062 0)"/>
     <use xlink:href="#DejaVuSans-2c" transform="translate(1141.162109 0)"/>
     <use xlink:href="#DejaVuSans-20" transform="translate(1172.949219 0)"/>
     <use xlink:href="#DejaVuSans-33" transform="translate(1204.736328 0)"/>
     <use xlink:href="#DejaVuSans-30" transform="translate(1268.359375 0)"/>
     <use xlink:href="#DejaVuSans-2c" transform="translate(1331.982422 0)"/>
     <use xlink:href="#DejaVuSans-20" transform="translate(1363.769531 0)"/>
     <use xlink:href="#DejaVuSans-33" transform="translate(1395.556641 0)"/>
     <use xlink:href="#DejaVuSans-30" transform="translate(1459.179688 0)"/>
     <use xlink:href="#DejaVuSans-2c" transform="translate(1522.802734 0)"/>
     <use xlink:href="#DejaVuSans-20" transform="translate(1554.589844 0)"/>
     <use xlink:href="#DejaVuSans-33" transform="translate(1586.376953 0)"/>
     <use xlink:href="#DejaVuSans-30" transform="translate(1650 0)"/>
     <use xlink:href="#DejaVuSans-2c" transform="translate(1713.623047 0)"/>
     <use xlink:href="#DejaVuSans-20" transform="translate(1745.410156 0)"/>
     <use xlink:href="#DejaVuSans-33" transform="translate(1777.197266 0)"/>
     <use xlink:href="#DejaVuSans-30" transform="translate(1840.820312 0)"/>
     <use xlink:href="#DejaVuSans-2c" transform="translate(1904.443359 0)"/>
     <use xlink:href="#DejaVuSans-20" transform="translate(1936.230469 0)"/>
     <use xlink:href="#DejaVuSans-33" transform="translate(1968.017578 0)"/>
     <use xlink:href="#DejaVuSans-30" transform="translate(2031.640625 0)"/>
     <use xlink:href="#DejaVuSans-5d" transform="translate(2095.263672 0)"/>
    </g>
    <!-- grid dim           :[3, 3, 3, 3, 3, 3, 3] -->
    <g transform="translate(46.08 290.883938) scale(0.09 -0.09)">
     <defs>
      <path id="DejaVuSans-72" d="M 2631 2963 
Q 2534 3019 2420 3045 
Q 2306 3072 2169 3072 
Q 1681 3072 1420 2755 
Q 1159 2438 1159 1844 
L 1159 0 
L 581 0 
L 581 3500 
L 1159 3500 
L 1159 2956 
Q 1341 3275 1631 3429 
Q 1922 3584 2338 3584 
Q 2397 3584 2469 3576 
Q 2541 3569 2628 3553 
L 2631 2963 
z
" transform="scale(0.015625)"/>
      <path id="DejaVuSans-6d" d="M 3328 2828 
Q 3544 3216 3844 3400 
Q 4144 3584 4550 3584 
Q 5097 3584 5394 3201 
Q 5691 2819 5691 2113 
L 5691 0 
L 5113 0 
L 5113 2094 
Q 5113 2597 4934 2840 
Q 4756 3084 4391 3084 
Q 3944 3084 3684 2787 
Q 3425 2491 3425 1978 
L 3425 0 
L 2847 0 
L 2847 2094 
Q 2847 2600 2669 2842 
Q 2491 3084 2119 3084 
Q 1678 3084 1418 2786 
Q 1159 2488 1159 1978 
L 1159 0 
L 581 0 
L 581 3500 
L 1159 3500 
L 1159 2956 
Q 1356 3278 1631 3431 
Q 1906 3584 2284 3584 
Q 2666 3584 2933 3390 
Q 3200 3197 3328 2828 
z
" transform="scale(0.015625)"/>
     </defs>
     <use xlink:href="#DejaVuSans-67"/>
     <use xlink:href="#DejaVuSans-72" transform="translate(63.476562 0)"/>
     <use xlink:href="#DejaVuSans-69" transform="translate(104.589844 0)"/>
     <use xlink:href="#DejaVuSans-64" transform="translate(132.373047 0)"/>
     <use xlink:href="#DejaVuSans-20" transform="translate(195.849609 0)"/>
     <use xlink:href="#DejaVuSans-64" transform="translate(227.636719 0)"/>
     <use xlink:href="#DejaVuSans-69" transform="translate(291.113281 0)"/>
     <use xlink:href="#DejaVuSans-6d" transform="translate(318.896484 0)"/>
     <use xlink:href="#DejaVuSans-20" transform="translate(416.308594 0)"/>
     <use xlink:href="#DejaVuSans-20" transform="translate(448.095703 0)"/>
     <use xlink:href="#DejaVuSans-20" transform="translate(479.882812 0)"/>
     <use xlink:href="#DejaVuSans-20" transform="translate(511.669922 0)"/>
     <use xlink:href="#DejaVuSans-20" transform="translate(543.457031 0)"/>
     <use xlink:href="#DejaVuSans-20" transform="translate(575.244141 0)"/>
     <use xlink:href="#DejaVuSans-20" transform="translate(607.03125 0)"/>
     <use xlink:href="#DejaVuSans-20" transform="translate(638.818359 0)"/>
     <use xlink:href="#DejaVuSans-20" transform="translate(670.605469 0)"/>
     <use xlink:href="#DejaVuSans-20" transform="translate(702.392578 0)"/>
     <use xlink:href="#DejaVuSans-20" transform="translate(734.179688 0)"/>
     <use xlink:href="#DejaVuSans-3a" transform="translate(765.966797 0)"/>
     <use xlink:href="#DejaVuSans-5b" transform="translate(799.658203 0)"/>
     <use xlink:href="#DejaVuSans-33" transform="translate(838.671875 0)"/>
     <use xlink:href="#DejaVuSans-2c" transform="translate(902.294922 0)"/>
     <use xlink:href="#DejaVuSans-20" transform="translate(934.082031 0)"/>
     <use xlink:href="#DejaVuSans-33" transform="translate(965.869141 0)"/>
     <use xlink:href="#DejaVuSans-2c" transform="translate(1029.492188 0)"/>
     <use xlink:href="#DejaVuSans-20" transform="translate(1061.279297 0)"/>
     <use xlink:href="#DejaVuSans-33" transform="translate(1093.066406 0)"/>
     <use xlink:href="#DejaVuSans-2c" transform="translate(1156.689453 0)"/>
     <use xlink:href="#DejaVuSans-20" transform="translate(1188.476562 0)"/>
     <use xlink:href="#DejaVuSans-33" transform="translate(1220.263672 0)"/>
     <use xlink:href="#DejaVuSans-2c" transform="translate(1283.886719 0)"/>
     <use xlink:href="#DejaVuSans-20" transform="translate(1315.673828 0)"/>
     <use xlink:href="#DejaVuSans-33" transform="translate(1347.460938 0)"/>
     <use xlink:href="#DejaVuSans-2c" transform="translate(1411.083984 0)"/>
     <use xlink:href="#DejaVuSans-20" transform="translate(1442.871094 0)"/>
     <use xlink:href="#DejaVuSans-33" transform="translate(1474.658203 0)"/>
     <use xlink:href="#DejaVuSans-2c" transform="translate(1538.28125 0)"/>
     <use xlink:href="#DejaVuSans-20" transform="translate(1570.068359 0)"/>
     <use xlink:href="#DejaVuSans-33" transform="translate(1601.855469 0)"/>
     <use xlink:href="#DejaVuSans-5d" transform="translate(1665.478516 0)"/>
    </g>
    <!-- error rates        :[0.001] -->
    <g transform="translate(46.08 300.961969) scale(0.09 -0.09)">
     <defs>
      <path id="DejaVuSans-6f" d="M 1959 3097 
Q 1497 3097 1228 2736 
Q 959 2375 959 1747 
Q 959 1119 1226 758 
Q 1494 397 1959 397 
Q 2419 397 2687 759 
Q 2956 1122 2956 1747 
Q 2956 2369 2687 2733 
Q 2419 3097 1959 3097 
z
M 1959 3584 
Q 2709 3584 3137 3096 
Q 3566 2609 3566 1747 
Q 3566 888 3137 398 
Q 2709 -91 1959 -91 
Q 1206 -91 779 398 
Q 353 888 353 1747 
Q 353 2609 779 3096 
Q 1206 3584 1959 3584 
z
" transform="scale(0.015625)"/>
      <path id="DejaVuSans-61" d="M 2194 1759 
Q 1497 1759 1228 1600 
Q 959 1441 959 1056 
Q 959 750 1161 570 
Q 1363 391 1709 391 
Q 2188 391 2477 730 
Q 2766 1069 2766 1631 
L 2766 1759 
L 2194 1759 
z
M 3341 1997 
L 3341 0 
L 2766 0 
L 2766 531 
Q 2569 213 2275 61 
Q 1981 -91 1556 -91 
Q 1019 -91 701 211 
Q 384 513 384 1019 
Q 384 1609 779 1909 
Q 1175 2209 1959 2209 
L 2766 2209 
L 2766 2266 
Q 2766 2663 2505 2880 
Q 2244 3097 1772 3097 
Q 1472 3097 1187 3025 
Q 903 2953 641 2809 
L 641 3341 
Q 956 3463 1253 3523 
Q 1550 3584 1831 3584 
Q 2591 3584 2966 3190 
Q 3341 2797 3341 1997 
z
" transform="scale(0.015625)"/>
     </defs>
     <use xlink:href="#DejaVuSans-65"/>
     <use xlink:href="#DejaVuSans-72" transform="translate(61.523438 0)"/>
     <use xlink:href="#DejaVuSans-72" transform="translate(100.886719 0)"/>
     <use xlink:href="#DejaVuSans-6f" transform="translate(139.75 0)"/>
     <use xlink:href="#DejaVuSans-72" transform="translate(200.931641 0)"/>
     <use xlink:href="#DejaVuSans-20" transform="translate(242.044922 0)"/>
     <use xlink:href="#DejaVuSans-72" transform="translate(273.832031 0)"/>
     <use xlink:href="#DejaVuSans-61" transform="translate(314.945312 0)"/>
     <use xlink:href="#DejaVuSans-74" transform="translate(376.224609 0)"/>
     <use xlink:href="#DejaVuSans-65" transform="translate(415.433594 0)"/>
     <use xlink:href="#DejaVuSans-73" transform="translate(476.957031 0)"/>
     <use xlink:href="#DejaVuSans-20" transform="translate(529.056641 0)"/>
     <use xlink:href="#DejaVuSans-20" transform="translate(560.84375 0)"/>
     <use xlink:href="#DejaVuSans-20" transform="translate(592.630859 0)"/>
     <use xlink:href="#DejaVuSans-20" transform="translate(624.417969 0)"/>
     <use xlink:href="#DejaVuSans-20" transform="translate(656.205078 0)"/>
     <use xlink:href="#DejaVuSans-20" transform="translate(687.992188 0)"/>
     <use xlink:href="#DejaVuSans-20" transform="translate(719.779297 0)"/>
     <use xlink:href="#DejaVuSans-20" transform="translate(751.566406 0)"/>
     <use xlink:href="#DejaVuSans-3a" transform="translate(783.353516 0)"/>
     <use xlink:href="#DejaVuSans-5b" transform="translate(817.044922 0)"/>
     <use xlink:href="#DejaVuSans-30" transform="translate(856.058594 0)"/>
     <use xlink:href="#DejaVuSans-2e" transform="translate(919.681641 0)"/>
     <use xlink:href="#DejaVuSans-30" transform="translate(951.46875 0)"/>
     <use xlink:href="#DejaVuSans-30" transform="translate(1015.091797 0)"/>
     <use xlink:href="#DejaVuSans-31" transform="translate(1078.714844 0)"/>
     <use xlink:href="#DejaVuSans-5d" transform="translate(1142.337891 0)"/>
    </g>
    <!-- error accumulation :True -->
    <g transform="translate(46.08 311.04) scale(0.09 -0.09)">
     <defs>
      <path id="DejaVuSans-63" d="M 3122 3366 
L 3122 2828 
Q 2878 2963 2633 3030 
Q 2388 3097 2138 3097 
Q 1578 3097 1268 2742 
Q 959 2388 959 1747 
Q 959 1106 1268 751 
Q 1578 397 2138 397 
Q 2388 397 2633 464 
Q 2878 531 3122 666 
L 3122 134 
Q 2881 22 2623 -34 
Q 2366 -91 2075 -91 
Q 1284 -91 818 406 
Q 353 903 353 1747 
Q 353 2603 823 3093 
Q 1294 3584 2113 3584 
Q 2378 3584 2631 3529 
Q 2884 3475 3122 3366 
z
" transform="scale(0.015625)"/>
      <path id="DejaVuSans-75" d="M 544 1381 
L 544 3500 
L 1119 3500 
L 1119 1403 
Q 1119 906 1312 657 
Q 1506 409 1894 409 
Q 2359 409 2629 706 
Q 2900 1003 2900 1516 
L 2900 3500 
L 3475 3500 
L 3475 0 
L 2900 0 
L 2900 538 
Q 2691 219 2414 64 
Q 2138 -91 1772 -91 
Q 1169 -91 856 284 
Q 544 659 544 1381 
z
M 1991 3584 
L 1991 3584 
z
" transform="scale(0.015625)"/>
      <path id="DejaVuSans-54" d="M -19 4666 
L 3928 4666 
L 3928 4134 
L 2272 4134 
L 2272 0 
L 1638 0 
L 1638 4134 
L -19 4134 
L -19 4666 
z
" transform="scale(0.015625)"/>
     </defs>
     <use xlink:href="#DejaVuSans-65"/>
     <use xlink:href="#DejaVuSans-72" transform="translate(61.523438 0)"/>
     <use xlink:href="#DejaVuSans-72" transform="translate(100.886719 0)"/>
     <use xlink:href="#DejaVuSans-6f" transform="translate(139.75 0)"/>
     <use xlink:href="#DejaVuSans-72" transform="translate(200.931641 0)"/>
     <use xlink:href="#DejaVuSans-20" transform="translate(242.044922 0)"/>
     <use xlink:href="#DejaVuSans-61" transform="translate(273.832031 0)"/>
     <use xlink:href="#DejaVuSans-63" transform="translate(335.111328 0)"/>
     <use xlink:href="#DejaVuSans-63" transform="translate(390.091797 0)"/>
     <use xlink:href="#DejaVuSans-75" transform="translate(445.072266 0)"/>
     <use xlink:href="#DejaVuSans-6d" transform="translate(508.451172 0)"/>
     <use xlink:href="#DejaVuSans-75" transform="translate(605.863281 0)"/>
     <use xlink:href="#DejaVuSans-6c" transform="translate(669.242188 0)"/>
     <use xlink:href="#DejaVuSans-61" transform="translate(697.025391 0)"/>
     <use xlink:href="#DejaVuSans-74" transform="translate(758.304688 0)"/>
     <use xlink:href="#DejaVuSans-69" transform="translate(797.513672 0)"/>
     <use xlink:href="#DejaVuSans-6f" transform="translate(825.296875 0)"/>
     <use xlink:href="#DejaVuSans-6e" transform="translate(886.478516 0)"/>
     <use xlink:href="#DejaVuSans-20" transform="translate(949.857422 0)"/>
     <use xlink:href="#DejaVuSans-3a" transform="translate(981.644531 0)"/>
     <use xlink:href="#DejaVuSans-54" transform="translate(1015.335938 0)"/>
     <use xlink:href="#DejaVuSans-72" transform="translate(1061.669922 0)"/>
     <use xlink:href="#DejaVuSans-75" transform="translate(1102.783203 0)"/>
     <use xlink:href="#DejaVuSans-65" transform="translate(1166.162109 0)"/>
    </g>
   </g>
   <g id="text_16">
    <!-- test_correction_by_SWIFT_2_8-20_30x4_plus_accu - swift_rul -->
    <g transform="translate(54.715313 35.472) scale(0.12 -0.12)">
     <defs>
      <path id="DejaVuSans-5f" d="M 3263 -1063 
L 3263 -1509 
L -63 -1509 
L -63 -1063 
L 3263 -1063 
z
" transform="scale(0.015625)"/>
      <path id="DejaVuSans-62" d="M 3116 1747 
Q 3116 2381 2855 2742 
Q 2594 3103 2138 3103 
Q 1681 3103 1420 2742 
Q 1159 2381 1159 1747 
Q 1159 1113 1420 752 
Q 1681 391 2138 391 
Q 2594 391 2855 752 
Q 3116 1113 3116 1747 
z
M 1159 2969 
Q 1341 3281 1617 3432 
Q 1894 3584 2278 3584 
Q 2916 3584 3314 3078 
Q 3713 2572 3713 1747 
Q 3713 922 3314 415 
Q 2916 -91 2278 -91 
Q 1894 -91 1617 61 
Q 1341 213 1159 525 
L 1159 0 
L 581 0 
L 581 4863 
L 1159 4863 
L 1159 2969 
z
" transform="scale(0.015625)"/>
      <path id="DejaVuSans-79" d="M 2059 -325 
Q 1816 -950 1584 -1140 
Q 1353 -1331 966 -1331 
L 506 -1331 
L 506 -850 
L 844 -850 
Q 1081 -850 1212 -737 
Q 1344 -625 1503 -206 
L 1606 56 
L 191 3500 
L 800 3500 
L 1894 763 
L 2988 3500 
L 3597 3500 
L 2059 -325 
z
" transform="scale(0.015625)"/>
      <path id="DejaVuSans-53" d="M 3425 4513 
L 3425 3897 
Q 3066 4069 2747 4153 
Q 2428 4238 2131 4238 
Q 1616 4238 1336 4038 
Q 1056 3838 1056 3469 
Q 1056 3159 1242 3001 
Q 1428 2844 1947 2747 
L 2328 2669 
Q 3034 2534 3370 2195 
Q 3706 1856 3706 1288 
Q 3706 609 3251 259 
Q 2797 -91 1919 -91 
Q 1588 -91 1214 -16 
Q 841 59 441 206 
L 441 856 
Q 825 641 1194 531 
Q 1563 422 1919 422 
Q 2459 422 2753 634 
Q 3047 847 3047 1241 
Q 3047 1584 2836 1778 
Q 2625 1972 2144 2069 
L 1759 2144 
Q 1053 2284 737 2584 
Q 422 2884 422 3419 
Q 422 4038 858 4394 
Q 1294 4750 2059 4750 
Q 2388 4750 2728 4690 
Q 3069 4631 3425 4513 
z
" transform="scale(0.015625)"/>
      <path id="DejaVuSans-57" d="M 213 4666 
L 850 4666 
L 1831 722 
L 2809 4666 
L 3519 4666 
L 4500 722 
L 5478 4666 
L 6119 4666 
L 4947 0 
L 4153 0 
L 3169 4050 
L 2175 0 
L 1381 0 
L 213 4666 
z
" transform="scale(0.015625)"/>
      <path id="DejaVuSans-49" d="M 628 4666 
L 1259 4666 
L 1259 0 
L 628 0 
L 628 4666 
z
" transform="scale(0.015625)"/>
      <path id="DejaVuSans-46" d="M 628 4666 
L 3309 4666 
L 3309 4134 
L 1259 4134 
L 1259 2759 
L 3109 2759 
L 3109 2228 
L 1259 2228 
L 1259 0 
L 628 0 
L 628 4666 
z
" transform="scale(0.015625)"/>
      <path id="DejaVuSans-78" d="M 3513 3500 
L 2247 1797 
L 3578 0 
L 2900 0 
L 1881 1375 
L 863 0 
L 184 0 
L 1544 1831 
L 300 3500 
L 978 3500 
L 1906 2253 
L 2834 3500 
L 3513 3500 
z
" transform="scale(0.015625)"/>
      <path id="DejaVuSans-70" d="M 1159 525 
L 1159 -1331 
L 581 -1331 
L 581 3500 
L 1159 3500 
L 1159 2969 
Q 1341 3281 1617 3432 
Q 1894 3584 2278 3584 
Q 2916 3584 3314 3078 
Q 3713 2572 3713 1747 
Q 3713 922 3314 415 
Q 2916 -91 2278 -91 
Q 1894 -91 1617 61 
Q 1341 213 1159 525 
z
M 3116 1747 
Q 3116 2381 2855 2742 
Q 2594 3103 2138 3103 
Q 1681 3103 1420 2742 
Q 1159 2381 1159 1747 
Q 1159 1113 1420 752 
Q 1681 391 2138 391 
Q 2594 391 2855 752 
Q 3116 1113 3116 1747 
z
" transform="scale(0.015625)"/>
      <path id="DejaVuSans-77" d="M 269 3500 
L 844 3500 
L 1563 769 
L 2278 3500 
L 2956 3500 
L 3675 769 
L 4391 3500 
L 4966 3500 
L 4050 0 
L 3372 0 
L 2619 2869 
L 1863 0 
L 1184 0 
L 269 3500 
z
" transform="scale(0.015625)"/>
      <path id="DejaVuSans-66" d="M 2375 4863 
L 2375 4384 
L 1825 4384 
Q 1516 4384 1395 4259 
Q 1275 4134 1275 3809 
L 1275 3500 
L 2222 3500 
L 2222 3053 
L 1275 3053 
L 1275 0 
L 697 0 
L 697 3053 
L 147 3053 
L 147 3500 
L 697 3500 
L 697 3744 
Q 697 4328 969 4595 
Q 1241 4863 1831 4863 
L 2375 4863 
z
" transform="scale(0.015625)"/>
     </defs>
     <use xlink:href="#DejaVuSans-74"/>
     <use xlink:href="#DejaVuSans-65" transform="translate(39.208984 0)"/>
     <use xlink:href="#DejaVuSans-73" transform="translate(100.732422 0)"/>
     <use xlink:href="#DejaVuSans-74" transform="translate(152.832031 0)"/>
     <use xlink:href="#DejaVuSans-5f" transform="translate(192.041016 0)"/>
     <use xlink:href="#DejaVuSans-63" transform="translate(242.041016 0)"/>
     <use xlink:href="#DejaVuSans-6f" transform="translate(297.021484 0)"/>
     <use xlink:href="#DejaVuSans-72" transform="translate(358.203125 0)"/>
     <use xlink:href="#DejaVuSans-72" transform="translate(397.566406 0)"/>
     <use xlink:href="#DejaVuSans-65" transform="translate(436.429688 0)"/>
     <use xlink:href="#DejaVuSans-63" transform="translate(497.953125 0)"/>
     <use xlink:href="#DejaVuSans-74" transform="translate(552.933594 0)"/>
     <use xlink:href="#DejaVuSans-69" transform="translate(592.142578 0)"/>
     <use xlink:href="#DejaVuSans-6f" transform="translate(619.925781 0)"/>
     <use xlink:href="#DejaVuSans-6e" transform="translate(681.107422 0)"/>
     <use xlink:href="#DejaVuSans-5f" transform="translate(744.486328 0)"/>
     <use xlink:href="#DejaVuSans-62" transform="translate(794.486328 0)"/>
     <use xlink:href="#DejaVuSans-79" transform="translate(857.962891 0)"/>
     <use xlink:href="#DejaVuSans-5f" transform="translate(917.142578 0)"/>
     <use xlink:href="#DejaVuSans-53" transform="translate(967.142578 0)"/>
     <use xlink:href="#DejaVuSans-57" transform="translate(1030.619141 0)"/>
     <use xlink:href="#DejaVuSans-49" transform="translate(1129.496094 0)"/>
     <use xlink:href="#DejaVuSans-46" transform="translate(1158.988281 0)"/>
     <use xlink:href="#DejaVuSans-54" transform="translate(1214.757812 0)"/>
     <use xlink:href="#DejaVuSans-5f" transform="translate(1275.841797 0)"/>
     <use xlink:href="#DejaVuSans-32" transform="translate(1325.841797 0)"/>
     <use xlink:href="#DejaVuSans-5f" transform="translate(1389.464844 0)"/>
     <use xlink:href="#DejaVuSans-38" transform="translate(1439.464844 0)"/>
     <use xlink:href="#DejaVuSans-2d" transform="translate(1503.087891 0)"/>
     <use xlink:href="#DejaVuSans-32" transform="translate(1539.171875 0)"/>
     <use xlink:href="#DejaVuSans-30" transform="translate(1602.794922 0)"/>
     <use xlink:href="#DejaVuSans-5f" transform="translate(1666.417969 0)"/>
     <use xlink:href="#DejaVuSans-33" transform="translate(1716.417969 0)"/>
     <use xlink:href="#DejaVuSans-30" transform="translate(1780.041016 0)"/>
     <use xlink:href="#DejaVuSans-78" transform="translate(1843.664062 0)"/>
     <use xlink:href="#DejaVuSans-34" transform="translate(1902.84375 0)"/>
     <use xlink:href="#DejaVuSans-5f" transform="translate(1966.466797 0)"/>
     <use xlink:href="#DejaVuSans-70" transform="translate(2016.466797 0)"/>
     <use xlink:href="#DejaVuSans-6c" transform="translate(2079.943359 0)"/>
     <use xlink:href="#DejaVuSans-75" transform="translate(2107.726562 0)"/>
     <use xlink:href="#DejaVuSans-73" transform="translate(2171.105469 0)"/>
     <use xlink:href="#DejaVuSans-5f" transform="translate(2223.205078 0)"/>
     <use xlink:href="#DejaVuSans-61" transform="translate(2273.205078 0)"/>
     <use xlink:href="#DejaVuSans-63" transform="translate(2334.484375 0)"/>
     <use xlink:href="#DejaVuSans-63" transform="translate(2389.464844 0)"/>
     <use xlink:href="#DejaVuSans-75" transform="translate(2444.445312 0)"/>
     <use xlink:href="#DejaVuSans-20" transform="translate(2507.824219 0)"/>
     <use xlink:href="#DejaVuSans-2d" transform="translate(2539.611328 0)"/>
     <use xlink:href="#DejaVuSans-20" transform="translate(2575.695312 0)"/>
     <use xlink:href="#DejaVuSans-73" transform="translate(2607.482422 0)"/>
     <use xlink:href="#DejaVuSans-77" transform="translate(2659.582031 0)"/>
     <use xlink:href="#DejaVuSans-69" transform="translate(2741.369141 0)"/>
     <use xlink:href="#DejaVuSans-66" transform="translate(2769.152344 0)"/>
     <use xlink:href="#DejaVuSans-74" transform="translate(2802.607422 0)"/>
     <use xlink:href="#DejaVuSans-5f" transform="translate(2841.816406 0)"/>
     <use xlink:href="#DejaVuSans-72" transform="translate(2891.816406 0)"/>
     <use xlink:href="#DejaVuSans-75" transform="translate(2932.929688 0)"/>
     <use xlink:href="#DejaVuSans-6c" transform="translate(2996.308594 0)"/>
    </g>
   </g>
  </g>
 </g>
 <defs>
  <clipPath id="pa52133913c">
   <rect x="57.6" y="41.472" width="357.12" height="200.448"/>
  </clipPath>
 </defs>
</svg>
