<?xml version="1.0" encoding="utf-8" standalone="no"?>
<!DOCTYPE svg PUBLIC "-//W3C//DTD SVG 1.1//EN"
  "http://www.w3.org/Graphics/SVG/1.1/DTD/svg11.dtd">
<svg xmlns:xlink="http://www.w3.org/1999/xlink" width="460.8pt" height="345.6pt" viewBox="0 0 460.8 345.6" xmlns="http://www.w3.org/2000/svg" version="1.1">
 <metadata>
  <rdf:RDF xmlns:dc="http://purl.org/dc/elements/1.1/" xmlns:cc="http://creativecommons.org/ns#" xmlns:rdf="http://www.w3.org/1999/02/22-rdf-syntax-ns#">
   <cc:Work>
    <dc:type rdf:resource="http://purl.org/dc/dcmitype/StillImage"/>
    <dc:date>2025-10-20T22:15:10.657783</dc:date>
    <dc:format>image/svg+xml</dc:format>
    <dc:creator>
     <cc:Agent>
      <dc:title>Matplotlib v3.10.6, https://matplotlib.org/</dc:title>
     </cc:Agent>
    </dc:creator>
   </cc:Work>
  </rdf:RDF>
 </metadata>
 <defs>
  <style type="text/css">*{stroke-linejoin: round; stroke-linecap: butt}</style>
 </defs>
 <g id="figure_1">
  <g id="patch_1">
   <path d="M 0 345.6 
L 460.8 345.6 
L 460.8 0 
L 0 0 
z
" style="fill: #ffffff"/>
  </g>
  <g id="axes_1">
   <g id="patch_2">
    <path d="M 57.6 241.92 
L 414.72 241.92 
L 414.72 41.472 
L 57.6 41.472 
z
" style="fill: #ffffff"/>
   </g>
   <g id="matplotlib.axis_1">
    <g id="xtick_1">
     <g id="line2d_1">
      <defs>
       <path id="mcbb38a8fe0" d="M 0 0 
L 0 3.5 
" style="stroke: #000000; stroke-width: 0.8"/>
      </defs>
      <g>
       <use xlink:href="#mcbb38a8fe0" x="73.832727" y="241.92" style="stroke: #000000; stroke-width: 0.8"/>
      </g>
     </g>
     <g id="text_1">
      <!-- 0 -->
      <g transform="translate(70.651477 256.518438) scale(0.1 -0.1)">
       <defs>
        <path id="DejaVuSans-30" d="M 2034 4250 
Q 1547 4250 1301 3770 
Q 1056 3291 1056 2328 
Q 1056 1369 1301 889 
Q 1547 409 2034 409 
Q 2525 409 2770 889 
Q 3016 1369 3016 2328 
Q 3016 3291 2770 3770 
Q 2525 4250 2034 4250 
z
M 2034 4750 
Q 2819 4750 3233 4129 
Q 3647 3509 3647 2328 
Q 3647 1150 3233 529 
Q 2819 -91 2034 -91 
Q 1250 -91 836 529 
Q 422 1150 422 2328 
Q 422 3509 836 4129 
Q 1250 4750 2034 4750 
z
" transform="scale(0.015625)"/>
       </defs>
       <use xlink:href="#DejaVuSans-30"/>
      </g>
     </g>
    </g>
    <g id="xtick_2">
     <g id="line2d_2">
      <g>
       <use xlink:href="#mcbb38a8fe0" x="114.618474" y="241.92" style="stroke: #000000; stroke-width: 0.8"/>
      </g>
     </g>
     <g id="text_2">
      <!-- 25 -->
      <g transform="translate(108.255974 256.518438) scale(0.1 -0.1)">
       <defs>
        <path id="DejaVuSans-32" d="M 1228 531 
L 3431 531 
L 3431 0 
L 469 0 
L 469 531 
Q 828 903 1448 1529 
Q 2069 2156 2228 2338 
Q 2531 2678 2651 2914 
Q 2772 3150 2772 3378 
Q 2772 3750 2511 3984 
Q 2250 4219 1831 4219 
Q 1534 4219 1204 4116 
Q 875 4013 500 3803 
L 500 4441 
Q 881 4594 1212 4672 
Q 1544 4750 1819 4750 
Q 2544 4750 2975 4387 
Q 3406 4025 3406 3419 
Q 3406 3131 3298 2873 
Q 3191 2616 2906 2266 
Q 2828 2175 2409 1742 
Q 1991 1309 1228 531 
z
" transform="scale(0.015625)"/>
        <path id="DejaVuSans-35" d="M 691 4666 
L 3169 4666 
L 3169 4134 
L 1269 4134 
L 1269 2991 
Q 1406 3038 1543 3061 
Q 1681 3084 1819 3084 
Q 2600 3084 3056 2656 
Q 3513 2228 3513 1497 
Q 3513 744 3044 326 
Q 2575 -91 1722 -91 
Q 1428 -91 1123 -41 
Q 819 9 494 109 
L 494 744 
Q 775 591 1075 516 
Q 1375 441 1709 441 
Q 2250 441 2565 725 
Q 2881 1009 2881 1497 
Q 2881 1984 2565 2268 
Q 2250 2553 1709 2553 
Q 1456 2553 1204 2497 
Q 953 2441 691 2322 
L 691 4666 
z
" transform="scale(0.015625)"/>
       </defs>
       <use xlink:href="#DejaVuSans-32"/>
       <use xlink:href="#DejaVuSans-35" transform="translate(63.623047 0)"/>
      </g>
     </g>
    </g>
    <g id="xtick_3">
     <g id="line2d_3">
      <g>
       <use xlink:href="#mcbb38a8fe0" x="155.404221" y="241.92" style="stroke: #000000; stroke-width: 0.8"/>
      </g>
     </g>
     <g id="text_3">
      <!-- 50 -->
      <g transform="translate(149.041721 256.518438) scale(0.1 -0.1)">
       <use xlink:href="#DejaVuSans-35"/>
       <use xlink:href="#DejaVuSans-30" transform="translate(63.623047 0)"/>
      </g>
     </g>
    </g>
    <g id="xtick_4">
     <g id="line2d_4">
      <g>
       <use xlink:href="#mcbb38a8fe0" x="196.189968" y="241.92" style="stroke: #000000; stroke-width: 0.8"/>
      </g>
     </g>
     <g id="text_4">
      <!-- 75 -->
      <g transform="translate(189.827468 256.518438) scale(0.1 -0.1)">
       <defs>
        <path id="DejaVuSans-37" d="M 525 4666 
L 3525 4666 
L 3525 4397 
L 1831 0 
L 1172 0 
L 2766 4134 
L 525 4134 
L 525 4666 
z
" transform="scale(0.015625)"/>
       </defs>
       <use xlink:href="#DejaVuSans-37"/>
       <use xlink:href="#DejaVuSans-35" transform="translate(63.623047 0)"/>
      </g>
     </g>
    </g>
    <g id="xtick_5">
     <g id="line2d_5">
      <g>
       <use xlink:href="#mcbb38a8fe0" x="236.975715" y="241.92" style="stroke: #000000; stroke-width: 0.8"/>
      </g>
     </g>
     <g id="text_5">
      <!-- 100 -->
      <g transform="translate(227.431965 256.518438) scale(0.1 -0.1)">
       <defs>
        <path id="DejaVuSans-31" d="M 794 531 
L 1825 531 
L 1825 4091 
L 703 3866 
L 703 4441 
L 1819 4666 
L 2450 4666 
L 2450 531 
L 3481 531 
L 3481 0 
L 794 0 
L 794 531 
z
" transform="scale(0.015625)"/>
       </defs>
       <use xlink:href="#DejaVuSans-31"/>
       <use xlink:href="#DejaVuSans-30" transform="translate(63.623047 0)"/>
       <use xlink:href="#DejaVuSans-30" transform="translate(127.246094 0)"/>
      </g>
     </g>
    </g>
    <g id="xtick_6">
     <g id="line2d_6">
      <g>
       <use xlink:href="#mcbb38a8fe0" x="277.761462" y="241.92" style="stroke: #000000; stroke-width: 0.8"/>
      </g>
     </g>
     <g id="text_6">
      <!-- 125 -->
      <g transform="translate(268.217712 256.518438) scale(0.1 -0.1)">
       <use xlink:href="#DejaVuSans-31"/>
       <use xlink:href="#DejaVuSans-32" transform="translate(63.623047 0)"/>
       <use xlink:href="#DejaVuSans-35" transform="translate(127.246094 0)"/>
      </g>
     </g>
    </g>
    <g id="xtick_7">
     <g id="line2d_7">
      <g>
       <use xlink:href="#mcbb38a8fe0" x="318.547209" y="241.92" style="stroke: #000000; stroke-width: 0.8"/>
      </g>
     </g>
     <g id="text_7">
      <!-- 150 -->
      <g transform="translate(309.003459 256.518438) scale(0.1 -0.1)">
       <use xlink:href="#DejaVuSans-31"/>
       <use xlink:href="#DejaVuSans-35" transform="translate(63.623047 0)"/>
       <use xlink:href="#DejaVuSans-30" transform="translate(127.246094 0)"/>
      </g>
     </g>
    </g>
    <g id="xtick_8">
     <g id="line2d_8">
      <g>
       <use xlink:href="#mcbb38a8fe0" x="359.332956" y="241.92" style="stroke: #000000; stroke-width: 0.8"/>
      </g>
     </g>
     <g id="text_8">
      <!-- 175 -->
      <g transform="translate(349.789206 256.518438) scale(0.1 -0.1)">
       <use xlink:href="#DejaVuSans-31"/>
       <use xlink:href="#DejaVuSans-37" transform="translate(63.623047 0)"/>
       <use xlink:href="#DejaVuSans-35" transform="translate(127.246094 0)"/>
      </g>
     </g>
    </g>
    <g id="xtick_9">
     <g id="line2d_9">
      <g>
       <use xlink:href="#mcbb38a8fe0" x="400.118703" y="241.92" style="stroke: #000000; stroke-width: 0.8"/>
      </g>
     </g>
     <g id="text_9">
      <!-- 200 -->
      <g transform="translate(390.574953 256.518438) scale(0.1 -0.1)">
       <use xlink:href="#DejaVuSans-32"/>
       <use xlink:href="#DejaVuSans-30" transform="translate(63.623047 0)"/>
       <use xlink:href="#DejaVuSans-30" transform="translate(127.246094 0)"/>
      </g>
     </g>
    </g>
   </g>
   <g id="matplotlib.axis_2">
    <g id="ytick_1">
     <g id="line2d_10">
      <defs>
       <path id="m4ff3647d67" d="M 0 0 
L -3.5 0 
" style="stroke: #000000; stroke-width: 0.8"/>
      </defs>
      <g>
       <use xlink:href="#m4ff3647d67" x="57.6" y="238.957714" style="stroke: #000000; stroke-width: 0.8"/>
      </g>
     </g>
     <g id="text_10">
      <!-- 0.00 -->
      <g transform="translate(28.334375 242.756933) scale(0.1 -0.1)">
       <defs>
        <path id="DejaVuSans-2e" d="M 684 794 
L 1344 794 
L 1344 0 
L 684 0 
L 684 794 
z
" transform="scale(0.015625)"/>
       </defs>
       <use xlink:href="#DejaVuSans-30"/>
       <use xlink:href="#DejaVuSans-2e" transform="translate(63.623047 0)"/>
       <use xlink:href="#DejaVuSans-30" transform="translate(95.410156 0)"/>
       <use xlink:href="#DejaVuSans-30" transform="translate(159.033203 0)"/>
      </g>
     </g>
    </g>
    <g id="ytick_2">
     <g id="line2d_11">
      <g>
       <use xlink:href="#m4ff3647d67" x="57.6" y="208.66161" style="stroke: #000000; stroke-width: 0.8"/>
      </g>
     </g>
     <g id="text_11">
      <!-- 0.05 -->
      <g transform="translate(28.334375 212.460829) scale(0.1 -0.1)">
       <use xlink:href="#DejaVuSans-30"/>
       <use xlink:href="#DejaVuSans-2e" transform="translate(63.623047 0)"/>
       <use xlink:href="#DejaVuSans-30" transform="translate(95.410156 0)"/>
       <use xlink:href="#DejaVuSans-35" transform="translate(159.033203 0)"/>
      </g>
     </g>
    </g>
    <g id="ytick_3">
     <g id="line2d_12">
      <g>
       <use xlink:href="#m4ff3647d67" x="57.6" y="178.365506" style="stroke: #000000; stroke-width: 0.8"/>
      </g>
     </g>
     <g id="text_12">
      <!-- 0.10 -->
      <g transform="translate(28.334375 182.164725) scale(0.1 -0.1)">
       <use xlink:href="#DejaVuSans-30"/>
       <use xlink:href="#DejaVuSans-2e" transform="translate(63.623047 0)"/>
       <use xlink:href="#DejaVuSans-31" transform="translate(95.410156 0)"/>
       <use xlink:href="#DejaVuSans-30" transform="translate(159.033203 0)"/>
      </g>
     </g>
    </g>
    <g id="ytick_4">
     <g id="line2d_13">
      <g>
       <use xlink:href="#m4ff3647d67" x="57.6" y="148.069403" style="stroke: #000000; stroke-width: 0.8"/>
      </g>
     </g>
     <g id="text_13">
      <!-- 0.15 -->
      <g transform="translate(28.334375 151.868621) scale(0.1 -0.1)">
       <use xlink:href="#DejaVuSans-30"/>
       <use xlink:href="#DejaVuSans-2e" transform="translate(63.623047 0)"/>
       <use xlink:href="#DejaVuSans-31" transform="translate(95.410156 0)"/>
       <use xlink:href="#DejaVuSans-35" transform="translate(159.033203 0)"/>
      </g>
     </g>
    </g>
    <g id="ytick_5">
     <g id="line2d_14">
      <g>
       <use xlink:href="#m4ff3647d67" x="57.6" y="117.773299" style="stroke: #000000; stroke-width: 0.8"/>
      </g>
     </g>
     <g id="text_14">
      <!-- 0.20 -->
      <g transform="translate(28.334375 121.572517) scale(0.1 -0.1)">
       <use xlink:href="#DejaVuSans-30"/>
       <use xlink:href="#DejaVuSans-2e" transform="translate(63.623047 0)"/>
       <use xlink:href="#DejaVuSans-32" transform="translate(95.410156 0)"/>
       <use xlink:href="#DejaVuSans-30" transform="translate(159.033203 0)"/>
      </g>
     </g>
    </g>
    <g id="ytick_6">
     <g id="line2d_15">
      <g>
       <use xlink:href="#m4ff3647d67" x="57.6" y="87.477195" style="stroke: #000000; stroke-width: 0.8"/>
      </g>
     </g>
     <g id="text_15">
      <!-- 0.25 -->
      <g transform="translate(28.334375 91.276414) scale(0.1 -0.1)">
       <use xlink:href="#DejaVuSans-30"/>
       <use xlink:href="#DejaVuSans-2e" transform="translate(63.623047 0)"/>
       <use xlink:href="#DejaVuSans-32" transform="translate(95.410156 0)"/>
       <use xlink:href="#DejaVuSans-35" transform="translate(159.033203 0)"/>
      </g>
     </g>
    </g>
    <g id="ytick_7">
     <g id="line2d_16">
      <g>
       <use xlink:href="#m4ff3647d67" x="57.6" y="57.181091" style="stroke: #000000; stroke-width: 0.8"/>
      </g>
     </g>
     <g id="text_16">
      <!-- 0.30 -->
      <g transform="translate(28.334375 60.98031) scale(0.1 -0.1)">
       <defs>
        <path id="DejaVuSans-33" d="M 2597 2516 
Q 3050 2419 3304 2112 
Q 3559 1806 3559 1356 
Q 3559 666 3084 287 
Q 2609 -91 1734 -91 
Q 1441 -91 1130 -33 
Q 819 25 488 141 
L 488 750 
Q 750 597 1062 519 
Q 1375 441 1716 441 
Q 2309 441 2620 675 
Q 2931 909 2931 1356 
Q 2931 1769 2642 2001 
Q 2353 2234 1838 2234 
L 1294 2234 
L 1294 2753 
L 1863 2753 
Q 2328 2753 2575 2939 
Q 2822 3125 2822 3475 
Q 2822 3834 2567 4026 
Q 2313 4219 1838 4219 
Q 1578 4219 1281 4162 
Q 984 4106 628 3988 
L 628 4550 
Q 988 4650 1302 4700 
Q 1616 4750 1894 4750 
Q 2613 4750 3031 4423 
Q 3450 4097 3450 3541 
Q 3450 3153 3228 2886 
Q 3006 2619 2597 2516 
z
" transform="scale(0.015625)"/>
       </defs>
       <use xlink:href="#DejaVuSans-30"/>
       <use xlink:href="#DejaVuSans-2e" transform="translate(63.623047 0)"/>
       <use xlink:href="#DejaVuSans-33" transform="translate(95.410156 0)"/>
       <use xlink:href="#DejaVuSans-30" transform="translate(159.033203 0)"/>
      </g>
     </g>
    </g>
   </g>
   <g id="line2d_17">
    <path d="M 73.832727 229.490182 
L 75.464157 229.490182 
L 77.095587 224.756416 
L 78.727017 229.490182 
L 80.358447 215.288883 
L 86.884166 215.288883 
L 88.515596 210.555117 
L 90.147026 210.555117 
L 91.778456 203.454468 
L 93.409886 208.188234 
L 95.041316 203.454468 
L 99.935605 217.655766 
L 101.567035 212.922 
L 103.198465 212.922 
L 104.829895 201.087584 
L 106.461325 196.353818 
L 108.092755 196.353818 
L 109.724185 201.087584 
L 112.987044 191.620052 
L 114.618474 182.152519 
L 116.249904 177.418753 
L 117.881334 182.152519 
L 119.512764 182.152519 
L 121.144194 186.886286 
L 122.775624 186.886286 
L 124.407053 182.152519 
L 126.038483 182.152519 
L 127.669913 177.418753 
L 129.301343 184.519403 
L 134.195633 184.519403 
L 135.827063 179.785636 
L 137.458492 189.253169 
L 139.089922 189.253169 
L 140.721352 182.152519 
L 142.352782 172.684987 
L 143.984212 177.418753 
L 145.615642 179.785636 
L 147.247072 184.519403 
L 148.878502 184.519403 
L 150.509931 193.986935 
L 152.141361 196.353818 
L 153.772791 193.986935 
L 155.404221 193.986935 
L 157.035651 189.253169 
L 161.929941 189.253169 
L 163.56137 182.152519 
L 165.1928 182.152519 
L 166.82423 172.684987 
L 168.45566 177.418753 
L 170.08709 172.684987 
L 171.71852 172.684987 
L 173.34995 177.418753 
L 174.98138 177.418753 
L 176.61281 172.684987 
L 178.244239 172.684987 
L 179.875669 170.318104 
L 181.507099 163.217455 
L 183.138529 158.483688 
L 184.769959 146.649273 
L 186.401389 156.116805 
L 191.295678 156.116805 
L 192.927108 160.850571 
L 194.558538 160.850571 
L 196.189968 153.749922 
L 197.821398 149.016156 
L 199.452828 149.016156 
L 201.084258 153.749922 
L 202.715688 153.749922 
L 205.978547 144.28239 
L 207.609977 144.28239 
L 209.241407 146.649273 
L 210.872837 146.649273 
L 214.135697 141.915506 
L 217.398556 141.915506 
L 219.029986 139.548623 
L 220.661416 134.814857 
L 222.292846 125.347325 
L 223.924276 130.081091 
L 225.555706 130.081091 
L 228.818566 139.548623 
L 230.449995 139.548623 
L 232.081425 144.28239 
L 233.712855 137.18174 
L 235.344285 144.28239 
L 236.975715 134.814857 
L 238.607145 139.548623 
L 240.238575 134.814857 
L 241.870005 144.28239 
L 243.501434 139.548623 
L 245.132864 141.915506 
L 246.764294 141.915506 
L 248.395724 139.548623 
L 250.027154 144.28239 
L 251.658584 144.28239 
L 254.921444 149.016156 
L 256.552873 134.814857 
L 259.815733 144.28239 
L 261.447163 146.649273 
L 263.078593 139.548623 
L 264.710023 141.915506 
L 267.972883 151.383039 
L 269.604312 146.649273 
L 271.235742 151.383039 
L 272.867172 144.28239 
L 274.498602 149.016156 
L 276.130032 149.016156 
L 277.761462 151.383039 
L 279.392892 139.548623 
L 282.655751 144.28239 
L 284.287181 151.383039 
L 287.550041 151.383039 
L 289.181471 149.016156 
L 297.33862 149.016156 
L 298.97005 141.915506 
L 300.60148 144.28239 
L 303.86434 153.749922 
L 305.49577 146.649273 
L 307.1272 141.915506 
L 312.021489 134.814857 
L 315.284349 144.28239 
L 316.915779 141.915506 
L 318.547209 127.714208 
L 320.178639 125.347325 
L 323.441498 115.879792 
L 325.072928 115.879792 
L 326.704358 127.714208 
L 328.335788 125.347325 
L 333.230078 139.548623 
L 334.861508 132.447974 
L 338.124367 122.980442 
L 339.755797 115.879792 
L 341.387227 120.613558 
L 343.018657 120.613558 
L 344.650087 125.347325 
L 346.281517 125.347325 
L 347.912947 111.146026 
L 352.807236 125.347325 
L 354.438666 127.714208 
L 356.070096 122.980442 
L 357.701526 122.980442 
L 359.332956 120.613558 
L 362.595815 120.613558 
L 364.227245 122.980442 
L 365.858675 122.980442 
L 367.490105 120.613558 
L 369.121535 130.081091 
L 372.384395 120.613558 
L 374.015825 120.613558 
L 375.647254 118.246675 
L 377.278684 120.613558 
L 378.910114 125.347325 
L 382.172974 125.347325 
L 383.804404 118.246675 
L 387.067264 113.512909 
L 388.698693 118.246675 
L 390.330123 120.613558 
L 391.961553 113.512909 
L 393.592983 120.613558 
L 395.224413 113.512909 
L 396.855843 115.879792 
L 398.487273 111.146026 
L 398.487273 111.146026 
" clip-path="url(#p657e03f7f9)" style="fill: none; stroke: #1f77b4; stroke-width: 1.5; stroke-linecap: square"/>
   </g>
   <g id="line2d_18">
    <path d="M 73.832727 231.857065 
L 75.464157 228.30674 
L 78.727017 214.105442 
L 81.989877 204.637909 
L 83.621307 199.312422 
L 85.252736 195.170377 
L 88.515596 191.028331 
L 90.147026 186.886286 
L 91.778456 180.969078 
L 93.409886 179.785636 
L 98.304175 174.460149 
L 99.935605 172.093266 
L 101.567035 169.430523 
L 103.198465 168.247081 
L 104.829895 166.176058 
L 106.461325 160.554711 
L 108.092755 158.483688 
L 109.724185 156.116805 
L 111.355614 156.708526 
L 112.987044 153.454062 
L 114.618474 152.27062 
L 116.249904 153.454062 
L 117.881334 152.566481 
L 119.512764 153.454062 
L 121.144194 151.087179 
L 122.775624 149.016156 
L 124.407053 144.87411 
L 126.038483 144.87411 
L 127.669913 144.57825 
L 129.301343 141.027925 
L 130.932773 135.998299 
L 132.564203 135.702438 
L 134.195633 137.18174 
L 135.827063 135.998299 
L 137.458492 136.294159 
L 139.089922 135.702438 
L 140.721352 135.406578 
L 142.352782 132.447974 
L 143.984212 128.897649 
L 145.615642 126.826627 
L 147.247072 124.163883 
L 148.878502 122.980442 
L 150.509931 120.613558 
L 152.141361 117.063234 
L 153.772791 114.992211 
L 157.035651 112.625328 
L 158.667081 111.737747 
L 160.298511 111.441886 
L 161.929941 111.441886 
L 163.56137 111.737747 
L 165.1928 112.329468 
L 166.82423 112.329468 
L 168.45566 111.441886 
L 170.08709 111.737747 
L 171.71852 112.921188 
L 173.34995 112.921188 
L 174.98138 109.370864 
L 176.61281 109.666724 
L 178.244239 108.187422 
L 179.875669 109.370864 
L 181.507099 108.483282 
L 183.138529 105.820539 
L 184.769959 100.790912 
L 186.401389 98.71989 
L 188.032819 98.128169 
L 189.664249 96.648867 
L 191.295678 95.465425 
L 192.927108 91.027519 
L 194.558538 93.986123 
L 196.189968 96.057146 
L 197.821398 95.465425 
L 199.452828 90.435799 
L 201.084258 88.660636 
L 202.715688 87.773055 
L 204.347117 87.477195 
L 205.978547 84.814451 
L 207.609977 83.92687 
L 209.241407 82.447568 
L 210.872837 82.447568 
L 212.504267 80.968266 
L 214.135697 78.601383 
L 215.767127 80.376545 
L 217.398556 78.897244 
L 219.029986 78.009662 
L 220.661416 78.305523 
L 222.292846 79.784825 
L 223.924276 81.559987 
L 225.555706 79.193104 
L 227.187136 76.53036 
L 228.818566 78.601383 
L 230.449995 74.755198 
L 232.081425 75.051058 
L 233.712855 76.53036 
L 235.344285 76.53036 
L 236.975715 74.755198 
L 238.607145 76.53036 
L 240.238575 74.459338 
L 241.870005 71.796594 
L 243.501434 75.051058 
L 245.132864 73.571756 
L 246.764294 75.93864 
L 248.395724 74.459338 
L 250.027154 75.346919 
L 251.658584 72.684175 
L 253.290014 71.500734 
L 254.921444 69.429711 
L 256.552873 70.613153 
L 258.184303 72.980036 
L 259.815733 74.755198 
L 261.447163 74.755198 
L 263.078593 72.092455 
L 264.710023 71.796594 
L 266.341453 74.459338 
L 267.972883 72.980036 
L 269.604312 74.755198 
L 271.235742 74.459338 
L 272.867172 74.459338 
L 274.498602 72.684175 
L 276.130032 71.796594 
L 277.761462 71.796594 
L 281.024322 70.021432 
L 282.655751 69.429711 
L 284.287181 66.471107 
L 285.918611 66.471107 
L 287.550041 67.062828 
L 289.181471 66.175247 
L 290.812901 66.175247 
L 292.444331 64.400084 
L 294.075761 61.14562 
L 295.70719 62.624922 
L 297.33862 61.737341 
L 298.97005 59.666318 
L 300.60148 61.441481 
L 303.86434 62.033201 
L 305.49577 62.624922 
L 307.1272 62.329062 
L 308.75863 62.920782 
L 310.390059 62.624922 
L 312.021489 62.624922 
L 313.652919 63.216643 
L 315.284349 62.920782 
L 316.915779 61.737341 
L 318.547209 61.441481 
L 320.178639 62.920782 
L 321.810069 61.737341 
L 323.441498 60.84976 
L 325.072928 57.891156 
L 326.704358 59.370458 
L 329.967218 59.370458 
L 331.598648 58.482877 
L 333.230078 58.482877 
L 334.861508 60.553899 
L 336.492937 61.441481 
L 338.124367 61.737341 
L 339.755797 60.553899 
L 341.387227 57.299435 
L 343.018657 59.074597 
L 346.281517 60.258039 
L 347.912947 61.14562 
L 349.544376 59.962179 
L 351.175806 60.84976 
L 352.807236 61.441481 
L 354.438666 59.370458 
L 357.701526 61.14562 
L 359.332956 61.441481 
L 360.964386 63.216643 
L 362.595815 61.737341 
L 364.227245 60.84976 
L 365.858675 62.329062 
L 367.490105 59.370458 
L 369.121535 58.482877 
L 370.752965 58.187016 
L 372.384395 58.482877 
L 374.015825 57.891156 
L 375.647254 57.891156 
L 377.278684 58.778737 
L 378.910114 55.820133 
L 380.541544 55.524273 
L 382.172974 57.891156 
L 383.804404 58.187016 
L 385.435834 57.595295 
L 387.067264 59.666318 
L 388.698693 59.666318 
L 390.330123 60.553899 
L 391.961553 59.074597 
L 393.592983 59.962179 
L 395.224413 60.553899 
L 398.487273 61.14562 
L 398.487273 61.14562 
" clip-path="url(#p657e03f7f9)" style="fill: none; stroke: #ff7f0e; stroke-width: 1.5; stroke-linecap: square"/>
   </g>
   <g id="line2d_19">
    <path d="M 73.832727 230.323325 
L 75.464157 225.172987 
L 77.095587 219.568208 
L 78.727017 216.841558 
L 80.358447 210.630857 
L 81.989877 207.752727 
L 83.621307 203.965714 
L 85.252736 200.936104 
L 86.884166 194.270961 
L 88.515596 188.969143 
L 90.147026 186.696935 
L 91.778456 181.243636 
L 93.409886 176.54774 
L 95.041316 174.578494 
L 96.672746 171.245922 
L 98.304175 169.428156 
L 99.935605 170.337039 
L 101.567035 168.519273 
L 103.198465 164.429299 
L 104.829895 163.368935 
L 106.461325 163.368935 
L 108.092755 159.430442 
L 109.724185 158.370078 
L 111.355614 157.915636 
L 112.987044 155.340468 
L 114.618474 152.310857 
L 116.249904 149.887169 
L 117.881334 148.523844 
L 119.512764 147.312 
L 121.144194 145.948675 
L 122.775624 144.736831 
L 124.407053 142.767584 
L 126.038483 142.767584 
L 127.669913 140.343896 
L 129.301343 139.435013 
L 130.932773 135.950961 
L 132.564203 134.284675 
L 134.195633 131.406545 
L 135.827063 127.619532 
L 137.458492 126.407688 
L 139.089922 126.256208 
L 140.721352 125.347325 
L 142.352782 125.195844 
L 143.984212 122.923636 
L 145.615642 120.045506 
L 147.247072 118.682182 
L 148.878502 116.864416 
L 150.509931 116.864416 
L 152.141361 114.440727 
L 153.772791 111.108156 
L 155.404221 108.835948 
L 157.035651 108.987429 
L 158.667081 108.684468 
L 160.298511 108.078545 
L 161.929941 105.654857 
L 163.56137 104.745974 
L 165.1928 102.170805 
L 166.82423 101.413403 
L 168.45566 101.110442 
L 170.08709 98.838234 
L 171.71852 98.232312 
L 173.34995 99.444156 
L 174.98138 99.898597 
L 176.61281 101.261922 
L 179.875669 98.535273 
L 181.507099 98.232312 
L 183.138529 97.474909 
L 188.032819 90.961247 
L 189.664249 91.264208 
L 191.295678 90.658286 
L 192.927108 89.143481 
L 194.558538 90.506805 
L 196.189968 89.294961 
L 197.821398 87.780156 
L 199.452828 87.628675 
L 201.084258 89.143481 
L 202.715688 89.597922 
L 204.347117 87.931636 
L 205.978547 87.022753 
L 207.609977 87.022753 
L 209.241407 85.96239 
L 210.872837 85.96239 
L 212.504267 84.902026 
L 214.135697 84.144623 
L 215.767127 84.447584 
L 217.398556 86.416831 
L 219.029986 87.477195 
L 220.661416 86.568312 
L 222.292846 84.144623 
L 223.924276 83.23574 
L 225.555706 80.35761 
L 227.187136 79.751688 
L 228.818566 80.054649 
L 230.449995 77.782442 
L 233.712855 78.085403 
L 236.975715 75.661714 
L 238.607145 76.267636 
L 240.238575 75.510234 
L 241.870005 73.086545 
L 243.501434 70.208416 
L 245.132864 69.602494 
L 248.395724 72.026182 
L 250.027154 73.086545 
L 251.658584 73.843948 
L 253.290014 75.358753 
L 254.921444 75.358753 
L 256.552873 75.207273 
L 259.815733 71.42026 
L 261.447163 70.359896 
L 263.078593 68.087688 
L 264.710023 68.845091 
L 266.341453 68.390649 
L 267.972883 69.602494 
L 269.604312 68.996571 
L 271.235742 70.056935 
L 272.867172 70.511377 
L 274.498602 70.511377 
L 276.130032 70.965818 
L 277.761462 69.299532 
L 279.392892 68.239169 
L 281.024322 68.845091 
L 282.655751 67.633247 
L 284.287181 66.724364 
L 285.918611 65.966961 
L 287.550041 66.118442 
L 290.812901 65.512519 
L 292.444331 64.755117 
L 294.075761 65.209558 
L 295.70719 64.603636 
L 297.33862 62.937351 
L 298.97005 64.149195 
L 300.60148 64.149195 
L 302.23291 63.997714 
L 303.86434 64.755117 
L 305.49577 63.240312 
L 307.1272 60.968104 
L 308.75863 60.513662 
L 310.390059 61.876987 
L 312.021489 61.574026 
L 313.652919 62.028468 
L 315.284349 62.63439 
L 316.915779 62.937351 
L 318.547209 62.482909 
L 320.178639 62.63439 
L 321.810069 63.391792 
L 323.441498 63.088831 
L 325.072928 62.331429 
L 326.704358 61.876987 
L 328.335788 62.331429 
L 331.598648 63.543273 
L 333.230078 62.78587 
L 334.861508 63.391792 
L 336.492937 62.028468 
L 338.124367 62.63439 
L 339.755797 61.422545 
L 341.387227 62.78587 
L 343.018657 62.331429 
L 344.650087 63.694753 
L 346.281517 62.63439 
L 347.912947 63.694753 
L 349.544376 63.240312 
L 351.175806 62.028468 
L 352.807236 62.63439 
L 354.438666 62.331429 
L 356.070096 62.78587 
L 357.701526 62.028468 
L 359.332956 61.119584 
L 360.964386 60.816623 
L 364.227245 62.331429 
L 365.858675 60.968104 
L 367.490105 61.422545 
L 369.121535 60.210701 
L 370.752965 60.210701 
L 372.384395 59.301818 
L 374.015825 58.695896 
L 375.647254 57.332571 
L 377.278684 57.02961 
L 378.910114 59.301818 
L 380.541544 59.604779 
L 382.172974 59.75626 
L 385.435834 61.574026 
L 387.067264 61.271065 
L 388.698693 60.210701 
L 390.330123 59.75626 
L 391.961553 58.544416 
L 393.592983 60.362182 
L 396.855843 60.362182 
L 398.487273 61.119584 
L 398.487273 61.119584 
" clip-path="url(#p657e03f7f9)" style="fill: none; stroke: #2ca02c; stroke-width: 1.5; stroke-linecap: square"/>
   </g>
   <g id="line2d_20">
    <path d="M 73.832727 230.25039 
L 81.989877 203.904 
L 83.621307 200.268468 
L 85.252736 195.062026 
L 86.884166 192.23439 
L 88.515596 188.868156 
L 90.147026 184.46961 
L 91.778456 181.238026 
L 93.409886 177.063896 
L 96.672746 170.735377 
L 98.304175 168.401455 
L 99.935605 167.234494 
L 103.198465 160.726442 
L 108.092755 155.385351 
L 109.724185 152.871896 
L 111.355614 149.954494 
L 112.987044 147.575688 
L 114.618474 146.543377 
L 116.249904 144.703169 
L 117.881334 143.177143 
L 119.512764 140.932987 
L 122.775624 138.24 
L 124.407053 137.925818 
L 126.038483 135.906078 
L 127.669913 133.033558 
L 129.301343 132.360312 
L 130.932773 130.879169 
L 132.564203 128.59013 
L 134.195633 126.929455 
L 135.827063 125.044364 
L 137.458492 123.563221 
L 139.089922 121.857662 
L 140.721352 119.433974 
L 142.352782 118.491429 
L 143.984212 116.516571 
L 145.615642 116.06774 
L 147.247072 114.721247 
L 148.878502 114.048 
L 150.509931 113.105455 
L 152.141361 111.355013 
L 153.772791 110.636883 
L 157.035651 107.225766 
L 158.667081 106.41787 
L 160.298511 105.744623 
L 161.929941 103.724883 
L 163.56137 102.782338 
L 168.45566 98.877506 
L 170.08709 98.20426 
L 171.71852 96.004987 
L 174.98138 93.042701 
L 178.244239 91.785974 
L 179.875669 90.529247 
L 181.507099 88.55439 
L 183.138529 89.048104 
L 184.769959 88.374857 
L 186.401389 87.881143 
L 188.032819 86.938597 
L 191.295678 86.310234 
L 192.927108 86.265351 
L 194.558538 83.976312 
L 196.189968 83.258182 
L 197.821398 83.347948 
L 199.452828 82.988883 
L 201.084258 81.552623 
L 202.715688 80.879377 
L 204.347117 80.430545 
L 205.978547 80.78961 
L 207.609977 80.026597 
L 209.241407 79.532883 
L 210.872837 78.545455 
L 212.504267 76.884779 
L 214.135697 75.538286 
L 215.767127 74.865039 
L 217.398556 74.371325 
L 219.029986 73.383896 
L 220.661416 72.127169 
L 222.292846 71.85787 
L 223.924276 71.723221 
L 225.555706 71.094857 
L 228.818566 70.646026 
L 230.449995 69.613714 
L 232.081425 68.40187 
L 233.712855 66.786078 
L 235.344285 67.145143 
L 236.975715 67.10026 
L 238.607145 67.324675 
L 240.238575 67.234909 
L 241.870005 67.010494 
L 243.501434 66.337247 
L 245.132864 66.96561 
L 246.764294 66.38213 
L 248.395724 66.292364 
L 250.027154 65.843532 
L 251.658584 65.215169 
L 254.921444 65.035636 
L 256.552873 65.349818 
L 258.184303 65.394701 
L 259.815733 65.574234 
L 261.447163 64.586805 
L 263.078593 64.317506 
L 264.710023 64.36239 
L 266.341453 64.631688 
L 267.972883 63.240312 
L 269.604312 63.330078 
L 271.235742 64.048208 
L 272.867172 64.137974 
L 274.498602 63.554494 
L 276.130032 62.611948 
L 277.761462 61.938701 
L 281.024322 61.400104 
L 284.287181 61.759169 
L 285.918611 63.015896 
L 287.550041 62.92613 
L 289.181471 62.611948 
L 290.812901 62.163117 
L 292.444331 62.028468 
L 294.075761 61.759169 
L 295.70719 61.848935 
L 298.97005 61.355221 
L 300.60148 60.457558 
L 303.86434 60.278026 
L 305.49577 60.681974 
L 307.1272 61.220571 
L 308.75863 60.816623 
L 310.390059 60.951273 
L 312.021489 60.098494 
L 313.652919 60.008727 
L 316.915779 58.886649 
L 318.547209 58.168519 
L 320.178639 56.866909 
L 321.810069 56.148779 
L 323.441498 56.866909 
L 325.072928 57.405506 
L 326.704358 58.258286 
L 328.335788 57.540156 
L 329.967218 57.001558 
L 331.598648 56.822026 
L 333.230078 56.238545 
L 334.861508 56.103896 
L 336.492937 56.238545 
L 343.018657 55.071584 
L 344.650087 55.924364 
L 346.281517 56.01413 
L 347.912947 55.026701 
L 349.544376 54.757403 
L 351.175806 54.308571 
L 356.070096 54.532987 
L 357.701526 53.814857 
L 359.332956 53.321143 
L 360.964386 54.084156 
L 364.227245 54.129039 
L 365.858675 53.321143 
L 367.490105 53.814857 
L 369.121535 53.725091 
L 372.384395 52.378597 
L 374.015825 52.55813 
L 375.647254 53.006961 
L 377.278684 54.398338 
L 380.541544 53.769974 
L 382.172974 53.85974 
L 385.435834 52.603013 
L 387.067264 52.647896 
L 388.698693 52.378597 
L 390.330123 51.256519 
L 391.961553 50.583273 
L 393.592983 51.480935 
L 396.855843 52.109299 
L 398.487273 53.051844 
L 398.487273 53.051844 
" clip-path="url(#p657e03f7f9)" style="fill: none; stroke: #d62728; stroke-width: 1.5; stroke-linecap: square"/>
   </g>
   <g id="line2d_21">
    <path d="M 73.832727 231.372468 
L 81.989877 203.410286 
L 83.621307 200.223584 
L 85.252736 196.139221 
L 88.515596 190.663481 
L 90.147026 188.284675 
L 91.778456 185.18774 
L 93.409886 180.115948 
L 96.672746 173.473247 
L 98.304175 171.094442 
L 99.935605 167.817974 
L 101.567035 165.888 
L 103.198465 161.040623 
L 104.829895 159.155532 
L 106.461325 158.212987 
L 108.092755 155.968831 
L 109.724185 152.961662 
L 111.355614 151.300987 
L 112.987044 148.338701 
L 114.618474 145.690597 
L 116.249904 143.311792 
L 117.881334 141.202286 
L 121.144194 135.098182 
L 124.407053 131.013818 
L 126.038483 128.769662 
L 127.669913 127.198753 
L 129.301343 126.031792 
L 130.932773 124.236468 
L 132.564203 121.094649 
L 134.195633 121.094649 
L 135.827063 120.780468 
L 137.458492 119.568623 
L 140.721352 116.292156 
L 142.352782 113.464519 
L 145.615642 110.995948 
L 148.878502 109.200623 
L 150.509931 108.033662 
L 152.141361 107.270649 
L 153.772791 106.372987 
L 157.035651 105.295792 
L 158.667081 104.353247 
L 160.298511 103.949299 
L 161.929941 102.872104 
L 163.56137 101.256312 
L 165.1928 101.076779 
L 166.82423 100.224 
L 168.45566 99.236571 
L 170.08709 98.78774 
L 171.71852 97.441247 
L 173.34995 96.992416 
L 174.98138 94.568727 
L 176.61281 92.818286 
L 178.244239 92.818286 
L 179.875669 91.785974 
L 181.507099 90.125299 
L 183.138529 89.721351 
L 184.769959 88.823688 
L 186.401389 87.70161 
L 188.032819 87.073247 
L 189.664249 86.983481 
L 191.295678 84.873974 
L 192.927108 84.649558 
L 194.558538 84.155844 
L 196.189968 84.066078 
L 197.821398 83.347948 
L 199.452828 82.180987 
L 201.084258 81.417974 
L 202.715688 80.834494 
L 204.347117 80.699844 
L 205.978547 79.712416 
L 209.241407 79.084052 
L 210.872837 78.231273 
L 212.504267 77.019429 
L 214.135697 76.480831 
L 215.767127 76.121766 
L 217.398556 75.897351 
L 219.029986 75.448519 
L 220.661416 74.59574 
L 222.292846 73.204364 
L 223.924276 73.29413 
L 225.555706 72.800416 
L 228.818566 70.780675 
L 230.449995 69.568831 
L 232.081425 69.793247 
L 233.712855 69.479065 
L 235.344285 67.68374 
L 236.975715 67.459325 
L 238.607145 67.953039 
L 240.238575 67.324675 
L 241.870005 67.145143 
L 243.501434 67.190026 
L 245.132864 66.786078 
L 246.764294 66.606545 
L 248.395724 66.786078 
L 250.027154 65.619117 
L 254.921444 65.260052 
L 258.184303 64.452156 
L 261.447163 63.64426 
L 264.710023 62.656831 
L 266.341453 62.163117 
L 267.972883 61.265455 
L 269.604312 60.18826 
L 271.235742 60.90639 
L 272.867172 60.278026 
L 274.498602 60.951273 
L 276.130032 61.175688 
L 277.761462 62.073351 
L 281.024322 62.432416 
L 282.655751 60.996156 
L 285.918611 59.649662 
L 287.550041 59.739429 
L 289.181471 59.604779 
L 290.812901 59.021299 
L 292.444331 58.796883 
L 294.075761 59.155948 
L 295.70719 58.796883 
L 297.33862 58.617351 
L 298.97005 58.841766 
L 302.23291 58.841766 
L 303.86434 59.111065 
L 305.49577 60.278026 
L 307.1272 59.829195 
L 308.75863 60.05361 
L 310.390059 59.784312 
L 313.652919 58.796883 
L 315.284349 58.976416 
L 316.915779 57.809455 
L 318.547209 57.45039 
L 320.178639 58.348052 
L 321.810069 57.629922 
L 325.072928 55.610182 
L 326.704358 55.161351 
L 328.335788 55.206234 
L 329.967218 55.430649 
L 331.598648 55.296 
L 333.230078 55.789714 
L 334.861508 55.296 
L 336.492937 54.667636 
L 339.755797 54.936935 
L 341.387227 54.218805 
L 343.018657 54.443221 
L 344.650087 53.680208 
L 346.281517 54.263688 
L 347.912947 54.308571 
L 349.544376 54.667636 
L 351.175806 54.667636 
L 352.807236 54.353455 
L 356.070096 54.802286 
L 357.701526 54.57787 
L 359.332956 54.084156 
L 360.964386 54.129039 
L 362.595815 54.488104 
L 364.227245 54.398338 
L 365.858675 54.802286 
L 367.490105 54.353455 
L 369.121535 55.026701 
L 370.752965 55.385766 
L 372.384395 55.385766 
L 374.015825 55.026701 
L 375.647254 54.129039 
L 377.278684 53.769974 
L 378.910114 53.14161 
L 380.541544 52.737662 
L 382.172974 51.974649 
L 383.804404 51.84 
L 385.435834 52.019532 
L 387.067264 52.782545 
L 390.330123 52.962078 
L 391.961553 53.99439 
L 393.592983 53.27626 
L 395.224413 52.962078 
L 396.855843 52.962078 
L 398.487273 53.410909 
L 398.487273 53.410909 
" clip-path="url(#p657e03f7f9)" style="fill: none; stroke: #9467bd; stroke-width: 1.5; stroke-linecap: square"/>
   </g>
   <g id="line2d_22">
    <path d="M 73.832727 232.808727 
L 77.095587 221.094234 
L 78.727017 215.798026 
L 80.358447 211.713662 
L 81.989877 207.315117 
L 83.621307 203.455169 
L 85.252736 198.473143 
L 86.884166 194.209247 
L 88.515596 191.650909 
L 90.147026 187.34213 
L 91.778456 183.661714 
L 93.409886 181.238026 
L 96.672746 175.268571 
L 98.304175 171.408623 
L 101.567035 166.830545 
L 103.198465 166.022649 
L 104.829895 163.239896 
L 106.461325 161.309922 
L 108.092755 158.751584 
L 109.724185 156.731844 
L 111.355614 154.308156 
L 112.987044 152.378182 
L 114.618474 149.864727 
L 116.249904 148.114286 
L 117.881334 147.126857 
L 119.512764 145.645714 
L 122.775624 140.484156 
L 124.407053 138.643948 
L 126.038483 134.828883 
L 129.301343 131.866597 
L 130.932773 131.417766 
L 132.564203 128.635013 
L 135.827063 124.146701 
L 137.458492 123.967169 
L 139.089922 123.11439 
L 140.721352 119.837922 
L 142.352782 119.119792 
L 143.984212 117.100052 
L 145.615642 114.721247 
L 147.247072 113.823584 
L 148.878502 112.073143 
L 150.509931 112.02826 
L 152.141361 110.636883 
L 153.772791 108.213195 
L 157.035651 106.238338 
L 158.667081 104.173714 
L 161.929941 103.276052 
L 163.56137 101.52561 
L 165.1928 99.954701 
L 166.82423 98.653091 
L 168.45566 98.563325 
L 170.08709 97.890078 
L 171.71852 97.351481 
L 173.34995 96.453818 
L 174.98138 95.421506 
L 178.244239 93.222234 
L 179.875669 92.818286 
L 181.507099 91.785974 
L 183.138529 90.619013 
L 184.769959 91.067844 
L 186.401389 89.362286 
L 188.032819 88.913455 
L 189.664249 86.983481 
L 191.295678 86.4 
L 192.927108 85.68187 
L 194.558538 84.155844 
L 196.189968 83.976312 
L 197.821398 83.213299 
L 199.452828 83.033766 
L 202.715688 81.50774 
L 204.347117 80.430545 
L 205.978547 79.039169 
L 207.609977 79.218701 
L 209.241407 77.917091 
L 210.872837 77.558026 
L 212.504267 76.974545 
L 214.135697 76.256416 
L 215.767127 75.897351 
L 217.398556 75.897351 
L 219.029986 74.73039 
L 220.661416 74.550857 
L 222.292846 74.775273 
L 223.924276 73.787844 
L 225.555706 73.29413 
L 227.187136 72.935065 
L 228.818566 71.633455 
L 230.449995 71.27439 
L 232.081425 69.793247 
L 233.712855 68.850701 
L 235.344285 68.491636 
L 236.975715 67.863273 
L 238.607145 67.414442 
L 240.238575 67.504208 
L 241.870005 66.96561 
L 243.501434 65.664 
L 245.132864 65.125403 
L 246.764294 64.811221 
L 248.395724 64.317506 
L 250.027154 64.766338 
L 251.658584 64.541922 
L 253.290014 64.900987 
L 258.184303 63.689143 
L 261.447163 61.534753 
L 263.078593 61.759169 
L 264.710023 60.90639 
L 266.341453 61.310338 
L 269.604312 63.105662 
L 271.235742 63.734026 
L 272.867172 62.567065 
L 274.498602 62.208 
L 276.130032 61.624519 
L 279.392892 60.098494 
L 281.024322 60.098494 
L 284.287181 58.841766 
L 285.918611 58.03387 
L 287.550041 58.348052 
L 289.181471 58.348052 
L 290.812901 58.752 
L 292.444331 57.854338 
L 294.075761 58.303169 
L 295.70719 58.258286 
L 297.33862 57.854338 
L 298.97005 58.213403 
L 300.60148 57.495273 
L 302.23291 57.988987 
L 305.49577 57.540156 
L 307.1272 57.136208 
L 308.75863 56.373195 
L 310.390059 56.822026 
L 312.021489 56.59761 
L 313.652919 56.73226 
L 315.284349 57.136208 
L 316.915779 56.373195 
L 318.547209 56.059013 
L 320.178639 56.59761 
L 321.810069 55.789714 
L 325.072928 55.789714 
L 329.967218 54.622753 
L 333.230078 54.488104 
L 336.492937 54.847169 
L 338.124367 54.622753 
L 339.755797 54.57787 
L 341.387227 53.814857 
L 343.018657 53.231377 
L 344.650087 53.186494 
L 347.912947 53.366026 
L 349.544376 53.680208 
L 351.175806 53.635325 
L 352.807236 54.981818 
L 354.438666 53.99439 
L 356.070096 53.455792 
L 357.701526 52.603013 
L 359.332956 53.186494 
L 360.964386 53.635325 
L 362.595815 54.353455 
L 364.227245 53.904623 
L 365.858675 53.99439 
L 369.121535 54.936935 
L 370.752965 53.590442 
L 372.384395 53.051844 
L 374.015825 53.27626 
L 375.647254 52.782545 
L 377.278684 52.603013 
L 378.910114 52.199065 
L 380.541544 52.154182 
L 385.435834 52.647896 
L 388.698693 54.622753 
L 391.961553 55.430649 
L 393.592983 55.385766 
L 395.224413 54.532987 
L 396.855843 54.129039 
L 398.487273 53.410909 
L 398.487273 53.410909 
" clip-path="url(#p657e03f7f9)" style="fill: none; stroke: #8c564b; stroke-width: 1.5; stroke-linecap: square"/>
   </g>
   <g id="line2d_23">
    <path d="M 73.832727 232.045714 
L 77.095587 219.972156 
L 78.727017 215.035013 
L 80.358447 208.347429 
L 81.989877 203.006338 
L 85.252736 194.25413 
L 86.884166 190.79813 
L 88.515596 186.175169 
L 90.147026 183.796364 
L 91.778456 181.103377 
L 93.409886 177.422961 
L 95.041316 175.268571 
L 96.672746 172.575584 
L 98.304175 169.568416 
L 99.935605 167.503792 
L 101.567035 164.990338 
L 103.198465 161.624104 
L 104.829895 158.706701 
L 106.461325 158.123221 
L 108.092755 155.968831 
L 109.724185 154.08374 
L 111.355614 151.974234 
L 112.987044 149.550545 
L 114.618474 148.293818 
L 116.249904 145.645714 
L 117.881334 143.311792 
L 119.512764 142.010182 
L 121.144194 140.125091 
L 122.775624 138.419532 
L 124.407053 137.52187 
L 127.669913 132.04613 
L 129.301343 131.103584 
L 130.932773 129.128727 
L 132.564203 127.692468 
L 134.195633 125.762494 
L 135.827063 124.056935 
L 137.458492 123.338805 
L 139.089922 122.934857 
L 142.352782 120.286753 
L 143.984212 118.80561 
L 145.615642 116.740987 
L 147.247072 114.990545 
L 148.878502 112.74639 
L 150.509931 111.040831 
L 152.141361 109.021091 
L 153.772791 107.764364 
L 155.404221 106.283221 
L 157.035651 105.11626 
L 158.667081 103.276052 
L 161.929941 101.839792 
L 163.56137 100.268883 
L 165.1928 99.371221 
L 166.82423 97.665662 
L 168.45566 96.723117 
L 170.08709 94.927792 
L 171.71852 95.107325 
L 173.34995 94.389195 
L 174.98138 93.895481 
L 176.61281 92.01039 
L 183.138529 87.791377 
L 186.401389 85.277922 
L 188.032819 84.739325 
L 189.664249 83.751896 
L 191.295678 82.540052 
L 192.927108 82.091221 
L 194.558538 80.969143 
L 196.189968 81.462857 
L 197.821398 80.20613 
L 199.452828 80.026597 
L 201.084258 78.994286 
L 204.347117 77.243844 
L 205.978547 76.884779 
L 207.609977 75.762701 
L 209.241407 75.852468 
L 210.872837 75.31387 
L 212.504267 74.102026 
L 214.135697 74.057143 
L 215.767127 73.069714 
L 217.398556 72.486234 
L 219.029986 72.755532 
L 220.661416 72.665766 
L 222.292846 71.768104 
L 223.924276 70.286961 
L 225.555706 70.107429 
L 228.818566 68.312104 
L 230.449995 67.728623 
L 232.081425 67.414442 
L 233.712855 66.786078 
L 236.975715 66.875844 
L 238.607145 65.843532 
L 240.238575 64.093091 
L 241.870005 63.689143 
L 243.501434 64.048208 
L 245.132864 64.721455 
L 246.764294 63.778909 
L 250.027154 64.182857 
L 251.658584 63.778909 
L 253.290014 63.240312 
L 254.921444 64.137974 
L 256.552873 63.150545 
L 258.184303 63.330078 
L 259.815733 61.759169 
L 261.447163 62.163117 
L 263.078593 62.252883 
L 266.341453 63.015896 
L 267.972883 63.195429 
L 269.604312 62.611948 
L 271.235742 62.836364 
L 272.867172 62.791481 
L 274.498602 61.938701 
L 277.761462 61.848935 
L 282.655751 59.649662 
L 284.287181 58.841766 
L 285.918611 57.854338 
L 287.550041 58.123636 
L 289.181471 58.078753 
L 290.812901 59.290597 
L 292.444331 58.392935 
L 294.075761 58.437818 
L 295.70719 58.078753 
L 297.33862 57.405506 
L 298.97005 57.31574 
L 300.60148 55.834597 
L 302.23291 55.610182 
L 303.86434 55.565299 
L 305.49577 55.251117 
L 307.1272 55.699948 
L 308.75863 54.936935 
L 310.390059 54.757403 
L 313.652919 53.500675 
L 315.284349 53.680208 
L 318.547209 53.545558 
L 320.178639 53.904623 
L 321.810069 54.084156 
L 323.441498 54.129039 
L 325.072928 54.039273 
L 326.704358 53.635325 
L 328.335788 53.500675 
L 329.967218 52.917195 
L 331.598648 53.814857 
L 333.230078 53.814857 
L 334.861508 54.398338 
L 336.492937 54.173922 
L 338.124367 55.251117 
L 339.755797 54.847169 
L 341.387227 54.757403 
L 344.650087 54.129039 
L 346.281517 53.949506 
L 347.912947 53.27626 
L 349.544376 53.410909 
L 351.175806 53.006961 
L 352.807236 52.827429 
L 354.438666 53.14161 
L 356.070096 53.949506 
L 357.701526 54.218805 
L 359.332956 53.814857 
L 360.964386 53.99439 
L 362.595815 53.949506 
L 364.227245 53.321143 
L 367.490105 53.545558 
L 369.121535 54.353455 
L 370.752965 54.57787 
L 372.384395 54.173922 
L 374.015825 54.263688 
L 378.910114 52.603013 
L 382.172974 53.590442 
L 383.804404 53.99439 
L 385.435834 54.622753 
L 387.067264 53.455792 
L 388.698693 53.635325 
L 390.330123 52.917195 
L 393.592983 53.725091 
L 395.224413 53.680208 
L 396.855843 53.85974 
L 398.487273 53.14161 
L 398.487273 53.14161 
" clip-path="url(#p657e03f7f9)" style="fill: none; stroke: #e377c2; stroke-width: 1.5; stroke-linecap: square"/>
   </g>
   <g id="patch_3">
    <path d="M 57.6 241.92 
L 57.6 41.472 
" style="fill: none; stroke: #000000; stroke-width: 0.8; stroke-linejoin: miter; stroke-linecap: square"/>
   </g>
   <g id="patch_4">
    <path d="M 414.72 241.92 
L 414.72 41.472 
" style="fill: none; stroke: #000000; stroke-width: 0.8; stroke-linejoin: miter; stroke-linecap: square"/>
   </g>
   <g id="patch_5">
    <path d="M 57.6 241.92 
L 414.72 241.92 
" style="fill: none; stroke: #000000; stroke-width: 0.8; stroke-linejoin: miter; stroke-linecap: square"/>
   </g>
   <g id="patch_6">
    <path d="M 57.6 41.472 
L 414.72 41.472 
" style="fill: none; stroke: #000000; stroke-width: 0.8; stroke-linejoin: miter; stroke-linecap: square"/>
   </g>
   <g id="text_17">
    <!-- side-length        :[8, 16, 20, 30, 30, 30, 30] -->
    <g transform="translate(46.08 280.805906) scale(0.09 -0.09)">
     <defs>
      <path id="DejaVuSans-73" d="M 2834 3397 
L 2834 2853 
Q 2591 2978 2328 3040 
Q 2066 3103 1784 3103 
Q 1356 3103 1142 2972 
Q 928 2841 928 2578 
Q 928 2378 1081 2264 
Q 1234 2150 1697 2047 
L 1894 2003 
Q 2506 1872 2764 1633 
Q 3022 1394 3022 966 
Q 3022 478 2636 193 
Q 2250 -91 1575 -91 
Q 1294 -91 989 -36 
Q 684 19 347 128 
L 347 722 
Q 666 556 975 473 
Q 1284 391 1588 391 
Q 1994 391 2212 530 
Q 2431 669 2431 922 
Q 2431 1156 2273 1281 
Q 2116 1406 1581 1522 
L 1381 1569 
Q 847 1681 609 1914 
Q 372 2147 372 2553 
Q 372 3047 722 3315 
Q 1072 3584 1716 3584 
Q 2034 3584 2315 3537 
Q 2597 3491 2834 3397 
z
" transform="scale(0.015625)"/>
      <path id="DejaVuSans-69" d="M 603 3500 
L 1178 3500 
L 1178 0 
L 603 0 
L 603 3500 
z
M 603 4863 
L 1178 4863 
L 1178 4134 
L 603 4134 
L 603 4863 
z
" transform="scale(0.015625)"/>
      <path id="DejaVuSans-64" d="M 2906 2969 
L 2906 4863 
L 3481 4863 
L 3481 0 
L 2906 0 
L 2906 525 
Q 2725 213 2448 61 
Q 2172 -91 1784 -91 
Q 1150 -91 751 415 
Q 353 922 353 1747 
Q 353 2572 751 3078 
Q 1150 3584 1784 3584 
Q 2172 3584 2448 3432 
Q 2725 3281 2906 2969 
z
M 947 1747 
Q 947 1113 1208 752 
Q 1469 391 1925 391 
Q 2381 391 2643 752 
Q 2906 1113 2906 1747 
Q 2906 2381 2643 2742 
Q 2381 3103 1925 3103 
Q 1469 3103 1208 2742 
Q 947 2381 947 1747 
z
" transform="scale(0.015625)"/>
      <path id="DejaVuSans-65" d="M 3597 1894 
L 3597 1613 
L 953 1613 
Q 991 1019 1311 708 
Q 1631 397 2203 397 
Q 2534 397 2845 478 
Q 3156 559 3463 722 
L 3463 178 
Q 3153 47 2828 -22 
Q 2503 -91 2169 -91 
Q 1331 -91 842 396 
Q 353 884 353 1716 
Q 353 2575 817 3079 
Q 1281 3584 2069 3584 
Q 2775 3584 3186 3129 
Q 3597 2675 3597 1894 
z
M 3022 2063 
Q 3016 2534 2758 2815 
Q 2500 3097 2075 3097 
Q 1594 3097 1305 2825 
Q 1016 2553 972 2059 
L 3022 2063 
z
" transform="scale(0.015625)"/>
      <path id="DejaVuSans-2d" d="M 313 2009 
L 1997 2009 
L 1997 1497 
L 313 1497 
L 313 2009 
z
" transform="scale(0.015625)"/>
      <path id="DejaVuSans-6c" d="M 603 4863 
L 1178 4863 
L 1178 0 
L 603 0 
L 603 4863 
z
" transform="scale(0.015625)"/>
      <path id="DejaVuSans-6e" d="M 3513 2113 
L 3513 0 
L 2938 0 
L 2938 2094 
Q 2938 2591 2744 2837 
Q 2550 3084 2163 3084 
Q 1697 3084 1428 2787 
Q 1159 2491 1159 1978 
L 1159 0 
L 581 0 
L 581 3500 
L 1159 3500 
L 1159 2956 
Q 1366 3272 1645 3428 
Q 1925 3584 2291 3584 
Q 2894 3584 3203 3211 
Q 3513 2838 3513 2113 
z
" transform="scale(0.015625)"/>
      <path id="DejaVuSans-67" d="M 2906 1791 
Q 2906 2416 2648 2759 
Q 2391 3103 1925 3103 
Q 1463 3103 1205 2759 
Q 947 2416 947 1791 
Q 947 1169 1205 825 
Q 1463 481 1925 481 
Q 2391 481 2648 825 
Q 2906 1169 2906 1791 
z
M 3481 434 
Q 3481 -459 3084 -895 
Q 2688 -1331 1869 -1331 
Q 1566 -1331 1297 -1286 
Q 1028 -1241 775 -1147 
L 775 -588 
Q 1028 -725 1275 -790 
Q 1522 -856 1778 -856 
Q 2344 -856 2625 -561 
Q 2906 -266 2906 331 
L 2906 616 
Q 2728 306 2450 153 
Q 2172 0 1784 0 
Q 1141 0 747 490 
Q 353 981 353 1791 
Q 353 2603 747 3093 
Q 1141 3584 1784 3584 
Q 2172 3584 2450 3431 
Q 2728 3278 2906 2969 
L 2906 3500 
L 3481 3500 
L 3481 434 
z
" transform="scale(0.015625)"/>
      <path id="DejaVuSans-74" d="M 1172 4494 
L 1172 3500 
L 2356 3500 
L 2356 3053 
L 1172 3053 
L 1172 1153 
Q 1172 725 1289 603 
Q 1406 481 1766 481 
L 2356 481 
L 2356 0 
L 1766 0 
Q 1100 0 847 248 
Q 594 497 594 1153 
L 594 3053 
L 172 3053 
L 172 3500 
L 594 3500 
L 594 4494 
L 1172 4494 
z
" transform="scale(0.015625)"/>
      <path id="DejaVuSans-68" d="M 3513 2113 
L 3513 0 
L 2938 0 
L 2938 2094 
Q 2938 2591 2744 2837 
Q 2550 3084 2163 3084 
Q 1697 3084 1428 2787 
Q 1159 2491 1159 1978 
L 1159 0 
L 581 0 
L 581 4863 
L 1159 4863 
L 1159 2956 
Q 1366 3272 1645 3428 
Q 1925 3584 2291 3584 
Q 2894 3584 3203 3211 
Q 3513 2838 3513 2113 
z
" transform="scale(0.015625)"/>
      <path id="DejaVuSans-20" transform="scale(0.015625)"/>
      <path id="DejaVuSans-3a" d="M 750 794 
L 1409 794 
L 1409 0 
L 750 0 
L 750 794 
z
M 750 3309 
L 1409 3309 
L 1409 2516 
L 750 2516 
L 750 3309 
z
" transform="scale(0.015625)"/>
      <path id="DejaVuSans-5b" d="M 550 4863 
L 1875 4863 
L 1875 4416 
L 1125 4416 
L 1125 -397 
L 1875 -397 
L 1875 -844 
L 550 -844 
L 550 4863 
z
" transform="scale(0.015625)"/>
      <path id="DejaVuSans-38" d="M 2034 2216 
Q 1584 2216 1326 1975 
Q 1069 1734 1069 1313 
Q 1069 891 1326 650 
Q 1584 409 2034 409 
Q 2484 409 2743 651 
Q 3003 894 3003 1313 
Q 3003 1734 2745 1975 
Q 2488 2216 2034 2216 
z
M 1403 2484 
Q 997 2584 770 2862 
Q 544 3141 544 3541 
Q 544 4100 942 4425 
Q 1341 4750 2034 4750 
Q 2731 4750 3128 4425 
Q 3525 4100 3525 3541 
Q 3525 3141 3298 2862 
Q 3072 2584 2669 2484 
Q 3125 2378 3379 2068 
Q 3634 1759 3634 1313 
Q 3634 634 3220 271 
Q 2806 -91 2034 -91 
Q 1263 -91 848 271 
Q 434 634 434 1313 
Q 434 1759 690 2068 
Q 947 2378 1403 2484 
z
M 1172 3481 
Q 1172 3119 1398 2916 
Q 1625 2713 2034 2713 
Q 2441 2713 2670 2916 
Q 2900 3119 2900 3481 
Q 2900 3844 2670 4047 
Q 2441 4250 2034 4250 
Q 1625 4250 1398 4047 
Q 1172 3844 1172 3481 
z
" transform="scale(0.015625)"/>
      <path id="DejaVuSans-2c" d="M 750 794 
L 1409 794 
L 1409 256 
L 897 -744 
L 494 -744 
L 750 256 
L 750 794 
z
" transform="scale(0.015625)"/>
      <path id="DejaVuSans-36" d="M 2113 2584 
Q 1688 2584 1439 2293 
Q 1191 2003 1191 1497 
Q 1191 994 1439 701 
Q 1688 409 2113 409 
Q 2538 409 2786 701 
Q 3034 994 3034 1497 
Q 3034 2003 2786 2293 
Q 2538 2584 2113 2584 
z
M 3366 4563 
L 3366 3988 
Q 3128 4100 2886 4159 
Q 2644 4219 2406 4219 
Q 1781 4219 1451 3797 
Q 1122 3375 1075 2522 
Q 1259 2794 1537 2939 
Q 1816 3084 2150 3084 
Q 2853 3084 3261 2657 
Q 3669 2231 3669 1497 
Q 3669 778 3244 343 
Q 2819 -91 2113 -91 
Q 1303 -91 875 529 
Q 447 1150 447 2328 
Q 447 3434 972 4092 
Q 1497 4750 2381 4750 
Q 2619 4750 2861 4703 
Q 3103 4656 3366 4563 
z
" transform="scale(0.015625)"/>
      <path id="DejaVuSans-5d" d="M 1947 4863 
L 1947 -844 
L 622 -844 
L 622 -397 
L 1369 -397 
L 1369 4416 
L 622 4416 
L 622 4863 
L 1947 4863 
z
" transform="scale(0.015625)"/>
     </defs>
     <use xlink:href="#DejaVuSans-73"/>
     <use xlink:href="#DejaVuSans-69" transform="translate(52.099609 0)"/>
     <use xlink:href="#DejaVuSans-64" transform="translate(79.882812 0)"/>
     <use xlink:href="#DejaVuSans-65" transform="translate(143.359375 0)"/>
     <use xlink:href="#DejaVuSans-2d" transform="translate(204.882812 0)"/>
     <use xlink:href="#DejaVuSans-6c" transform="translate(240.966797 0)"/>
     <use xlink:href="#DejaVuSans-65" transform="translate(268.75 0)"/>
     <use xlink:href="#DejaVuSans-6e" transform="translate(330.273438 0)"/>
     <use xlink:href="#DejaVuSans-67" transform="translate(393.652344 0)"/>
     <use xlink:href="#DejaVuSans-74" transform="translate(457.128906 0)"/>
     <use xlink:href="#DejaVuSans-68" transform="translate(496.337891 0)"/>
     <use xlink:href="#DejaVuSans-20" transform="translate(559.716797 0)"/>
     <use xlink:href="#DejaVuSans-20" transform="translate(591.503906 0)"/>
     <use xlink:href="#DejaVuSans-20" transform="translate(623.291016 0)"/>
     <use xlink:href="#DejaVuSans-20" transform="translate(655.078125 0)"/>
     <use xlink:href="#DejaVuSans-20" transform="translate(686.865234 0)"/>
     <use xlink:href="#DejaVuSans-20" transform="translate(718.652344 0)"/>
     <use xlink:href="#DejaVuSans-20" transform="translate(750.439453 0)"/>
     <use xlink:href="#DejaVuSans-20" transform="translate(782.226562 0)"/>
     <use xlink:href="#DejaVuSans-3a" transform="translate(814.013672 0)"/>
     <use xlink:href="#DejaVuSans-5b" transform="translate(847.705078 0)"/>
     <use xlink:href="#DejaVuSans-38" transform="translate(886.71875 0)"/>
     <use xlink:href="#DejaVuSans-2c" transform="translate(950.341797 0)"/>
     <use xlink:href="#DejaVuSans-20" transform="translate(982.128906 0)"/>
     <use xlink:href="#DejaVuSans-31" transform="translate(1013.916016 0)"/>
     <use xlink:href="#DejaVuSans-36" transform="translate(1077.539062 0)"/>
     <use xlink:href="#DejaVuSans-2c" transform="translate(1141.162109 0)"/>
     <use xlink:href="#DejaVuSans-20" transform="translate(1172.949219 0)"/>
     <use xlink:href="#DejaVuSans-32" transform="translate(1204.736328 0)"/>
     <use xlink:href="#DejaVuSans-30" transform="translate(1268.359375 0)"/>
     <use xlink:href="#DejaVuSans-2c" transform="translate(1331.982422 0)"/>
     <use xlink:href="#DejaVuSans-20" transform="translate(1363.769531 0)"/>
     <use xlink:href="#DejaVuSans-33" transform="translate(1395.556641 0)"/>
     <use xlink:href="#DejaVuSans-30" transform="translate(1459.179688 0)"/>
     <use xlink:href="#DejaVuSans-2c" transform="translate(1522.802734 0)"/>
     <use xlink:href="#DejaVuSans-20" transform="translate(1554.589844 0)"/>
     <use xlink:href="#DejaVuSans-33" transform="translate(1586.376953 0)"/>
     <use xlink:href="#DejaVuSans-30" transform="translate(1650 0)"/>
     <use xlink:href="#DejaVuSans-2c" transform="translate(1713.623047 0)"/>
     <use xlink:href="#DejaVuSans-20" transform="translate(1745.410156 0)"/>
     <use xlink:href="#DejaVuSans-33" transform="translate(1777.197266 0)"/>
     <use xlink:href="#DejaVuSans-30" transform="translate(1840.820312 0)"/>
     <use xlink:href="#DejaVuSans-2c" transform="translate(1904.443359 0)"/>
     <use xlink:href="#DejaVuSans-20" transform="translate(1936.230469 0)"/>
     <use xlink:href="#DejaVuSans-33" transform="translate(1968.017578 0)"/>
     <use xlink:href="#DejaVuSans-30" transform="translate(2031.640625 0)"/>
     <use xlink:href="#DejaVuSans-5d" transform="translate(2095.263672 0)"/>
    </g>
    <!-- grid dim           :[3, 3, 3, 3, 3, 3, 3] -->
    <g transform="translate(46.08 290.883938) scale(0.09 -0.09)">
     <defs>
      <path id="DejaVuSans-72" d="M 2631 2963 
Q 2534 3019 2420 3045 
Q 2306 3072 2169 3072 
Q 1681 3072 1420 2755 
Q 1159 2438 1159 1844 
L 1159 0 
L 581 0 
L 581 3500 
L 1159 3500 
L 1159 2956 
Q 1341 3275 1631 3429 
Q 1922 3584 2338 3584 
Q 2397 3584 2469 3576 
Q 2541 3569 2628 3553 
L 2631 2963 
z
" transform="scale(0.015625)"/>
      <path id="DejaVuSans-6d" d="M 3328 2828 
Q 3544 3216 3844 3400 
Q 4144 3584 4550 3584 
Q 5097 3584 5394 3201 
Q 5691 2819 5691 2113 
L 5691 0 
L 5113 0 
L 5113 2094 
Q 5113 2597 4934 2840 
Q 4756 3084 4391 3084 
Q 3944 3084 3684 2787 
Q 3425 2491 3425 1978 
L 3425 0 
L 2847 0 
L 2847 2094 
Q 2847 2600 2669 2842 
Q 2491 3084 2119 3084 
Q 1678 3084 1418 2786 
Q 1159 2488 1159 1978 
L 1159 0 
L 581 0 
L 581 3500 
L 1159 3500 
L 1159 2956 
Q 1356 3278 1631 3431 
Q 1906 3584 2284 3584 
Q 2666 3584 2933 3390 
Q 3200 3197 3328 2828 
z
" transform="scale(0.015625)"/>
     </defs>
     <use xlink:href="#DejaVuSans-67"/>
     <use xlink:href="#DejaVuSans-72" transform="translate(63.476562 0)"/>
     <use xlink:href="#DejaVuSans-69" transform="translate(104.589844 0)"/>
     <use xlink:href="#DejaVuSans-64" transform="translate(132.373047 0)"/>
     <use xlink:href="#DejaVuSans-20" transform="translate(195.849609 0)"/>
     <use xlink:href="#DejaVuSans-64" transform="translate(227.636719 0)"/>
     <use xlink:href="#DejaVuSans-69" transform="translate(291.113281 0)"/>
     <use xlink:href="#DejaVuSans-6d" transform="translate(318.896484 0)"/>
     <use xlink:href="#DejaVuSans-20" transform="translate(416.308594 0)"/>
     <use xlink:href="#DejaVuSans-20" transform="translate(448.095703 0)"/>
     <use xlink:href="#DejaVuSans-20" transform="translate(479.882812 0)"/>
     <use xlink:href="#DejaVuSans-20" transform="translate(511.669922 0)"/>
     <use xlink:href="#DejaVuSans-20" transform="translate(543.457031 0)"/>
     <use xlink:href="#DejaVuSans-20" transform="translate(575.244141 0)"/>
     <use xlink:href="#DejaVuSans-20" transform="translate(607.03125 0)"/>
     <use xlink:href="#DejaVuSans-20" transform="translate(638.818359 0)"/>
     <use xlink:href="#DejaVuSans-20" transform="translate(670.605469 0)"/>
     <use xlink:href="#DejaVuSans-20" transform="translate(702.392578 0)"/>
     <use xlink:href="#DejaVuSans-20" transform="translate(734.179688 0)"/>
     <use xlink:href="#DejaVuSans-3a" transform="translate(765.966797 0)"/>
     <use xlink:href="#DejaVuSans-5b" transform="translate(799.658203 0)"/>
     <use xlink:href="#DejaVuSans-33" transform="translate(838.671875 0)"/>
     <use xlink:href="#DejaVuSans-2c" transform="translate(902.294922 0)"/>
     <use xlink:href="#DejaVuSans-20" transform="translate(934.082031 0)"/>
     <use xlink:href="#DejaVuSans-33" transform="translate(965.869141 0)"/>
     <use xlink:href="#DejaVuSans-2c" transform="translate(1029.492188 0)"/>
     <use xlink:href="#DejaVuSans-20" transform="translate(1061.279297 0)"/>
     <use xlink:href="#DejaVuSans-33" transform="translate(1093.066406 0)"/>
     <use xlink:href="#DejaVuSans-2c" transform="translate(1156.689453 0)"/>
     <use xlink:href="#DejaVuSans-20" transform="translate(1188.476562 0)"/>
     <use xlink:href="#DejaVuSans-33" transform="translate(1220.263672 0)"/>
     <use xlink:href="#DejaVuSans-2c" transform="translate(1283.886719 0)"/>
     <use xlink:href="#DejaVuSans-20" transform="translate(1315.673828 0)"/>
     <use xlink:href="#DejaVuSans-33" transform="translate(1347.460938 0)"/>
     <use xlink:href="#DejaVuSans-2c" transform="translate(1411.083984 0)"/>
     <use xlink:href="#DejaVuSans-20" transform="translate(1442.871094 0)"/>
     <use xlink:href="#DejaVuSans-33" transform="translate(1474.658203 0)"/>
     <use xlink:href="#DejaVuSans-2c" transform="translate(1538.28125 0)"/>
     <use xlink:href="#DejaVuSans-20" transform="translate(1570.068359 0)"/>
     <use xlink:href="#DejaVuSans-33" transform="translate(1601.855469 0)"/>
     <use xlink:href="#DejaVuSans-5d" transform="translate(1665.478516 0)"/>
    </g>
    <!-- error rates        :[0.001] -->
    <g transform="translate(46.08 300.961969) scale(0.09 -0.09)">
     <defs>
      <path id="DejaVuSans-6f" d="M 1959 3097 
Q 1497 3097 1228 2736 
Q 959 2375 959 1747 
Q 959 1119 1226 758 
Q 1494 397 1959 397 
Q 2419 397 2687 759 
Q 2956 1122 2956 1747 
Q 2956 2369 2687 2733 
Q 2419 3097 1959 3097 
z
M 1959 3584 
Q 2709 3584 3137 3096 
Q 3566 2609 3566 1747 
Q 3566 888 3137 398 
Q 2709 -91 1959 -91 
Q 1206 -91 779 398 
Q 353 888 353 1747 
Q 353 2609 779 3096 
Q 1206 3584 1959 3584 
z
" transform="scale(0.015625)"/>
      <path id="DejaVuSans-61" d="M 2194 1759 
Q 1497 1759 1228 1600 
Q 959 1441 959 1056 
Q 959 750 1161 570 
Q 1363 391 1709 391 
Q 2188 391 2477 730 
Q 2766 1069 2766 1631 
L 2766 1759 
L 2194 1759 
z
M 3341 1997 
L 3341 0 
L 2766 0 
L 2766 531 
Q 2569 213 2275 61 
Q 1981 -91 1556 -91 
Q 1019 -91 701 211 
Q 384 513 384 1019 
Q 384 1609 779 1909 
Q 1175 2209 1959 2209 
L 2766 2209 
L 2766 2266 
Q 2766 2663 2505 2880 
Q 2244 3097 1772 3097 
Q 1472 3097 1187 3025 
Q 903 2953 641 2809 
L 641 3341 
Q 956 3463 1253 3523 
Q 1550 3584 1831 3584 
Q 2591 3584 2966 3190 
Q 3341 2797 3341 1997 
z
" transform="scale(0.015625)"/>
     </defs>
     <use xlink:href="#DejaVuSans-65"/>
     <use xlink:href="#DejaVuSans-72" transform="translate(61.523438 0)"/>
     <use xlink:href="#DejaVuSans-72" transform="translate(100.886719 0)"/>
     <use xlink:href="#DejaVuSans-6f" transform="translate(139.75 0)"/>
     <use xlink:href="#DejaVuSans-72" transform="translate(200.931641 0)"/>
     <use xlink:href="#DejaVuSans-20" transform="translate(242.044922 0)"/>
     <use xlink:href="#DejaVuSans-72" transform="translate(273.832031 0)"/>
     <use xlink:href="#DejaVuSans-61" transform="translate(314.945312 0)"/>
     <use xlink:href="#DejaVuSans-74" transform="translate(376.224609 0)"/>
     <use xlink:href="#DejaVuSans-65" transform="translate(415.433594 0)"/>
     <use xlink:href="#DejaVuSans-73" transform="translate(476.957031 0)"/>
     <use xlink:href="#DejaVuSans-20" transform="translate(529.056641 0)"/>
     <use xlink:href="#DejaVuSans-20" transform="translate(560.84375 0)"/>
     <use xlink:href="#DejaVuSans-20" transform="translate(592.630859 0)"/>
     <use xlink:href="#DejaVuSans-20" transform="translate(624.417969 0)"/>
     <use xlink:href="#DejaVuSans-20" transform="translate(656.205078 0)"/>
     <use xlink:href="#DejaVuSans-20" transform="translate(687.992188 0)"/>
     <use xlink:href="#DejaVuSans-20" transform="translate(719.779297 0)"/>
     <use xlink:href="#DejaVuSans-20" transform="translate(751.566406 0)"/>
     <use xlink:href="#DejaVuSans-3a" transform="translate(783.353516 0)"/>
     <use xlink:href="#DejaVuSans-5b" transform="translate(817.044922 0)"/>
     <use xlink:href="#DejaVuSans-30" transform="translate(856.058594 0)"/>
     <use xlink:href="#DejaVuSans-2e" transform="translate(919.681641 0)"/>
     <use xlink:href="#DejaVuSans-30" transform="translate(951.46875 0)"/>
     <use xlink:href="#DejaVuSans-30" transform="translate(1015.091797 0)"/>
     <use xlink:href="#DejaVuSans-31" transform="translate(1078.714844 0)"/>
     <use xlink:href="#DejaVuSans-5d" transform="translate(1142.337891 0)"/>
    </g>
    <!-- error accumulation :True -->
    <g transform="translate(46.08 311.04) scale(0.09 -0.09)">
     <defs>
      <path id="DejaVuSans-63" d="M 3122 3366 
L 3122 2828 
Q 2878 2963 2633 3030 
Q 2388 3097 2138 3097 
Q 1578 3097 1268 2742 
Q 959 2388 959 1747 
Q 959 1106 1268 751 
Q 1578 397 2138 397 
Q 2388 397 2633 464 
Q 2878 531 3122 666 
L 3122 134 
Q 2881 22 2623 -34 
Q 2366 -91 2075 -91 
Q 1284 -91 818 406 
Q 353 903 353 1747 
Q 353 2603 823 3093 
Q 1294 3584 2113 3584 
Q 2378 3584 2631 3529 
Q 2884 3475 3122 3366 
z
" transform="scale(0.015625)"/>
      <path id="DejaVuSans-75" d="M 544 1381 
L 544 3500 
L 1119 3500 
L 1119 1403 
Q 1119 906 1312 657 
Q 1506 409 1894 409 
Q 2359 409 2629 706 
Q 2900 1003 2900 1516 
L 2900 3500 
L 3475 3500 
L 3475 0 
L 2900 0 
L 2900 538 
Q 2691 219 2414 64 
Q 2138 -91 1772 -91 
Q 1169 -91 856 284 
Q 544 659 544 1381 
z
M 1991 3584 
L 1991 3584 
z
" transform="scale(0.015625)"/>
      <path id="DejaVuSans-54" d="M -19 4666 
L 3928 4666 
L 3928 4134 
L 2272 4134 
L 2272 0 
L 1638 0 
L 1638 4134 
L -19 4134 
L -19 4666 
z
" transform="scale(0.015625)"/>
     </defs>
     <use xlink:href="#DejaVuSans-65"/>
     <use xlink:href="#DejaVuSans-72" transform="translate(61.523438 0)"/>
     <use xlink:href="#DejaVuSans-72" transform="translate(100.886719 0)"/>
     <use xlink:href="#DejaVuSans-6f" transform="translate(139.75 0)"/>
     <use xlink:href="#DejaVuSans-72" transform="translate(200.931641 0)"/>
     <use xlink:href="#DejaVuSans-20" transform="translate(242.044922 0)"/>
     <use xlink:href="#DejaVuSans-61" transform="translate(273.832031 0)"/>
     <use xlink:href="#DejaVuSans-63" transform="translate(335.111328 0)"/>
     <use xlink:href="#DejaVuSans-63" transform="translate(390.091797 0)"/>
     <use xlink:href="#DejaVuSans-75" transform="translate(445.072266 0)"/>
     <use xlink:href="#DejaVuSans-6d" transform="translate(508.451172 0)"/>
     <use xlink:href="#DejaVuSans-75" transform="translate(605.863281 0)"/>
     <use xlink:href="#DejaVuSans-6c" transform="translate(669.242188 0)"/>
     <use xlink:href="#DejaVuSans-61" transform="translate(697.025391 0)"/>
     <use xlink:href="#DejaVuSans-74" transform="translate(758.304688 0)"/>
     <use xlink:href="#DejaVuSans-69" transform="translate(797.513672 0)"/>
     <use xlink:href="#DejaVuSans-6f" transform="translate(825.296875 0)"/>
     <use xlink:href="#DejaVuSans-6e" transform="translate(886.478516 0)"/>
     <use xlink:href="#DejaVuSans-20" transform="translate(949.857422 0)"/>
     <use xlink:href="#DejaVuSans-3a" transform="translate(981.644531 0)"/>
     <use xlink:href="#DejaVuSans-54" transform="translate(1015.335938 0)"/>
     <use xlink:href="#DejaVuSans-72" transform="translate(1061.669922 0)"/>
     <use xlink:href="#DejaVuSans-75" transform="translate(1102.783203 0)"/>
     <use xlink:href="#DejaVuSans-65" transform="translate(1166.162109 0)"/>
    </g>
   </g>
   <g id="text_18">
    <!-- remote_correction_accu_by_MAX_changed_diff-2_2_8-20_30x4 - max_color -->
    <g transform="translate(12.092813 35.472) scale(0.12 -0.12)">
     <defs>
      <path id="DejaVuSans-5f" d="M 3263 -1063 
L 3263 -1509 
L -63 -1509 
L -63 -1063 
L 3263 -1063 
z
" transform="scale(0.015625)"/>
      <path id="DejaVuSans-62" d="M 3116 1747 
Q 3116 2381 2855 2742 
Q 2594 3103 2138 3103 
Q 1681 3103 1420 2742 
Q 1159 2381 1159 1747 
Q 1159 1113 1420 752 
Q 1681 391 2138 391 
Q 2594 391 2855 752 
Q 3116 1113 3116 1747 
z
M 1159 2969 
Q 1341 3281 1617 3432 
Q 1894 3584 2278 3584 
Q 2916 3584 3314 3078 
Q 3713 2572 3713 1747 
Q 3713 922 3314 415 
Q 2916 -91 2278 -91 
Q 1894 -91 1617 61 
Q 1341 213 1159 525 
L 1159 0 
L 581 0 
L 581 4863 
L 1159 4863 
L 1159 2969 
z
" transform="scale(0.015625)"/>
      <path id="DejaVuSans-79" d="M 2059 -325 
Q 1816 -950 1584 -1140 
Q 1353 -1331 966 -1331 
L 506 -1331 
L 506 -850 
L 844 -850 
Q 1081 -850 1212 -737 
Q 1344 -625 1503 -206 
L 1606 56 
L 191 3500 
L 800 3500 
L 1894 763 
L 2988 3500 
L 3597 3500 
L 2059 -325 
z
" transform="scale(0.015625)"/>
      <path id="DejaVuSans-4d" d="M 628 4666 
L 1569 4666 
L 2759 1491 
L 3956 4666 
L 4897 4666 
L 4897 0 
L 4281 0 
L 4281 4097 
L 3078 897 
L 2444 897 
L 1241 4097 
L 1241 0 
L 628 0 
L 628 4666 
z
" transform="scale(0.015625)"/>
      <path id="DejaVuSans-41" d="M 2188 4044 
L 1331 1722 
L 3047 1722 
L 2188 4044 
z
M 1831 4666 
L 2547 4666 
L 4325 0 
L 3669 0 
L 3244 1197 
L 1141 1197 
L 716 0 
L 50 0 
L 1831 4666 
z
" transform="scale(0.015625)"/>
      <path id="DejaVuSans-58" d="M 403 4666 
L 1081 4666 
L 2241 2931 
L 3406 4666 
L 4084 4666 
L 2584 2425 
L 4184 0 
L 3506 0 
L 2194 1984 
L 872 0 
L 191 0 
L 1856 2491 
L 403 4666 
z
" transform="scale(0.015625)"/>
      <path id="DejaVuSans-66" d="M 2375 4863 
L 2375 4384 
L 1825 4384 
Q 1516 4384 1395 4259 
Q 1275 4134 1275 3809 
L 1275 3500 
L 2222 3500 
L 2222 3053 
L 1275 3053 
L 1275 0 
L 697 0 
L 697 3053 
L 147 3053 
L 147 3500 
L 697 3500 
L 697 3744 
Q 697 4328 969 4595 
Q 1241 4863 1831 4863 
L 2375 4863 
z
" transform="scale(0.015625)"/>
      <path id="DejaVuSans-78" d="M 3513 3500 
L 2247 1797 
L 3578 0 
L 2900 0 
L 1881 1375 
L 863 0 
L 184 0 
L 1544 1831 
L 300 3500 
L 978 3500 
L 1906 2253 
L 2834 3500 
L 3513 3500 
z
" transform="scale(0.015625)"/>
      <path id="DejaVuSans-34" d="M 2419 4116 
L 825 1625 
L 2419 1625 
L 2419 4116 
z
M 2253 4666 
L 3047 4666 
L 3047 1625 
L 3713 1625 
L 3713 1100 
L 3047 1100 
L 3047 0 
L 2419 0 
L 2419 1100 
L 313 1100 
L 313 1709 
L 2253 4666 
z
" transform="scale(0.015625)"/>
     </defs>
     <use xlink:href="#DejaVuSans-72"/>
     <use xlink:href="#DejaVuSans-65" transform="translate(38.863281 0)"/>
     <use xlink:href="#DejaVuSans-6d" transform="translate(100.386719 0)"/>
     <use xlink:href="#DejaVuSans-6f" transform="translate(197.798828 0)"/>
     <use xlink:href="#DejaVuSans-74" transform="translate(258.980469 0)"/>
     <use xlink:href="#DejaVuSans-65" transform="translate(298.189453 0)"/>
     <use xlink:href="#DejaVuSans-5f" transform="translate(359.712891 0)"/>
     <use xlink:href="#DejaVuSans-63" transform="translate(409.712891 0)"/>
     <use xlink:href="#DejaVuSans-6f" transform="translate(464.693359 0)"/>
     <use xlink:href="#DejaVuSans-72" transform="translate(525.875 0)"/>
     <use xlink:href="#DejaVuSans-72" transform="translate(565.238281 0)"/>
     <use xlink:href="#DejaVuSans-65" transform="translate(604.101562 0)"/>
     <use xlink:href="#DejaVuSans-63" transform="translate(665.625 0)"/>
     <use xlink:href="#DejaVuSans-74" transform="translate(720.605469 0)"/>
     <use xlink:href="#DejaVuSans-69" transform="translate(759.814453 0)"/>
     <use xlink:href="#DejaVuSans-6f" transform="translate(787.597656 0)"/>
     <use xlink:href="#DejaVuSans-6e" transform="translate(848.779297 0)"/>
     <use xlink:href="#DejaVuSans-5f" transform="translate(912.158203 0)"/>
     <use xlink:href="#DejaVuSans-61" transform="translate(962.158203 0)"/>
     <use xlink:href="#DejaVuSans-63" transform="translate(1023.4375 0)"/>
     <use xlink:href="#DejaVuSans-63" transform="translate(1078.417969 0)"/>
     <use xlink:href="#DejaVuSans-75" transform="translate(1133.398438 0)"/>
     <use xlink:href="#DejaVuSans-5f" transform="translate(1196.777344 0)"/>
     <use xlink:href="#DejaVuSans-62" transform="translate(1246.777344 0)"/>
     <use xlink:href="#DejaVuSans-79" transform="translate(1310.253906 0)"/>
     <use xlink:href="#DejaVuSans-5f" transform="translate(1369.433594 0)"/>
     <use xlink:href="#DejaVuSans-4d" transform="translate(1419.433594 0)"/>
     <use xlink:href="#DejaVuSans-41" transform="translate(1505.712891 0)"/>
     <use xlink:href="#DejaVuSans-58" transform="translate(1574.121094 0)"/>
     <use xlink:href="#DejaVuSans-5f" transform="translate(1642.626953 0)"/>
     <use xlink:href="#DejaVuSans-63" transform="translate(1692.626953 0)"/>
     <use xlink:href="#DejaVuSans-68" transform="translate(1747.607422 0)"/>
     <use xlink:href="#DejaVuSans-61" transform="translate(1810.986328 0)"/>
     <use xlink:href="#DejaVuSans-6e" transform="translate(1872.265625 0)"/>
     <use xlink:href="#DejaVuSans-67" transform="translate(1935.644531 0)"/>
     <use xlink:href="#DejaVuSans-65" transform="translate(1999.121094 0)"/>
     <use xlink:href="#DejaVuSans-64" transform="translate(2060.644531 0)"/>
     <use xlink:href="#DejaVuSans-5f" transform="translate(2124.121094 0)"/>
     <use xlink:href="#DejaVuSans-64" transform="translate(2174.121094 0)"/>
     <use xlink:href="#DejaVuSans-69" transform="translate(2237.597656 0)"/>
     <use xlink:href="#DejaVuSans-66" transform="translate(2265.380859 0)"/>
     <use xlink:href="#DejaVuSans-66" transform="translate(2300.585938 0)"/>
     <use xlink:href="#DejaVuSans-2d" transform="translate(2330.291016 0)"/>
     <use xlink:href="#DejaVuSans-32" transform="translate(2366.375 0)"/>
     <use xlink:href="#DejaVuSans-5f" transform="translate(2429.998047 0)"/>
     <use xlink:href="#DejaVuSans-32" transform="translate(2479.998047 0)"/>
     <use xlink:href="#DejaVuSans-5f" transform="translate(2543.621094 0)"/>
     <use xlink:href="#DejaVuSans-38" transform="translate(2593.621094 0)"/>
     <use xlink:href="#DejaVuSans-2d" transform="translate(2657.244141 0)"/>
     <use xlink:href="#DejaVuSans-32" transform="translate(2693.328125 0)"/>
     <use xlink:href="#DejaVuSans-30" transform="translate(2756.951172 0)"/>
     <use xlink:href="#DejaVuSans-5f" transform="translate(2820.574219 0)"/>
     <use xlink:href="#DejaVuSans-33" transform="translate(2870.574219 0)"/>
     <use xlink:href="#DejaVuSans-30" transform="translate(2934.197266 0)"/>
     <use xlink:href="#DejaVuSans-78" transform="translate(2997.820312 0)"/>
     <use xlink:href="#DejaVuSans-34" transform="translate(3057 0)"/>
     <use xlink:href="#DejaVuSans-20" transform="translate(3120.623047 0)"/>
     <use xlink:href="#DejaVuSans-2d" transform="translate(3152.410156 0)"/>
     <use xlink:href="#DejaVuSans-20" transform="translate(3188.494141 0)"/>
     <use xlink:href="#DejaVuSans-6d" transform="translate(3220.28125 0)"/>
     <use xlink:href="#DejaVuSans-61" transform="translate(3317.693359 0)"/>
     <use xlink:href="#DejaVuSans-78" transform="translate(3378.972656 0)"/>
     <use xlink:href="#DejaVuSans-5f" transform="translate(3438.152344 0)"/>
     <use xlink:href="#DejaVuSans-63" transform="translate(3488.152344 0)"/>
     <use xlink:href="#DejaVuSans-6f" transform="translate(3543.132812 0)"/>
     <use xlink:href="#DejaVuSans-6c" transform="translate(3604.314453 0)"/>
     <use xlink:href="#DejaVuSans-6f" transform="translate(3632.097656 0)"/>
     <use xlink:href="#DejaVuSans-72" transform="translate(3693.279297 0)"/>
    </g>
   </g>
  </g>
 </g>
 <defs>
  <clipPath id="p657e03f7f9">
   <rect x="57.6" y="41.472" width="357.12" height="200.448"/>
  </clipPath>
 </defs>
</svg>
