<?xml version="1.0" encoding="utf-8" standalone="no"?>
<!DOCTYPE svg PUBLIC "-//W3C//DTD SVG 1.1//EN"
  "http://www.w3.org/Graphics/SVG/1.1/DTD/svg11.dtd">
<svg xmlns:xlink="http://www.w3.org/1999/xlink" width="460.8pt" height="345.6pt" viewBox="0 0 460.8 345.6" xmlns="http://www.w3.org/2000/svg" version="1.1">
 <metadata>
  <rdf:RDF xmlns:dc="http://purl.org/dc/elements/1.1/" xmlns:cc="http://creativecommons.org/ns#" xmlns:rdf="http://www.w3.org/1999/02/22-rdf-syntax-ns#">
   <cc:Work>
    <dc:type rdf:resource="http://purl.org/dc/dcmitype/StillImage"/>
    <dc:date>2025-11-05T14:46:02.279245</dc:date>
    <dc:format>image/svg+xml</dc:format>
    <dc:creator>
     <cc:Agent>
      <dc:title>Matplotlib v3.10.6, https://matplotlib.org/</dc:title>
     </cc:Agent>
    </dc:creator>
   </cc:Work>
  </rdf:RDF>
 </metadata>
 <defs>
  <style type="text/css">*{stroke-linejoin: round; stroke-linecap: butt}</style>
 </defs>
 <g id="figure_1">
  <g id="patch_1">
   <path d="M 0 345.6 
L 460.8 345.6 
L 460.8 0 
L 0 0 
z
" style="fill: #ffffff"/>
  </g>
  <g id="axes_1">
   <g id="patch_2">
    <path d="M 57.6 241.92 
L 414.72 241.92 
L 414.72 41.472 
L 57.6 41.472 
z
" style="fill: #ffffff"/>
   </g>
   <g id="matplotlib.axis_1">
    <g id="xtick_1">
     <g id="line2d_1">
      <defs>
       <path id="m4bc12f6eff" d="M 0 0 
L 0 3.5 
" style="stroke: #000000; stroke-width: 0.8"/>
      </defs>
      <g>
       <use xlink:href="#m4bc12f6eff" x="73.832727" y="241.92" style="stroke: #000000; stroke-width: 0.8"/>
      </g>
     </g>
     <g id="text_1">
      <!-- 0 -->
      <g transform="translate(70.651477 256.518438) scale(0.1 -0.1)">
       <defs>
        <path id="DejaVuSans-30" d="M 2034 4250 
Q 1547 4250 1301 3770 
Q 1056 3291 1056 2328 
Q 1056 1369 1301 889 
Q 1547 409 2034 409 
Q 2525 409 2770 889 
Q 3016 1369 3016 2328 
Q 3016 3291 2770 3770 
Q 2525 4250 2034 4250 
z
M 2034 4750 
Q 2819 4750 3233 4129 
Q 3647 3509 3647 2328 
Q 3647 1150 3233 529 
Q 2819 -91 2034 -91 
Q 1250 -91 836 529 
Q 422 1150 422 2328 
Q 422 3509 836 4129 
Q 1250 4750 2034 4750 
z
" transform="scale(0.015625)"/>
       </defs>
       <use xlink:href="#DejaVuSans-30"/>
      </g>
     </g>
    </g>
    <g id="xtick_2">
     <g id="line2d_2">
      <g>
       <use xlink:href="#m4bc12f6eff" x="114.618474" y="241.92" style="stroke: #000000; stroke-width: 0.8"/>
      </g>
     </g>
     <g id="text_2">
      <!-- 25 -->
      <g transform="translate(108.255974 256.518438) scale(0.1 -0.1)">
       <defs>
        <path id="DejaVuSans-32" d="M 1228 531 
L 3431 531 
L 3431 0 
L 469 0 
L 469 531 
Q 828 903 1448 1529 
Q 2069 2156 2228 2338 
Q 2531 2678 2651 2914 
Q 2772 3150 2772 3378 
Q 2772 3750 2511 3984 
Q 2250 4219 1831 4219 
Q 1534 4219 1204 4116 
Q 875 4013 500 3803 
L 500 4441 
Q 881 4594 1212 4672 
Q 1544 4750 1819 4750 
Q 2544 4750 2975 4387 
Q 3406 4025 3406 3419 
Q 3406 3131 3298 2873 
Q 3191 2616 2906 2266 
Q 2828 2175 2409 1742 
Q 1991 1309 1228 531 
z
" transform="scale(0.015625)"/>
        <path id="DejaVuSans-35" d="M 691 4666 
L 3169 4666 
L 3169 4134 
L 1269 4134 
L 1269 2991 
Q 1406 3038 1543 3061 
Q 1681 3084 1819 3084 
Q 2600 3084 3056 2656 
Q 3513 2228 3513 1497 
Q 3513 744 3044 326 
Q 2575 -91 1722 -91 
Q 1428 -91 1123 -41 
Q 819 9 494 109 
L 494 744 
Q 775 591 1075 516 
Q 1375 441 1709 441 
Q 2250 441 2565 725 
Q 2881 1009 2881 1497 
Q 2881 1984 2565 2268 
Q 2250 2553 1709 2553 
Q 1456 2553 1204 2497 
Q 953 2441 691 2322 
L 691 4666 
z
" transform="scale(0.015625)"/>
       </defs>
       <use xlink:href="#DejaVuSans-32"/>
       <use xlink:href="#DejaVuSans-35" transform="translate(63.623047 0)"/>
      </g>
     </g>
    </g>
    <g id="xtick_3">
     <g id="line2d_3">
      <g>
       <use xlink:href="#m4bc12f6eff" x="155.404221" y="241.92" style="stroke: #000000; stroke-width: 0.8"/>
      </g>
     </g>
     <g id="text_3">
      <!-- 50 -->
      <g transform="translate(149.041721 256.518438) scale(0.1 -0.1)">
       <use xlink:href="#DejaVuSans-35"/>
       <use xlink:href="#DejaVuSans-30" transform="translate(63.623047 0)"/>
      </g>
     </g>
    </g>
    <g id="xtick_4">
     <g id="line2d_4">
      <g>
       <use xlink:href="#m4bc12f6eff" x="196.189968" y="241.92" style="stroke: #000000; stroke-width: 0.8"/>
      </g>
     </g>
     <g id="text_4">
      <!-- 75 -->
      <g transform="translate(189.827468 256.518438) scale(0.1 -0.1)">
       <defs>
        <path id="DejaVuSans-37" d="M 525 4666 
L 3525 4666 
L 3525 4397 
L 1831 0 
L 1172 0 
L 2766 4134 
L 525 4134 
L 525 4666 
z
" transform="scale(0.015625)"/>
       </defs>
       <use xlink:href="#DejaVuSans-37"/>
       <use xlink:href="#DejaVuSans-35" transform="translate(63.623047 0)"/>
      </g>
     </g>
    </g>
    <g id="xtick_5">
     <g id="line2d_5">
      <g>
       <use xlink:href="#m4bc12f6eff" x="236.975715" y="241.92" style="stroke: #000000; stroke-width: 0.8"/>
      </g>
     </g>
     <g id="text_5">
      <!-- 100 -->
      <g transform="translate(227.431965 256.518438) scale(0.1 -0.1)">
       <defs>
        <path id="DejaVuSans-31" d="M 794 531 
L 1825 531 
L 1825 4091 
L 703 3866 
L 703 4441 
L 1819 4666 
L 2450 4666 
L 2450 531 
L 3481 531 
L 3481 0 
L 794 0 
L 794 531 
z
" transform="scale(0.015625)"/>
       </defs>
       <use xlink:href="#DejaVuSans-31"/>
       <use xlink:href="#DejaVuSans-30" transform="translate(63.623047 0)"/>
       <use xlink:href="#DejaVuSans-30" transform="translate(127.246094 0)"/>
      </g>
     </g>
    </g>
    <g id="xtick_6">
     <g id="line2d_6">
      <g>
       <use xlink:href="#m4bc12f6eff" x="277.761462" y="241.92" style="stroke: #000000; stroke-width: 0.8"/>
      </g>
     </g>
     <g id="text_6">
      <!-- 125 -->
      <g transform="translate(268.217712 256.518438) scale(0.1 -0.1)">
       <use xlink:href="#DejaVuSans-31"/>
       <use xlink:href="#DejaVuSans-32" transform="translate(63.623047 0)"/>
       <use xlink:href="#DejaVuSans-35" transform="translate(127.246094 0)"/>
      </g>
     </g>
    </g>
    <g id="xtick_7">
     <g id="line2d_7">
      <g>
       <use xlink:href="#m4bc12f6eff" x="318.547209" y="241.92" style="stroke: #000000; stroke-width: 0.8"/>
      </g>
     </g>
     <g id="text_7">
      <!-- 150 -->
      <g transform="translate(309.003459 256.518438) scale(0.1 -0.1)">
       <use xlink:href="#DejaVuSans-31"/>
       <use xlink:href="#DejaVuSans-35" transform="translate(63.623047 0)"/>
       <use xlink:href="#DejaVuSans-30" transform="translate(127.246094 0)"/>
      </g>
     </g>
    </g>
    <g id="xtick_8">
     <g id="line2d_8">
      <g>
       <use xlink:href="#m4bc12f6eff" x="359.332956" y="241.92" style="stroke: #000000; stroke-width: 0.8"/>
      </g>
     </g>
     <g id="text_8">
      <!-- 175 -->
      <g transform="translate(349.789206 256.518438) scale(0.1 -0.1)">
       <use xlink:href="#DejaVuSans-31"/>
       <use xlink:href="#DejaVuSans-37" transform="translate(63.623047 0)"/>
       <use xlink:href="#DejaVuSans-35" transform="translate(127.246094 0)"/>
      </g>
     </g>
    </g>
    <g id="xtick_9">
     <g id="line2d_9">
      <g>
       <use xlink:href="#m4bc12f6eff" x="400.118703" y="241.92" style="stroke: #000000; stroke-width: 0.8"/>
      </g>
     </g>
     <g id="text_9">
      <!-- 200 -->
      <g transform="translate(390.574953 256.518438) scale(0.1 -0.1)">
       <use xlink:href="#DejaVuSans-32"/>
       <use xlink:href="#DejaVuSans-30" transform="translate(63.623047 0)"/>
       <use xlink:href="#DejaVuSans-30" transform="translate(127.246094 0)"/>
      </g>
     </g>
    </g>
   </g>
   <g id="matplotlib.axis_2">
    <g id="ytick_1">
     <g id="line2d_10">
      <defs>
       <path id="m8fabef229b" d="M 0 0 
L -3.5 0 
" style="stroke: #000000; stroke-width: 0.8"/>
      </defs>
      <g>
       <use xlink:href="#m8fabef229b" x="57.6" y="232.808727" style="stroke: #000000; stroke-width: 0.8"/>
      </g>
     </g>
     <g id="text_10">
      <!-- 0.0 -->
      <g transform="translate(34.696875 236.607946) scale(0.1 -0.1)">
       <defs>
        <path id="DejaVuSans-2e" d="M 684 794 
L 1344 794 
L 1344 0 
L 684 0 
L 684 794 
z
" transform="scale(0.015625)"/>
       </defs>
       <use xlink:href="#DejaVuSans-30"/>
       <use xlink:href="#DejaVuSans-2e" transform="translate(63.623047 0)"/>
       <use xlink:href="#DejaVuSans-30" transform="translate(95.410156 0)"/>
      </g>
     </g>
    </g>
    <g id="ytick_2">
     <g id="line2d_11">
      <g>
       <use xlink:href="#m8fabef229b" x="57.6" y="193.275069" style="stroke: #000000; stroke-width: 0.8"/>
      </g>
     </g>
     <g id="text_11">
      <!-- 0.1 -->
      <g transform="translate(34.696875 197.074288) scale(0.1 -0.1)">
       <use xlink:href="#DejaVuSans-30"/>
       <use xlink:href="#DejaVuSans-2e" transform="translate(63.623047 0)"/>
       <use xlink:href="#DejaVuSans-31" transform="translate(95.410156 0)"/>
      </g>
     </g>
    </g>
    <g id="ytick_3">
     <g id="line2d_12">
      <g>
       <use xlink:href="#m8fabef229b" x="57.6" y="153.741411" style="stroke: #000000; stroke-width: 0.8"/>
      </g>
     </g>
     <g id="text_12">
      <!-- 0.2 -->
      <g transform="translate(34.696875 157.54063) scale(0.1 -0.1)">
       <use xlink:href="#DejaVuSans-30"/>
       <use xlink:href="#DejaVuSans-2e" transform="translate(63.623047 0)"/>
       <use xlink:href="#DejaVuSans-32" transform="translate(95.410156 0)"/>
      </g>
     </g>
    </g>
    <g id="ytick_4">
     <g id="line2d_13">
      <g>
       <use xlink:href="#m8fabef229b" x="57.6" y="114.207753" style="stroke: #000000; stroke-width: 0.8"/>
      </g>
     </g>
     <g id="text_13">
      <!-- 0.3 -->
      <g transform="translate(34.696875 118.006972) scale(0.1 -0.1)">
       <defs>
        <path id="DejaVuSans-33" d="M 2597 2516 
Q 3050 2419 3304 2112 
Q 3559 1806 3559 1356 
Q 3559 666 3084 287 
Q 2609 -91 1734 -91 
Q 1441 -91 1130 -33 
Q 819 25 488 141 
L 488 750 
Q 750 597 1062 519 
Q 1375 441 1716 441 
Q 2309 441 2620 675 
Q 2931 909 2931 1356 
Q 2931 1769 2642 2001 
Q 2353 2234 1838 2234 
L 1294 2234 
L 1294 2753 
L 1863 2753 
Q 2328 2753 2575 2939 
Q 2822 3125 2822 3475 
Q 2822 3834 2567 4026 
Q 2313 4219 1838 4219 
Q 1578 4219 1281 4162 
Q 984 4106 628 3988 
L 628 4550 
Q 988 4650 1302 4700 
Q 1616 4750 1894 4750 
Q 2613 4750 3031 4423 
Q 3450 4097 3450 3541 
Q 3450 3153 3228 2886 
Q 3006 2619 2597 2516 
z
" transform="scale(0.015625)"/>
       </defs>
       <use xlink:href="#DejaVuSans-30"/>
       <use xlink:href="#DejaVuSans-2e" transform="translate(63.623047 0)"/>
       <use xlink:href="#DejaVuSans-33" transform="translate(95.410156 0)"/>
      </g>
     </g>
    </g>
    <g id="ytick_5">
     <g id="line2d_14">
      <g>
       <use xlink:href="#m8fabef229b" x="57.6" y="74.674096" style="stroke: #000000; stroke-width: 0.8"/>
      </g>
     </g>
     <g id="text_14">
      <!-- 0.4 -->
      <g transform="translate(34.696875 78.473314) scale(0.1 -0.1)">
       <defs>
        <path id="DejaVuSans-34" d="M 2419 4116 
L 825 1625 
L 2419 1625 
L 2419 4116 
z
M 2253 4666 
L 3047 4666 
L 3047 1625 
L 3713 1625 
L 3713 1100 
L 3047 1100 
L 3047 0 
L 2419 0 
L 2419 1100 
L 313 1100 
L 313 1709 
L 2253 4666 
z
" transform="scale(0.015625)"/>
       </defs>
       <use xlink:href="#DejaVuSans-30"/>
       <use xlink:href="#DejaVuSans-2e" transform="translate(63.623047 0)"/>
       <use xlink:href="#DejaVuSans-34" transform="translate(95.410156 0)"/>
      </g>
     </g>
    </g>
   </g>
   <g id="line2d_15">
    <path d="M 73.832727 229.72016 
L 75.464157 223.543026 
L 77.095587 229.72016 
L 78.727017 232.808727 
L 80.358447 223.543026 
L 81.989877 232.808727 
L 85.252736 226.631593 
L 86.884166 232.808727 
L 88.515596 229.72016 
L 90.147026 232.808727 
L 91.778456 229.72016 
L 93.409886 232.808727 
L 95.041316 223.543026 
L 96.672746 220.454459 
L 98.304175 212.733042 
L 99.935605 221.998743 
L 101.567035 225.08731 
L 103.198465 218.910176 
L 104.829895 223.543026 
L 106.461325 217.365892 
L 108.092755 220.454459 
L 109.724185 225.08731 
L 111.355614 215.821609 
L 112.987044 220.454459 
L 114.618474 218.910176 
L 116.249904 211.188758 
L 117.881334 217.365892 
L 119.512764 221.998743 
L 121.144194 215.821609 
L 122.775624 211.188758 
L 124.407053 214.277325 
L 126.038483 215.821609 
L 127.669913 212.733042 
L 129.301343 215.821609 
L 130.932773 220.454459 
L 132.564203 221.998743 
L 134.195633 221.998743 
L 135.827063 217.365892 
L 137.458492 218.910176 
L 139.089922 215.821609 
L 140.721352 214.277325 
L 142.352782 215.821609 
L 143.984212 208.100191 
L 145.615642 208.100191 
L 147.247072 205.011624 
L 148.878502 208.100191 
L 150.509931 220.454459 
L 152.141361 217.365892 
L 153.772791 215.821609 
L 155.404221 209.644475 
L 157.035651 209.644475 
L 158.667081 212.733042 
L 160.298511 214.277325 
L 161.929941 214.277325 
L 163.56137 217.365892 
L 165.1928 212.733042 
L 166.82423 215.821609 
L 168.45566 214.277325 
L 170.08709 218.910176 
L 171.71852 214.277325 
L 173.34995 211.188758 
L 174.98138 212.733042 
L 176.61281 208.100191 
L 179.875669 217.365892 
L 181.507099 211.188758 
L 183.138529 212.733042 
L 186.401389 212.733042 
L 188.032819 208.100191 
L 189.664249 211.188758 
L 191.295678 215.821609 
L 192.927108 217.365892 
L 194.558538 211.188758 
L 196.189968 201.923057 
L 197.821398 208.100191 
L 199.452828 203.467341 
L 201.084258 205.011624 
L 202.715688 208.100191 
L 205.978547 205.011624 
L 207.609977 209.644475 
L 209.241407 209.644475 
L 210.872837 212.733042 
L 212.504267 203.467341 
L 214.135697 208.100191 
L 215.767127 209.644475 
L 217.398556 208.100191 
L 219.029986 211.188758 
L 220.661416 206.555908 
L 222.292846 205.011624 
L 223.924276 198.83449 
L 225.555706 206.555908 
L 227.187136 206.555908 
L 228.818566 200.378773 
L 230.449995 201.923057 
L 232.081425 206.555908 
L 233.712855 208.100191 
L 235.344285 206.555908 
L 236.975715 200.378773 
L 238.607145 200.378773 
L 240.238575 197.290206 
L 241.870005 200.378773 
L 243.501434 201.923057 
L 248.395724 197.290206 
L 250.027154 201.923057 
L 253.290014 198.83449 
L 254.921444 194.201639 
L 256.552873 192.657356 
L 258.184303 195.745923 
L 259.815733 192.657356 
L 263.078593 195.745923 
L 266.341453 189.568789 
L 267.972883 200.378773 
L 271.235742 200.378773 
L 272.867172 192.657356 
L 274.498602 200.378773 
L 276.130032 201.923057 
L 277.761462 195.745923 
L 279.392892 194.201639 
L 281.024322 198.83449 
L 282.655751 200.378773 
L 284.287181 195.745923 
L 285.918611 198.83449 
L 287.550041 192.657356 
L 289.181471 197.290206 
L 290.812901 203.467341 
L 292.444331 198.83449 
L 294.075761 198.83449 
L 295.70719 201.923057 
L 297.33862 201.923057 
L 298.97005 203.467341 
L 300.60148 195.745923 
L 302.23291 203.467341 
L 303.86434 201.923057 
L 305.49577 192.657356 
L 307.1272 184.935938 
L 308.75863 184.935938 
L 310.390059 188.024505 
L 312.021489 188.024505 
L 313.652919 184.935938 
L 316.915779 191.113072 
L 318.547209 183.391655 
L 320.178639 183.391655 
L 321.810069 177.214521 
L 323.441498 183.391655 
L 325.072928 178.758804 
L 326.704358 181.847371 
L 328.335788 172.58167 
L 329.967218 161.771686 
L 331.598648 155.594552 
L 333.230078 154.050268 
L 334.861508 150.961701 
L 336.492937 146.328851 
L 338.124367 158.683119 
L 339.755797 150.961701 
L 341.387227 149.417418 
L 343.018657 155.594552 
L 344.650087 154.050268 
L 346.281517 138.607433 
L 347.912947 141.696 
L 349.544376 130.886015 
L 351.175806 137.063149 
L 352.807236 144.784567 
L 354.438666 146.328851 
L 356.070096 143.240284 
L 357.701526 144.784567 
L 359.332956 155.594552 
L 360.964386 149.417418 
L 362.595815 132.430299 
L 364.227245 138.607433 
L 365.858675 123.164598 
L 367.490105 127.797448 
L 369.121535 116.987464 
L 370.752965 126.253165 
L 372.384395 115.44318 
L 374.015825 110.81033 
L 375.647254 98.456062 
L 377.278684 90.734644 
L 378.910114 98.456062 
L 380.541544 90.734644 
L 382.172974 86.101794 
L 383.804404 86.101794 
L 385.435834 78.380376 
L 387.067264 69.114675 
L 388.698693 64.481824 
L 390.330123 67.570391 
L 391.961553 52.127556 
L 393.592983 64.481824 
L 395.224413 50.583273 
L 398.487273 53.67184 
L 398.487273 53.67184 
" clip-path="url(#pa666a7cabd)" style="fill: none; stroke: #1f77b4; stroke-width: 1.5; stroke-linecap: square"/>
   </g>
   <g id="line2d_16">
    <path d="M 73.832727 223.736062 
L 75.464157 226.245522 
L 77.095587 227.017664 
L 78.727017 227.982841 
L 80.358447 226.052487 
L 81.989877 228.754983 
L 83.621307 226.631593 
L 86.884166 229.72016 
L 88.515596 229.334089 
L 90.147026 226.631593 
L 91.778456 228.175877 
L 93.409886 228.175877 
L 95.041316 226.438558 
L 96.672746 224.508203 
L 98.304175 225.473381 
L 99.935605 226.631593 
L 101.567035 225.666416 
L 103.198465 224.508203 
L 104.829895 224.894274 
L 106.461325 223.156955 
L 108.092755 223.929097 
L 109.724185 221.612672 
L 111.355614 222.96392 
L 112.987044 220.647495 
L 114.618474 223.929097 
L 116.249904 223.156955 
L 117.881334 221.805707 
L 119.512764 220.261424 
L 121.144194 218.138034 
L 122.775624 217.944998 
L 124.407053 219.682317 
L 126.038483 217.558928 
L 127.669913 215.821609 
L 129.301343 215.435538 
L 130.932773 213.119112 
L 132.564203 212.926077 
L 134.195633 212.153935 
L 135.827063 215.049467 
L 137.458492 214.277325 
L 139.089922 215.435538 
L 140.721352 214.856431 
L 142.352782 213.891254 
L 143.984212 213.119112 
L 145.615642 209.644475 
L 147.247072 210.802687 
L 148.878502 213.119112 
L 150.509931 208.679297 
L 152.141361 213.505183 
L 153.772791 208.872333 
L 155.404221 209.065368 
L 157.035651 207.328049 
L 158.667081 208.486262 
L 160.298511 207.135014 
L 161.929941 205.397695 
L 163.56137 205.204659 
L 165.1928 204.625553 
L 166.82423 205.204659 
L 168.45566 207.328049 
L 170.08709 205.397695 
L 171.71852 200.571809 
L 173.34995 204.432518 
L 174.98138 203.660376 
L 176.61281 200.378773 
L 178.244239 200.185738 
L 179.875669 201.343951 
L 181.507099 202.116092 
L 183.138529 203.660376 
L 184.769959 203.08127 
L 186.401389 200.571809 
L 188.032819 203.08127 
L 191.295678 199.992703 
L 194.558538 201.536986 
L 196.189968 200.571809 
L 197.821398 199.799667 
L 199.452828 201.923057 
L 201.084258 198.83449 
L 202.715688 193.815569 
L 204.347117 196.325029 
L 205.978547 196.131994 
L 207.609977 199.220561 
L 209.241407 195.166817 
L 210.872837 194.973781 
L 212.504267 194.394675 
L 214.135697 195.745923 
L 217.398556 194.58771 
L 219.029986 193.429498 
L 220.661416 193.043427 
L 222.292846 192.46432 
L 223.924276 193.622533 
L 225.555706 191.499143 
L 227.187136 188.989683 
L 228.818566 188.796647 
L 230.449995 186.287186 
L 232.081425 186.094151 
L 233.712855 188.989683 
L 235.344285 189.761824 
L 236.975715 189.375753 
L 238.607145 189.375753 
L 240.238575 187.059328 
L 241.870005 184.549867 
L 243.501434 185.128974 
L 245.132864 184.163797 
L 246.764294 182.040407 
L 248.395724 179.530946 
L 250.027154 178.565769 
L 251.658584 173.546847 
L 253.290014 174.125954 
L 254.921444 167.369713 
L 256.552873 163.895076 
L 258.184303 162.929898 
L 259.815733 160.613473 
L 261.447163 157.910977 
L 263.078593 160.034367 
L 264.710023 157.717941 
L 266.341453 162.543827 
L 267.972883 157.524906 
L 269.604312 153.857233 
L 271.235742 148.066169 
L 272.867172 144.784567 
L 274.498602 141.889035 
L 276.130032 140.151716 
L 277.761462 141.309929 
L 279.392892 137.642256 
L 281.024322 136.097972 
L 282.655751 137.44922 
L 284.287181 133.588512 
L 285.918611 127.797448 
L 287.550041 124.515846 
L 289.181471 118.338712 
L 290.812901 116.794428 
L 292.444331 114.864074 
L 294.075761 111.389436 
L 295.70719 111.389436 
L 297.33862 111.968542 
L 298.97005 112.161578 
L 300.60148 107.335692 
L 302.23291 101.351593 
L 303.86434 102.702841 
L 305.49577 97.68392 
L 307.1272 89.383396 
L 308.75863 89.383396 
L 310.390059 86.101794 
L 312.021489 82.241085 
L 313.652919 78.766447 
L 315.284349 77.994305 
L 316.915779 78.380376 
L 318.547209 77.608234 
L 320.178639 76.256986 
L 321.810069 76.256986 
L 323.441498 69.693781 
L 325.072928 78.187341 
L 326.704358 71.624136 
L 328.335788 68.149498 
L 329.967218 68.149498 
L 331.598648 69.114675 
L 333.230078 68.149498 
L 334.861508 66.219143 
L 336.492937 73.55449 
L 338.124367 70.079852 
L 339.755797 67.570391 
L 341.387227 67.570391 
L 343.018657 69.500746 
L 344.650087 64.095753 
L 346.281517 66.026108 
L 347.912947 70.272888 
L 349.544376 66.79825 
L 351.175806 65.447002 
L 352.807236 67.570391 
L 354.438666 66.991285 
L 356.070096 63.323612 
L 357.701526 61.007186 
L 359.332956 59.076832 
L 360.964386 60.42808 
L 362.595815 62.165399 
L 364.227245 66.605214 
L 365.858675 62.55147 
L 367.490105 57.339513 
L 369.121535 61.779328 
L 370.752965 64.867895 
L 372.384395 62.937541 
L 374.015825 62.937541 
L 375.647254 60.235045 
L 377.278684 59.848974 
L 378.910114 65.447002 
L 380.541544 67.570391 
L 382.172974 64.288789 
L 383.804404 65.447002 
L 385.435834 66.026108 
L 387.067264 68.342533 
L 388.698693 66.79825 
L 390.330123 60.814151 
L 391.961553 72.010206 
L 393.592983 68.921639 
L 395.224413 64.67486 
L 396.855843 70.465923 
L 398.487273 65.833072 
L 398.487273 65.833072 
" clip-path="url(#pa666a7cabd)" style="fill: none; stroke: #ff7f0e; stroke-width: 1.5; stroke-linecap: square"/>
   </g>
   <g id="line2d_17">
    <path d="M 73.832727 228.035404 
L 75.464157 228.328246 
L 77.095587 227.303299 
L 78.727017 227.566857 
L 80.358447 226.688331 
L 81.989877 226.512626 
L 83.621307 225.048417 
L 85.252736 225.985511 
L 86.884166 225.224122 
L 88.515596 226.131932 
L 90.147026 226.102648 
L 91.778456 224.93128 
L 95.041316 224.93128 
L 96.672746 224.989848 
L 98.304175 224.199175 
L 99.935605 223.613491 
L 101.567035 222.822818 
L 103.198465 222.383555 
L 104.829895 222.793534 
L 106.461325 222.471408 
L 108.092755 222.705681 
L 109.724185 222.471408 
L 111.355614 222.354271 
L 112.987044 221.85644 
L 114.618474 222.149282 
L 116.249904 222.119998 
L 117.881334 221.065767 
L 121.144194 220.94863 
L 122.775624 219.542989 
L 124.407053 220.070104 
L 126.038483 219.777262 
L 127.669913 218.664463 
L 129.301343 219.660125 
L 130.932773 219.103726 
L 132.564203 219.279431 
L 134.195633 219.250147 
L 135.827063 218.547326 
L 137.458492 219.396568 
L 140.721352 218.166632 
L 142.352782 217.405243 
L 143.984212 217.815221 
L 148.878502 215.736044 
L 150.509931 215.033223 
L 152.141361 214.59396 
L 153.772791 214.008277 
L 155.404221 213.744719 
L 157.035651 213.071182 
L 158.667081 213.129751 
L 160.298511 211.72411 
L 161.929941 212.661204 
L 165.1928 210.962721 
L 166.82423 211.255563 
L 168.45566 212.163373 
L 170.08709 210.435605 
L 171.71852 210.582026 
L 173.34995 209.644932 
L 176.61281 209.234953 
L 178.244239 208.854259 
L 179.875669 207.097208 
L 181.507099 207.038639 
L 184.769959 205.720851 
L 186.401389 205.515861 
L 188.032819 204.315209 
L 189.664249 205.515861 
L 192.927108 203.524536 
L 194.558538 202.001758 
L 199.452828 200.508265 
L 201.084258 198.51694 
L 204.347117 198.487655 
L 205.978547 197.784835 
L 207.609977 197.784835 
L 212.504267 195.734941 
L 214.135697 195.58852 
L 215.767127 194.3293 
L 217.398556 192.865091 
L 219.029986 191.195892 
L 220.661416 191.078755 
L 222.292846 189.99524 
L 225.555706 186.949684 
L 227.187136 185.983306 
L 228.818566 183.816276 
L 230.449995 182.176361 
L 232.081425 182.967034 
L 233.712855 181.47354 
L 235.344285 180.887857 
L 236.975715 178.837963 
L 238.607145 179.042952 
L 240.238575 177.461606 
L 241.870005 177.227333 
L 245.132864 175.001734 
L 246.764294 173.186114 
L 248.395724 171.780473 
L 250.027154 169.52559 
L 253.290014 166.011487 
L 254.921444 164.664415 
L 256.552873 162.819511 
L 258.184303 160.183933 
L 259.815733 160.271786 
L 261.447163 157.78263 
L 264.710023 155.381326 
L 266.341453 152.247918 
L 267.972883 149.963751 
L 269.604312 148.35312 
L 271.235742 146.449648 
L 272.867172 145.102575 
L 274.498602 142.701271 
L 276.130032 140.534241 
L 277.761462 139.099316 
L 279.392892 136.434454 
L 281.024322 133.418183 
L 282.655751 131.309721 
L 285.918611 126.682819 
L 287.550041 124.955052 
L 289.181471 122.436611 
L 290.812901 120.503855 
L 294.075761 116.052658 
L 295.70719 115.701247 
L 298.97005 109.873693 
L 300.60148 108.497336 
L 302.23291 106.125317 
L 303.86434 104.456118 
L 305.49577 102.58193 
L 307.1272 98.95069 
L 308.75863 96.22726 
L 310.390059 95.495155 
L 312.021489 91.073243 
L 313.652919 90.165433 
L 315.284349 86.007077 
L 316.915779 84.689289 
L 318.547209 82.375838 
L 320.178639 82.405122 
L 321.810069 82.082996 
L 323.441498 80.413797 
L 325.072928 80.033102 
L 326.704358 77.807504 
L 328.335788 78.188198 
L 329.967218 75.084074 
L 331.598648 75.113358 
L 333.230078 74.059128 
L 334.861508 73.619865 
L 336.492937 71.42355 
L 338.124367 69.959341 
L 339.755797 69.725067 
L 341.387227 71.569971 
L 343.018657 71.452835 
L 344.650087 69.051531 
L 346.281517 68.524415 
L 347.912947 67.235911 
L 349.544376 65.566712 
L 351.175806 65.098165 
L 352.807236 67.265195 
L 356.070096 64.688186 
L 357.701526 62.726146 
L 359.332956 65.361723 
L 360.964386 66.679511 
L 362.595815 64.102503 
L 364.227245 64.893176 
L 365.858675 65.068881 
L 367.490105 64.776039 
L 369.121535 65.186018 
L 370.752965 63.956082 
L 372.384395 66.035259 
L 374.015825 66.503806 
L 375.647254 66.650227 
L 377.278684 66.005975 
L 378.910114 66.53309 
L 380.541544 65.068881 
L 382.172974 64.629618 
L 387.067264 62.140462 
L 388.698693 64.57105 
L 390.330123 64.36606 
L 391.961553 65.771701 
L 393.592983 64.043934 
L 395.224413 64.57105 
L 396.855843 65.800986 
L 398.487273 63.487535 
L 398.487273 63.487535 
" clip-path="url(#pa666a7cabd)" style="fill: none; stroke: #2ca02c; stroke-width: 1.5; stroke-linecap: square"/>
   </g>
   <g id="patch_3">
    <path d="M 57.6 241.92 
L 57.6 41.472 
" style="fill: none; stroke: #000000; stroke-width: 0.8; stroke-linejoin: miter; stroke-linecap: square"/>
   </g>
   <g id="patch_4">
    <path d="M 414.72 241.92 
L 414.72 41.472 
" style="fill: none; stroke: #000000; stroke-width: 0.8; stroke-linejoin: miter; stroke-linecap: square"/>
   </g>
   <g id="patch_5">
    <path d="M 57.6 241.92 
L 414.72 241.92 
" style="fill: none; stroke: #000000; stroke-width: 0.8; stroke-linejoin: miter; stroke-linecap: square"/>
   </g>
   <g id="patch_6">
    <path d="M 57.6 41.472 
L 414.72 41.472 
" style="fill: none; stroke: #000000; stroke-width: 0.8; stroke-linejoin: miter; stroke-linecap: square"/>
   </g>
   <g id="text_15">
    <!-- side-length        :[8, 16, 30] -->
    <g transform="translate(46.08 280.805906) scale(0.09 -0.09)">
     <defs>
      <path id="DejaVuSans-73" d="M 2834 3397 
L 2834 2853 
Q 2591 2978 2328 3040 
Q 2066 3103 1784 3103 
Q 1356 3103 1142 2972 
Q 928 2841 928 2578 
Q 928 2378 1081 2264 
Q 1234 2150 1697 2047 
L 1894 2003 
Q 2506 1872 2764 1633 
Q 3022 1394 3022 966 
Q 3022 478 2636 193 
Q 2250 -91 1575 -91 
Q 1294 -91 989 -36 
Q 684 19 347 128 
L 347 722 
Q 666 556 975 473 
Q 1284 391 1588 391 
Q 1994 391 2212 530 
Q 2431 669 2431 922 
Q 2431 1156 2273 1281 
Q 2116 1406 1581 1522 
L 1381 1569 
Q 847 1681 609 1914 
Q 372 2147 372 2553 
Q 372 3047 722 3315 
Q 1072 3584 1716 3584 
Q 2034 3584 2315 3537 
Q 2597 3491 2834 3397 
z
" transform="scale(0.015625)"/>
      <path id="DejaVuSans-69" d="M 603 3500 
L 1178 3500 
L 1178 0 
L 603 0 
L 603 3500 
z
M 603 4863 
L 1178 4863 
L 1178 4134 
L 603 4134 
L 603 4863 
z
" transform="scale(0.015625)"/>
      <path id="DejaVuSans-64" d="M 2906 2969 
L 2906 4863 
L 3481 4863 
L 3481 0 
L 2906 0 
L 2906 525 
Q 2725 213 2448 61 
Q 2172 -91 1784 -91 
Q 1150 -91 751 415 
Q 353 922 353 1747 
Q 353 2572 751 3078 
Q 1150 3584 1784 3584 
Q 2172 3584 2448 3432 
Q 2725 3281 2906 2969 
z
M 947 1747 
Q 947 1113 1208 752 
Q 1469 391 1925 391 
Q 2381 391 2643 752 
Q 2906 1113 2906 1747 
Q 2906 2381 2643 2742 
Q 2381 3103 1925 3103 
Q 1469 3103 1208 2742 
Q 947 2381 947 1747 
z
" transform="scale(0.015625)"/>
      <path id="DejaVuSans-65" d="M 3597 1894 
L 3597 1613 
L 953 1613 
Q 991 1019 1311 708 
Q 1631 397 2203 397 
Q 2534 397 2845 478 
Q 3156 559 3463 722 
L 3463 178 
Q 3153 47 2828 -22 
Q 2503 -91 2169 -91 
Q 1331 -91 842 396 
Q 353 884 353 1716 
Q 353 2575 817 3079 
Q 1281 3584 2069 3584 
Q 2775 3584 3186 3129 
Q 3597 2675 3597 1894 
z
M 3022 2063 
Q 3016 2534 2758 2815 
Q 2500 3097 2075 3097 
Q 1594 3097 1305 2825 
Q 1016 2553 972 2059 
L 3022 2063 
z
" transform="scale(0.015625)"/>
      <path id="DejaVuSans-2d" d="M 313 2009 
L 1997 2009 
L 1997 1497 
L 313 1497 
L 313 2009 
z
" transform="scale(0.015625)"/>
      <path id="DejaVuSans-6c" d="M 603 4863 
L 1178 4863 
L 1178 0 
L 603 0 
L 603 4863 
z
" transform="scale(0.015625)"/>
      <path id="DejaVuSans-6e" d="M 3513 2113 
L 3513 0 
L 2938 0 
L 2938 2094 
Q 2938 2591 2744 2837 
Q 2550 3084 2163 3084 
Q 1697 3084 1428 2787 
Q 1159 2491 1159 1978 
L 1159 0 
L 581 0 
L 581 3500 
L 1159 3500 
L 1159 2956 
Q 1366 3272 1645 3428 
Q 1925 3584 2291 3584 
Q 2894 3584 3203 3211 
Q 3513 2838 3513 2113 
z
" transform="scale(0.015625)"/>
      <path id="DejaVuSans-67" d="M 2906 1791 
Q 2906 2416 2648 2759 
Q 2391 3103 1925 3103 
Q 1463 3103 1205 2759 
Q 947 2416 947 1791 
Q 947 1169 1205 825 
Q 1463 481 1925 481 
Q 2391 481 2648 825 
Q 2906 1169 2906 1791 
z
M 3481 434 
Q 3481 -459 3084 -895 
Q 2688 -1331 1869 -1331 
Q 1566 -1331 1297 -1286 
Q 1028 -1241 775 -1147 
L 775 -588 
Q 1028 -725 1275 -790 
Q 1522 -856 1778 -856 
Q 2344 -856 2625 -561 
Q 2906 -266 2906 331 
L 2906 616 
Q 2728 306 2450 153 
Q 2172 0 1784 0 
Q 1141 0 747 490 
Q 353 981 353 1791 
Q 353 2603 747 3093 
Q 1141 3584 1784 3584 
Q 2172 3584 2450 3431 
Q 2728 3278 2906 2969 
L 2906 3500 
L 3481 3500 
L 3481 434 
z
" transform="scale(0.015625)"/>
      <path id="DejaVuSans-74" d="M 1172 4494 
L 1172 3500 
L 2356 3500 
L 2356 3053 
L 1172 3053 
L 1172 1153 
Q 1172 725 1289 603 
Q 1406 481 1766 481 
L 2356 481 
L 2356 0 
L 1766 0 
Q 1100 0 847 248 
Q 594 497 594 1153 
L 594 3053 
L 172 3053 
L 172 3500 
L 594 3500 
L 594 4494 
L 1172 4494 
z
" transform="scale(0.015625)"/>
      <path id="DejaVuSans-68" d="M 3513 2113 
L 3513 0 
L 2938 0 
L 2938 2094 
Q 2938 2591 2744 2837 
Q 2550 3084 2163 3084 
Q 1697 3084 1428 2787 
Q 1159 2491 1159 1978 
L 1159 0 
L 581 0 
L 581 4863 
L 1159 4863 
L 1159 2956 
Q 1366 3272 1645 3428 
Q 1925 3584 2291 3584 
Q 2894 3584 3203 3211 
Q 3513 2838 3513 2113 
z
" transform="scale(0.015625)"/>
      <path id="DejaVuSans-20" transform="scale(0.015625)"/>
      <path id="DejaVuSans-3a" d="M 750 794 
L 1409 794 
L 1409 0 
L 750 0 
L 750 794 
z
M 750 3309 
L 1409 3309 
L 1409 2516 
L 750 2516 
L 750 3309 
z
" transform="scale(0.015625)"/>
      <path id="DejaVuSans-5b" d="M 550 4863 
L 1875 4863 
L 1875 4416 
L 1125 4416 
L 1125 -397 
L 1875 -397 
L 1875 -844 
L 550 -844 
L 550 4863 
z
" transform="scale(0.015625)"/>
      <path id="DejaVuSans-38" d="M 2034 2216 
Q 1584 2216 1326 1975 
Q 1069 1734 1069 1313 
Q 1069 891 1326 650 
Q 1584 409 2034 409 
Q 2484 409 2743 651 
Q 3003 894 3003 1313 
Q 3003 1734 2745 1975 
Q 2488 2216 2034 2216 
z
M 1403 2484 
Q 997 2584 770 2862 
Q 544 3141 544 3541 
Q 544 4100 942 4425 
Q 1341 4750 2034 4750 
Q 2731 4750 3128 4425 
Q 3525 4100 3525 3541 
Q 3525 3141 3298 2862 
Q 3072 2584 2669 2484 
Q 3125 2378 3379 2068 
Q 3634 1759 3634 1313 
Q 3634 634 3220 271 
Q 2806 -91 2034 -91 
Q 1263 -91 848 271 
Q 434 634 434 1313 
Q 434 1759 690 2068 
Q 947 2378 1403 2484 
z
M 1172 3481 
Q 1172 3119 1398 2916 
Q 1625 2713 2034 2713 
Q 2441 2713 2670 2916 
Q 2900 3119 2900 3481 
Q 2900 3844 2670 4047 
Q 2441 4250 2034 4250 
Q 1625 4250 1398 4047 
Q 1172 3844 1172 3481 
z
" transform="scale(0.015625)"/>
      <path id="DejaVuSans-2c" d="M 750 794 
L 1409 794 
L 1409 256 
L 897 -744 
L 494 -744 
L 750 256 
L 750 794 
z
" transform="scale(0.015625)"/>
      <path id="DejaVuSans-36" d="M 2113 2584 
Q 1688 2584 1439 2293 
Q 1191 2003 1191 1497 
Q 1191 994 1439 701 
Q 1688 409 2113 409 
Q 2538 409 2786 701 
Q 3034 994 3034 1497 
Q 3034 2003 2786 2293 
Q 2538 2584 2113 2584 
z
M 3366 4563 
L 3366 3988 
Q 3128 4100 2886 4159 
Q 2644 4219 2406 4219 
Q 1781 4219 1451 3797 
Q 1122 3375 1075 2522 
Q 1259 2794 1537 2939 
Q 1816 3084 2150 3084 
Q 2853 3084 3261 2657 
Q 3669 2231 3669 1497 
Q 3669 778 3244 343 
Q 2819 -91 2113 -91 
Q 1303 -91 875 529 
Q 447 1150 447 2328 
Q 447 3434 972 4092 
Q 1497 4750 2381 4750 
Q 2619 4750 2861 4703 
Q 3103 4656 3366 4563 
z
" transform="scale(0.015625)"/>
      <path id="DejaVuSans-5d" d="M 1947 4863 
L 1947 -844 
L 622 -844 
L 622 -397 
L 1369 -397 
L 1369 4416 
L 622 4416 
L 622 4863 
L 1947 4863 
z
" transform="scale(0.015625)"/>
     </defs>
     <use xlink:href="#DejaVuSans-73"/>
     <use xlink:href="#DejaVuSans-69" transform="translate(52.099609 0)"/>
     <use xlink:href="#DejaVuSans-64" transform="translate(79.882812 0)"/>
     <use xlink:href="#DejaVuSans-65" transform="translate(143.359375 0)"/>
     <use xlink:href="#DejaVuSans-2d" transform="translate(204.882812 0)"/>
     <use xlink:href="#DejaVuSans-6c" transform="translate(240.966797 0)"/>
     <use xlink:href="#DejaVuSans-65" transform="translate(268.75 0)"/>
     <use xlink:href="#DejaVuSans-6e" transform="translate(330.273438 0)"/>
     <use xlink:href="#DejaVuSans-67" transform="translate(393.652344 0)"/>
     <use xlink:href="#DejaVuSans-74" transform="translate(457.128906 0)"/>
     <use xlink:href="#DejaVuSans-68" transform="translate(496.337891 0)"/>
     <use xlink:href="#DejaVuSans-20" transform="translate(559.716797 0)"/>
     <use xlink:href="#DejaVuSans-20" transform="translate(591.503906 0)"/>
     <use xlink:href="#DejaVuSans-20" transform="translate(623.291016 0)"/>
     <use xlink:href="#DejaVuSans-20" transform="translate(655.078125 0)"/>
     <use xlink:href="#DejaVuSans-20" transform="translate(686.865234 0)"/>
     <use xlink:href="#DejaVuSans-20" transform="translate(718.652344 0)"/>
     <use xlink:href="#DejaVuSans-20" transform="translate(750.439453 0)"/>
     <use xlink:href="#DejaVuSans-20" transform="translate(782.226562 0)"/>
     <use xlink:href="#DejaVuSans-3a" transform="translate(814.013672 0)"/>
     <use xlink:href="#DejaVuSans-5b" transform="translate(847.705078 0)"/>
     <use xlink:href="#DejaVuSans-38" transform="translate(886.71875 0)"/>
     <use xlink:href="#DejaVuSans-2c" transform="translate(950.341797 0)"/>
     <use xlink:href="#DejaVuSans-20" transform="translate(982.128906 0)"/>
     <use xlink:href="#DejaVuSans-31" transform="translate(1013.916016 0)"/>
     <use xlink:href="#DejaVuSans-36" transform="translate(1077.539062 0)"/>
     <use xlink:href="#DejaVuSans-2c" transform="translate(1141.162109 0)"/>
     <use xlink:href="#DejaVuSans-20" transform="translate(1172.949219 0)"/>
     <use xlink:href="#DejaVuSans-33" transform="translate(1204.736328 0)"/>
     <use xlink:href="#DejaVuSans-30" transform="translate(1268.359375 0)"/>
     <use xlink:href="#DejaVuSans-5d" transform="translate(1331.982422 0)"/>
    </g>
    <!-- grid dim           :[3, 3, 3, 3, 3, 3, 3] -->
    <g transform="translate(46.08 290.883938) scale(0.09 -0.09)">
     <defs>
      <path id="DejaVuSans-72" d="M 2631 2963 
Q 2534 3019 2420 3045 
Q 2306 3072 2169 3072 
Q 1681 3072 1420 2755 
Q 1159 2438 1159 1844 
L 1159 0 
L 581 0 
L 581 3500 
L 1159 3500 
L 1159 2956 
Q 1341 3275 1631 3429 
Q 1922 3584 2338 3584 
Q 2397 3584 2469 3576 
Q 2541 3569 2628 3553 
L 2631 2963 
z
" transform="scale(0.015625)"/>
      <path id="DejaVuSans-6d" d="M 3328 2828 
Q 3544 3216 3844 3400 
Q 4144 3584 4550 3584 
Q 5097 3584 5394 3201 
Q 5691 2819 5691 2113 
L 5691 0 
L 5113 0 
L 5113 2094 
Q 5113 2597 4934 2840 
Q 4756 3084 4391 3084 
Q 3944 3084 3684 2787 
Q 3425 2491 3425 1978 
L 3425 0 
L 2847 0 
L 2847 2094 
Q 2847 2600 2669 2842 
Q 2491 3084 2119 3084 
Q 1678 3084 1418 2786 
Q 1159 2488 1159 1978 
L 1159 0 
L 581 0 
L 581 3500 
L 1159 3500 
L 1159 2956 
Q 1356 3278 1631 3431 
Q 1906 3584 2284 3584 
Q 2666 3584 2933 3390 
Q 3200 3197 3328 2828 
z
" transform="scale(0.015625)"/>
     </defs>
     <use xlink:href="#DejaVuSans-67"/>
     <use xlink:href="#DejaVuSans-72" transform="translate(63.476562 0)"/>
     <use xlink:href="#DejaVuSans-69" transform="translate(104.589844 0)"/>
     <use xlink:href="#DejaVuSans-64" transform="translate(132.373047 0)"/>
     <use xlink:href="#DejaVuSans-20" transform="translate(195.849609 0)"/>
     <use xlink:href="#DejaVuSans-64" transform="translate(227.636719 0)"/>
     <use xlink:href="#DejaVuSans-69" transform="translate(291.113281 0)"/>
     <use xlink:href="#DejaVuSans-6d" transform="translate(318.896484 0)"/>
     <use xlink:href="#DejaVuSans-20" transform="translate(416.308594 0)"/>
     <use xlink:href="#DejaVuSans-20" transform="translate(448.095703 0)"/>
     <use xlink:href="#DejaVuSans-20" transform="translate(479.882812 0)"/>
     <use xlink:href="#DejaVuSans-20" transform="translate(511.669922 0)"/>
     <use xlink:href="#DejaVuSans-20" transform="translate(543.457031 0)"/>
     <use xlink:href="#DejaVuSans-20" transform="translate(575.244141 0)"/>
     <use xlink:href="#DejaVuSans-20" transform="translate(607.03125 0)"/>
     <use xlink:href="#DejaVuSans-20" transform="translate(638.818359 0)"/>
     <use xlink:href="#DejaVuSans-20" transform="translate(670.605469 0)"/>
     <use xlink:href="#DejaVuSans-20" transform="translate(702.392578 0)"/>
     <use xlink:href="#DejaVuSans-20" transform="translate(734.179688 0)"/>
     <use xlink:href="#DejaVuSans-3a" transform="translate(765.966797 0)"/>
     <use xlink:href="#DejaVuSans-5b" transform="translate(799.658203 0)"/>
     <use xlink:href="#DejaVuSans-33" transform="translate(838.671875 0)"/>
     <use xlink:href="#DejaVuSans-2c" transform="translate(902.294922 0)"/>
     <use xlink:href="#DejaVuSans-20" transform="translate(934.082031 0)"/>
     <use xlink:href="#DejaVuSans-33" transform="translate(965.869141 0)"/>
     <use xlink:href="#DejaVuSans-2c" transform="translate(1029.492188 0)"/>
     <use xlink:href="#DejaVuSans-20" transform="translate(1061.279297 0)"/>
     <use xlink:href="#DejaVuSans-33" transform="translate(1093.066406 0)"/>
     <use xlink:href="#DejaVuSans-2c" transform="translate(1156.689453 0)"/>
     <use xlink:href="#DejaVuSans-20" transform="translate(1188.476562 0)"/>
     <use xlink:href="#DejaVuSans-33" transform="translate(1220.263672 0)"/>
     <use xlink:href="#DejaVuSans-2c" transform="translate(1283.886719 0)"/>
     <use xlink:href="#DejaVuSans-20" transform="translate(1315.673828 0)"/>
     <use xlink:href="#DejaVuSans-33" transform="translate(1347.460938 0)"/>
     <use xlink:href="#DejaVuSans-2c" transform="translate(1411.083984 0)"/>
     <use xlink:href="#DejaVuSans-20" transform="translate(1442.871094 0)"/>
     <use xlink:href="#DejaVuSans-33" transform="translate(1474.658203 0)"/>
     <use xlink:href="#DejaVuSans-2c" transform="translate(1538.28125 0)"/>
     <use xlink:href="#DejaVuSans-20" transform="translate(1570.068359 0)"/>
     <use xlink:href="#DejaVuSans-33" transform="translate(1601.855469 0)"/>
     <use xlink:href="#DejaVuSans-5d" transform="translate(1665.478516 0)"/>
    </g>
    <!-- error rates        :[0.001] -->
    <g transform="translate(46.08 300.961969) scale(0.09 -0.09)">
     <defs>
      <path id="DejaVuSans-6f" d="M 1959 3097 
Q 1497 3097 1228 2736 
Q 959 2375 959 1747 
Q 959 1119 1226 758 
Q 1494 397 1959 397 
Q 2419 397 2687 759 
Q 2956 1122 2956 1747 
Q 2956 2369 2687 2733 
Q 2419 3097 1959 3097 
z
M 1959 3584 
Q 2709 3584 3137 3096 
Q 3566 2609 3566 1747 
Q 3566 888 3137 398 
Q 2709 -91 1959 -91 
Q 1206 -91 779 398 
Q 353 888 353 1747 
Q 353 2609 779 3096 
Q 1206 3584 1959 3584 
z
" transform="scale(0.015625)"/>
      <path id="DejaVuSans-61" d="M 2194 1759 
Q 1497 1759 1228 1600 
Q 959 1441 959 1056 
Q 959 750 1161 570 
Q 1363 391 1709 391 
Q 2188 391 2477 730 
Q 2766 1069 2766 1631 
L 2766 1759 
L 2194 1759 
z
M 3341 1997 
L 3341 0 
L 2766 0 
L 2766 531 
Q 2569 213 2275 61 
Q 1981 -91 1556 -91 
Q 1019 -91 701 211 
Q 384 513 384 1019 
Q 384 1609 779 1909 
Q 1175 2209 1959 2209 
L 2766 2209 
L 2766 2266 
Q 2766 2663 2505 2880 
Q 2244 3097 1772 3097 
Q 1472 3097 1187 3025 
Q 903 2953 641 2809 
L 641 3341 
Q 956 3463 1253 3523 
Q 1550 3584 1831 3584 
Q 2591 3584 2966 3190 
Q 3341 2797 3341 1997 
z
" transform="scale(0.015625)"/>
     </defs>
     <use xlink:href="#DejaVuSans-65"/>
     <use xlink:href="#DejaVuSans-72" transform="translate(61.523438 0)"/>
     <use xlink:href="#DejaVuSans-72" transform="translate(100.886719 0)"/>
     <use xlink:href="#DejaVuSans-6f" transform="translate(139.75 0)"/>
     <use xlink:href="#DejaVuSans-72" transform="translate(200.931641 0)"/>
     <use xlink:href="#DejaVuSans-20" transform="translate(242.044922 0)"/>
     <use xlink:href="#DejaVuSans-72" transform="translate(273.832031 0)"/>
     <use xlink:href="#DejaVuSans-61" transform="translate(314.945312 0)"/>
     <use xlink:href="#DejaVuSans-74" transform="translate(376.224609 0)"/>
     <use xlink:href="#DejaVuSans-65" transform="translate(415.433594 0)"/>
     <use xlink:href="#DejaVuSans-73" transform="translate(476.957031 0)"/>
     <use xlink:href="#DejaVuSans-20" transform="translate(529.056641 0)"/>
     <use xlink:href="#DejaVuSans-20" transform="translate(560.84375 0)"/>
     <use xlink:href="#DejaVuSans-20" transform="translate(592.630859 0)"/>
     <use xlink:href="#DejaVuSans-20" transform="translate(624.417969 0)"/>
     <use xlink:href="#DejaVuSans-20" transform="translate(656.205078 0)"/>
     <use xlink:href="#DejaVuSans-20" transform="translate(687.992188 0)"/>
     <use xlink:href="#DejaVuSans-20" transform="translate(719.779297 0)"/>
     <use xlink:href="#DejaVuSans-20" transform="translate(751.566406 0)"/>
     <use xlink:href="#DejaVuSans-3a" transform="translate(783.353516 0)"/>
     <use xlink:href="#DejaVuSans-5b" transform="translate(817.044922 0)"/>
     <use xlink:href="#DejaVuSans-30" transform="translate(856.058594 0)"/>
     <use xlink:href="#DejaVuSans-2e" transform="translate(919.681641 0)"/>
     <use xlink:href="#DejaVuSans-30" transform="translate(951.46875 0)"/>
     <use xlink:href="#DejaVuSans-30" transform="translate(1015.091797 0)"/>
     <use xlink:href="#DejaVuSans-31" transform="translate(1078.714844 0)"/>
     <use xlink:href="#DejaVuSans-5d" transform="translate(1142.337891 0)"/>
    </g>
    <!-- error accumulation :True -->
    <g transform="translate(46.08 311.04) scale(0.09 -0.09)">
     <defs>
      <path id="DejaVuSans-63" d="M 3122 3366 
L 3122 2828 
Q 2878 2963 2633 3030 
Q 2388 3097 2138 3097 
Q 1578 3097 1268 2742 
Q 959 2388 959 1747 
Q 959 1106 1268 751 
Q 1578 397 2138 397 
Q 2388 397 2633 464 
Q 2878 531 3122 666 
L 3122 134 
Q 2881 22 2623 -34 
Q 2366 -91 2075 -91 
Q 1284 -91 818 406 
Q 353 903 353 1747 
Q 353 2603 823 3093 
Q 1294 3584 2113 3584 
Q 2378 3584 2631 3529 
Q 2884 3475 3122 3366 
z
" transform="scale(0.015625)"/>
      <path id="DejaVuSans-75" d="M 544 1381 
L 544 3500 
L 1119 3500 
L 1119 1403 
Q 1119 906 1312 657 
Q 1506 409 1894 409 
Q 2359 409 2629 706 
Q 2900 1003 2900 1516 
L 2900 3500 
L 3475 3500 
L 3475 0 
L 2900 0 
L 2900 538 
Q 2691 219 2414 64 
Q 2138 -91 1772 -91 
Q 1169 -91 856 284 
Q 544 659 544 1381 
z
M 1991 3584 
L 1991 3584 
z
" transform="scale(0.015625)"/>
      <path id="DejaVuSans-54" d="M -19 4666 
L 3928 4666 
L 3928 4134 
L 2272 4134 
L 2272 0 
L 1638 0 
L 1638 4134 
L -19 4134 
L -19 4666 
z
" transform="scale(0.015625)"/>
     </defs>
     <use xlink:href="#DejaVuSans-65"/>
     <use xlink:href="#DejaVuSans-72" transform="translate(61.523438 0)"/>
     <use xlink:href="#DejaVuSans-72" transform="translate(100.886719 0)"/>
     <use xlink:href="#DejaVuSans-6f" transform="translate(139.75 0)"/>
     <use xlink:href="#DejaVuSans-72" transform="translate(200.931641 0)"/>
     <use xlink:href="#DejaVuSans-20" transform="translate(242.044922 0)"/>
     <use xlink:href="#DejaVuSans-61" transform="translate(273.832031 0)"/>
     <use xlink:href="#DejaVuSans-63" transform="translate(335.111328 0)"/>
     <use xlink:href="#DejaVuSans-63" transform="translate(390.091797 0)"/>
     <use xlink:href="#DejaVuSans-75" transform="translate(445.072266 0)"/>
     <use xlink:href="#DejaVuSans-6d" transform="translate(508.451172 0)"/>
     <use xlink:href="#DejaVuSans-75" transform="translate(605.863281 0)"/>
     <use xlink:href="#DejaVuSans-6c" transform="translate(669.242188 0)"/>
     <use xlink:href="#DejaVuSans-61" transform="translate(697.025391 0)"/>
     <use xlink:href="#DejaVuSans-74" transform="translate(758.304688 0)"/>
     <use xlink:href="#DejaVuSans-69" transform="translate(797.513672 0)"/>
     <use xlink:href="#DejaVuSans-6f" transform="translate(825.296875 0)"/>
     <use xlink:href="#DejaVuSans-6e" transform="translate(886.478516 0)"/>
     <use xlink:href="#DejaVuSans-20" transform="translate(949.857422 0)"/>
     <use xlink:href="#DejaVuSans-3a" transform="translate(981.644531 0)"/>
     <use xlink:href="#DejaVuSans-54" transform="translate(1015.335938 0)"/>
     <use xlink:href="#DejaVuSans-72" transform="translate(1061.669922 0)"/>
     <use xlink:href="#DejaVuSans-75" transform="translate(1102.783203 0)"/>
     <use xlink:href="#DejaVuSans-65" transform="translate(1166.162109 0)"/>
    </g>
   </g>
   <g id="text_16">
    <!-- test_correction_by_SWIFT_2_8-20_30x4_plus_accu - swift_rul -->
    <g transform="translate(54.715313 35.472) scale(0.12 -0.12)">
     <defs>
      <path id="DejaVuSans-5f" d="M 3263 -1063 
L 3263 -1509 
L -63 -1509 
L -63 -1063 
L 3263 -1063 
z
" transform="scale(0.015625)"/>
      <path id="DejaVuSans-62" d="M 3116 1747 
Q 3116 2381 2855 2742 
Q 2594 3103 2138 3103 
Q 1681 3103 1420 2742 
Q 1159 2381 1159 1747 
Q 1159 1113 1420 752 
Q 1681 391 2138 391 
Q 2594 391 2855 752 
Q 3116 1113 3116 1747 
z
M 1159 2969 
Q 1341 3281 1617 3432 
Q 1894 3584 2278 3584 
Q 2916 3584 3314 3078 
Q 3713 2572 3713 1747 
Q 3713 922 3314 415 
Q 2916 -91 2278 -91 
Q 1894 -91 1617 61 
Q 1341 213 1159 525 
L 1159 0 
L 581 0 
L 581 4863 
L 1159 4863 
L 1159 2969 
z
" transform="scale(0.015625)"/>
      <path id="DejaVuSans-79" d="M 2059 -325 
Q 1816 -950 1584 -1140 
Q 1353 -1331 966 -1331 
L 506 -1331 
L 506 -850 
L 844 -850 
Q 1081 -850 1212 -737 
Q 1344 -625 1503 -206 
L 1606 56 
L 191 3500 
L 800 3500 
L 1894 763 
L 2988 3500 
L 3597 3500 
L 2059 -325 
z
" transform="scale(0.015625)"/>
      <path id="DejaVuSans-53" d="M 3425 4513 
L 3425 3897 
Q 3066 4069 2747 4153 
Q 2428 4238 2131 4238 
Q 1616 4238 1336 4038 
Q 1056 3838 1056 3469 
Q 1056 3159 1242 3001 
Q 1428 2844 1947 2747 
L 2328 2669 
Q 3034 2534 3370 2195 
Q 3706 1856 3706 1288 
Q 3706 609 3251 259 
Q 2797 -91 1919 -91 
Q 1588 -91 1214 -16 
Q 841 59 441 206 
L 441 856 
Q 825 641 1194 531 
Q 1563 422 1919 422 
Q 2459 422 2753 634 
Q 3047 847 3047 1241 
Q 3047 1584 2836 1778 
Q 2625 1972 2144 2069 
L 1759 2144 
Q 1053 2284 737 2584 
Q 422 2884 422 3419 
Q 422 4038 858 4394 
Q 1294 4750 2059 4750 
Q 2388 4750 2728 4690 
Q 3069 4631 3425 4513 
z
" transform="scale(0.015625)"/>
      <path id="DejaVuSans-57" d="M 213 4666 
L 850 4666 
L 1831 722 
L 2809 4666 
L 3519 4666 
L 4500 722 
L 5478 4666 
L 6119 4666 
L 4947 0 
L 4153 0 
L 3169 4050 
L 2175 0 
L 1381 0 
L 213 4666 
z
" transform="scale(0.015625)"/>
      <path id="DejaVuSans-49" d="M 628 4666 
L 1259 4666 
L 1259 0 
L 628 0 
L 628 4666 
z
" transform="scale(0.015625)"/>
      <path id="DejaVuSans-46" d="M 628 4666 
L 3309 4666 
L 3309 4134 
L 1259 4134 
L 1259 2759 
L 3109 2759 
L 3109 2228 
L 1259 2228 
L 1259 0 
L 628 0 
L 628 4666 
z
" transform="scale(0.015625)"/>
      <path id="DejaVuSans-78" d="M 3513 3500 
L 2247 1797 
L 3578 0 
L 2900 0 
L 1881 1375 
L 863 0 
L 184 0 
L 1544 1831 
L 300 3500 
L 978 3500 
L 1906 2253 
L 2834 3500 
L 3513 3500 
z
" transform="scale(0.015625)"/>
      <path id="DejaVuSans-70" d="M 1159 525 
L 1159 -1331 
L 581 -1331 
L 581 3500 
L 1159 3500 
L 1159 2969 
Q 1341 3281 1617 3432 
Q 1894 3584 2278 3584 
Q 2916 3584 3314 3078 
Q 3713 2572 3713 1747 
Q 3713 922 3314 415 
Q 2916 -91 2278 -91 
Q 1894 -91 1617 61 
Q 1341 213 1159 525 
z
M 3116 1747 
Q 3116 2381 2855 2742 
Q 2594 3103 2138 3103 
Q 1681 3103 1420 2742 
Q 1159 2381 1159 1747 
Q 1159 1113 1420 752 
Q 1681 391 2138 391 
Q 2594 391 2855 752 
Q 3116 1113 3116 1747 
z
" transform="scale(0.015625)"/>
      <path id="DejaVuSans-77" d="M 269 3500 
L 844 3500 
L 1563 769 
L 2278 3500 
L 2956 3500 
L 3675 769 
L 4391 3500 
L 4966 3500 
L 4050 0 
L 3372 0 
L 2619 2869 
L 1863 0 
L 1184 0 
L 269 3500 
z
" transform="scale(0.015625)"/>
      <path id="DejaVuSans-66" d="M 2375 4863 
L 2375 4384 
L 1825 4384 
Q 1516 4384 1395 4259 
Q 1275 4134 1275 3809 
L 1275 3500 
L 2222 3500 
L 2222 3053 
L 1275 3053 
L 1275 0 
L 697 0 
L 697 3053 
L 147 3053 
L 147 3500 
L 697 3500 
L 697 3744 
Q 697 4328 969 4595 
Q 1241 4863 1831 4863 
L 2375 4863 
z
" transform="scale(0.015625)"/>
     </defs>
     <use xlink:href="#DejaVuSans-74"/>
     <use xlink:href="#DejaVuSans-65" transform="translate(39.208984 0)"/>
     <use xlink:href="#DejaVuSans-73" transform="translate(100.732422 0)"/>
     <use xlink:href="#DejaVuSans-74" transform="translate(152.832031 0)"/>
     <use xlink:href="#DejaVuSans-5f" transform="translate(192.041016 0)"/>
     <use xlink:href="#DejaVuSans-63" transform="translate(242.041016 0)"/>
     <use xlink:href="#DejaVuSans-6f" transform="translate(297.021484 0)"/>
     <use xlink:href="#DejaVuSans-72" transform="translate(358.203125 0)"/>
     <use xlink:href="#DejaVuSans-72" transform="translate(397.566406 0)"/>
     <use xlink:href="#DejaVuSans-65" transform="translate(436.429688 0)"/>
     <use xlink:href="#DejaVuSans-63" transform="translate(497.953125 0)"/>
     <use xlink:href="#DejaVuSans-74" transform="translate(552.933594 0)"/>
     <use xlink:href="#DejaVuSans-69" transform="translate(592.142578 0)"/>
     <use xlink:href="#DejaVuSans-6f" transform="translate(619.925781 0)"/>
     <use xlink:href="#DejaVuSans-6e" transform="translate(681.107422 0)"/>
     <use xlink:href="#DejaVuSans-5f" transform="translate(744.486328 0)"/>
     <use xlink:href="#DejaVuSans-62" transform="translate(794.486328 0)"/>
     <use xlink:href="#DejaVuSans-79" transform="translate(857.962891 0)"/>
     <use xlink:href="#DejaVuSans-5f" transform="translate(917.142578 0)"/>
     <use xlink:href="#DejaVuSans-53" transform="translate(967.142578 0)"/>
     <use xlink:href="#DejaVuSans-57" transform="translate(1030.619141 0)"/>
     <use xlink:href="#DejaVuSans-49" transform="translate(1129.496094 0)"/>
     <use xlink:href="#DejaVuSans-46" transform="translate(1158.988281 0)"/>
     <use xlink:href="#DejaVuSans-54" transform="translate(1214.757812 0)"/>
     <use xlink:href="#DejaVuSans-5f" transform="translate(1275.841797 0)"/>
     <use xlink:href="#DejaVuSans-32" transform="translate(1325.841797 0)"/>
     <use xlink:href="#DejaVuSans-5f" transform="translate(1389.464844 0)"/>
     <use xlink:href="#DejaVuSans-38" transform="translate(1439.464844 0)"/>
     <use xlink:href="#DejaVuSans-2d" transform="translate(1503.087891 0)"/>
     <use xlink:href="#DejaVuSans-32" transform="translate(1539.171875 0)"/>
     <use xlink:href="#DejaVuSans-30" transform="translate(1602.794922 0)"/>
     <use xlink:href="#DejaVuSans-5f" transform="translate(1666.417969 0)"/>
     <use xlink:href="#DejaVuSans-33" transform="translate(1716.417969 0)"/>
     <use xlink:href="#DejaVuSans-30" transform="translate(1780.041016 0)"/>
     <use xlink:href="#DejaVuSans-78" transform="translate(1843.664062 0)"/>
     <use xlink:href="#DejaVuSans-34" transform="translate(1902.84375 0)"/>
     <use xlink:href="#DejaVuSans-5f" transform="translate(1966.466797 0)"/>
     <use xlink:href="#DejaVuSans-70" transform="translate(2016.466797 0)"/>
     <use xlink:href="#DejaVuSans-6c" transform="translate(2079.943359 0)"/>
     <use xlink:href="#DejaVuSans-75" transform="translate(2107.726562 0)"/>
     <use xlink:href="#DejaVuSans-73" transform="translate(2171.105469 0)"/>
     <use xlink:href="#DejaVuSans-5f" transform="translate(2223.205078 0)"/>
     <use xlink:href="#DejaVuSans-61" transform="translate(2273.205078 0)"/>
     <use xlink:href="#DejaVuSans-63" transform="translate(2334.484375 0)"/>
     <use xlink:href="#DejaVuSans-63" transform="translate(2389.464844 0)"/>
     <use xlink:href="#DejaVuSans-75" transform="translate(2444.445312 0)"/>
     <use xlink:href="#DejaVuSans-20" transform="translate(2507.824219 0)"/>
     <use xlink:href="#DejaVuSans-2d" transform="translate(2539.611328 0)"/>
     <use xlink:href="#DejaVuSans-20" transform="translate(2575.695312 0)"/>
     <use xlink:href="#DejaVuSans-73" transform="translate(2607.482422 0)"/>
     <use xlink:href="#DejaVuSans-77" transform="translate(2659.582031 0)"/>
     <use xlink:href="#DejaVuSans-69" transform="translate(2741.369141 0)"/>
     <use xlink:href="#DejaVuSans-66" transform="translate(2769.152344 0)"/>
     <use xlink:href="#DejaVuSans-74" transform="translate(2802.607422 0)"/>
     <use xlink:href="#DejaVuSans-5f" transform="translate(2841.816406 0)"/>
     <use xlink:href="#DejaVuSans-72" transform="translate(2891.816406 0)"/>
     <use xlink:href="#DejaVuSans-75" transform="translate(2932.929688 0)"/>
     <use xlink:href="#DejaVuSans-6c" transform="translate(2996.308594 0)"/>
    </g>
   </g>
  </g>
 </g>
 <defs>
  <clipPath id="pa666a7cabd">
   <rect x="57.6" y="41.472" width="357.12" height="200.448"/>
  </clipPath>
 </defs>
</svg>
