<?xml version="1.0" encoding="utf-8" standalone="no"?>
<!DOCTYPE svg PUBLIC "-//W3C//DTD SVG 1.1//EN"
  "http://www.w3.org/Graphics/SVG/1.1/DTD/svg11.dtd">
<svg xmlns:xlink="http://www.w3.org/1999/xlink" width="1350.797381pt" height="626.079992pt" viewBox="0 0 1350.797381 626.079992" xmlns="http://www.w3.org/2000/svg" version="1.1">
 <metadata>
  <rdf:RDF xmlns:dc="http://purl.org/dc/elements/1.1/" xmlns:cc="http://creativecommons.org/ns#" xmlns:rdf="http://www.w3.org/1999/02/22-rdf-syntax-ns#">
   <cc:Work>
    <dc:type rdf:resource="http://purl.org/dc/dcmitype/StillImage"/>
    <dc:date>2022-06-04T22:28:32.578516</dc:date>
    <dc:format>image/svg+xml</dc:format>
    <dc:creator>
     <cc:Agent>
      <dc:title>Matplotlib v3.5.1, https://matplotlib.org/</dc:title>
     </cc:Agent>
    </dc:creator>
   </cc:Work>
  </rdf:RDF>
 </metadata>
 <defs>
  <style type="text/css">*{stroke-linejoin: round; stroke-linecap: butt}</style>
 </defs>
 <g id="figure_1">
  <g id="patch_1">
   <path d="M 0 626.079992 
L 1350.797381 626.079992 
L 1350.797381 0 
L 0 0 
z
" style="fill: #ffffff"/>
  </g>
  <g id="axes_1">
   <g id="line2d_1">
    <path d="M 229.635863 112.212799 
L 1207.70525 112.212799 
" clip-path="url(#p38df2c6c46)" style="fill: none; stroke: #000000; stroke-width: 2; stroke-linecap: square"/>
   </g>
   <g id="line2d_2">
    <path d="M 229.635863 158.566798 
L 1207.70525 158.566798 
" clip-path="url(#p38df2c6c46)" style="fill: none; stroke: #000000; stroke-width: 2; stroke-linecap: square"/>
   </g>
   <g id="line2d_3">
    <path d="M 229.635863 204.920797 
L 1207.70525 204.920797 
" clip-path="url(#p38df2c6c46)" style="fill: none; stroke: #000000; stroke-width: 2; stroke-linecap: square"/>
   </g>
   <g id="line2d_4">
    <path d="M 229.635863 251.274797 
L 1207.70525 251.274797 
" clip-path="url(#p38df2c6c46)" style="fill: none; stroke: #000000; stroke-width: 2; stroke-linecap: square"/>
   </g>
   <g id="line2d_5">
    <path d="M 229.635863 297.628796 
L 1207.70525 297.628796 
" clip-path="url(#p38df2c6c46)" style="fill: none; stroke: #000000; stroke-width: 2; stroke-linecap: square"/>
   </g>
   <g id="line2d_6">
    <path d="M 229.635863 343.982795 
L 1207.70525 343.982795 
" clip-path="url(#p38df2c6c46)" style="fill: none; stroke: #000000; stroke-width: 2; stroke-linecap: square"/>
   </g>
   <g id="line2d_7">
    <path d="M 229.635863 390.336795 
L 1207.70525 390.336795 
" clip-path="url(#p38df2c6c46)" style="fill: none; stroke: #000000; stroke-width: 2; stroke-linecap: square"/>
   </g>
   <g id="line2d_8">
    <path d="M 229.635863 436.690794 
L 1207.70525 436.690794 
" clip-path="url(#p38df2c6c46)" style="fill: none; stroke: #000000; stroke-width: 2; stroke-linecap: square"/>
   </g>
   <g id="line2d_9">
    <path d="M 229.635863 483.044794 
L 1207.70525 483.044794 
" clip-path="url(#p38df2c6c46)" style="fill: none; stroke: #000000; stroke-width: 2; stroke-linecap: square"/>
   </g>
   <g id="line2d_10">
    <path d="M 229.635863 529.398793 
L 1207.70525 529.398793 
" clip-path="url(#p38df2c6c46)" style="fill: none; stroke: #000000; stroke-width: 2; stroke-linecap: square"/>
   </g>
   <g id="line2d_11">
    <path d="M 301.021022 529.398793 
L 301.021022 390.336795 
" clip-path="url(#p38df2c6c46)" style="fill: none; stroke: #000000; stroke-width: 2; stroke-linecap: square"/>
   </g>
   <g id="line2d_12">
    <path d="M 347.375021 483.044794 
L 347.375021 390.336795 
" clip-path="url(#p38df2c6c46)" style="fill: none; stroke: #000000; stroke-width: 2; stroke-linecap: square"/>
   </g>
   <g id="line2d_13">
    <path d="M 347.375021 297.628796 
L 347.375021 112.212799 
" clip-path="url(#p38df2c6c46)" style="fill: none; stroke: #000000; stroke-width: 2; stroke-linecap: square"/>
   </g>
   <g id="line2d_14">
    <path d="M 393.72902 436.690794 
L 393.72902 343.982795 
" clip-path="url(#p38df2c6c46)" style="fill: none; stroke: #000000; stroke-width: 2; stroke-linecap: square"/>
   </g>
   <g id="line2d_15">
    <path d="M 393.72902 297.628796 
L 393.72902 204.920797 
" clip-path="url(#p38df2c6c46)" style="fill: none; stroke: #000000; stroke-width: 2; stroke-linecap: square"/>
   </g>
   <g id="line2d_16">
    <path d="M 440.08302 483.044794 
L 440.08302 390.336795 
" clip-path="url(#p38df2c6c46)" style="fill: none; stroke: #000000; stroke-width: 2; stroke-linecap: square"/>
   </g>
   <g id="line2d_17">
    <path d="M 440.08302 297.628796 
L 440.08302 251.274797 
" clip-path="url(#p38df2c6c46)" style="fill: none; stroke: #000000; stroke-width: 2; stroke-linecap: square"/>
   </g>
   <g id="line2d_18">
    <path d="M 486.437019 529.398793 
L 486.437019 390.336795 
" clip-path="url(#p38df2c6c46)" style="fill: none; stroke: #000000; stroke-width: 2; stroke-linecap: square"/>
   </g>
   <g id="line2d_19">
    <path d="M 486.437019 343.982795 
L 486.437019 297.628796 
" clip-path="url(#p38df2c6c46)" style="fill: none; stroke: #000000; stroke-width: 2; stroke-linecap: square"/>
   </g>
   <g id="line2d_20">
    <path d="M 579.145018 436.690794 
L 579.145018 343.982795 
" clip-path="url(#p38df2c6c46)" style="fill: none; stroke: #000000; stroke-width: 2; stroke-linecap: square"/>
   </g>
   <g id="line2d_21">
    <path d="M 625.499017 343.982795 
L 625.499017 297.628796 
" clip-path="url(#p38df2c6c46)" style="fill: none; stroke: #000000; stroke-width: 2; stroke-linecap: square"/>
   </g>
   <g id="line2d_22">
    <path d="M 671.853017 297.628796 
L 671.853017 251.274797 
" clip-path="url(#p38df2c6c46)" style="fill: none; stroke: #000000; stroke-width: 2; stroke-linecap: square"/>
   </g>
   <g id="line2d_23">
    <path d="M 671.853017 436.690794 
L 671.853017 343.982795 
" clip-path="url(#p38df2c6c46)" style="fill: none; stroke: #000000; stroke-width: 2; stroke-linecap: square"/>
   </g>
   <g id="line2d_24">
    <path d="M 718.207016 297.628796 
L 718.207016 112.212799 
" clip-path="url(#p38df2c6c46)" style="fill: none; stroke: #000000; stroke-width: 2; stroke-linecap: square"/>
   </g>
   <g id="line2d_25">
    <path d="M 764.561015 297.628796 
L 764.561015 112.212799 
" clip-path="url(#p38df2c6c46)" style="fill: none; stroke: #000000; stroke-width: 2; stroke-linecap: square"/>
   </g>
   <g id="line2d_26">
    <path d="M 810.915015 343.982795 
L 810.915015 297.628796 
" clip-path="url(#p38df2c6c46)" style="fill: none; stroke: #000000; stroke-width: 2; stroke-linecap: square"/>
   </g>
   <g id="line2d_27">
    <path d="M 903.623014 436.690794 
L 903.623014 343.982795 
" clip-path="url(#p38df2c6c46)" style="fill: none; stroke: #000000; stroke-width: 2; stroke-linecap: square"/>
   </g>
   <g id="line2d_28">
    <path d="M 949.977013 343.982795 
L 949.977013 297.628796 
" clip-path="url(#p38df2c6c46)" style="fill: none; stroke: #000000; stroke-width: 2; stroke-linecap: square"/>
   </g>
   <g id="line2d_29">
    <path d="M 996.331012 297.628796 
L 996.331012 251.274797 
" clip-path="url(#p38df2c6c46)" style="fill: none; stroke: #000000; stroke-width: 2; stroke-linecap: square"/>
   </g>
   <g id="line2d_30">
    <path d="M 1042.685012 297.628796 
L 1042.685012 204.920797 
" clip-path="url(#p38df2c6c46)" style="fill: none; stroke: #000000; stroke-width: 2; stroke-linecap: square"/>
   </g>
   <g id="line2d_31">
    <path d="M 1135.393011 297.628796 
L 1135.393011 112.212799 
" clip-path="url(#p38df2c6c46)" style="fill: none; stroke: #000000; stroke-width: 2; stroke-linecap: square"/>
   </g>
   <g id="text_1">
    <!-- TERMS: 2, DEPTH:19 -->
    <g transform="translate(630.251158 69.129599)scale(0.12 -0.12)">
     <defs>
      <path id="DejaVuSans-54" d="M -19 4666 
L 3928 4666 
L 3928 4134 
L 2272 4134 
L 2272 0 
L 1638 0 
L 1638 4134 
L -19 4134 
L -19 4666 
z
" transform="scale(0.015625)"/>
      <path id="DejaVuSans-45" d="M 628 4666 
L 3578 4666 
L 3578 4134 
L 1259 4134 
L 1259 2753 
L 3481 2753 
L 3481 2222 
L 1259 2222 
L 1259 531 
L 3634 531 
L 3634 0 
L 628 0 
L 628 4666 
z
" transform="scale(0.015625)"/>
      <path id="DejaVuSans-52" d="M 2841 2188 
Q 3044 2119 3236 1894 
Q 3428 1669 3622 1275 
L 4263 0 
L 3584 0 
L 2988 1197 
Q 2756 1666 2539 1819 
Q 2322 1972 1947 1972 
L 1259 1972 
L 1259 0 
L 628 0 
L 628 4666 
L 2053 4666 
Q 2853 4666 3247 4331 
Q 3641 3997 3641 3322 
Q 3641 2881 3436 2590 
Q 3231 2300 2841 2188 
z
M 1259 4147 
L 1259 2491 
L 2053 2491 
Q 2509 2491 2742 2702 
Q 2975 2913 2975 3322 
Q 2975 3731 2742 3939 
Q 2509 4147 2053 4147 
L 1259 4147 
z
" transform="scale(0.015625)"/>
      <path id="DejaVuSans-4d" d="M 628 4666 
L 1569 4666 
L 2759 1491 
L 3956 4666 
L 4897 4666 
L 4897 0 
L 4281 0 
L 4281 4097 
L 3078 897 
L 2444 897 
L 1241 4097 
L 1241 0 
L 628 0 
L 628 4666 
z
" transform="scale(0.015625)"/>
      <path id="DejaVuSans-53" d="M 3425 4513 
L 3425 3897 
Q 3066 4069 2747 4153 
Q 2428 4238 2131 4238 
Q 1616 4238 1336 4038 
Q 1056 3838 1056 3469 
Q 1056 3159 1242 3001 
Q 1428 2844 1947 2747 
L 2328 2669 
Q 3034 2534 3370 2195 
Q 3706 1856 3706 1288 
Q 3706 609 3251 259 
Q 2797 -91 1919 -91 
Q 1588 -91 1214 -16 
Q 841 59 441 206 
L 441 856 
Q 825 641 1194 531 
Q 1563 422 1919 422 
Q 2459 422 2753 634 
Q 3047 847 3047 1241 
Q 3047 1584 2836 1778 
Q 2625 1972 2144 2069 
L 1759 2144 
Q 1053 2284 737 2584 
Q 422 2884 422 3419 
Q 422 4038 858 4394 
Q 1294 4750 2059 4750 
Q 2388 4750 2728 4690 
Q 3069 4631 3425 4513 
z
" transform="scale(0.015625)"/>
      <path id="DejaVuSans-3a" d="M 750 794 
L 1409 794 
L 1409 0 
L 750 0 
L 750 794 
z
M 750 3309 
L 1409 3309 
L 1409 2516 
L 750 2516 
L 750 3309 
z
" transform="scale(0.015625)"/>
      <path id="DejaVuSans-20" transform="scale(0.015625)"/>
      <path id="DejaVuSans-32" d="M 1228 531 
L 3431 531 
L 3431 0 
L 469 0 
L 469 531 
Q 828 903 1448 1529 
Q 2069 2156 2228 2338 
Q 2531 2678 2651 2914 
Q 2772 3150 2772 3378 
Q 2772 3750 2511 3984 
Q 2250 4219 1831 4219 
Q 1534 4219 1204 4116 
Q 875 4013 500 3803 
L 500 4441 
Q 881 4594 1212 4672 
Q 1544 4750 1819 4750 
Q 2544 4750 2975 4387 
Q 3406 4025 3406 3419 
Q 3406 3131 3298 2873 
Q 3191 2616 2906 2266 
Q 2828 2175 2409 1742 
Q 1991 1309 1228 531 
z
" transform="scale(0.015625)"/>
      <path id="DejaVuSans-2c" d="M 750 794 
L 1409 794 
L 1409 256 
L 897 -744 
L 494 -744 
L 750 256 
L 750 794 
z
" transform="scale(0.015625)"/>
      <path id="DejaVuSans-44" d="M 1259 4147 
L 1259 519 
L 2022 519 
Q 2988 519 3436 956 
Q 3884 1394 3884 2338 
Q 3884 3275 3436 3711 
Q 2988 4147 2022 4147 
L 1259 4147 
z
M 628 4666 
L 1925 4666 
Q 3281 4666 3915 4102 
Q 4550 3538 4550 2338 
Q 4550 1131 3912 565 
Q 3275 0 1925 0 
L 628 0 
L 628 4666 
z
" transform="scale(0.015625)"/>
      <path id="DejaVuSans-50" d="M 1259 4147 
L 1259 2394 
L 2053 2394 
Q 2494 2394 2734 2622 
Q 2975 2850 2975 3272 
Q 2975 3691 2734 3919 
Q 2494 4147 2053 4147 
L 1259 4147 
z
M 628 4666 
L 2053 4666 
Q 2838 4666 3239 4311 
Q 3641 3956 3641 3272 
Q 3641 2581 3239 2228 
Q 2838 1875 2053 1875 
L 1259 1875 
L 1259 0 
L 628 0 
L 628 4666 
z
" transform="scale(0.015625)"/>
      <path id="DejaVuSans-48" d="M 628 4666 
L 1259 4666 
L 1259 2753 
L 3553 2753 
L 3553 4666 
L 4184 4666 
L 4184 0 
L 3553 0 
L 3553 2222 
L 1259 2222 
L 1259 0 
L 628 0 
L 628 4666 
z
" transform="scale(0.015625)"/>
      <path id="DejaVuSans-31" d="M 794 531 
L 1825 531 
L 1825 4091 
L 703 3866 
L 703 4441 
L 1819 4666 
L 2450 4666 
L 2450 531 
L 3481 531 
L 3481 0 
L 794 0 
L 794 531 
z
" transform="scale(0.015625)"/>
      <path id="DejaVuSans-39" d="M 703 97 
L 703 672 
Q 941 559 1184 500 
Q 1428 441 1663 441 
Q 2288 441 2617 861 
Q 2947 1281 2994 2138 
Q 2813 1869 2534 1725 
Q 2256 1581 1919 1581 
Q 1219 1581 811 2004 
Q 403 2428 403 3163 
Q 403 3881 828 4315 
Q 1253 4750 1959 4750 
Q 2769 4750 3195 4129 
Q 3622 3509 3622 2328 
Q 3622 1225 3098 567 
Q 2575 -91 1691 -91 
Q 1453 -91 1209 -44 
Q 966 3 703 97 
z
M 1959 2075 
Q 2384 2075 2632 2365 
Q 2881 2656 2881 3163 
Q 2881 3666 2632 3958 
Q 2384 4250 1959 4250 
Q 1534 4250 1286 3958 
Q 1038 3666 1038 3163 
Q 1038 2656 1286 2365 
Q 1534 2075 1959 2075 
z
" transform="scale(0.015625)"/>
     </defs>
     <use xlink:href="#DejaVuSans-54"/>
     <use xlink:href="#DejaVuSans-45" x="61.083984"/>
     <use xlink:href="#DejaVuSans-52" x="124.267578"/>
     <use xlink:href="#DejaVuSans-4d" x="193.75"/>
     <use xlink:href="#DejaVuSans-53" x="280.029297"/>
     <use xlink:href="#DejaVuSans-3a" x="343.505859"/>
     <use xlink:href="#DejaVuSans-20" x="377.197266"/>
     <use xlink:href="#DejaVuSans-32" x="408.984375"/>
     <use xlink:href="#DejaVuSans-2c" x="472.607422"/>
     <use xlink:href="#DejaVuSans-20" x="504.394531"/>
     <use xlink:href="#DejaVuSans-44" x="536.181641"/>
     <use xlink:href="#DejaVuSans-45" x="613.183594"/>
     <use xlink:href="#DejaVuSans-50" x="676.367188"/>
     <use xlink:href="#DejaVuSans-54" x="736.669922"/>
     <use xlink:href="#DejaVuSans-48" x="797.753906"/>
     <use xlink:href="#DejaVuSans-3a" x="872.949219"/>
     <use xlink:href="#DejaVuSans-31" x="906.640625"/>
     <use xlink:href="#DejaVuSans-39" x="970.263672"/>
    </g>
   </g>
   <g id="patch_2">
    <path d="M 239.601972 359.047845 
L 269.732072 359.047845 
L 269.732072 328.917746 
L 239.601972 328.917746 
z
" clip-path="url(#p38df2c6c46)" style="fill: #ffffff; stroke: #000000; stroke-width: 1.5; stroke-linejoin: miter"/>
   </g>
   <g id="patch_3">
    <path d="M 239.601972 451.755844 
L 269.732072 451.755844 
L 269.732072 421.625744 
L 239.601972 421.625744 
z
" clip-path="url(#p38df2c6c46)" style="fill: #ffffff; stroke: #000000; stroke-width: 1.5; stroke-linejoin: miter"/>
   </g>
   <g id="patch_4">
    <path d="M 239.601972 498.109843 
L 269.732072 498.109843 
L 269.732072 467.979744 
L 239.601972 467.979744 
z
" clip-path="url(#p38df2c6c46)" style="fill: #ffffff; stroke: #000000; stroke-width: 1.5; stroke-linejoin: miter"/>
   </g>
   <g id="patch_5">
    <path d="M 301.021022 533.918308 
C 302.219611 533.918308 303.369271 533.442103 304.216801 532.594573 
C 305.064332 531.747042 305.540537 530.597382 305.540537 529.398793 
C 305.540537 528.200204 305.064332 527.050544 304.216801 526.203013 
C 303.369271 525.355483 302.219611 524.879278 301.021022 524.879278 
C 299.822432 524.879278 298.672773 525.355483 297.825242 526.203013 
C 296.977711 527.050544 296.501507 528.200204 296.501507 529.398793 
C 296.501507 530.597382 296.977711 531.747042 297.825242 532.594573 
C 298.672773 533.442103 299.822432 533.918308 301.021022 533.918308 
z
" clip-path="url(#p38df2c6c46)" style="stroke: #000000; stroke-width: 1.5; stroke-linejoin: miter"/>
   </g>
   <g id="patch_6">
    <path d="M 301.021022 400.88233 
C 303.81773 400.88233 306.500269 399.771186 308.477841 397.793614 
C 310.455412 395.816042 311.566556 393.133503 311.566556 390.336795 
C 311.566556 387.540086 310.455412 384.857547 308.477841 382.879976 
C 306.500269 380.902404 303.81773 379.79126 301.021022 379.79126 
C 298.224313 379.79126 295.541774 380.902404 293.564202 382.879976 
C 291.586631 384.857547 290.475487 387.540086 290.475487 390.336795 
C 290.475487 393.133503 291.586631 395.816042 293.564202 397.793614 
C 295.541774 399.771186 298.224313 400.88233 301.021022 400.88233 
z
" clip-path="url(#p38df2c6c46)" style="stroke: #000000; stroke-width: 2; stroke-linejoin: miter"/>
   </g>
   <g id="patch_7">
    <path d="M 285.955972 219.985847 
L 316.086071 219.985847 
L 316.086071 189.855747 
L 285.955972 189.855747 
z
" clip-path="url(#p38df2c6c46)" style="fill: #ffffff; stroke: #000000; stroke-width: 1.5; stroke-linejoin: miter"/>
   </g>
   <g id="patch_8">
    <path d="M 285.955972 127.277848 
L 316.086071 127.277848 
L 316.086071 97.147749 
L 285.955972 97.147749 
z
" clip-path="url(#p38df2c6c46)" style="fill: #ffffff; stroke: #000000; stroke-width: 1.5; stroke-linejoin: miter"/>
   </g>
   <g id="patch_9">
    <path d="M 347.375021 487.564309 
C 348.57361 487.564309 349.72327 487.088104 350.570801 486.240573 
C 351.418331 485.393043 351.894536 484.243383 351.894536 483.044794 
C 351.894536 481.846204 351.418331 480.696545 350.570801 479.849014 
C 349.72327 479.001483 348.57361 478.525279 347.375021 478.525279 
C 346.176432 478.525279 345.026772 479.001483 344.179241 479.849014 
C 343.331711 480.696545 342.855506 481.846204 342.855506 483.044794 
C 342.855506 484.243383 343.331711 485.393043 344.179241 486.240573 
C 345.026772 487.088104 346.176432 487.564309 347.375021 487.564309 
z
" clip-path="url(#p38df2c6c46)" style="stroke: #000000; stroke-width: 1.5; stroke-linejoin: miter"/>
   </g>
   <g id="patch_10">
    <path d="M 347.375021 400.88233 
C 350.17173 400.88233 352.854269 399.771186 354.83184 397.793614 
C 356.809412 395.816042 357.920556 393.133503 357.920556 390.336795 
C 357.920556 387.540086 356.809412 384.857547 354.83184 382.879976 
C 352.854269 380.902404 350.17173 379.79126 347.375021 379.79126 
C 344.578312 379.79126 341.895773 380.902404 339.918202 382.879976 
C 337.94063 384.857547 336.829486 387.540086 336.829486 390.336795 
C 336.829486 393.133503 337.94063 395.816042 339.918202 397.793614 
C 341.895773 399.771186 344.578312 400.88233 347.375021 400.88233 
z
" clip-path="url(#p38df2c6c46)" style="stroke: #000000; stroke-width: 2; stroke-linejoin: miter"/>
   </g>
   <g id="patch_11">
    <path d="M 347.375021 116.732313 
C 348.57361 116.732313 349.72327 116.256109 350.570801 115.408578 
C 351.418331 114.561047 351.894536 113.411388 351.894536 112.212799 
C 351.894536 111.014209 351.418331 109.86455 350.570801 109.017019 
C 349.72327 108.169488 348.57361 107.693284 347.375021 107.693284 
C 346.176432 107.693284 345.026772 108.169488 344.179241 109.017019 
C 343.331711 109.86455 342.855506 111.014209 342.855506 112.212799 
C 342.855506 113.411388 343.331711 114.561047 344.179241 115.408578 
C 345.026772 116.256109 346.176432 116.732313 347.375021 116.732313 
z
" clip-path="url(#p38df2c6c46)" style="stroke: #000000; stroke-width: 1.5; stroke-linejoin: miter"/>
   </g>
   <g id="patch_12">
    <path d="M 347.375021 308.174331 
C 350.17173 308.174331 352.854269 307.063187 354.83184 305.085615 
C 356.809412 303.108044 357.920556 300.425505 357.920556 297.628796 
C 357.920556 294.832088 356.809412 292.149548 354.83184 290.171977 
C 352.854269 288.194405 350.17173 287.083261 347.375021 287.083261 
C 344.578312 287.083261 341.895773 288.194405 339.918202 290.171977 
C 337.94063 292.149548 336.829486 294.832088 336.829486 297.628796 
C 336.829486 300.425505 337.94063 303.108044 339.918202 305.085615 
C 341.895773 307.063187 344.578312 308.174331 347.375021 308.174331 
z
" clip-path="url(#p38df2c6c46)" style="stroke: #000000; stroke-width: 2; stroke-linejoin: miter"/>
   </g>
   <g id="patch_13">
    <path d="M 393.72902 441.210309 
C 394.92761 441.210309 396.077269 440.734105 396.9248 439.886574 
C 397.772331 439.039043 398.248535 437.889384 398.248535 436.690794 
C 398.248535 435.492205 397.772331 434.342545 396.9248 433.495015 
C 396.077269 432.647484 394.92761 432.171279 393.72902 432.171279 
C 392.530431 432.171279 391.380771 432.647484 390.533241 433.495015 
C 389.68571 434.342545 389.209505 435.492205 389.209505 436.690794 
C 389.209505 437.889384 389.68571 439.039043 390.533241 439.886574 
C 391.380771 440.734105 392.530431 441.210309 393.72902 441.210309 
z
" clip-path="url(#p38df2c6c46)" style="stroke: #000000; stroke-width: 1.5; stroke-linejoin: miter"/>
   </g>
   <g id="patch_14">
    <path d="M 393.72902 354.52833 
C 396.525729 354.52833 399.208268 353.417186 401.18584 351.439615 
C 403.163411 349.462043 404.274555 346.779504 404.274555 343.982795 
C 404.274555 341.186087 403.163411 338.503548 401.18584 336.525976 
C 399.208268 334.548405 396.525729 333.437261 393.72902 333.437261 
C 390.932312 333.437261 388.249773 334.548405 386.272201 336.525976 
C 384.29463 338.503548 383.183486 341.186087 383.183486 343.982795 
C 383.183486 346.779504 384.29463 349.462043 386.272201 351.439615 
C 388.249773 353.417186 390.932312 354.52833 393.72902 354.52833 
z
" clip-path="url(#p38df2c6c46)" style="stroke: #000000; stroke-width: 2; stroke-linejoin: miter"/>
   </g>
   <g id="patch_15">
    <path d="M 393.72902 209.440312 
C 394.92761 209.440312 396.077269 208.964108 396.9248 208.116577 
C 397.772331 207.269046 398.248535 206.119387 398.248535 204.920797 
C 398.248535 203.722208 397.772331 202.572548 396.9248 201.725018 
C 396.077269 200.877487 394.92761 200.401282 393.72902 200.401282 
C 392.530431 200.401282 391.380771 200.877487 390.533241 201.725018 
C 389.68571 202.572548 389.209505 203.722208 389.209505 204.920797 
C 389.209505 206.119387 389.68571 207.269046 390.533241 208.116577 
C 391.380771 208.964108 392.530431 209.440312 393.72902 209.440312 
z
" clip-path="url(#p38df2c6c46)" style="stroke: #000000; stroke-width: 1.5; stroke-linejoin: miter"/>
   </g>
   <g id="patch_16">
    <path d="M 393.72902 308.174331 
C 396.525729 308.174331 399.208268 307.063187 401.18584 305.085615 
C 403.163411 303.108044 404.274555 300.425505 404.274555 297.628796 
C 404.274555 294.832088 403.163411 292.149548 401.18584 290.171977 
C 399.208268 288.194405 396.525729 287.083261 393.72902 287.083261 
C 390.932312 287.083261 388.249773 288.194405 386.272201 290.171977 
C 384.29463 292.149548 383.183486 294.832088 383.183486 297.628796 
C 383.183486 300.425505 384.29463 303.108044 386.272201 305.085615 
C 388.249773 307.063187 390.932312 308.174331 393.72902 308.174331 
z
" clip-path="url(#p38df2c6c46)" style="stroke: #000000; stroke-width: 2; stroke-linejoin: miter"/>
   </g>
   <g id="patch_17">
    <path d="M 440.08302 487.564309 
C 441.281609 487.564309 442.431269 487.088104 443.278799 486.240573 
C 444.12633 485.393043 444.602535 484.243383 444.602535 483.044794 
C 444.602535 481.846204 444.12633 480.696545 443.278799 479.849014 
C 442.431269 479.001483 441.281609 478.525279 440.08302 478.525279 
C 438.88443 478.525279 437.734771 479.001483 436.88724 479.849014 
C 436.039709 480.696545 435.563505 481.846204 435.563505 483.044794 
C 435.563505 484.243383 436.039709 485.393043 436.88724 486.240573 
C 437.734771 487.088104 438.88443 487.564309 440.08302 487.564309 
z
" clip-path="url(#p38df2c6c46)" style="stroke: #000000; stroke-width: 1.5; stroke-linejoin: miter"/>
   </g>
   <g id="patch_18">
    <path d="M 440.08302 400.88233 
C 442.879728 400.88233 445.562267 399.771186 447.539839 397.793614 
C 449.517411 395.816042 450.628555 393.133503 450.628555 390.336795 
C 450.628555 387.540086 449.517411 384.857547 447.539839 382.879976 
C 445.562267 380.902404 442.879728 379.79126 440.08302 379.79126 
C 437.286311 379.79126 434.603772 380.902404 432.626201 382.879976 
C 430.648629 384.857547 429.537485 387.540086 429.537485 390.336795 
C 429.537485 393.133503 430.648629 395.816042 432.626201 397.793614 
C 434.603772 399.771186 437.286311 400.88233 440.08302 400.88233 
z
" clip-path="url(#p38df2c6c46)" style="stroke: #000000; stroke-width: 2; stroke-linejoin: miter"/>
   </g>
   <g id="patch_19">
    <path d="M 440.08302 255.794312 
C 441.281609 255.794312 442.431269 255.318107 443.278799 254.470576 
C 444.12633 253.623046 444.602535 252.473386 444.602535 251.274797 
C 444.602535 250.076207 444.12633 248.926548 443.278799 248.079017 
C 442.431269 247.231486 441.281609 246.755282 440.08302 246.755282 
C 438.88443 246.755282 437.734771 247.231486 436.88724 248.079017 
C 436.039709 248.926548 435.563505 250.076207 435.563505 251.274797 
C 435.563505 252.473386 436.039709 253.623046 436.88724 254.470576 
C 437.734771 255.318107 438.88443 255.794312 440.08302 255.794312 
z
" clip-path="url(#p38df2c6c46)" style="stroke: #000000; stroke-width: 1.5; stroke-linejoin: miter"/>
   </g>
   <g id="patch_20">
    <path d="M 440.08302 308.174331 
C 442.879728 308.174331 445.562267 307.063187 447.539839 305.085615 
C 449.517411 303.108044 450.628555 300.425505 450.628555 297.628796 
C 450.628555 294.832088 449.517411 292.149548 447.539839 290.171977 
C 445.562267 288.194405 442.879728 287.083261 440.08302 287.083261 
C 437.286311 287.083261 434.603772 288.194405 432.626201 290.171977 
C 430.648629 292.149548 429.537485 294.832088 429.537485 297.628796 
C 429.537485 300.425505 430.648629 303.108044 432.626201 305.085615 
C 434.603772 307.063187 437.286311 308.174331 440.08302 308.174331 
z
" clip-path="url(#p38df2c6c46)" style="stroke: #000000; stroke-width: 2; stroke-linejoin: miter"/>
   </g>
   <g id="patch_21">
    <path d="M 486.437019 533.918308 
C 487.635609 533.918308 488.785268 533.442103 489.632799 532.594573 
C 490.480329 531.747042 490.956534 530.597382 490.956534 529.398793 
C 490.956534 528.200204 490.480329 527.050544 489.632799 526.203013 
C 488.785268 525.355483 487.635609 524.879278 486.437019 524.879278 
C 485.23843 524.879278 484.08877 525.355483 483.241239 526.203013 
C 482.393709 527.050544 481.917504 528.200204 481.917504 529.398793 
C 481.917504 530.597382 482.393709 531.747042 483.241239 532.594573 
C 484.08877 533.442103 485.23843 533.918308 486.437019 533.918308 
z
" clip-path="url(#p38df2c6c46)" style="stroke: #000000; stroke-width: 1.5; stroke-linejoin: miter"/>
   </g>
   <g id="patch_22">
    <path d="M 486.437019 400.88233 
C 489.233728 400.88233 491.916267 399.771186 493.893838 397.793614 
C 495.87141 395.816042 496.982554 393.133503 496.982554 390.336795 
C 496.982554 387.540086 495.87141 384.857547 493.893838 382.879976 
C 491.916267 380.902404 489.233728 379.79126 486.437019 379.79126 
C 483.640311 379.79126 480.957771 380.902404 478.9802 382.879976 
C 477.002628 384.857547 475.891484 387.540086 475.891484 390.336795 
C 475.891484 393.133503 477.002628 395.816042 478.9802 397.793614 
C 480.957771 399.771186 483.640311 400.88233 486.437019 400.88233 
z
" clip-path="url(#p38df2c6c46)" style="stroke: #000000; stroke-width: 2; stroke-linejoin: miter"/>
   </g>
   <g id="patch_23">
    <path d="M 486.437019 302.148311 
C 487.635609 302.148311 488.785268 301.672106 489.632799 300.824576 
C 490.480329 299.977045 490.956534 298.827385 490.956534 297.628796 
C 490.956534 296.430207 490.480329 295.280547 489.632799 294.433016 
C 488.785268 293.585486 487.635609 293.109281 486.437019 293.109281 
C 485.23843 293.109281 484.08877 293.585486 483.241239 294.433016 
C 482.393709 295.280547 481.917504 296.430207 481.917504 297.628796 
C 481.917504 298.827385 482.393709 299.977045 483.241239 300.824576 
C 484.08877 301.672106 485.23843 302.148311 486.437019 302.148311 
z
" clip-path="url(#p38df2c6c46)" style="stroke: #000000; stroke-width: 1.5; stroke-linejoin: miter"/>
   </g>
   <g id="patch_24">
    <path d="M 486.437019 354.52833 
C 489.233728 354.52833 491.916267 353.417186 493.893838 351.439615 
C 495.87141 349.462043 496.982554 346.779504 496.982554 343.982795 
C 496.982554 341.186087 495.87141 338.503548 493.893838 336.525976 
C 491.916267 334.548405 489.233728 333.437261 486.437019 333.437261 
C 483.640311 333.437261 480.957771 334.548405 478.9802 336.525976 
C 477.002628 338.503548 475.891484 341.186087 475.891484 343.982795 
C 475.891484 346.779504 477.002628 349.462043 478.9802 351.439615 
C 480.957771 353.417186 483.640311 354.52833 486.437019 354.52833 
z
" clip-path="url(#p38df2c6c46)" style="stroke: #000000; stroke-width: 2; stroke-linejoin: miter"/>
   </g>
   <g id="patch_25">
    <path d="M 517.725969 498.109843 
L 547.856068 498.109843 
L 547.856068 467.979744 
L 517.725969 467.979744 
z
" clip-path="url(#p38df2c6c46)" style="fill: #ffffff; stroke: #000000; stroke-width: 1.5; stroke-linejoin: miter"/>
   </g>
   <g id="patch_26">
    <path d="M 517.725969 359.047845 
L 547.856068 359.047845 
L 547.856068 328.917746 
L 517.725969 328.917746 
z
" clip-path="url(#p38df2c6c46)" style="fill: #ffffff; stroke: #000000; stroke-width: 1.5; stroke-linejoin: miter"/>
   </g>
   <g id="patch_27">
    <path d="M 579.145018 441.210309 
C 580.343607 441.210309 581.493267 440.734105 582.340798 439.886574 
C 583.188328 439.039043 583.664533 437.889384 583.664533 436.690794 
C 583.664533 435.492205 583.188328 434.342545 582.340798 433.495015 
C 581.493267 432.647484 580.343607 432.171279 579.145018 432.171279 
C 577.946429 432.171279 576.796769 432.647484 575.949238 433.495015 
C 575.101708 434.342545 574.625503 435.492205 574.625503 436.690794 
C 574.625503 437.889384 575.101708 439.039043 575.949238 439.886574 
C 576.796769 440.734105 577.946429 441.210309 579.145018 441.210309 
z
" clip-path="url(#p38df2c6c46)" style="stroke: #000000; stroke-width: 1.5; stroke-linejoin: miter"/>
   </g>
   <g id="patch_28">
    <path d="M 579.145018 354.52833 
C 581.941726 354.52833 584.624266 353.417186 586.601837 351.439615 
C 588.579409 349.462043 589.690553 346.779504 589.690553 343.982795 
C 589.690553 341.186087 588.579409 338.503548 586.601837 336.525976 
C 584.624266 334.548405 581.941726 333.437261 579.145018 333.437261 
C 576.348309 333.437261 573.66577 334.548405 571.688199 336.525976 
C 569.710627 338.503548 568.599483 341.186087 568.599483 343.982795 
C 568.599483 346.779504 569.710627 349.462043 571.688199 351.439615 
C 573.66577 353.417186 576.348309 354.52833 579.145018 354.52833 
z
" clip-path="url(#p38df2c6c46)" style="stroke: #000000; stroke-width: 2; stroke-linejoin: miter"/>
   </g>
   <g id="patch_29">
    <path d="M 625.499017 302.148311 
C 626.697607 302.148311 627.847266 301.672106 628.694797 300.824576 
C 629.542328 299.977045 630.018532 298.827385 630.018532 297.628796 
C 630.018532 296.430207 629.542328 295.280547 628.694797 294.433016 
C 627.847266 293.585486 626.697607 293.109281 625.499017 293.109281 
C 624.300428 293.109281 623.150768 293.585486 622.303238 294.433016 
C 621.455707 295.280547 620.979502 296.430207 620.979502 297.628796 
C 620.979502 298.827385 621.455707 299.977045 622.303238 300.824576 
C 623.150768 301.672106 624.300428 302.148311 625.499017 302.148311 
z
" clip-path="url(#p38df2c6c46)" style="stroke: #000000; stroke-width: 1.5; stroke-linejoin: miter"/>
   </g>
   <g id="patch_30">
    <path d="M 625.499017 354.52833 
C 628.295726 354.52833 630.978265 353.417186 632.955837 351.439615 
C 634.933408 349.462043 636.044552 346.779504 636.044552 343.982795 
C 636.044552 341.186087 634.933408 338.503548 632.955837 336.525976 
C 630.978265 334.548405 628.295726 333.437261 625.499017 333.437261 
C 622.702309 333.437261 620.01977 334.548405 618.042198 336.525976 
C 616.064627 338.503548 614.953482 341.186087 614.953482 343.982795 
C 614.953482 346.779504 616.064627 349.462043 618.042198 351.439615 
C 620.01977 353.417186 622.702309 354.52833 625.499017 354.52833 
z
" clip-path="url(#p38df2c6c46)" style="stroke: #000000; stroke-width: 2; stroke-linejoin: miter"/>
   </g>
   <g id="patch_31">
    <path d="M 671.853017 255.794312 
C 673.051606 255.794312 674.201266 255.318107 675.048796 254.470576 
C 675.896327 253.623046 676.372532 252.473386 676.372532 251.274797 
C 676.372532 250.076207 675.896327 248.926548 675.048796 248.079017 
C 674.201266 247.231486 673.051606 246.755282 671.853017 246.755282 
C 670.654427 246.755282 669.504768 247.231486 668.657237 248.079017 
C 667.809706 248.926548 667.333502 250.076207 667.333502 251.274797 
C 667.333502 252.473386 667.809706 253.623046 668.657237 254.470576 
C 669.504768 255.318107 670.654427 255.794312 671.853017 255.794312 
z
" clip-path="url(#p38df2c6c46)" style="stroke: #000000; stroke-width: 1.5; stroke-linejoin: miter"/>
   </g>
   <g id="patch_32">
    <path d="M 671.853017 308.174331 
C 674.649725 308.174331 677.332264 307.063187 679.309836 305.085615 
C 681.287407 303.108044 682.398552 300.425505 682.398552 297.628796 
C 682.398552 294.832088 681.287407 292.149548 679.309836 290.171977 
C 677.332264 288.194405 674.649725 287.083261 671.853017 287.083261 
C 669.056308 287.083261 666.373769 288.194405 664.396197 290.171977 
C 662.418626 292.149548 661.307482 294.832088 661.307482 297.628796 
C 661.307482 300.425505 662.418626 303.108044 664.396197 305.085615 
C 666.373769 307.063187 669.056308 308.174331 671.853017 308.174331 
z
" clip-path="url(#p38df2c6c46)" style="stroke: #000000; stroke-width: 2; stroke-linejoin: miter"/>
   </g>
   <g id="patch_33">
    <path d="M 671.853017 441.210309 
C 673.051606 441.210309 674.201266 440.734105 675.048796 439.886574 
C 675.896327 439.039043 676.372532 437.889384 676.372532 436.690794 
C 676.372532 435.492205 675.896327 434.342545 675.048796 433.495015 
C 674.201266 432.647484 673.051606 432.171279 671.853017 432.171279 
C 670.654427 432.171279 669.504768 432.647484 668.657237 433.495015 
C 667.809706 434.342545 667.333502 435.492205 667.333502 436.690794 
C 667.333502 437.889384 667.809706 439.039043 668.657237 439.886574 
C 669.504768 440.734105 670.654427 441.210309 671.853017 441.210309 
z
" clip-path="url(#p38df2c6c46)" style="stroke: #000000; stroke-width: 1.5; stroke-linejoin: miter"/>
   </g>
   <g id="patch_34">
    <path d="M 671.853017 354.52833 
C 674.649725 354.52833 677.332264 353.417186 679.309836 351.439615 
C 681.287407 349.462043 682.398552 346.779504 682.398552 343.982795 
C 682.398552 341.186087 681.287407 338.503548 679.309836 336.525976 
C 677.332264 334.548405 674.649725 333.437261 671.853017 333.437261 
C 669.056308 333.437261 666.373769 334.548405 664.396197 336.525976 
C 662.418626 338.503548 661.307482 341.186087 661.307482 343.982795 
C 661.307482 346.779504 662.418626 349.462043 664.396197 351.439615 
C 666.373769 353.417186 669.056308 354.52833 671.853017 354.52833 
z
" clip-path="url(#p38df2c6c46)" style="stroke: #000000; stroke-width: 2; stroke-linejoin: miter"/>
   </g>
   <g id="patch_35">
    <path d="M 718.207016 116.732313 
C 719.405605 116.732313 720.555265 116.256109 721.402796 115.408578 
C 722.250326 114.561047 722.726531 113.411388 722.726531 112.212799 
C 722.726531 111.014209 722.250326 109.86455 721.402796 109.017019 
C 720.555265 108.169488 719.405605 107.693284 718.207016 107.693284 
C 717.008427 107.693284 715.858767 108.169488 715.011236 109.017019 
C 714.163706 109.86455 713.687501 111.014209 713.687501 112.212799 
C 713.687501 113.411388 714.163706 114.561047 715.011236 115.408578 
C 715.858767 116.256109 717.008427 116.732313 718.207016 116.732313 
z
" clip-path="url(#p38df2c6c46)" style="stroke: #000000; stroke-width: 1.5; stroke-linejoin: miter"/>
   </g>
   <g id="patch_36">
    <path d="M 718.207016 308.174331 
C 721.003725 308.174331 723.686264 307.063187 725.663835 305.085615 
C 727.641407 303.108044 728.752551 300.425505 728.752551 297.628796 
C 728.752551 294.832088 727.641407 292.149548 725.663835 290.171977 
C 723.686264 288.194405 721.003725 287.083261 718.207016 287.083261 
C 715.410308 287.083261 712.727768 288.194405 710.750197 290.171977 
C 708.772625 292.149548 707.661481 294.832088 707.661481 297.628796 
C 707.661481 300.425505 708.772625 303.108044 710.750197 305.085615 
C 712.727768 307.063187 715.410308 308.174331 718.207016 308.174331 
z
" clip-path="url(#p38df2c6c46)" style="stroke: #000000; stroke-width: 2; stroke-linejoin: miter"/>
   </g>
   <g id="patch_37">
    <path d="M 764.561015 116.732313 
C 765.759605 116.732313 766.909264 116.256109 767.756795 115.408578 
C 768.604326 114.561047 769.08053 113.411388 769.08053 112.212799 
C 769.08053 111.014209 768.604326 109.86455 767.756795 109.017019 
C 766.909264 108.169488 765.759605 107.693284 764.561015 107.693284 
C 763.362426 107.693284 762.212766 108.169488 761.365236 109.017019 
C 760.517705 109.86455 760.041501 111.014209 760.041501 112.212799 
C 760.041501 113.411388 760.517705 114.561047 761.365236 115.408578 
C 762.212766 116.256109 763.362426 116.732313 764.561015 116.732313 
z
" clip-path="url(#p38df2c6c46)" style="stroke: #000000; stroke-width: 1.5; stroke-linejoin: miter"/>
   </g>
   <g id="patch_38">
    <path d="M 764.561015 308.174331 
C 767.357724 308.174331 770.040263 307.063187 772.017835 305.085615 
C 773.995406 303.108044 775.10655 300.425505 775.10655 297.628796 
C 775.10655 294.832088 773.995406 292.149548 772.017835 290.171977 
C 770.040263 288.194405 767.357724 287.083261 764.561015 287.083261 
C 761.764307 287.083261 759.081768 288.194405 757.104196 290.171977 
C 755.126625 292.149548 754.015481 294.832088 754.015481 297.628796 
C 754.015481 300.425505 755.126625 303.108044 757.104196 305.085615 
C 759.081768 307.063187 761.764307 308.174331 764.561015 308.174331 
z
" clip-path="url(#p38df2c6c46)" style="stroke: #000000; stroke-width: 2; stroke-linejoin: miter"/>
   </g>
   <g id="patch_39">
    <path d="M 810.915015 302.148311 
C 812.113604 302.148311 813.263264 301.672106 814.110794 300.824576 
C 814.958325 299.977045 815.43453 298.827385 815.43453 297.628796 
C 815.43453 296.430207 814.958325 295.280547 814.110794 294.433016 
C 813.263264 293.585486 812.113604 293.109281 810.915015 293.109281 
C 809.716425 293.109281 808.566766 293.585486 807.719235 294.433016 
C 806.871704 295.280547 806.3955 296.430207 806.3955 297.628796 
C 806.3955 298.827385 806.871704 299.977045 807.719235 300.824576 
C 808.566766 301.672106 809.716425 302.148311 810.915015 302.148311 
z
" clip-path="url(#p38df2c6c46)" style="stroke: #000000; stroke-width: 1.5; stroke-linejoin: miter"/>
   </g>
   <g id="patch_40">
    <path d="M 810.915015 354.52833 
C 813.711723 354.52833 816.394262 353.417186 818.371834 351.439615 
C 820.349406 349.462043 821.46055 346.779504 821.46055 343.982795 
C 821.46055 341.186087 820.349406 338.503548 818.371834 336.525976 
C 816.394262 334.548405 813.711723 333.437261 810.915015 333.437261 
C 808.118306 333.437261 805.435767 334.548405 803.458196 336.525976 
C 801.480624 338.503548 800.36948 341.186087 800.36948 343.982795 
C 800.36948 346.779504 801.480624 349.462043 803.458196 351.439615 
C 805.435767 353.417186 808.118306 354.52833 810.915015 354.52833 
z
" clip-path="url(#p38df2c6c46)" style="stroke: #000000; stroke-width: 2; stroke-linejoin: miter"/>
   </g>
   <g id="patch_41">
    <path d="M 842.203964 359.047845 
L 872.334064 359.047845 
L 872.334064 328.917746 
L 842.203964 328.917746 
z
" clip-path="url(#p38df2c6c46)" style="fill: #ffffff; stroke: #000000; stroke-width: 1.5; stroke-linejoin: miter"/>
   </g>
   <g id="patch_42">
    <path d="M 903.623014 441.210309 
C 904.821603 441.210309 905.971263 440.734105 906.818793 439.886574 
C 907.666324 439.039043 908.142529 437.889384 908.142529 436.690794 
C 908.142529 435.492205 907.666324 434.342545 906.818793 433.495015 
C 905.971263 432.647484 904.821603 432.171279 903.623014 432.171279 
C 902.424424 432.171279 901.274765 432.647484 900.427234 433.495015 
C 899.579703 434.342545 899.103499 435.492205 899.103499 436.690794 
C 899.103499 437.889384 899.579703 439.039043 900.427234 439.886574 
C 901.274765 440.734105 902.424424 441.210309 903.623014 441.210309 
z
" clip-path="url(#p38df2c6c46)" style="stroke: #000000; stroke-width: 1.5; stroke-linejoin: miter"/>
   </g>
   <g id="patch_43">
    <path d="M 903.623014 354.52833 
C 906.419722 354.52833 909.102261 353.417186 911.079833 351.439615 
C 913.057404 349.462043 914.168548 346.779504 914.168548 343.982795 
C 914.168548 341.186087 913.057404 338.503548 911.079833 336.525976 
C 909.102261 334.548405 906.419722 333.437261 903.623014 333.437261 
C 900.826305 333.437261 898.143766 334.548405 896.166194 336.525976 
C 894.188623 338.503548 893.077479 341.186087 893.077479 343.982795 
C 893.077479 346.779504 894.188623 349.462043 896.166194 351.439615 
C 898.143766 353.417186 900.826305 354.52833 903.623014 354.52833 
z
" clip-path="url(#p38df2c6c46)" style="stroke: #000000; stroke-width: 2; stroke-linejoin: miter"/>
   </g>
   <g id="patch_44">
    <path d="M 934.911963 451.755844 
L 965.042063 451.755844 
L 965.042063 421.625744 
L 934.911963 421.625744 
z
" clip-path="url(#p38df2c6c46)" style="fill: #ffffff; stroke: #000000; stroke-width: 1.5; stroke-linejoin: miter"/>
   </g>
   <g id="patch_45">
    <path d="M 949.977013 302.148311 
C 951.175602 302.148311 952.325262 301.672106 953.172793 300.824576 
C 954.020323 299.977045 954.496528 298.827385 954.496528 297.628796 
C 954.496528 296.430207 954.020323 295.280547 953.172793 294.433016 
C 952.325262 293.585486 951.175602 293.109281 949.977013 293.109281 
C 948.778424 293.109281 947.628764 293.585486 946.781233 294.433016 
C 945.933703 295.280547 945.457498 296.430207 945.457498 297.628796 
C 945.457498 298.827385 945.933703 299.977045 946.781233 300.824576 
C 947.628764 301.672106 948.778424 302.148311 949.977013 302.148311 
z
" clip-path="url(#p38df2c6c46)" style="stroke: #000000; stroke-width: 1.5; stroke-linejoin: miter"/>
   </g>
   <g id="patch_46">
    <path d="M 949.977013 354.52833 
C 952.773722 354.52833 955.456261 353.417186 957.433832 351.439615 
C 959.411404 349.462043 960.522548 346.779504 960.522548 343.982795 
C 960.522548 341.186087 959.411404 338.503548 957.433832 336.525976 
C 955.456261 334.548405 952.773722 333.437261 949.977013 333.437261 
C 947.180304 333.437261 944.497765 334.548405 942.520194 336.525976 
C 940.542622 338.503548 939.431478 341.186087 939.431478 343.982795 
C 939.431478 346.779504 940.542622 349.462043 942.520194 351.439615 
C 944.497765 353.417186 947.180304 354.52833 949.977013 354.52833 
z
" clip-path="url(#p38df2c6c46)" style="stroke: #000000; stroke-width: 2; stroke-linejoin: miter"/>
   </g>
   <g id="patch_47">
    <path d="M 996.331012 255.794312 
C 997.529602 255.794312 998.679261 255.318107 999.526792 254.470576 
C 1000.374323 253.623046 1000.850527 252.473386 1000.850527 251.274797 
C 1000.850527 250.076207 1000.374323 248.926548 999.526792 248.079017 
C 998.679261 247.231486 997.529602 246.755282 996.331012 246.755282 
C 995.132423 246.755282 993.982763 247.231486 993.135233 248.079017 
C 992.287702 248.926548 991.811497 250.076207 991.811497 251.274797 
C 991.811497 252.473386 992.287702 253.623046 993.135233 254.470576 
C 993.982763 255.318107 995.132423 255.794312 996.331012 255.794312 
z
" clip-path="url(#p38df2c6c46)" style="stroke: #000000; stroke-width: 1.5; stroke-linejoin: miter"/>
   </g>
   <g id="patch_48">
    <path d="M 996.331012 308.174331 
C 999.127721 308.174331 1001.81026 307.063187 1003.787832 305.085615 
C 1005.765403 303.108044 1006.876547 300.425505 1006.876547 297.628796 
C 1006.876547 294.832088 1005.765403 292.149548 1003.787832 290.171977 
C 1001.81026 288.194405 999.127721 287.083261 996.331012 287.083261 
C 993.534304 287.083261 990.851765 288.194405 988.874193 290.171977 
C 986.896622 292.149548 985.785478 294.832088 985.785478 297.628796 
C 985.785478 300.425505 986.896622 303.108044 988.874193 305.085615 
C 990.851765 307.063187 993.534304 308.174331 996.331012 308.174331 
z
" clip-path="url(#p38df2c6c46)" style="stroke: #000000; stroke-width: 2; stroke-linejoin: miter"/>
   </g>
   <g id="patch_49">
    <path d="M 981.265963 359.047845 
L 1011.396062 359.047845 
L 1011.396062 328.917746 
L 981.265963 328.917746 
z
" clip-path="url(#p38df2c6c46)" style="fill: #ffffff; stroke: #000000; stroke-width: 1.5; stroke-linejoin: miter"/>
   </g>
   <g id="patch_50">
    <path d="M 1042.685012 209.440312 
C 1043.883601 209.440312 1045.033261 208.964108 1045.880791 208.116577 
C 1046.728322 207.269046 1047.204527 206.119387 1047.204527 204.920797 
C 1047.204527 203.722208 1046.728322 202.572548 1045.880791 201.725018 
C 1045.033261 200.877487 1043.883601 200.401282 1042.685012 200.401282 
C 1041.486422 200.401282 1040.336763 200.877487 1039.489232 201.725018 
C 1038.641701 202.572548 1038.165497 203.722208 1038.165497 204.920797 
C 1038.165497 206.119387 1038.641701 207.269046 1039.489232 208.116577 
C 1040.336763 208.964108 1041.486422 209.440312 1042.685012 209.440312 
z
" clip-path="url(#p38df2c6c46)" style="stroke: #000000; stroke-width: 1.5; stroke-linejoin: miter"/>
   </g>
   <g id="patch_51">
    <path d="M 1042.685012 308.174331 
C 1045.48172 308.174331 1048.164259 307.063187 1050.141831 305.085615 
C 1052.119403 303.108044 1053.230547 300.425505 1053.230547 297.628796 
C 1053.230547 294.832088 1052.119403 292.149548 1050.141831 290.171977 
C 1048.164259 288.194405 1045.48172 287.083261 1042.685012 287.083261 
C 1039.888303 287.083261 1037.205764 288.194405 1035.228193 290.171977 
C 1033.250621 292.149548 1032.139477 294.832088 1032.139477 297.628796 
C 1032.139477 300.425505 1033.250621 303.108044 1035.228193 305.085615 
C 1037.205764 307.063187 1039.888303 308.174331 1042.685012 308.174331 
z
" clip-path="url(#p38df2c6c46)" style="stroke: #000000; stroke-width: 2; stroke-linejoin: miter"/>
   </g>
   <g id="patch_52">
    <path d="M 1073.973961 266.339846 
L 1104.104061 266.339846 
L 1104.104061 236.209747 
L 1073.973961 236.209747 
z
" clip-path="url(#p38df2c6c46)" style="fill: #ffffff; stroke: #000000; stroke-width: 1.5; stroke-linejoin: miter"/>
   </g>
   <g id="patch_53">
    <path d="M 1073.973961 219.985847 
L 1104.104061 219.985847 
L 1104.104061 189.855747 
L 1073.973961 189.855747 
z
" clip-path="url(#p38df2c6c46)" style="fill: #ffffff; stroke: #000000; stroke-width: 1.5; stroke-linejoin: miter"/>
   </g>
   <g id="patch_54">
    <path d="M 1135.393011 116.732313 
C 1136.5916 116.732313 1137.74126 116.256109 1138.58879 115.408578 
C 1139.436321 114.561047 1139.912525 113.411388 1139.912525 112.212799 
C 1139.912525 111.014209 1139.436321 109.86455 1138.58879 109.017019 
C 1137.74126 108.169488 1136.5916 107.693284 1135.393011 107.693284 
C 1134.194421 107.693284 1133.044762 108.169488 1132.197231 109.017019 
C 1131.3497 109.86455 1130.873496 111.014209 1130.873496 112.212799 
C 1130.873496 113.411388 1131.3497 114.561047 1132.197231 115.408578 
C 1133.044762 116.256109 1134.194421 116.732313 1135.393011 116.732313 
z
" clip-path="url(#p38df2c6c46)" style="stroke: #000000; stroke-width: 1.5; stroke-linejoin: miter"/>
   </g>
   <g id="patch_55">
    <path d="M 1135.393011 308.174331 
C 1138.189719 308.174331 1140.872258 307.063187 1142.84983 305.085615 
C 1144.827401 303.108044 1145.938545 300.425505 1145.938545 297.628796 
C 1145.938545 294.832088 1144.827401 292.149548 1142.84983 290.171977 
C 1140.872258 288.194405 1138.189719 287.083261 1135.393011 287.083261 
C 1132.596302 287.083261 1129.913763 288.194405 1127.936191 290.171977 
C 1125.95862 292.149548 1124.847476 294.832088 1124.847476 297.628796 
C 1124.847476 300.425505 1125.95862 303.108044 1127.936191 305.085615 
C 1129.913763 307.063187 1132.596302 308.174331 1135.393011 308.174331 
z
" clip-path="url(#p38df2c6c46)" style="stroke: #000000; stroke-width: 2; stroke-linejoin: miter"/>
   </g>
   <g id="patch_56">
    <path d="M 1166.68196 127.277848 
L 1196.81206 127.277848 
L 1196.81206 97.147749 
L 1166.68196 97.147749 
z
" clip-path="url(#p38df2c6c46)" style="fill: #ffffff; stroke: #000000; stroke-width: 1.5; stroke-linejoin: miter"/>
   </g>
   <g id="text_2">
    <g clip-path="url(#p38df2c6c46)">
     <!-- ${q}_{0}$ -->
     <g transform="translate(202.327563 116.663775)scale(0.1625 -0.1625)">
      <defs>
       <path id="DejaVuSans-Oblique-71" d="M 2669 525 
Q 2438 222 2123 65 
Q 1809 -91 1428 -91 
Q 897 -91 595 267 
Q 294 625 294 1253 
Q 294 1759 480 2231 
Q 666 2703 1013 3078 
Q 1238 3322 1530 3453 
Q 1822 3584 2144 3584 
Q 2531 3584 2781 3431 
Q 3031 3278 3144 2969 
L 3244 3494 
L 3822 3494 
L 2888 -1319 
L 2309 -1319 
L 2669 525 
z
M 891 1338 
Q 891 875 1084 633 
Q 1278 391 1644 391 
Q 2188 391 2572 911 
Q 2956 1431 2956 2175 
Q 2956 2625 2757 2864 
Q 2559 3103 2188 3103 
Q 1916 3103 1684 2976 
Q 1453 2850 1281 2606 
Q 1100 2350 995 2006 
Q 891 1663 891 1338 
z
" transform="scale(0.015625)"/>
       <path id="DejaVuSans-30" d="M 2034 4250 
Q 1547 4250 1301 3770 
Q 1056 3291 1056 2328 
Q 1056 1369 1301 889 
Q 1547 409 2034 409 
Q 2525 409 2770 889 
Q 3016 1369 3016 2328 
Q 3016 3291 2770 3770 
Q 2525 4250 2034 4250 
z
M 2034 4750 
Q 2819 4750 3233 4129 
Q 3647 3509 3647 2328 
Q 3647 1150 3233 529 
Q 2819 -91 2034 -91 
Q 1250 -91 836 529 
Q 422 1150 422 2328 
Q 422 3509 836 4129 
Q 1250 4750 2034 4750 
z
" transform="scale(0.015625)"/>
      </defs>
      <use xlink:href="#DejaVuSans-Oblique-71"/>
      <use xlink:href="#DejaVuSans-30" transform="translate(63.476562 -16.40625)scale(0.7)"/>
     </g>
    </g>
   </g>
   <g id="text_3">
    <g clip-path="url(#p38df2c6c46)">
     <!-- ${q}_{1}$ -->
     <g transform="translate(202.327563 163.017774)scale(0.1625 -0.1625)">
      <use xlink:href="#DejaVuSans-Oblique-71"/>
      <use xlink:href="#DejaVuSans-31" transform="translate(63.476562 -16.40625)scale(0.7)"/>
     </g>
    </g>
   </g>
   <g id="text_4">
    <g clip-path="url(#p38df2c6c46)">
     <!-- ${q}_{2}$ -->
     <g transform="translate(202.327563 209.371774)scale(0.1625 -0.1625)">
      <use xlink:href="#DejaVuSans-Oblique-71"/>
      <use xlink:href="#DejaVuSans-32" transform="translate(63.476562 -16.40625)scale(0.7)"/>
     </g>
    </g>
   </g>
   <g id="text_5">
    <g clip-path="url(#p38df2c6c46)">
     <!-- ${q}_{3}$ -->
     <g transform="translate(202.327563 255.725773)scale(0.1625 -0.1625)">
      <defs>
       <path id="DejaVuSans-33" d="M 2597 2516 
Q 3050 2419 3304 2112 
Q 3559 1806 3559 1356 
Q 3559 666 3084 287 
Q 2609 -91 1734 -91 
Q 1441 -91 1130 -33 
Q 819 25 488 141 
L 488 750 
Q 750 597 1062 519 
Q 1375 441 1716 441 
Q 2309 441 2620 675 
Q 2931 909 2931 1356 
Q 2931 1769 2642 2001 
Q 2353 2234 1838 2234 
L 1294 2234 
L 1294 2753 
L 1863 2753 
Q 2328 2753 2575 2939 
Q 2822 3125 2822 3475 
Q 2822 3834 2567 4026 
Q 2313 4219 1838 4219 
Q 1578 4219 1281 4162 
Q 984 4106 628 3988 
L 628 4550 
Q 988 4650 1302 4700 
Q 1616 4750 1894 4750 
Q 2613 4750 3031 4423 
Q 3450 4097 3450 3541 
Q 3450 3153 3228 2886 
Q 3006 2619 2597 2516 
z
" transform="scale(0.015625)"/>
      </defs>
      <use xlink:href="#DejaVuSans-Oblique-71"/>
      <use xlink:href="#DejaVuSans-33" transform="translate(63.476562 -16.40625)scale(0.7)"/>
     </g>
    </g>
   </g>
   <g id="text_6">
    <g clip-path="url(#p38df2c6c46)">
     <!-- ${q}_{4}$ -->
     <g transform="translate(202.327563 302.079773)scale(0.1625 -0.1625)">
      <defs>
       <path id="DejaVuSans-34" d="M 2419 4116 
L 825 1625 
L 2419 1625 
L 2419 4116 
z
M 2253 4666 
L 3047 4666 
L 3047 1625 
L 3713 1625 
L 3713 1100 
L 3047 1100 
L 3047 0 
L 2419 0 
L 2419 1100 
L 313 1100 
L 313 1709 
L 2253 4666 
z
" transform="scale(0.015625)"/>
      </defs>
      <use xlink:href="#DejaVuSans-Oblique-71"/>
      <use xlink:href="#DejaVuSans-34" transform="translate(63.476562 -16.40625)scale(0.7)"/>
     </g>
    </g>
   </g>
   <g id="text_7">
    <g clip-path="url(#p38df2c6c46)">
     <!-- ${q}_{5}$ -->
     <g transform="translate(202.327563 348.433772)scale(0.1625 -0.1625)">
      <defs>
       <path id="DejaVuSans-35" d="M 691 4666 
L 3169 4666 
L 3169 4134 
L 1269 4134 
L 1269 2991 
Q 1406 3038 1543 3061 
Q 1681 3084 1819 3084 
Q 2600 3084 3056 2656 
Q 3513 2228 3513 1497 
Q 3513 744 3044 326 
Q 2575 -91 1722 -91 
Q 1428 -91 1123 -41 
Q 819 9 494 109 
L 494 744 
Q 775 591 1075 516 
Q 1375 441 1709 441 
Q 2250 441 2565 725 
Q 2881 1009 2881 1497 
Q 2881 1984 2565 2268 
Q 2250 2553 1709 2553 
Q 1456 2553 1204 2497 
Q 953 2441 691 2322 
L 691 4666 
z
" transform="scale(0.015625)"/>
      </defs>
      <use xlink:href="#DejaVuSans-Oblique-71"/>
      <use xlink:href="#DejaVuSans-35" transform="translate(63.476562 -16.40625)scale(0.7)"/>
     </g>
    </g>
   </g>
   <g id="text_8">
    <g clip-path="url(#p38df2c6c46)">
     <!-- ${q}_{6}$ -->
     <g transform="translate(202.327563 394.787771)scale(0.1625 -0.1625)">
      <defs>
       <path id="DejaVuSans-36" d="M 2113 2584 
Q 1688 2584 1439 2293 
Q 1191 2003 1191 1497 
Q 1191 994 1439 701 
Q 1688 409 2113 409 
Q 2538 409 2786 701 
Q 3034 994 3034 1497 
Q 3034 2003 2786 2293 
Q 2538 2584 2113 2584 
z
M 3366 4563 
L 3366 3988 
Q 3128 4100 2886 4159 
Q 2644 4219 2406 4219 
Q 1781 4219 1451 3797 
Q 1122 3375 1075 2522 
Q 1259 2794 1537 2939 
Q 1816 3084 2150 3084 
Q 2853 3084 3261 2657 
Q 3669 2231 3669 1497 
Q 3669 778 3244 343 
Q 2819 -91 2113 -91 
Q 1303 -91 875 529 
Q 447 1150 447 2328 
Q 447 3434 972 4092 
Q 1497 4750 2381 4750 
Q 2619 4750 2861 4703 
Q 3103 4656 3366 4563 
z
" transform="scale(0.015625)"/>
      </defs>
      <use xlink:href="#DejaVuSans-Oblique-71"/>
      <use xlink:href="#DejaVuSans-36" transform="translate(63.476562 -16.40625)scale(0.7)"/>
     </g>
    </g>
   </g>
   <g id="text_9">
    <g clip-path="url(#p38df2c6c46)">
     <!-- ${q}_{7}$ -->
     <g transform="translate(202.327563 441.141771)scale(0.1625 -0.1625)">
      <defs>
       <path id="DejaVuSans-37" d="M 525 4666 
L 3525 4666 
L 3525 4397 
L 1831 0 
L 1172 0 
L 2766 4134 
L 525 4134 
L 525 4666 
z
" transform="scale(0.015625)"/>
      </defs>
      <use xlink:href="#DejaVuSans-Oblique-71"/>
      <use xlink:href="#DejaVuSans-37" transform="translate(63.476562 -16.40625)scale(0.7)"/>
     </g>
    </g>
   </g>
   <g id="text_10">
    <g clip-path="url(#p38df2c6c46)">
     <!-- ${q}_{8}$ -->
     <g transform="translate(202.327563 487.49577)scale(0.1625 -0.1625)">
      <defs>
       <path id="DejaVuSans-38" d="M 2034 2216 
Q 1584 2216 1326 1975 
Q 1069 1734 1069 1313 
Q 1069 891 1326 650 
Q 1584 409 2034 409 
Q 2484 409 2743 651 
Q 3003 894 3003 1313 
Q 3003 1734 2745 1975 
Q 2488 2216 2034 2216 
z
M 1403 2484 
Q 997 2584 770 2862 
Q 544 3141 544 3541 
Q 544 4100 942 4425 
Q 1341 4750 2034 4750 
Q 2731 4750 3128 4425 
Q 3525 4100 3525 3541 
Q 3525 3141 3298 2862 
Q 3072 2584 2669 2484 
Q 3125 2378 3379 2068 
Q 3634 1759 3634 1313 
Q 3634 634 3220 271 
Q 2806 -91 2034 -91 
Q 1263 -91 848 271 
Q 434 634 434 1313 
Q 434 1759 690 2068 
Q 947 2378 1403 2484 
z
M 1172 3481 
Q 1172 3119 1398 2916 
Q 1625 2713 2034 2713 
Q 2441 2713 2670 2916 
Q 2900 3119 2900 3481 
Q 2900 3844 2670 4047 
Q 2441 4250 2034 4250 
Q 1625 4250 1398 4047 
Q 1172 3844 1172 3481 
z
" transform="scale(0.015625)"/>
      </defs>
      <use xlink:href="#DejaVuSans-Oblique-71"/>
      <use xlink:href="#DejaVuSans-38" transform="translate(63.476562 -16.40625)scale(0.7)"/>
     </g>
    </g>
   </g>
   <g id="text_11">
    <g clip-path="url(#p38df2c6c46)">
     <!-- ${q}_{9}$ -->
     <g transform="translate(202.327563 533.84977)scale(0.1625 -0.1625)">
      <use xlink:href="#DejaVuSans-Oblique-71"/>
      <use xlink:href="#DejaVuSans-39" transform="translate(63.476562 -16.40625)scale(0.7)"/>
     </g>
    </g>
   </g>
   <g id="text_12">
    <g clip-path="url(#p38df2c6c46)">
     <!-- H -->
     <g transform="translate(249.778819 347.569983)scale(0.13 -0.13)">
      <use xlink:href="#DejaVuSans-48"/>
     </g>
    </g>
   </g>
   <g id="text_13">
    <g clip-path="url(#p38df2c6c46)">
     <!-- H -->
     <g transform="translate(249.778819 440.277982)scale(0.13 -0.13)">
      <use xlink:href="#DejaVuSans-48"/>
     </g>
    </g>
   </g>
   <g id="text_14">
    <g clip-path="url(#p38df2c6c46)">
     <!-- H -->
     <g transform="translate(249.778819 486.631981)scale(0.13 -0.13)">
      <use xlink:href="#DejaVuSans-48"/>
     </g>
    </g>
   </g>
   <g id="line2d_32">
    <path d="M 301.021022 396.362815 
L 301.021022 384.310775 
" clip-path="url(#p38df2c6c46)" style="fill: none; stroke: #ffffff; stroke-width: 2; stroke-linecap: square"/>
   </g>
   <g id="line2d_33">
    <path d="M 294.995002 390.336795 
L 307.047042 390.336795 
" clip-path="url(#p38df2c6c46)" style="fill: none; stroke: #ffffff; stroke-width: 2; stroke-linecap: square"/>
   </g>
   <g id="text_15">
    <g clip-path="url(#p38df2c6c46)">
     <!-- H -->
     <g transform="translate(296.132818 208.507985)scale(0.13 -0.13)">
      <use xlink:href="#DejaVuSans-48"/>
     </g>
    </g>
   </g>
   <g id="text_16">
    <g clip-path="url(#p38df2c6c46)">
     <!-- H -->
     <g transform="translate(296.132818 115.799986)scale(0.13 -0.13)">
      <use xlink:href="#DejaVuSans-48"/>
     </g>
    </g>
   </g>
   <g id="line2d_34">
    <path d="M 347.375021 396.362815 
L 347.375021 384.310775 
" clip-path="url(#p38df2c6c46)" style="fill: none; stroke: #ffffff; stroke-width: 2; stroke-linecap: square"/>
   </g>
   <g id="line2d_35">
    <path d="M 341.349001 390.336795 
L 353.401041 390.336795 
" clip-path="url(#p38df2c6c46)" style="fill: none; stroke: #ffffff; stroke-width: 2; stroke-linecap: square"/>
   </g>
   <g id="line2d_36">
    <path d="M 347.375021 303.654816 
L 347.375021 291.602776 
" clip-path="url(#p38df2c6c46)" style="fill: none; stroke: #ffffff; stroke-width: 2; stroke-linecap: square"/>
   </g>
   <g id="line2d_37">
    <path d="M 341.349001 297.628796 
L 353.401041 297.628796 
" clip-path="url(#p38df2c6c46)" style="fill: none; stroke: #ffffff; stroke-width: 2; stroke-linecap: square"/>
   </g>
   <g id="line2d_38">
    <path d="M 393.72902 350.008815 
L 393.72902 337.956776 
" clip-path="url(#p38df2c6c46)" style="fill: none; stroke: #ffffff; stroke-width: 2; stroke-linecap: square"/>
   </g>
   <g id="line2d_39">
    <path d="M 387.703 343.982795 
L 399.75504 343.982795 
" clip-path="url(#p38df2c6c46)" style="fill: none; stroke: #ffffff; stroke-width: 2; stroke-linecap: square"/>
   </g>
   <g id="line2d_40">
    <path d="M 393.72902 303.654816 
L 393.72902 291.602776 
" clip-path="url(#p38df2c6c46)" style="fill: none; stroke: #ffffff; stroke-width: 2; stroke-linecap: square"/>
   </g>
   <g id="line2d_41">
    <path d="M 387.703 297.628796 
L 399.75504 297.628796 
" clip-path="url(#p38df2c6c46)" style="fill: none; stroke: #ffffff; stroke-width: 2; stroke-linecap: square"/>
   </g>
   <g id="line2d_42">
    <path d="M 440.08302 396.362815 
L 440.08302 384.310775 
" clip-path="url(#p38df2c6c46)" style="fill: none; stroke: #ffffff; stroke-width: 2; stroke-linecap: square"/>
   </g>
   <g id="line2d_43">
    <path d="M 434.057 390.336795 
L 446.10904 390.336795 
" clip-path="url(#p38df2c6c46)" style="fill: none; stroke: #ffffff; stroke-width: 2; stroke-linecap: square"/>
   </g>
   <g id="line2d_44">
    <path d="M 440.08302 303.654816 
L 440.08302 291.602776 
" clip-path="url(#p38df2c6c46)" style="fill: none; stroke: #ffffff; stroke-width: 2; stroke-linecap: square"/>
   </g>
   <g id="line2d_45">
    <path d="M 434.057 297.628796 
L 446.10904 297.628796 
" clip-path="url(#p38df2c6c46)" style="fill: none; stroke: #ffffff; stroke-width: 2; stroke-linecap: square"/>
   </g>
   <g id="line2d_46">
    <path d="M 486.437019 396.362815 
L 486.437019 384.310775 
" clip-path="url(#p38df2c6c46)" style="fill: none; stroke: #ffffff; stroke-width: 2; stroke-linecap: square"/>
   </g>
   <g id="line2d_47">
    <path d="M 480.410999 390.336795 
L 492.463039 390.336795 
" clip-path="url(#p38df2c6c46)" style="fill: none; stroke: #ffffff; stroke-width: 2; stroke-linecap: square"/>
   </g>
   <g id="line2d_48">
    <path d="M 486.437019 350.008815 
L 486.437019 337.956776 
" clip-path="url(#p38df2c6c46)" style="fill: none; stroke: #ffffff; stroke-width: 2; stroke-linecap: square"/>
   </g>
   <g id="line2d_49">
    <path d="M 480.410999 343.982795 
L 492.463039 343.982795 
" clip-path="url(#p38df2c6c46)" style="fill: none; stroke: #ffffff; stroke-width: 2; stroke-linecap: square"/>
   </g>
   <g id="text_17">
    <g clip-path="url(#p38df2c6c46)">
     <!-- H -->
     <g transform="translate(527.902815 486.631981)scale(0.13 -0.13)">
      <use xlink:href="#DejaVuSans-48"/>
     </g>
    </g>
   </g>
   <g id="text_18">
    <g clip-path="url(#p38df2c6c46)">
     <!-- 1 -->
     <g transform="translate(530.246019 355.229325)scale(0.08 -0.08)">
      <use xlink:href="#DejaVuSans-31"/>
     </g>
    </g>
   </g>
   <g id="text_19">
    <g clip-path="url(#p38df2c6c46)">
     <!-- $\mathrm{R_Z}$ -->
     <g transform="translate(524.861019 343.050468)scale(0.13 -0.13)">
      <defs>
       <path id="DejaVuSans-5a" d="M 359 4666 
L 4025 4666 
L 4025 4184 
L 1075 531 
L 4097 531 
L 4097 0 
L 288 0 
L 288 481 
L 3238 4134 
L 359 4134 
L 359 4666 
z
" transform="scale(0.015625)"/>
      </defs>
      <use xlink:href="#DejaVuSans-52" transform="translate(0 0.09375)"/>
      <use xlink:href="#DejaVuSans-5a" transform="translate(70.439453 -16.3125)scale(0.7)"/>
     </g>
    </g>
   </g>
   <g id="line2d_50">
    <path d="M 579.145018 350.008815 
L 579.145018 337.956776 
" clip-path="url(#p38df2c6c46)" style="fill: none; stroke: #ffffff; stroke-width: 2; stroke-linecap: square"/>
   </g>
   <g id="line2d_51">
    <path d="M 573.118998 343.982795 
L 585.171038 343.982795 
" clip-path="url(#p38df2c6c46)" style="fill: none; stroke: #ffffff; stroke-width: 2; stroke-linecap: square"/>
   </g>
   <g id="line2d_52">
    <path d="M 625.499017 350.008815 
L 625.499017 337.956776 
" clip-path="url(#p38df2c6c46)" style="fill: none; stroke: #ffffff; stroke-width: 2; stroke-linecap: square"/>
   </g>
   <g id="line2d_53">
    <path d="M 619.472997 343.982795 
L 631.525037 343.982795 
" clip-path="url(#p38df2c6c46)" style="fill: none; stroke: #ffffff; stroke-width: 2; stroke-linecap: square"/>
   </g>
   <g id="line2d_54">
    <path d="M 671.853017 303.654816 
L 671.853017 291.602776 
" clip-path="url(#p38df2c6c46)" style="fill: none; stroke: #ffffff; stroke-width: 2; stroke-linecap: square"/>
   </g>
   <g id="line2d_55">
    <path d="M 665.826997 297.628796 
L 677.879037 297.628796 
" clip-path="url(#p38df2c6c46)" style="fill: none; stroke: #ffffff; stroke-width: 2; stroke-linecap: square"/>
   </g>
   <g id="line2d_56">
    <path d="M 671.853017 350.008815 
L 671.853017 337.956776 
" clip-path="url(#p38df2c6c46)" style="fill: none; stroke: #ffffff; stroke-width: 2; stroke-linecap: square"/>
   </g>
   <g id="line2d_57">
    <path d="M 665.826997 343.982795 
L 677.879037 343.982795 
" clip-path="url(#p38df2c6c46)" style="fill: none; stroke: #ffffff; stroke-width: 2; stroke-linecap: square"/>
   </g>
   <g id="line2d_58">
    <path d="M 718.207016 303.654816 
L 718.207016 291.602776 
" clip-path="url(#p38df2c6c46)" style="fill: none; stroke: #ffffff; stroke-width: 2; stroke-linecap: square"/>
   </g>
   <g id="line2d_59">
    <path d="M 712.180996 297.628796 
L 724.233036 297.628796 
" clip-path="url(#p38df2c6c46)" style="fill: none; stroke: #ffffff; stroke-width: 2; stroke-linecap: square"/>
   </g>
   <g id="line2d_60">
    <path d="M 764.561015 303.654816 
L 764.561015 291.602776 
" clip-path="url(#p38df2c6c46)" style="fill: none; stroke: #ffffff; stroke-width: 2; stroke-linecap: square"/>
   </g>
   <g id="line2d_61">
    <path d="M 758.534996 297.628796 
L 770.587035 297.628796 
" clip-path="url(#p38df2c6c46)" style="fill: none; stroke: #ffffff; stroke-width: 2; stroke-linecap: square"/>
   </g>
   <g id="line2d_62">
    <path d="M 810.915015 350.008815 
L 810.915015 337.956776 
" clip-path="url(#p38df2c6c46)" style="fill: none; stroke: #ffffff; stroke-width: 2; stroke-linecap: square"/>
   </g>
   <g id="line2d_63">
    <path d="M 804.888995 343.982795 
L 816.941035 343.982795 
" clip-path="url(#p38df2c6c46)" style="fill: none; stroke: #ffffff; stroke-width: 2; stroke-linecap: square"/>
   </g>
   <g id="text_20">
    <g clip-path="url(#p38df2c6c46)">
     <!-- 1 -->
     <g transform="translate(854.724014 355.229325)scale(0.08 -0.08)">
      <use xlink:href="#DejaVuSans-31"/>
     </g>
    </g>
   </g>
   <g id="text_21">
    <g clip-path="url(#p38df2c6c46)">
     <!-- $\mathrm{R_Z}$ -->
     <g transform="translate(849.339014 343.050468)scale(0.13 -0.13)">
      <use xlink:href="#DejaVuSans-52" transform="translate(0 0.09375)"/>
      <use xlink:href="#DejaVuSans-5a" transform="translate(70.439453 -16.3125)scale(0.7)"/>
     </g>
    </g>
   </g>
   <g id="line2d_64">
    <path d="M 903.623014 350.008815 
L 903.623014 337.956776 
" clip-path="url(#p38df2c6c46)" style="fill: none; stroke: #ffffff; stroke-width: 2; stroke-linecap: square"/>
   </g>
   <g id="line2d_65">
    <path d="M 897.596994 343.982795 
L 909.649034 343.982795 
" clip-path="url(#p38df2c6c46)" style="fill: none; stroke: #ffffff; stroke-width: 2; stroke-linecap: square"/>
   </g>
   <g id="text_22">
    <g clip-path="url(#p38df2c6c46)">
     <!-- H -->
     <g transform="translate(945.08881 440.277982)scale(0.13 -0.13)">
      <use xlink:href="#DejaVuSans-48"/>
     </g>
    </g>
   </g>
   <g id="line2d_66">
    <path d="M 949.977013 350.008815 
L 949.977013 337.956776 
" clip-path="url(#p38df2c6c46)" style="fill: none; stroke: #ffffff; stroke-width: 2; stroke-linecap: square"/>
   </g>
   <g id="line2d_67">
    <path d="M 943.950993 343.982795 
L 956.003033 343.982795 
" clip-path="url(#p38df2c6c46)" style="fill: none; stroke: #ffffff; stroke-width: 2; stroke-linecap: square"/>
   </g>
   <g id="line2d_68">
    <path d="M 996.331012 303.654816 
L 996.331012 291.602776 
" clip-path="url(#p38df2c6c46)" style="fill: none; stroke: #ffffff; stroke-width: 2; stroke-linecap: square"/>
   </g>
   <g id="line2d_69">
    <path d="M 990.304992 297.628796 
L 1002.357032 297.628796 
" clip-path="url(#p38df2c6c46)" style="fill: none; stroke: #ffffff; stroke-width: 2; stroke-linecap: square"/>
   </g>
   <g id="text_23">
    <g clip-path="url(#p38df2c6c46)">
     <!-- H -->
     <g transform="translate(991.442809 347.569983)scale(0.13 -0.13)">
      <use xlink:href="#DejaVuSans-48"/>
     </g>
    </g>
   </g>
   <g id="line2d_70">
    <path d="M 1042.685012 303.654816 
L 1042.685012 291.602776 
" clip-path="url(#p38df2c6c46)" style="fill: none; stroke: #ffffff; stroke-width: 2; stroke-linecap: square"/>
   </g>
   <g id="line2d_71">
    <path d="M 1036.658992 297.628796 
L 1048.711032 297.628796 
" clip-path="url(#p38df2c6c46)" style="fill: none; stroke: #ffffff; stroke-width: 2; stroke-linecap: square"/>
   </g>
   <g id="text_24">
    <g clip-path="url(#p38df2c6c46)">
     <!-- H -->
     <g transform="translate(1084.150808 254.861984)scale(0.13 -0.13)">
      <use xlink:href="#DejaVuSans-48"/>
     </g>
    </g>
   </g>
   <g id="text_25">
    <g clip-path="url(#p38df2c6c46)">
     <!-- H -->
     <g transform="translate(1084.150808 208.507985)scale(0.13 -0.13)">
      <use xlink:href="#DejaVuSans-48"/>
     </g>
    </g>
   </g>
   <g id="line2d_72">
    <path d="M 1135.393011 303.654816 
L 1135.393011 291.602776 
" clip-path="url(#p38df2c6c46)" style="fill: none; stroke: #ffffff; stroke-width: 2; stroke-linecap: square"/>
   </g>
   <g id="line2d_73">
    <path d="M 1129.366991 297.628796 
L 1141.41903 297.628796 
" clip-path="url(#p38df2c6c46)" style="fill: none; stroke: #ffffff; stroke-width: 2; stroke-linecap: square"/>
   </g>
   <g id="text_26">
    <g clip-path="url(#p38df2c6c46)">
     <!-- H -->
     <g transform="translate(1176.858807 115.799986)scale(0.13 -0.13)">
      <use xlink:href="#DejaVuSans-48"/>
     </g>
    </g>
   </g>
  </g>
 </g>
 <defs>
  <clipPath id="p38df2c6c46">
   <rect x="172.226666" y="75.129599" width="1040.113983" height="482.081594"/>
  </clipPath>
 </defs>
</svg>
