<?xml version="1.0" encoding="utf-8" standalone="no"?>
<!DOCTYPE svg PUBLIC "-//W3C//DTD SVG 1.1//EN"
  "http://www.w3.org/Graphics/SVG/1.1/DTD/svg11.dtd">
<svg xmlns:xlink="http://www.w3.org/1999/xlink" width="1290.597382pt" height="626.079992pt" viewBox="0 0 1290.597382 626.079992" xmlns="http://www.w3.org/2000/svg" version="1.1">
 <metadata>
  <rdf:RDF xmlns:dc="http://purl.org/dc/elements/1.1/" xmlns:cc="http://creativecommons.org/ns#" xmlns:rdf="http://www.w3.org/1999/02/22-rdf-syntax-ns#">
   <cc:Work>
    <dc:type rdf:resource="http://purl.org/dc/dcmitype/StillImage"/>
    <dc:date>2022-06-05T09:59:52.769188</dc:date>
    <dc:format>image/svg+xml</dc:format>
    <dc:creator>
     <cc:Agent>
      <dc:title>Matplotlib v3.5.1, https://matplotlib.org/</dc:title>
     </cc:Agent>
    </dc:creator>
   </cc:Work>
  </rdf:RDF>
 </metadata>
 <defs>
  <style type="text/css">*{stroke-linejoin: round; stroke-linecap: butt}</style>
 </defs>
 <g id="figure_1">
  <g id="patch_1">
   <path d="M 0 626.079992 
L 1290.597382 626.079992 
L 1290.597382 0 
L 0 0 
z
" style="fill: #ffffff"/>
  </g>
  <g id="axes_1">
   <g id="line2d_1">
    <path d="M 108.906894 72.141538 
L 1246.103031 72.141538 
" clip-path="url(#pcfd22e1eba)" style="fill: none; stroke: #000000; stroke-width: 2; stroke-linecap: square"/>
   </g>
   <g id="line2d_2">
    <path d="M 108.906894 128.71846 
L 1246.103031 128.71846 
" clip-path="url(#pcfd22e1eba)" style="fill: none; stroke: #000000; stroke-width: 2; stroke-linecap: square"/>
   </g>
   <g id="line2d_3">
    <path d="M 108.906894 185.295382 
L 1246.103031 185.295382 
" clip-path="url(#pcfd22e1eba)" style="fill: none; stroke: #000000; stroke-width: 2; stroke-linecap: square"/>
   </g>
   <g id="line2d_4">
    <path d="M 108.906894 241.872305 
L 1246.103031 241.872305 
" clip-path="url(#pcfd22e1eba)" style="fill: none; stroke: #000000; stroke-width: 2; stroke-linecap: square"/>
   </g>
   <g id="line2d_5">
    <path d="M 108.906894 298.449227 
L 1246.103031 298.449227 
" clip-path="url(#pcfd22e1eba)" style="fill: none; stroke: #000000; stroke-width: 2; stroke-linecap: square"/>
   </g>
   <g id="line2d_6">
    <path d="M 108.906894 355.026149 
L 1246.103031 355.026149 
" clip-path="url(#pcfd22e1eba)" style="fill: none; stroke: #000000; stroke-width: 2; stroke-linecap: square"/>
   </g>
   <g id="line2d_7">
    <path d="M 108.906894 411.603071 
L 1246.103031 411.603071 
" clip-path="url(#pcfd22e1eba)" style="fill: none; stroke: #000000; stroke-width: 2; stroke-linecap: square"/>
   </g>
   <g id="line2d_8">
    <path d="M 108.906894 468.179994 
L 1246.103031 468.179994 
" clip-path="url(#pcfd22e1eba)" style="fill: none; stroke: #000000; stroke-width: 2; stroke-linecap: square"/>
   </g>
   <g id="line2d_9">
    <path d="M 108.906894 524.756916 
L 1246.103031 524.756916 
" clip-path="url(#pcfd22e1eba)" style="fill: none; stroke: #000000; stroke-width: 2; stroke-linecap: square"/>
   </g>
   <g id="line2d_10">
    <path d="M 108.906894 581.333838 
L 1246.103031 581.333838 
" clip-path="url(#pcfd22e1eba)" style="fill: none; stroke: #000000; stroke-width: 2; stroke-linecap: square"/>
   </g>
   <g id="line2d_11">
    <path d="M 196.035354 581.333838 
L 196.035354 468.179994 
" clip-path="url(#pcfd22e1eba)" style="fill: none; stroke: #000000; stroke-width: 2; stroke-linecap: square"/>
   </g>
   <g id="line2d_12">
    <path d="M 196.035354 298.449227 
L 196.035354 72.141538 
" clip-path="url(#pcfd22e1eba)" style="fill: none; stroke: #000000; stroke-width: 2; stroke-linecap: square"/>
   </g>
   <g id="line2d_13">
    <path d="M 252.612276 524.756916 
L 252.612276 468.179994 
" clip-path="url(#pcfd22e1eba)" style="fill: none; stroke: #000000; stroke-width: 2; stroke-linecap: square"/>
   </g>
   <g id="line2d_14">
    <path d="M 252.612276 298.449227 
L 252.612276 185.295382 
" clip-path="url(#pcfd22e1eba)" style="fill: none; stroke: #000000; stroke-width: 2; stroke-linecap: square"/>
   </g>
   <g id="line2d_15">
    <path d="M 309.189198 468.179994 
L 309.189198 355.026149 
" clip-path="url(#pcfd22e1eba)" style="fill: none; stroke: #000000; stroke-width: 2; stroke-linecap: square"/>
   </g>
   <g id="line2d_16">
    <path d="M 309.189198 298.449227 
L 309.189198 241.872305 
" clip-path="url(#pcfd22e1eba)" style="fill: none; stroke: #000000; stroke-width: 2; stroke-linecap: square"/>
   </g>
   <g id="line2d_17">
    <path d="M 365.766121 355.026149 
L 365.766121 298.449227 
" clip-path="url(#pcfd22e1eba)" style="fill: none; stroke: #000000; stroke-width: 2; stroke-linecap: square"/>
   </g>
   <g id="line2d_18">
    <path d="M 478.919965 468.179994 
L 478.919965 355.026149 
" clip-path="url(#pcfd22e1eba)" style="fill: none; stroke: #000000; stroke-width: 2; stroke-linecap: square"/>
   </g>
   <g id="line2d_19">
    <path d="M 535.496888 355.026149 
L 535.496888 298.449227 
" clip-path="url(#pcfd22e1eba)" style="fill: none; stroke: #000000; stroke-width: 2; stroke-linecap: square"/>
   </g>
   <g id="line2d_20">
    <path d="M 592.07381 298.449227 
L 592.07381 241.872305 
" clip-path="url(#pcfd22e1eba)" style="fill: none; stroke: #000000; stroke-width: 2; stroke-linecap: square"/>
   </g>
   <g id="line2d_21">
    <path d="M 592.07381 468.179994 
L 592.07381 355.026149 
" clip-path="url(#pcfd22e1eba)" style="fill: none; stroke: #000000; stroke-width: 2; stroke-linecap: square"/>
   </g>
   <g id="line2d_22">
    <path d="M 705.227654 298.449227 
L 705.227654 241.872305 
" clip-path="url(#pcfd22e1eba)" style="fill: none; stroke: #000000; stroke-width: 2; stroke-linecap: square"/>
   </g>
   <g id="line2d_23">
    <path d="M 761.804577 355.026149 
L 761.804577 298.449227 
" clip-path="url(#pcfd22e1eba)" style="fill: none; stroke: #000000; stroke-width: 2; stroke-linecap: square"/>
   </g>
   <g id="line2d_24">
    <path d="M 874.958421 468.179994 
L 874.958421 355.026149 
" clip-path="url(#pcfd22e1eba)" style="fill: none; stroke: #000000; stroke-width: 2; stroke-linecap: square"/>
   </g>
   <g id="line2d_25">
    <path d="M 931.535344 524.756916 
L 931.535344 468.179994 
" clip-path="url(#pcfd22e1eba)" style="fill: none; stroke: #000000; stroke-width: 2; stroke-linecap: square"/>
   </g>
   <g id="line2d_26">
    <path d="M 931.535344 355.026149 
L 931.535344 298.449227 
" clip-path="url(#pcfd22e1eba)" style="fill: none; stroke: #000000; stroke-width: 2; stroke-linecap: square"/>
   </g>
   <g id="line2d_27">
    <path d="M 988.112266 581.333838 
L 988.112266 468.179994 
" clip-path="url(#pcfd22e1eba)" style="fill: none; stroke: #000000; stroke-width: 2; stroke-linecap: square"/>
   </g>
   <g id="line2d_28">
    <path d="M 988.112266 298.449227 
L 988.112266 241.872305 
" clip-path="url(#pcfd22e1eba)" style="fill: none; stroke: #000000; stroke-width: 2; stroke-linecap: square"/>
   </g>
   <g id="line2d_29">
    <path d="M 1044.689188 298.449227 
L 1044.689188 185.295382 
" clip-path="url(#pcfd22e1eba)" style="fill: none; stroke: #000000; stroke-width: 2; stroke-linecap: square"/>
   </g>
   <g id="line2d_30">
    <path d="M 1157.843033 298.449227 
L 1157.843033 72.141538 
" clip-path="url(#pcfd22e1eba)" style="fill: none; stroke: #000000; stroke-width: 2; stroke-linecap: square"/>
   </g>
   <g id="text_1">
    <!-- TERMS: 2, DEPTH:19 -->
    <g transform="translate(583.266191 20.88)scale(0.12 -0.12)">
     <defs>
      <path id="DejaVuSans-54" d="M -19 4666 
L 3928 4666 
L 3928 4134 
L 2272 4134 
L 2272 0 
L 1638 0 
L 1638 4134 
L -19 4134 
L -19 4666 
z
" transform="scale(0.015625)"/>
      <path id="DejaVuSans-45" d="M 628 4666 
L 3578 4666 
L 3578 4134 
L 1259 4134 
L 1259 2753 
L 3481 2753 
L 3481 2222 
L 1259 2222 
L 1259 531 
L 3634 531 
L 3634 0 
L 628 0 
L 628 4666 
z
" transform="scale(0.015625)"/>
      <path id="DejaVuSans-52" d="M 2841 2188 
Q 3044 2119 3236 1894 
Q 3428 1669 3622 1275 
L 4263 0 
L 3584 0 
L 2988 1197 
Q 2756 1666 2539 1819 
Q 2322 1972 1947 1972 
L 1259 1972 
L 1259 0 
L 628 0 
L 628 4666 
L 2053 4666 
Q 2853 4666 3247 4331 
Q 3641 3997 3641 3322 
Q 3641 2881 3436 2590 
Q 3231 2300 2841 2188 
z
M 1259 4147 
L 1259 2491 
L 2053 2491 
Q 2509 2491 2742 2702 
Q 2975 2913 2975 3322 
Q 2975 3731 2742 3939 
Q 2509 4147 2053 4147 
L 1259 4147 
z
" transform="scale(0.015625)"/>
      <path id="DejaVuSans-4d" d="M 628 4666 
L 1569 4666 
L 2759 1491 
L 3956 4666 
L 4897 4666 
L 4897 0 
L 4281 0 
L 4281 4097 
L 3078 897 
L 2444 897 
L 1241 4097 
L 1241 0 
L 628 0 
L 628 4666 
z
" transform="scale(0.015625)"/>
      <path id="DejaVuSans-53" d="M 3425 4513 
L 3425 3897 
Q 3066 4069 2747 4153 
Q 2428 4238 2131 4238 
Q 1616 4238 1336 4038 
Q 1056 3838 1056 3469 
Q 1056 3159 1242 3001 
Q 1428 2844 1947 2747 
L 2328 2669 
Q 3034 2534 3370 2195 
Q 3706 1856 3706 1288 
Q 3706 609 3251 259 
Q 2797 -91 1919 -91 
Q 1588 -91 1214 -16 
Q 841 59 441 206 
L 441 856 
Q 825 641 1194 531 
Q 1563 422 1919 422 
Q 2459 422 2753 634 
Q 3047 847 3047 1241 
Q 3047 1584 2836 1778 
Q 2625 1972 2144 2069 
L 1759 2144 
Q 1053 2284 737 2584 
Q 422 2884 422 3419 
Q 422 4038 858 4394 
Q 1294 4750 2059 4750 
Q 2388 4750 2728 4690 
Q 3069 4631 3425 4513 
z
" transform="scale(0.015625)"/>
      <path id="DejaVuSans-3a" d="M 750 794 
L 1409 794 
L 1409 0 
L 750 0 
L 750 794 
z
M 750 3309 
L 1409 3309 
L 1409 2516 
L 750 2516 
L 750 3309 
z
" transform="scale(0.015625)"/>
      <path id="DejaVuSans-20" transform="scale(0.015625)"/>
      <path id="DejaVuSans-32" d="M 1228 531 
L 3431 531 
L 3431 0 
L 469 0 
L 469 531 
Q 828 903 1448 1529 
Q 2069 2156 2228 2338 
Q 2531 2678 2651 2914 
Q 2772 3150 2772 3378 
Q 2772 3750 2511 3984 
Q 2250 4219 1831 4219 
Q 1534 4219 1204 4116 
Q 875 4013 500 3803 
L 500 4441 
Q 881 4594 1212 4672 
Q 1544 4750 1819 4750 
Q 2544 4750 2975 4387 
Q 3406 4025 3406 3419 
Q 3406 3131 3298 2873 
Q 3191 2616 2906 2266 
Q 2828 2175 2409 1742 
Q 1991 1309 1228 531 
z
" transform="scale(0.015625)"/>
      <path id="DejaVuSans-2c" d="M 750 794 
L 1409 794 
L 1409 256 
L 897 -744 
L 494 -744 
L 750 256 
L 750 794 
z
" transform="scale(0.015625)"/>
      <path id="DejaVuSans-44" d="M 1259 4147 
L 1259 519 
L 2022 519 
Q 2988 519 3436 956 
Q 3884 1394 3884 2338 
Q 3884 3275 3436 3711 
Q 2988 4147 2022 4147 
L 1259 4147 
z
M 628 4666 
L 1925 4666 
Q 3281 4666 3915 4102 
Q 4550 3538 4550 2338 
Q 4550 1131 3912 565 
Q 3275 0 1925 0 
L 628 0 
L 628 4666 
z
" transform="scale(0.015625)"/>
      <path id="DejaVuSans-50" d="M 1259 4147 
L 1259 2394 
L 2053 2394 
Q 2494 2394 2734 2622 
Q 2975 2850 2975 3272 
Q 2975 3691 2734 3919 
Q 2494 4147 2053 4147 
L 1259 4147 
z
M 628 4666 
L 2053 4666 
Q 2838 4666 3239 4311 
Q 3641 3956 3641 3272 
Q 3641 2581 3239 2228 
Q 2838 1875 2053 1875 
L 1259 1875 
L 1259 0 
L 628 0 
L 628 4666 
z
" transform="scale(0.015625)"/>
      <path id="DejaVuSans-48" d="M 628 4666 
L 1259 4666 
L 1259 2753 
L 3553 2753 
L 3553 4666 
L 4184 4666 
L 4184 0 
L 3553 0 
L 3553 2222 
L 1259 2222 
L 1259 0 
L 628 0 
L 628 4666 
z
" transform="scale(0.015625)"/>
      <path id="DejaVuSans-31" d="M 794 531 
L 1825 531 
L 1825 4091 
L 703 3866 
L 703 4441 
L 1819 4666 
L 2450 4666 
L 2450 531 
L 3481 531 
L 3481 0 
L 794 0 
L 794 531 
z
" transform="scale(0.015625)"/>
      <path id="DejaVuSans-39" d="M 703 97 
L 703 672 
Q 941 559 1184 500 
Q 1428 441 1663 441 
Q 2288 441 2617 861 
Q 2947 1281 2994 2138 
Q 2813 1869 2534 1725 
Q 2256 1581 1919 1581 
Q 1219 1581 811 2004 
Q 403 2428 403 3163 
Q 403 3881 828 4315 
Q 1253 4750 1959 4750 
Q 2769 4750 3195 4129 
Q 3622 3509 3622 2328 
Q 3622 1225 3098 567 
Q 2575 -91 1691 -91 
Q 1453 -91 1209 -44 
Q 966 3 703 97 
z
M 1959 2075 
Q 2384 2075 2632 2365 
Q 2881 2656 2881 3163 
Q 2881 3666 2632 3958 
Q 2384 4250 1959 4250 
Q 1534 4250 1286 3958 
Q 1038 3666 1038 3163 
Q 1038 2656 1286 2365 
Q 1534 2075 1959 2075 
z
" transform="scale(0.015625)"/>
     </defs>
     <use xlink:href="#DejaVuSans-54"/>
     <use xlink:href="#DejaVuSans-45" x="61.083984"/>
     <use xlink:href="#DejaVuSans-52" x="124.267578"/>
     <use xlink:href="#DejaVuSans-4d" x="193.75"/>
     <use xlink:href="#DejaVuSans-53" x="280.029297"/>
     <use xlink:href="#DejaVuSans-3a" x="343.505859"/>
     <use xlink:href="#DejaVuSans-20" x="377.197266"/>
     <use xlink:href="#DejaVuSans-32" x="408.984375"/>
     <use xlink:href="#DejaVuSans-2c" x="472.607422"/>
     <use xlink:href="#DejaVuSans-20" x="504.394531"/>
     <use xlink:href="#DejaVuSans-44" x="536.181641"/>
     <use xlink:href="#DejaVuSans-45" x="613.183594"/>
     <use xlink:href="#DejaVuSans-50" x="676.367188"/>
     <use xlink:href="#DejaVuSans-54" x="736.669922"/>
     <use xlink:href="#DejaVuSans-48" x="797.753906"/>
     <use xlink:href="#DejaVuSans-3a" x="872.949219"/>
     <use xlink:href="#DejaVuSans-31" x="906.640625"/>
     <use xlink:href="#DejaVuSans-39" x="970.263672"/>
    </g>
   </g>
   <g id="patch_2">
    <path d="M 121.070932 373.413649 
L 157.845931 373.413649 
L 157.845931 336.638649 
L 121.070932 336.638649 
z
" clip-path="url(#pcfd22e1eba)" style="fill: #ffffff; stroke: #000000; stroke-width: 1.5; stroke-linejoin: miter"/>
   </g>
   <g id="patch_3">
    <path d="M 121.070932 486.567493 
L 157.845931 486.567493 
L 157.845931 449.792494 
L 121.070932 449.792494 
z
" clip-path="url(#pcfd22e1eba)" style="fill: #ffffff; stroke: #000000; stroke-width: 1.5; stroke-linejoin: miter"/>
   </g>
   <g id="patch_4">
    <path d="M 121.070932 543.144416 
L 157.845931 543.144416 
L 157.845931 506.369416 
L 121.070932 506.369416 
z
" clip-path="url(#pcfd22e1eba)" style="fill: #ffffff; stroke: #000000; stroke-width: 1.5; stroke-linejoin: miter"/>
   </g>
   <g id="patch_5">
    <path d="M 121.070932 203.682882 
L 157.845931 203.682882 
L 157.845931 166.907883 
L 121.070932 166.907883 
z
" clip-path="url(#pcfd22e1eba)" style="fill: #ffffff; stroke: #000000; stroke-width: 1.5; stroke-linejoin: miter"/>
   </g>
   <g id="patch_6">
    <path d="M 121.070932 90.529038 
L 157.845931 90.529038 
L 157.845931 53.754038 
L 121.070932 53.754038 
z
" clip-path="url(#pcfd22e1eba)" style="fill: #ffffff; stroke: #000000; stroke-width: 1.5; stroke-linejoin: miter"/>
   </g>
   <g id="patch_7">
    <path d="M 196.035354 586.850088 
C 197.49828 586.850088 198.901486 586.268861 199.935932 585.234416 
C 200.970377 584.199971 201.551604 582.796765 201.551604 581.333838 
C 201.551604 579.870912 200.970377 578.467706 199.935932 577.433261 
C 198.901486 576.398815 197.49828 575.817588 196.035354 575.817588 
C 194.572427 575.817588 193.169221 576.398815 192.134776 577.433261 
C 191.100331 578.467706 190.519104 579.870912 190.519104 581.333838 
C 190.519104 582.796765 191.100331 584.199971 192.134776 585.234416 
C 193.169221 586.268861 194.572427 586.850088 196.035354 586.850088 
z
" clip-path="url(#pcfd22e1eba)" style="stroke: #000000; stroke-width: 1.5; stroke-linejoin: miter"/>
   </g>
   <g id="patch_8">
    <path d="M 196.035354 481.051244 
C 199.448849 481.051244 202.722996 479.695048 205.136702 477.281342 
C 207.550408 474.867636 208.906604 471.593489 208.906604 468.179994 
C 208.906604 464.766498 207.550408 461.492351 205.136702 459.078646 
C 202.722996 456.66494 199.448849 455.308744 196.035354 455.308744 
C 192.621859 455.308744 189.347712 456.66494 186.934006 459.078646 
C 184.5203 461.492351 183.164104 464.766498 183.164104 468.179994 
C 183.164104 471.593489 184.5203 474.867636 186.934006 477.281342 
C 189.347712 479.695048 192.621859 481.051244 196.035354 481.051244 
z
" clip-path="url(#pcfd22e1eba)" style="stroke: #000000; stroke-width: 2; stroke-linejoin: miter"/>
   </g>
   <g id="patch_9">
    <path d="M 196.035354 77.657788 
C 197.49828 77.657788 198.901486 77.076561 199.935932 76.042116 
C 200.970377 75.00767 201.551604 73.604464 201.551604 72.141538 
C 201.551604 70.678611 200.970377 69.275405 199.935932 68.24096 
C 198.901486 67.206515 197.49828 66.625288 196.035354 66.625288 
C 194.572427 66.625288 193.169221 67.206515 192.134776 68.24096 
C 191.100331 69.275405 190.519104 70.678611 190.519104 72.141538 
C 190.519104 73.604464 191.100331 75.00767 192.134776 76.042116 
C 193.169221 77.076561 194.572427 77.657788 196.035354 77.657788 
z
" clip-path="url(#pcfd22e1eba)" style="stroke: #000000; stroke-width: 1.5; stroke-linejoin: miter"/>
   </g>
   <g id="patch_10">
    <path d="M 196.035354 311.320477 
C 199.448849 311.320477 202.722996 309.964281 205.136702 307.550575 
C 207.550408 305.136869 208.906604 301.862722 208.906604 298.449227 
C 208.906604 295.035732 207.550408 291.761585 205.136702 289.347879 
C 202.722996 286.934173 199.448849 285.577977 196.035354 285.577977 
C 192.621859 285.577977 189.347712 286.934173 186.934006 289.347879 
C 184.5203 291.761585 183.164104 295.035732 183.164104 298.449227 
C 183.164104 301.862722 184.5203 305.136869 186.934006 307.550575 
C 189.347712 309.964281 192.621859 311.320477 196.035354 311.320477 
z
" clip-path="url(#pcfd22e1eba)" style="stroke: #000000; stroke-width: 2; stroke-linejoin: miter"/>
   </g>
   <g id="patch_11">
    <path d="M 252.612276 530.273166 
C 254.075203 530.273166 255.478409 529.691939 256.512854 528.657494 
C 257.547299 527.623048 258.128526 526.219843 258.128526 524.756916 
C 258.128526 523.293989 257.547299 521.890784 256.512854 520.856338 
C 255.478409 519.821893 254.075203 519.240666 252.612276 519.240666 
C 251.14935 519.240666 249.746144 519.821893 248.711698 520.856338 
C 247.677253 521.890784 247.096026 523.293989 247.096026 524.756916 
C 247.096026 526.219843 247.677253 527.623048 248.711698 528.657494 
C 249.746144 529.691939 251.14935 530.273166 252.612276 530.273166 
z
" clip-path="url(#pcfd22e1eba)" style="stroke: #000000; stroke-width: 1.5; stroke-linejoin: miter"/>
   </g>
   <g id="patch_12">
    <path d="M 252.612276 481.051244 
C 256.025772 481.051244 259.299919 479.695048 261.713624 477.281342 
C 264.12733 474.867636 265.483526 471.593489 265.483526 468.179994 
C 265.483526 464.766498 264.12733 461.492351 261.713624 459.078646 
C 259.299919 456.66494 256.025772 455.308744 252.612276 455.308744 
C 249.198781 455.308744 245.924634 456.66494 243.510928 459.078646 
C 241.097222 461.492351 239.741026 464.766498 239.741026 468.179994 
C 239.741026 471.593489 241.097222 474.867636 243.510928 477.281342 
C 245.924634 479.695048 249.198781 481.051244 252.612276 481.051244 
z
" clip-path="url(#pcfd22e1eba)" style="stroke: #000000; stroke-width: 2; stroke-linejoin: miter"/>
   </g>
   <g id="patch_13">
    <path d="M 252.612276 190.811632 
C 254.075203 190.811632 255.478409 190.230405 256.512854 189.19596 
C 257.547299 188.161515 258.128526 186.758309 258.128526 185.295382 
C 258.128526 183.832456 257.547299 182.42925 256.512854 181.394805 
C 255.478409 180.360359 254.075203 179.779132 252.612276 179.779132 
C 251.14935 179.779132 249.746144 180.360359 248.711698 181.394805 
C 247.677253 182.42925 247.096026 183.832456 247.096026 185.295382 
C 247.096026 186.758309 247.677253 188.161515 248.711698 189.19596 
C 249.746144 190.230405 251.14935 190.811632 252.612276 190.811632 
z
" clip-path="url(#pcfd22e1eba)" style="stroke: #000000; stroke-width: 1.5; stroke-linejoin: miter"/>
   </g>
   <g id="patch_14">
    <path d="M 252.612276 311.320477 
C 256.025772 311.320477 259.299919 309.964281 261.713624 307.550575 
C 264.12733 305.136869 265.483526 301.862722 265.483526 298.449227 
C 265.483526 295.035732 264.12733 291.761585 261.713624 289.347879 
C 259.299919 286.934173 256.025772 285.577977 252.612276 285.577977 
C 249.198781 285.577977 245.924634 286.934173 243.510928 289.347879 
C 241.097222 291.761585 239.741026 295.035732 239.741026 298.449227 
C 239.741026 301.862722 241.097222 305.136869 243.510928 307.550575 
C 245.924634 309.964281 249.198781 311.320477 252.612276 311.320477 
z
" clip-path="url(#pcfd22e1eba)" style="stroke: #000000; stroke-width: 2; stroke-linejoin: miter"/>
   </g>
   <g id="patch_15">
    <path d="M 309.189198 473.696244 
C 310.652125 473.696244 312.055331 473.115017 313.089776 472.080571 
C 314.124221 471.046126 314.705448 469.64292 314.705448 468.179994 
C 314.705448 466.717067 314.124221 465.313861 313.089776 464.279416 
C 312.055331 463.244971 310.652125 462.663744 309.189198 462.663744 
C 307.726272 462.663744 306.323066 463.244971 305.288621 464.279416 
C 304.254175 465.313861 303.672949 466.717067 303.672949 468.179994 
C 303.672949 469.64292 304.254175 471.046126 305.288621 472.080571 
C 306.323066 473.115017 307.726272 473.696244 309.189198 473.696244 
z
" clip-path="url(#pcfd22e1eba)" style="stroke: #000000; stroke-width: 1.5; stroke-linejoin: miter"/>
   </g>
   <g id="patch_16">
    <path d="M 309.189198 367.897399 
C 312.602694 367.897399 315.876841 366.541203 318.290546 364.127497 
C 320.704252 361.713792 322.060448 358.439645 322.060448 355.026149 
C 322.060448 351.612654 320.704252 348.338507 318.290546 345.924801 
C 315.876841 343.511095 312.602694 342.154899 309.189198 342.154899 
C 305.775703 342.154899 302.501556 343.511095 300.08785 345.924801 
C 297.674145 348.338507 296.317949 351.612654 296.317949 355.026149 
C 296.317949 358.439645 297.674145 361.713792 300.08785 364.127497 
C 302.501556 366.541203 305.775703 367.897399 309.189198 367.897399 
z
" clip-path="url(#pcfd22e1eba)" style="stroke: #000000; stroke-width: 2; stroke-linejoin: miter"/>
   </g>
   <g id="patch_17">
    <path d="M 309.189198 247.388555 
C 310.652125 247.388555 312.055331 246.807328 313.089776 245.772882 
C 314.124221 244.738437 314.705448 243.335231 314.705448 241.872305 
C 314.705448 240.409378 314.124221 239.006172 313.089776 237.971727 
C 312.055331 236.937282 310.652125 236.356055 309.189198 236.356055 
C 307.726272 236.356055 306.323066 236.937282 305.288621 237.971727 
C 304.254175 239.006172 303.672949 240.409378 303.672949 241.872305 
C 303.672949 243.335231 304.254175 244.738437 305.288621 245.772882 
C 306.323066 246.807328 307.726272 247.388555 309.189198 247.388555 
z
" clip-path="url(#pcfd22e1eba)" style="stroke: #000000; stroke-width: 1.5; stroke-linejoin: miter"/>
   </g>
   <g id="patch_18">
    <path d="M 309.189198 311.320477 
C 312.602694 311.320477 315.876841 309.964281 318.290546 307.550575 
C 320.704252 305.136869 322.060448 301.862722 322.060448 298.449227 
C 322.060448 295.035732 320.704252 291.761585 318.290546 289.347879 
C 315.876841 286.934173 312.602694 285.577977 309.189198 285.577977 
C 305.775703 285.577977 302.501556 286.934173 300.08785 289.347879 
C 297.674145 291.761585 296.317949 295.035732 296.317949 298.449227 
C 296.317949 301.862722 297.674145 305.136869 300.08785 307.550575 
C 302.501556 309.964281 305.775703 311.320477 309.189198 311.320477 
z
" clip-path="url(#pcfd22e1eba)" style="stroke: #000000; stroke-width: 2; stroke-linejoin: miter"/>
   </g>
   <g id="patch_19">
    <path d="M 365.766121 303.965477 
C 367.229047 303.965477 368.632253 303.38425 369.666698 302.349805 
C 370.701144 301.315359 371.282371 299.912154 371.282371 298.449227 
C 371.282371 296.9863 370.701144 295.583095 369.666698 294.548649 
C 368.632253 293.514204 367.229047 292.932977 365.766121 292.932977 
C 364.303194 292.932977 362.899988 293.514204 361.865543 294.548649 
C 360.831098 295.583095 360.249871 296.9863 360.249871 298.449227 
C 360.249871 299.912154 360.831098 301.315359 361.865543 302.349805 
C 362.899988 303.38425 364.303194 303.965477 365.766121 303.965477 
z
" clip-path="url(#pcfd22e1eba)" style="stroke: #000000; stroke-width: 1.5; stroke-linejoin: miter"/>
   </g>
   <g id="patch_20">
    <path d="M 365.766121 367.897399 
C 369.179616 367.897399 372.453763 366.541203 374.867469 364.127497 
C 377.281174 361.713792 378.637371 358.439645 378.637371 355.026149 
C 378.637371 351.612654 377.281174 348.338507 374.867469 345.924801 
C 372.453763 343.511095 369.179616 342.154899 365.766121 342.154899 
C 362.352625 342.154899 359.078478 343.511095 356.664773 345.924801 
C 354.251067 348.338507 352.894871 351.612654 352.894871 355.026149 
C 352.894871 358.439645 354.251067 361.713792 356.664773 364.127497 
C 359.078478 366.541203 362.352625 367.897399 365.766121 367.897399 
z
" clip-path="url(#pcfd22e1eba)" style="stroke: #000000; stroke-width: 2; stroke-linejoin: miter"/>
   </g>
   <g id="patch_21">
    <path d="M 403.955543 373.413649 
L 440.730543 373.413649 
L 440.730543 336.638649 
L 403.955543 336.638649 
z
" clip-path="url(#pcfd22e1eba)" style="fill: #ffffff; stroke: #000000; stroke-width: 1.5; stroke-linejoin: miter"/>
   </g>
   <g id="patch_22">
    <path d="M 478.919965 473.696244 
C 480.382892 473.696244 481.786098 473.115017 482.820543 472.080571 
C 483.854988 471.046126 484.436215 469.64292 484.436215 468.179994 
C 484.436215 466.717067 483.854988 465.313861 482.820543 464.279416 
C 481.786098 463.244971 480.382892 462.663744 478.919965 462.663744 
C 477.457039 462.663744 476.053833 463.244971 475.019388 464.279416 
C 473.984942 465.313861 473.403715 466.717067 473.403715 468.179994 
C 473.403715 469.64292 473.984942 471.046126 475.019388 472.080571 
C 476.053833 473.115017 477.457039 473.696244 478.919965 473.696244 
z
" clip-path="url(#pcfd22e1eba)" style="stroke: #000000; stroke-width: 1.5; stroke-linejoin: miter"/>
   </g>
   <g id="patch_23">
    <path d="M 478.919965 367.897399 
C 482.333461 367.897399 485.607608 366.541203 488.021313 364.127497 
C 490.435019 361.713792 491.791215 358.439645 491.791215 355.026149 
C 491.791215 351.612654 490.435019 348.338507 488.021313 345.924801 
C 485.607608 343.511095 482.333461 342.154899 478.919965 342.154899 
C 475.50647 342.154899 472.232323 343.511095 469.818617 345.924801 
C 467.404912 348.338507 466.048715 351.612654 466.048715 355.026149 
C 466.048715 358.439645 467.404912 361.713792 469.818617 364.127497 
C 472.232323 366.541203 475.50647 367.897399 478.919965 367.897399 
z
" clip-path="url(#pcfd22e1eba)" style="stroke: #000000; stroke-width: 2; stroke-linejoin: miter"/>
   </g>
   <g id="patch_24">
    <path d="M 535.496888 303.965477 
C 536.959814 303.965477 538.36302 303.38425 539.397465 302.349805 
C 540.431911 301.315359 541.013137 299.912154 541.013137 298.449227 
C 541.013137 296.9863 540.431911 295.583095 539.397465 294.548649 
C 538.36302 293.514204 536.959814 292.932977 535.496888 292.932977 
C 534.033961 292.932977 532.630755 293.514204 531.59631 294.548649 
C 530.561865 295.583095 529.980638 296.9863 529.980638 298.449227 
C 529.980638 299.912154 530.561865 301.315359 531.59631 302.349805 
C 532.630755 303.38425 534.033961 303.965477 535.496888 303.965477 
z
" clip-path="url(#pcfd22e1eba)" style="stroke: #000000; stroke-width: 1.5; stroke-linejoin: miter"/>
   </g>
   <g id="patch_25">
    <path d="M 535.496888 367.897399 
C 538.910383 367.897399 542.18453 366.541203 544.598236 364.127497 
C 547.011941 361.713792 548.368137 358.439645 548.368137 355.026149 
C 548.368137 351.612654 547.011941 348.338507 544.598236 345.924801 
C 542.18453 343.511095 538.910383 342.154899 535.496888 342.154899 
C 532.083392 342.154899 528.809245 343.511095 526.39554 345.924801 
C 523.981834 348.338507 522.625638 351.612654 522.625638 355.026149 
C 522.625638 358.439645 523.981834 361.713792 526.39554 364.127497 
C 528.809245 366.541203 532.083392 367.897399 535.496888 367.897399 
z
" clip-path="url(#pcfd22e1eba)" style="stroke: #000000; stroke-width: 2; stroke-linejoin: miter"/>
   </g>
   <g id="patch_26">
    <path d="M 592.07381 247.388555 
C 593.536736 247.388555 594.939942 246.807328 595.974388 245.772882 
C 597.008833 244.738437 597.59006 243.335231 597.59006 241.872305 
C 597.59006 240.409378 597.008833 239.006172 595.974388 237.971727 
C 594.939942 236.937282 593.536736 236.356055 592.07381 236.356055 
C 590.610883 236.356055 589.207677 236.937282 588.173232 237.971727 
C 587.138787 239.006172 586.55756 240.409378 586.55756 241.872305 
C 586.55756 243.335231 587.138787 244.738437 588.173232 245.772882 
C 589.207677 246.807328 590.610883 247.388555 592.07381 247.388555 
z
" clip-path="url(#pcfd22e1eba)" style="stroke: #000000; stroke-width: 1.5; stroke-linejoin: miter"/>
   </g>
   <g id="patch_27">
    <path d="M 592.07381 311.320477 
C 595.487305 311.320477 598.761452 309.964281 601.175158 307.550575 
C 603.588864 305.136869 604.94506 301.862722 604.94506 298.449227 
C 604.94506 295.035732 603.588864 291.761585 601.175158 289.347879 
C 598.761452 286.934173 595.487305 285.577977 592.07381 285.577977 
C 588.660314 285.577977 585.386168 286.934173 582.972462 289.347879 
C 580.558756 291.761585 579.20256 295.035732 579.20256 298.449227 
C 579.20256 301.862722 580.558756 305.136869 582.972462 307.550575 
C 585.386168 309.964281 588.660314 311.320477 592.07381 311.320477 
z
" clip-path="url(#pcfd22e1eba)" style="stroke: #000000; stroke-width: 2; stroke-linejoin: miter"/>
   </g>
   <g id="patch_28">
    <path d="M 592.07381 473.696244 
C 593.536736 473.696244 594.939942 473.115017 595.974388 472.080571 
C 597.008833 471.046126 597.59006 469.64292 597.59006 468.179994 
C 597.59006 466.717067 597.008833 465.313861 595.974388 464.279416 
C 594.939942 463.244971 593.536736 462.663744 592.07381 462.663744 
C 590.610883 462.663744 589.207677 463.244971 588.173232 464.279416 
C 587.138787 465.313861 586.55756 466.717067 586.55756 468.179994 
C 586.55756 469.64292 587.138787 471.046126 588.173232 472.080571 
C 589.207677 473.115017 590.610883 473.696244 592.07381 473.696244 
z
" clip-path="url(#pcfd22e1eba)" style="stroke: #000000; stroke-width: 1.5; stroke-linejoin: miter"/>
   </g>
   <g id="patch_29">
    <path d="M 592.07381 367.897399 
C 595.487305 367.897399 598.761452 366.541203 601.175158 364.127497 
C 603.588864 361.713792 604.94506 358.439645 604.94506 355.026149 
C 604.94506 351.612654 603.588864 348.338507 601.175158 345.924801 
C 598.761452 343.511095 595.487305 342.154899 592.07381 342.154899 
C 588.660314 342.154899 585.386168 343.511095 582.972462 345.924801 
C 580.558756 348.338507 579.20256 351.612654 579.20256 355.026149 
C 579.20256 358.439645 580.558756 361.713792 582.972462 364.127497 
C 585.386168 366.541203 588.660314 367.897399 592.07381 367.897399 
z
" clip-path="url(#pcfd22e1eba)" style="stroke: #000000; stroke-width: 2; stroke-linejoin: miter"/>
   </g>
   <g id="patch_30">
    <path d="M 630.263232 260.259804 
L 667.038232 260.259804 
L 667.038232 223.484805 
L 630.263232 223.484805 
z
" clip-path="url(#pcfd22e1eba)" style="fill: #ffffff; stroke: #000000; stroke-width: 1.5; stroke-linejoin: miter"/>
   </g>
   <g id="patch_31">
    <path d="M 705.227654 247.388555 
C 706.690581 247.388555 708.093787 246.807328 709.128232 245.772882 
C 710.162677 244.738437 710.743904 243.335231 710.743904 241.872305 
C 710.743904 240.409378 710.162677 239.006172 709.128232 237.971727 
C 708.093787 236.937282 706.690581 236.356055 705.227654 236.356055 
C 703.764728 236.356055 702.361522 236.937282 701.327077 237.971727 
C 700.292631 239.006172 699.711404 240.409378 699.711404 241.872305 
C 699.711404 243.335231 700.292631 244.738437 701.327077 245.772882 
C 702.361522 246.807328 703.764728 247.388555 705.227654 247.388555 
z
" clip-path="url(#pcfd22e1eba)" style="stroke: #000000; stroke-width: 1.5; stroke-linejoin: miter"/>
   </g>
   <g id="patch_32">
    <path d="M 705.227654 311.320477 
C 708.64115 311.320477 711.915297 309.964281 714.329002 307.550575 
C 716.742708 305.136869 718.098904 301.862722 718.098904 298.449227 
C 718.098904 295.035732 716.742708 291.761585 714.329002 289.347879 
C 711.915297 286.934173 708.64115 285.577977 705.227654 285.577977 
C 701.814159 285.577977 698.540012 286.934173 696.126306 289.347879 
C 693.712601 291.761585 692.356405 295.035732 692.356405 298.449227 
C 692.356405 301.862722 693.712601 305.136869 696.126306 307.550575 
C 698.540012 309.964281 701.814159 311.320477 705.227654 311.320477 
z
" clip-path="url(#pcfd22e1eba)" style="stroke: #000000; stroke-width: 2; stroke-linejoin: miter"/>
   </g>
   <g id="patch_33">
    <path d="M 761.804577 303.965477 
C 763.267503 303.965477 764.670709 303.38425 765.705154 302.349805 
C 766.7396 301.315359 767.320827 299.912154 767.320827 298.449227 
C 767.320827 296.9863 766.7396 295.583095 765.705154 294.548649 
C 764.670709 293.514204 763.267503 292.932977 761.804577 292.932977 
C 760.34165 292.932977 758.938444 293.514204 757.903999 294.548649 
C 756.869554 295.583095 756.288327 296.9863 756.288327 298.449227 
C 756.288327 299.912154 756.869554 301.315359 757.903999 302.349805 
C 758.938444 303.38425 760.34165 303.965477 761.804577 303.965477 
z
" clip-path="url(#pcfd22e1eba)" style="stroke: #000000; stroke-width: 1.5; stroke-linejoin: miter"/>
   </g>
   <g id="patch_34">
    <path d="M 761.804577 367.897399 
C 765.218072 367.897399 768.492219 366.541203 770.905925 364.127497 
C 773.31963 361.713792 774.675826 358.439645 774.675826 355.026149 
C 774.675826 351.612654 773.31963 348.338507 770.905925 345.924801 
C 768.492219 343.511095 765.218072 342.154899 761.804577 342.154899 
C 758.391081 342.154899 755.116934 343.511095 752.703229 345.924801 
C 750.289523 348.338507 748.933327 351.612654 748.933327 355.026149 
C 748.933327 358.439645 750.289523 361.713792 752.703229 364.127497 
C 755.116934 366.541203 758.391081 367.897399 761.804577 367.897399 
z
" clip-path="url(#pcfd22e1eba)" style="stroke: #000000; stroke-width: 2; stroke-linejoin: miter"/>
   </g>
   <g id="patch_35">
    <path d="M 799.993999 373.413649 
L 836.768999 373.413649 
L 836.768999 336.638649 
L 799.993999 336.638649 
z
" clip-path="url(#pcfd22e1eba)" style="fill: #ffffff; stroke: #000000; stroke-width: 1.5; stroke-linejoin: miter"/>
   </g>
   <g id="patch_36">
    <path d="M 874.958421 473.696244 
C 876.421348 473.696244 877.824554 473.115017 878.858999 472.080571 
C 879.893444 471.046126 880.474671 469.64292 880.474671 468.179994 
C 880.474671 466.717067 879.893444 465.313861 878.858999 464.279416 
C 877.824554 463.244971 876.421348 462.663744 874.958421 462.663744 
C 873.495495 462.663744 872.092289 463.244971 871.057844 464.279416 
C 870.023398 465.313861 869.442171 466.717067 869.442171 468.179994 
C 869.442171 469.64292 870.023398 471.046126 871.057844 472.080571 
C 872.092289 473.115017 873.495495 473.696244 874.958421 473.696244 
z
" clip-path="url(#pcfd22e1eba)" style="stroke: #000000; stroke-width: 1.5; stroke-linejoin: miter"/>
   </g>
   <g id="patch_37">
    <path d="M 874.958421 367.897399 
C 878.371917 367.897399 881.646064 366.541203 884.059769 364.127497 
C 886.473475 361.713792 887.829671 358.439645 887.829671 355.026149 
C 887.829671 351.612654 886.473475 348.338507 884.059769 345.924801 
C 881.646064 343.511095 878.371917 342.154899 874.958421 342.154899 
C 871.544926 342.154899 868.270779 343.511095 865.857073 345.924801 
C 863.443367 348.338507 862.087171 351.612654 862.087171 355.026149 
C 862.087171 358.439645 863.443367 361.713792 865.857073 364.127497 
C 868.270779 366.541203 871.544926 367.897399 874.958421 367.897399 
z
" clip-path="url(#pcfd22e1eba)" style="stroke: #000000; stroke-width: 2; stroke-linejoin: miter"/>
   </g>
   <g id="patch_38">
    <path d="M 931.535344 530.273166 
C 932.99827 530.273166 934.401476 529.691939 935.435921 528.657494 
C 936.470367 527.623048 937.051593 526.219843 937.051593 524.756916 
C 937.051593 523.293989 936.470367 521.890784 935.435921 520.856338 
C 934.401476 519.821893 932.99827 519.240666 931.535344 519.240666 
C 930.072417 519.240666 928.669211 519.821893 927.634766 520.856338 
C 926.60032 521.890784 926.019094 523.293989 926.019094 524.756916 
C 926.019094 526.219843 926.60032 527.623048 927.634766 528.657494 
C 928.669211 529.691939 930.072417 530.273166 931.535344 530.273166 
z
" clip-path="url(#pcfd22e1eba)" style="stroke: #000000; stroke-width: 1.5; stroke-linejoin: miter"/>
   </g>
   <g id="patch_39">
    <path d="M 931.535344 481.051244 
C 934.948839 481.051244 938.222986 479.695048 940.636692 477.281342 
C 943.050397 474.867636 944.406593 471.593489 944.406593 468.179994 
C 944.406593 464.766498 943.050397 461.492351 940.636692 459.078646 
C 938.222986 456.66494 934.948839 455.308744 931.535344 455.308744 
C 928.121848 455.308744 924.847701 456.66494 922.433995 459.078646 
C 920.02029 461.492351 918.664094 464.766498 918.664094 468.179994 
C 918.664094 471.593489 920.02029 474.867636 922.433995 477.281342 
C 924.847701 479.695048 928.121848 481.051244 931.535344 481.051244 
z
" clip-path="url(#pcfd22e1eba)" style="stroke: #000000; stroke-width: 2; stroke-linejoin: miter"/>
   </g>
   <g id="patch_40">
    <path d="M 931.535344 303.965477 
C 932.99827 303.965477 934.401476 303.38425 935.435921 302.349805 
C 936.470367 301.315359 937.051593 299.912154 937.051593 298.449227 
C 937.051593 296.9863 936.470367 295.583095 935.435921 294.548649 
C 934.401476 293.514204 932.99827 292.932977 931.535344 292.932977 
C 930.072417 292.932977 928.669211 293.514204 927.634766 294.548649 
C 926.60032 295.583095 926.019094 296.9863 926.019094 298.449227 
C 926.019094 299.912154 926.60032 301.315359 927.634766 302.349805 
C 928.669211 303.38425 930.072417 303.965477 931.535344 303.965477 
z
" clip-path="url(#pcfd22e1eba)" style="stroke: #000000; stroke-width: 1.5; stroke-linejoin: miter"/>
   </g>
   <g id="patch_41">
    <path d="M 931.535344 367.897399 
C 934.948839 367.897399 938.222986 366.541203 940.636692 364.127497 
C 943.050397 361.713792 944.406593 358.439645 944.406593 355.026149 
C 944.406593 351.612654 943.050397 348.338507 940.636692 345.924801 
C 938.222986 343.511095 934.948839 342.154899 931.535344 342.154899 
C 928.121848 342.154899 924.847701 343.511095 922.433995 345.924801 
C 920.02029 348.338507 918.664094 351.612654 918.664094 355.026149 
C 918.664094 358.439645 920.02029 361.713792 922.433995 364.127497 
C 924.847701 366.541203 928.121848 367.897399 931.535344 367.897399 
z
" clip-path="url(#pcfd22e1eba)" style="stroke: #000000; stroke-width: 2; stroke-linejoin: miter"/>
   </g>
   <g id="patch_42">
    <path d="M 988.112266 586.850088 
C 989.575192 586.850088 990.978398 586.268861 992.012844 585.234416 
C 993.047289 584.199971 993.628516 582.796765 993.628516 581.333838 
C 993.628516 579.870912 993.047289 578.467706 992.012844 577.433261 
C 990.978398 576.398815 989.575192 575.817588 988.112266 575.817588 
C 986.649339 575.817588 985.246133 576.398815 984.211688 577.433261 
C 983.177243 578.467706 982.596016 579.870912 982.596016 581.333838 
C 982.596016 582.796765 983.177243 584.199971 984.211688 585.234416 
C 985.246133 586.268861 986.649339 586.850088 988.112266 586.850088 
z
" clip-path="url(#pcfd22e1eba)" style="stroke: #000000; stroke-width: 1.5; stroke-linejoin: miter"/>
   </g>
   <g id="patch_43">
    <path d="M 988.112266 481.051244 
C 991.525761 481.051244 994.799908 479.695048 997.213614 477.281342 
C 999.62732 474.867636 1000.983516 471.593489 1000.983516 468.179994 
C 1000.983516 464.766498 999.62732 461.492351 997.213614 459.078646 
C 994.799908 456.66494 991.525761 455.308744 988.112266 455.308744 
C 984.69877 455.308744 981.424623 456.66494 979.010918 459.078646 
C 976.597212 461.492351 975.241016 464.766498 975.241016 468.179994 
C 975.241016 471.593489 976.597212 474.867636 979.010918 477.281342 
C 981.424623 479.695048 984.69877 481.051244 988.112266 481.051244 
z
" clip-path="url(#pcfd22e1eba)" style="stroke: #000000; stroke-width: 2; stroke-linejoin: miter"/>
   </g>
   <g id="patch_44">
    <path d="M 988.112266 247.388555 
C 989.575192 247.388555 990.978398 246.807328 992.012844 245.772882 
C 993.047289 244.738437 993.628516 243.335231 993.628516 241.872305 
C 993.628516 240.409378 993.047289 239.006172 992.012844 237.971727 
C 990.978398 236.937282 989.575192 236.356055 988.112266 236.356055 
C 986.649339 236.356055 985.246133 236.937282 984.211688 237.971727 
C 983.177243 239.006172 982.596016 240.409378 982.596016 241.872305 
C 982.596016 243.335231 983.177243 244.738437 984.211688 245.772882 
C 985.246133 246.807328 986.649339 247.388555 988.112266 247.388555 
z
" clip-path="url(#pcfd22e1eba)" style="stroke: #000000; stroke-width: 1.5; stroke-linejoin: miter"/>
   </g>
   <g id="patch_45">
    <path d="M 988.112266 311.320477 
C 991.525761 311.320477 994.799908 309.964281 997.213614 307.550575 
C 999.62732 305.136869 1000.983516 301.862722 1000.983516 298.449227 
C 1000.983516 295.035732 999.62732 291.761585 997.213614 289.347879 
C 994.799908 286.934173 991.525761 285.577977 988.112266 285.577977 
C 984.69877 285.577977 981.424623 286.934173 979.010918 289.347879 
C 976.597212 291.761585 975.241016 295.035732 975.241016 298.449227 
C 975.241016 301.862722 976.597212 305.136869 979.010918 307.550575 
C 981.424623 309.964281 984.69877 311.320477 988.112266 311.320477 
z
" clip-path="url(#pcfd22e1eba)" style="stroke: #000000; stroke-width: 2; stroke-linejoin: miter"/>
   </g>
   <g id="patch_46">
    <path d="M 969.724766 373.413649 
L 1006.499766 373.413649 
L 1006.499766 336.638649 
L 969.724766 336.638649 
z
" clip-path="url(#pcfd22e1eba)" style="fill: #ffffff; stroke: #000000; stroke-width: 1.5; stroke-linejoin: miter"/>
   </g>
   <g id="patch_47">
    <path d="M 1026.301688 543.144416 
L 1063.076688 543.144416 
L 1063.076688 506.369416 
L 1026.301688 506.369416 
z
" clip-path="url(#pcfd22e1eba)" style="fill: #ffffff; stroke: #000000; stroke-width: 1.5; stroke-linejoin: miter"/>
   </g>
   <g id="patch_48">
    <path d="M 1026.301688 486.567493 
L 1063.076688 486.567493 
L 1063.076688 449.792494 
L 1026.301688 449.792494 
z
" clip-path="url(#pcfd22e1eba)" style="fill: #ffffff; stroke: #000000; stroke-width: 1.5; stroke-linejoin: miter"/>
   </g>
   <g id="patch_49">
    <path d="M 1044.689188 190.811632 
C 1046.152115 190.811632 1047.55532 190.230405 1048.589766 189.19596 
C 1049.624211 188.161515 1050.205438 186.758309 1050.205438 185.295382 
C 1050.205438 183.832456 1049.624211 182.42925 1048.589766 181.394805 
C 1047.55532 180.360359 1046.152115 179.779132 1044.689188 179.779132 
C 1043.226261 179.779132 1041.823056 180.360359 1040.78861 181.394805 
C 1039.754165 182.42925 1039.172938 183.832456 1039.172938 185.295382 
C 1039.172938 186.758309 1039.754165 188.161515 1040.78861 189.19596 
C 1041.823056 190.230405 1043.226261 190.811632 1044.689188 190.811632 
z
" clip-path="url(#pcfd22e1eba)" style="stroke: #000000; stroke-width: 1.5; stroke-linejoin: miter"/>
   </g>
   <g id="patch_50">
    <path d="M 1044.689188 311.320477 
C 1048.102683 311.320477 1051.37683 309.964281 1053.790536 307.550575 
C 1056.204242 305.136869 1057.560438 301.862722 1057.560438 298.449227 
C 1057.560438 295.035732 1056.204242 291.761585 1053.790536 289.347879 
C 1051.37683 286.934173 1048.102683 285.577977 1044.689188 285.577977 
C 1041.275693 285.577977 1038.001546 286.934173 1035.58784 289.347879 
C 1033.174134 291.761585 1031.817938 295.035732 1031.817938 298.449227 
C 1031.817938 301.862722 1033.174134 305.136869 1035.58784 307.550575 
C 1038.001546 309.964281 1041.275693 311.320477 1044.689188 311.320477 
z
" clip-path="url(#pcfd22e1eba)" style="stroke: #000000; stroke-width: 2; stroke-linejoin: miter"/>
   </g>
   <g id="patch_51">
    <path d="M 1082.878611 260.259804 
L 1119.65361 260.259804 
L 1119.65361 223.484805 
L 1082.878611 223.484805 
z
" clip-path="url(#pcfd22e1eba)" style="fill: #ffffff; stroke: #000000; stroke-width: 1.5; stroke-linejoin: miter"/>
   </g>
   <g id="patch_52">
    <path d="M 1082.878611 203.682882 
L 1119.65361 203.682882 
L 1119.65361 166.907883 
L 1082.878611 166.907883 
z
" clip-path="url(#pcfd22e1eba)" style="fill: #ffffff; stroke: #000000; stroke-width: 1.5; stroke-linejoin: miter"/>
   </g>
   <g id="patch_53">
    <path d="M 1157.843033 77.657788 
C 1159.305959 77.657788 1160.709165 77.076561 1161.74361 76.042116 
C 1162.778056 75.00767 1163.359283 73.604464 1163.359283 72.141538 
C 1163.359283 70.678611 1162.778056 69.275405 1161.74361 68.24096 
C 1160.709165 67.206515 1159.305959 66.625288 1157.843033 66.625288 
C 1156.380106 66.625288 1154.9769 67.206515 1153.942455 68.24096 
C 1152.90801 69.275405 1152.326783 70.678611 1152.326783 72.141538 
C 1152.326783 73.604464 1152.90801 75.00767 1153.942455 76.042116 
C 1154.9769 77.076561 1156.380106 77.657788 1157.843033 77.657788 
z
" clip-path="url(#pcfd22e1eba)" style="stroke: #000000; stroke-width: 1.5; stroke-linejoin: miter"/>
   </g>
   <g id="patch_54">
    <path d="M 1157.843033 311.320477 
C 1161.256528 311.320477 1164.530675 309.964281 1166.944381 307.550575 
C 1169.358086 305.136869 1170.714282 301.862722 1170.714282 298.449227 
C 1170.714282 295.035732 1169.358086 291.761585 1166.944381 289.347879 
C 1164.530675 286.934173 1161.256528 285.577977 1157.843033 285.577977 
C 1154.429537 285.577977 1151.15539 286.934173 1148.741685 289.347879 
C 1146.327979 291.761585 1144.971783 295.035732 1144.971783 298.449227 
C 1144.971783 301.862722 1146.327979 305.136869 1148.741685 307.550575 
C 1151.15539 309.964281 1154.429537 311.320477 1157.843033 311.320477 
z
" clip-path="url(#pcfd22e1eba)" style="stroke: #000000; stroke-width: 2; stroke-linejoin: miter"/>
   </g>
   <g id="patch_55">
    <path d="M 1196.032455 90.529038 
L 1232.807455 90.529038 
L 1232.807455 53.754038 
L 1196.032455 53.754038 
z
" clip-path="url(#pcfd22e1eba)" style="fill: #ffffff; stroke: #000000; stroke-width: 1.5; stroke-linejoin: miter"/>
   </g>
   <g id="text_2">
    <g clip-path="url(#pcfd22e1eba)">
     <!-- ${q}_{0}$ -->
     <g transform="translate(79.554009 76.592514)scale(0.1625 -0.1625)">
      <defs>
       <path id="DejaVuSans-Oblique-71" d="M 2669 525 
Q 2438 222 2123 65 
Q 1809 -91 1428 -91 
Q 897 -91 595 267 
Q 294 625 294 1253 
Q 294 1759 480 2231 
Q 666 2703 1013 3078 
Q 1238 3322 1530 3453 
Q 1822 3584 2144 3584 
Q 2531 3584 2781 3431 
Q 3031 3278 3144 2969 
L 3244 3494 
L 3822 3494 
L 2888 -1319 
L 2309 -1319 
L 2669 525 
z
M 891 1338 
Q 891 875 1084 633 
Q 1278 391 1644 391 
Q 2188 391 2572 911 
Q 2956 1431 2956 2175 
Q 2956 2625 2757 2864 
Q 2559 3103 2188 3103 
Q 1916 3103 1684 2976 
Q 1453 2850 1281 2606 
Q 1100 2350 995 2006 
Q 891 1663 891 1338 
z
" transform="scale(0.015625)"/>
       <path id="DejaVuSans-30" d="M 2034 4250 
Q 1547 4250 1301 3770 
Q 1056 3291 1056 2328 
Q 1056 1369 1301 889 
Q 1547 409 2034 409 
Q 2525 409 2770 889 
Q 3016 1369 3016 2328 
Q 3016 3291 2770 3770 
Q 2525 4250 2034 4250 
z
M 2034 4750 
Q 2819 4750 3233 4129 
Q 3647 3509 3647 2328 
Q 3647 1150 3233 529 
Q 2819 -91 2034 -91 
Q 1250 -91 836 529 
Q 422 1150 422 2328 
Q 422 3509 836 4129 
Q 1250 4750 2034 4750 
z
" transform="scale(0.015625)"/>
      </defs>
      <use xlink:href="#DejaVuSans-Oblique-71"/>
      <use xlink:href="#DejaVuSans-30" transform="translate(63.476562 -16.40625)scale(0.7)"/>
     </g>
    </g>
   </g>
   <g id="text_3">
    <g clip-path="url(#pcfd22e1eba)">
     <!-- ${q}_{1}$ -->
     <g transform="translate(79.554009 133.169437)scale(0.1625 -0.1625)">
      <use xlink:href="#DejaVuSans-Oblique-71"/>
      <use xlink:href="#DejaVuSans-31" transform="translate(63.476562 -16.40625)scale(0.7)"/>
     </g>
    </g>
   </g>
   <g id="text_4">
    <g clip-path="url(#pcfd22e1eba)">
     <!-- ${q}_{2}$ -->
     <g transform="translate(79.554009 189.746359)scale(0.1625 -0.1625)">
      <use xlink:href="#DejaVuSans-Oblique-71"/>
      <use xlink:href="#DejaVuSans-32" transform="translate(63.476562 -16.40625)scale(0.7)"/>
     </g>
    </g>
   </g>
   <g id="text_5">
    <g clip-path="url(#pcfd22e1eba)">
     <!-- ${q}_{3}$ -->
     <g transform="translate(79.554009 246.323281)scale(0.1625 -0.1625)">
      <defs>
       <path id="DejaVuSans-33" d="M 2597 2516 
Q 3050 2419 3304 2112 
Q 3559 1806 3559 1356 
Q 3559 666 3084 287 
Q 2609 -91 1734 -91 
Q 1441 -91 1130 -33 
Q 819 25 488 141 
L 488 750 
Q 750 597 1062 519 
Q 1375 441 1716 441 
Q 2309 441 2620 675 
Q 2931 909 2931 1356 
Q 2931 1769 2642 2001 
Q 2353 2234 1838 2234 
L 1294 2234 
L 1294 2753 
L 1863 2753 
Q 2328 2753 2575 2939 
Q 2822 3125 2822 3475 
Q 2822 3834 2567 4026 
Q 2313 4219 1838 4219 
Q 1578 4219 1281 4162 
Q 984 4106 628 3988 
L 628 4550 
Q 988 4650 1302 4700 
Q 1616 4750 1894 4750 
Q 2613 4750 3031 4423 
Q 3450 4097 3450 3541 
Q 3450 3153 3228 2886 
Q 3006 2619 2597 2516 
z
" transform="scale(0.015625)"/>
      </defs>
      <use xlink:href="#DejaVuSans-Oblique-71"/>
      <use xlink:href="#DejaVuSans-33" transform="translate(63.476562 -16.40625)scale(0.7)"/>
     </g>
    </g>
   </g>
   <g id="text_6">
    <g clip-path="url(#pcfd22e1eba)">
     <!-- ${q}_{4}$ -->
     <g transform="translate(79.554009 302.900203)scale(0.1625 -0.1625)">
      <defs>
       <path id="DejaVuSans-34" d="M 2419 4116 
L 825 1625 
L 2419 1625 
L 2419 4116 
z
M 2253 4666 
L 3047 4666 
L 3047 1625 
L 3713 1625 
L 3713 1100 
L 3047 1100 
L 3047 0 
L 2419 0 
L 2419 1100 
L 313 1100 
L 313 1709 
L 2253 4666 
z
" transform="scale(0.015625)"/>
      </defs>
      <use xlink:href="#DejaVuSans-Oblique-71"/>
      <use xlink:href="#DejaVuSans-34" transform="translate(63.476562 -16.40625)scale(0.7)"/>
     </g>
    </g>
   </g>
   <g id="text_7">
    <g clip-path="url(#pcfd22e1eba)">
     <!-- ${q}_{5}$ -->
     <g transform="translate(79.554009 359.477126)scale(0.1625 -0.1625)">
      <defs>
       <path id="DejaVuSans-35" d="M 691 4666 
L 3169 4666 
L 3169 4134 
L 1269 4134 
L 1269 2991 
Q 1406 3038 1543 3061 
Q 1681 3084 1819 3084 
Q 2600 3084 3056 2656 
Q 3513 2228 3513 1497 
Q 3513 744 3044 326 
Q 2575 -91 1722 -91 
Q 1428 -91 1123 -41 
Q 819 9 494 109 
L 494 744 
Q 775 591 1075 516 
Q 1375 441 1709 441 
Q 2250 441 2565 725 
Q 2881 1009 2881 1497 
Q 2881 1984 2565 2268 
Q 2250 2553 1709 2553 
Q 1456 2553 1204 2497 
Q 953 2441 691 2322 
L 691 4666 
z
" transform="scale(0.015625)"/>
      </defs>
      <use xlink:href="#DejaVuSans-Oblique-71"/>
      <use xlink:href="#DejaVuSans-35" transform="translate(63.476562 -16.40625)scale(0.7)"/>
     </g>
    </g>
   </g>
   <g id="text_8">
    <g clip-path="url(#pcfd22e1eba)">
     <!-- ${q}_{6}$ -->
     <g transform="translate(79.554009 416.054048)scale(0.1625 -0.1625)">
      <defs>
       <path id="DejaVuSans-36" d="M 2113 2584 
Q 1688 2584 1439 2293 
Q 1191 2003 1191 1497 
Q 1191 994 1439 701 
Q 1688 409 2113 409 
Q 2538 409 2786 701 
Q 3034 994 3034 1497 
Q 3034 2003 2786 2293 
Q 2538 2584 2113 2584 
z
M 3366 4563 
L 3366 3988 
Q 3128 4100 2886 4159 
Q 2644 4219 2406 4219 
Q 1781 4219 1451 3797 
Q 1122 3375 1075 2522 
Q 1259 2794 1537 2939 
Q 1816 3084 2150 3084 
Q 2853 3084 3261 2657 
Q 3669 2231 3669 1497 
Q 3669 778 3244 343 
Q 2819 -91 2113 -91 
Q 1303 -91 875 529 
Q 447 1150 447 2328 
Q 447 3434 972 4092 
Q 1497 4750 2381 4750 
Q 2619 4750 2861 4703 
Q 3103 4656 3366 4563 
z
" transform="scale(0.015625)"/>
      </defs>
      <use xlink:href="#DejaVuSans-Oblique-71"/>
      <use xlink:href="#DejaVuSans-36" transform="translate(63.476562 -16.40625)scale(0.7)"/>
     </g>
    </g>
   </g>
   <g id="text_9">
    <g clip-path="url(#pcfd22e1eba)">
     <!-- ${q}_{7}$ -->
     <g transform="translate(79.554009 472.63097)scale(0.1625 -0.1625)">
      <defs>
       <path id="DejaVuSans-37" d="M 525 4666 
L 3525 4666 
L 3525 4397 
L 1831 0 
L 1172 0 
L 2766 4134 
L 525 4134 
L 525 4666 
z
" transform="scale(0.015625)"/>
      </defs>
      <use xlink:href="#DejaVuSans-Oblique-71"/>
      <use xlink:href="#DejaVuSans-37" transform="translate(63.476562 -16.40625)scale(0.7)"/>
     </g>
    </g>
   </g>
   <g id="text_10">
    <g clip-path="url(#pcfd22e1eba)">
     <!-- ${q}_{8}$ -->
     <g transform="translate(79.554009 529.207893)scale(0.1625 -0.1625)">
      <defs>
       <path id="DejaVuSans-38" d="M 2034 2216 
Q 1584 2216 1326 1975 
Q 1069 1734 1069 1313 
Q 1069 891 1326 650 
Q 1584 409 2034 409 
Q 2484 409 2743 651 
Q 3003 894 3003 1313 
Q 3003 1734 2745 1975 
Q 2488 2216 2034 2216 
z
M 1403 2484 
Q 997 2584 770 2862 
Q 544 3141 544 3541 
Q 544 4100 942 4425 
Q 1341 4750 2034 4750 
Q 2731 4750 3128 4425 
Q 3525 4100 3525 3541 
Q 3525 3141 3298 2862 
Q 3072 2584 2669 2484 
Q 3125 2378 3379 2068 
Q 3634 1759 3634 1313 
Q 3634 634 3220 271 
Q 2806 -91 2034 -91 
Q 1263 -91 848 271 
Q 434 634 434 1313 
Q 434 1759 690 2068 
Q 947 2378 1403 2484 
z
M 1172 3481 
Q 1172 3119 1398 2916 
Q 1625 2713 2034 2713 
Q 2441 2713 2670 2916 
Q 2900 3119 2900 3481 
Q 2900 3844 2670 4047 
Q 2441 4250 2034 4250 
Q 1625 4250 1398 4047 
Q 1172 3844 1172 3481 
z
" transform="scale(0.015625)"/>
      </defs>
      <use xlink:href="#DejaVuSans-Oblique-71"/>
      <use xlink:href="#DejaVuSans-38" transform="translate(63.476562 -16.40625)scale(0.7)"/>
     </g>
    </g>
   </g>
   <g id="text_11">
    <g clip-path="url(#pcfd22e1eba)">
     <!-- ${q}_{9}$ -->
     <g transform="translate(79.554009 585.784815)scale(0.1625 -0.1625)">
      <use xlink:href="#DejaVuSans-Oblique-71"/>
      <use xlink:href="#DejaVuSans-39" transform="translate(63.476562 -16.40625)scale(0.7)"/>
     </g>
    </g>
   </g>
   <g id="text_12">
    <g clip-path="url(#pcfd22e1eba)">
     <!-- H -->
     <g transform="translate(134.570229 358.613337)scale(0.13 -0.13)">
      <use xlink:href="#DejaVuSans-48"/>
     </g>
    </g>
   </g>
   <g id="text_13">
    <g clip-path="url(#pcfd22e1eba)">
     <!-- H -->
     <g transform="translate(134.570229 471.767181)scale(0.13 -0.13)">
      <use xlink:href="#DejaVuSans-48"/>
     </g>
    </g>
   </g>
   <g id="text_14">
    <g clip-path="url(#pcfd22e1eba)">
     <!-- H -->
     <g transform="translate(134.570229 528.344104)scale(0.13 -0.13)">
      <use xlink:href="#DejaVuSans-48"/>
     </g>
    </g>
   </g>
   <g id="text_15">
    <g clip-path="url(#pcfd22e1eba)">
     <!-- H -->
     <g transform="translate(134.570229 188.88257)scale(0.13 -0.13)">
      <use xlink:href="#DejaVuSans-48"/>
     </g>
    </g>
   </g>
   <g id="text_16">
    <g clip-path="url(#pcfd22e1eba)">
     <!-- H -->
     <g transform="translate(134.570229 75.728725)scale(0.13 -0.13)">
      <use xlink:href="#DejaVuSans-48"/>
     </g>
    </g>
   </g>
   <g id="line2d_31">
    <path d="M 196.035354 475.534994 
L 196.035354 460.824994 
" clip-path="url(#pcfd22e1eba)" style="fill: none; stroke: #ffffff; stroke-width: 2; stroke-linecap: square"/>
   </g>
   <g id="line2d_32">
    <path d="M 188.680354 468.179994 
L 203.390354 468.179994 
" clip-path="url(#pcfd22e1eba)" style="fill: none; stroke: #ffffff; stroke-width: 2; stroke-linecap: square"/>
   </g>
   <g id="line2d_33">
    <path d="M 196.035354 305.804227 
L 196.035354 291.094227 
" clip-path="url(#pcfd22e1eba)" style="fill: none; stroke: #ffffff; stroke-width: 2; stroke-linecap: square"/>
   </g>
   <g id="line2d_34">
    <path d="M 188.680354 298.449227 
L 203.390354 298.449227 
" clip-path="url(#pcfd22e1eba)" style="fill: none; stroke: #ffffff; stroke-width: 2; stroke-linecap: square"/>
   </g>
   <g id="line2d_35">
    <path d="M 252.612276 475.534994 
L 252.612276 460.824994 
" clip-path="url(#pcfd22e1eba)" style="fill: none; stroke: #ffffff; stroke-width: 2; stroke-linecap: square"/>
   </g>
   <g id="line2d_36">
    <path d="M 245.257276 468.179994 
L 259.967276 468.179994 
" clip-path="url(#pcfd22e1eba)" style="fill: none; stroke: #ffffff; stroke-width: 2; stroke-linecap: square"/>
   </g>
   <g id="line2d_37">
    <path d="M 252.612276 305.804227 
L 252.612276 291.094227 
" clip-path="url(#pcfd22e1eba)" style="fill: none; stroke: #ffffff; stroke-width: 2; stroke-linecap: square"/>
   </g>
   <g id="line2d_38">
    <path d="M 245.257276 298.449227 
L 259.967276 298.449227 
" clip-path="url(#pcfd22e1eba)" style="fill: none; stroke: #ffffff; stroke-width: 2; stroke-linecap: square"/>
   </g>
   <g id="line2d_39">
    <path d="M 309.189198 362.381149 
L 309.189198 347.671149 
" clip-path="url(#pcfd22e1eba)" style="fill: none; stroke: #ffffff; stroke-width: 2; stroke-linecap: square"/>
   </g>
   <g id="line2d_40">
    <path d="M 301.834199 355.026149 
L 316.544198 355.026149 
" clip-path="url(#pcfd22e1eba)" style="fill: none; stroke: #ffffff; stroke-width: 2; stroke-linecap: square"/>
   </g>
   <g id="line2d_41">
    <path d="M 309.189198 305.804227 
L 309.189198 291.094227 
" clip-path="url(#pcfd22e1eba)" style="fill: none; stroke: #ffffff; stroke-width: 2; stroke-linecap: square"/>
   </g>
   <g id="line2d_42">
    <path d="M 301.834199 298.449227 
L 316.544198 298.449227 
" clip-path="url(#pcfd22e1eba)" style="fill: none; stroke: #ffffff; stroke-width: 2; stroke-linecap: square"/>
   </g>
   <g id="line2d_43">
    <path d="M 365.766121 362.381149 
L 365.766121 347.671149 
" clip-path="url(#pcfd22e1eba)" style="fill: none; stroke: #ffffff; stroke-width: 2; stroke-linecap: square"/>
   </g>
   <g id="line2d_44">
    <path d="M 358.411121 355.026149 
L 373.121121 355.026149 
" clip-path="url(#pcfd22e1eba)" style="fill: none; stroke: #ffffff; stroke-width: 2; stroke-linecap: square"/>
   </g>
   <g id="text_17">
    <g clip-path="url(#pcfd22e1eba)">
     <!-- 1 -->
     <g transform="translate(419.798043 368.266149)scale(0.08 -0.08)">
      <use xlink:href="#DejaVuSans-31"/>
     </g>
    </g>
   </g>
   <g id="text_18">
    <g clip-path="url(#pcfd22e1eba)">
     <!-- $\mathrm{R_Z}$ -->
     <g transform="translate(414.413043 353.097087)scale(0.13 -0.13)">
      <defs>
       <path id="DejaVuSans-5a" d="M 359 4666 
L 4025 4666 
L 4025 4184 
L 1075 531 
L 4097 531 
L 4097 0 
L 288 0 
L 288 481 
L 3238 4134 
L 359 4134 
L 359 4666 
z
" transform="scale(0.015625)"/>
      </defs>
      <use xlink:href="#DejaVuSans-52" transform="translate(0 0.09375)"/>
      <use xlink:href="#DejaVuSans-5a" transform="translate(70.439453 -16.3125)scale(0.7)"/>
     </g>
    </g>
   </g>
   <g id="line2d_45">
    <path d="M 478.919965 362.381149 
L 478.919965 347.671149 
" clip-path="url(#pcfd22e1eba)" style="fill: none; stroke: #ffffff; stroke-width: 2; stroke-linecap: square"/>
   </g>
   <g id="line2d_46">
    <path d="M 471.564965 355.026149 
L 486.274965 355.026149 
" clip-path="url(#pcfd22e1eba)" style="fill: none; stroke: #ffffff; stroke-width: 2; stroke-linecap: square"/>
   </g>
   <g id="line2d_47">
    <path d="M 535.496888 362.381149 
L 535.496888 347.671149 
" clip-path="url(#pcfd22e1eba)" style="fill: none; stroke: #ffffff; stroke-width: 2; stroke-linecap: square"/>
   </g>
   <g id="line2d_48">
    <path d="M 528.141888 355.026149 
L 542.851887 355.026149 
" clip-path="url(#pcfd22e1eba)" style="fill: none; stroke: #ffffff; stroke-width: 2; stroke-linecap: square"/>
   </g>
   <g id="line2d_49">
    <path d="M 592.07381 305.804227 
L 592.07381 291.094227 
" clip-path="url(#pcfd22e1eba)" style="fill: none; stroke: #ffffff; stroke-width: 2; stroke-linecap: square"/>
   </g>
   <g id="line2d_50">
    <path d="M 584.71881 298.449227 
L 599.42881 298.449227 
" clip-path="url(#pcfd22e1eba)" style="fill: none; stroke: #ffffff; stroke-width: 2; stroke-linecap: square"/>
   </g>
   <g id="line2d_51">
    <path d="M 592.07381 362.381149 
L 592.07381 347.671149 
" clip-path="url(#pcfd22e1eba)" style="fill: none; stroke: #ffffff; stroke-width: 2; stroke-linecap: square"/>
   </g>
   <g id="line2d_52">
    <path d="M 584.71881 355.026149 
L 599.42881 355.026149 
" clip-path="url(#pcfd22e1eba)" style="fill: none; stroke: #ffffff; stroke-width: 2; stroke-linecap: square"/>
   </g>
   <g id="text_19">
    <g clip-path="url(#pcfd22e1eba)">
     <!-- H -->
     <g transform="translate(643.762529 245.459492)scale(0.13 -0.13)">
      <use xlink:href="#DejaVuSans-48"/>
     </g>
    </g>
   </g>
   <g id="line2d_53">
    <path d="M 705.227654 305.804227 
L 705.227654 291.094227 
" clip-path="url(#pcfd22e1eba)" style="fill: none; stroke: #ffffff; stroke-width: 2; stroke-linecap: square"/>
   </g>
   <g id="line2d_54">
    <path d="M 697.872655 298.449227 
L 712.582654 298.449227 
" clip-path="url(#pcfd22e1eba)" style="fill: none; stroke: #ffffff; stroke-width: 2; stroke-linecap: square"/>
   </g>
   <g id="line2d_55">
    <path d="M 761.804577 362.381149 
L 761.804577 347.671149 
" clip-path="url(#pcfd22e1eba)" style="fill: none; stroke: #ffffff; stroke-width: 2; stroke-linecap: square"/>
   </g>
   <g id="line2d_56">
    <path d="M 754.449577 355.026149 
L 769.159577 355.026149 
" clip-path="url(#pcfd22e1eba)" style="fill: none; stroke: #ffffff; stroke-width: 2; stroke-linecap: square"/>
   </g>
   <g id="text_20">
    <g clip-path="url(#pcfd22e1eba)">
     <!-- 1 -->
     <g transform="translate(815.836499 368.266149)scale(0.08 -0.08)">
      <use xlink:href="#DejaVuSans-31"/>
     </g>
    </g>
   </g>
   <g id="text_21">
    <g clip-path="url(#pcfd22e1eba)">
     <!-- $\mathrm{R_Z}$ -->
     <g transform="translate(810.451499 353.097087)scale(0.13 -0.13)">
      <use xlink:href="#DejaVuSans-52" transform="translate(0 0.09375)"/>
      <use xlink:href="#DejaVuSans-5a" transform="translate(70.439453 -16.3125)scale(0.7)"/>
     </g>
    </g>
   </g>
   <g id="line2d_57">
    <path d="M 874.958421 362.381149 
L 874.958421 347.671149 
" clip-path="url(#pcfd22e1eba)" style="fill: none; stroke: #ffffff; stroke-width: 2; stroke-linecap: square"/>
   </g>
   <g id="line2d_58">
    <path d="M 867.603421 355.026149 
L 882.313421 355.026149 
" clip-path="url(#pcfd22e1eba)" style="fill: none; stroke: #ffffff; stroke-width: 2; stroke-linecap: square"/>
   </g>
   <g id="line2d_59">
    <path d="M 931.535344 475.534994 
L 931.535344 460.824994 
" clip-path="url(#pcfd22e1eba)" style="fill: none; stroke: #ffffff; stroke-width: 2; stroke-linecap: square"/>
   </g>
   <g id="line2d_60">
    <path d="M 924.180344 468.179994 
L 938.890343 468.179994 
" clip-path="url(#pcfd22e1eba)" style="fill: none; stroke: #ffffff; stroke-width: 2; stroke-linecap: square"/>
   </g>
   <g id="line2d_61">
    <path d="M 931.535344 362.381149 
L 931.535344 347.671149 
" clip-path="url(#pcfd22e1eba)" style="fill: none; stroke: #ffffff; stroke-width: 2; stroke-linecap: square"/>
   </g>
   <g id="line2d_62">
    <path d="M 924.180344 355.026149 
L 938.890343 355.026149 
" clip-path="url(#pcfd22e1eba)" style="fill: none; stroke: #ffffff; stroke-width: 2; stroke-linecap: square"/>
   </g>
   <g id="line2d_63">
    <path d="M 988.112266 475.534994 
L 988.112266 460.824994 
" clip-path="url(#pcfd22e1eba)" style="fill: none; stroke: #ffffff; stroke-width: 2; stroke-linecap: square"/>
   </g>
   <g id="line2d_64">
    <path d="M 980.757266 468.179994 
L 995.467266 468.179994 
" clip-path="url(#pcfd22e1eba)" style="fill: none; stroke: #ffffff; stroke-width: 2; stroke-linecap: square"/>
   </g>
   <g id="line2d_65">
    <path d="M 988.112266 305.804227 
L 988.112266 291.094227 
" clip-path="url(#pcfd22e1eba)" style="fill: none; stroke: #ffffff; stroke-width: 2; stroke-linecap: square"/>
   </g>
   <g id="line2d_66">
    <path d="M 980.757266 298.449227 
L 995.467266 298.449227 
" clip-path="url(#pcfd22e1eba)" style="fill: none; stroke: #ffffff; stroke-width: 2; stroke-linecap: square"/>
   </g>
   <g id="text_22">
    <g clip-path="url(#pcfd22e1eba)">
     <!-- H -->
     <g transform="translate(983.224063 358.613337)scale(0.13 -0.13)">
      <use xlink:href="#DejaVuSans-48"/>
     </g>
    </g>
   </g>
   <g id="text_23">
    <g clip-path="url(#pcfd22e1eba)">
     <!-- H -->
     <g transform="translate(1039.800985 528.344104)scale(0.13 -0.13)">
      <use xlink:href="#DejaVuSans-48"/>
     </g>
    </g>
   </g>
   <g id="text_24">
    <g clip-path="url(#pcfd22e1eba)">
     <!-- H -->
     <g transform="translate(1039.800985 471.767181)scale(0.13 -0.13)">
      <use xlink:href="#DejaVuSans-48"/>
     </g>
    </g>
   </g>
   <g id="line2d_67">
    <path d="M 1044.689188 305.804227 
L 1044.689188 291.094227 
" clip-path="url(#pcfd22e1eba)" style="fill: none; stroke: #ffffff; stroke-width: 2; stroke-linecap: square"/>
   </g>
   <g id="line2d_68">
    <path d="M 1037.334188 298.449227 
L 1052.044188 298.449227 
" clip-path="url(#pcfd22e1eba)" style="fill: none; stroke: #ffffff; stroke-width: 2; stroke-linecap: square"/>
   </g>
   <g id="text_25">
    <g clip-path="url(#pcfd22e1eba)">
     <!-- H -->
     <g transform="translate(1096.377907 245.459492)scale(0.13 -0.13)">
      <use xlink:href="#DejaVuSans-48"/>
     </g>
    </g>
   </g>
   <g id="text_26">
    <g clip-path="url(#pcfd22e1eba)">
     <!-- H -->
     <g transform="translate(1096.377907 188.88257)scale(0.13 -0.13)">
      <use xlink:href="#DejaVuSans-48"/>
     </g>
    </g>
   </g>
   <g id="line2d_69">
    <path d="M 1157.843033 305.804227 
L 1157.843033 291.094227 
" clip-path="url(#pcfd22e1eba)" style="fill: none; stroke: #ffffff; stroke-width: 2; stroke-linecap: square"/>
   </g>
   <g id="line2d_70">
    <path d="M 1150.488033 298.449227 
L 1165.198033 298.449227 
" clip-path="url(#pcfd22e1eba)" style="fill: none; stroke: #ffffff; stroke-width: 2; stroke-linecap: square"/>
   </g>
   <g id="text_27">
    <g clip-path="url(#pcfd22e1eba)">
     <!-- H -->
     <g transform="translate(1209.531752 75.728725)scale(0.13 -0.13)">
      <use xlink:href="#DejaVuSans-48"/>
     </g>
    </g>
   </g>
  </g>
 </g>
 <defs>
  <clipPath id="pcfd22e1eba">
   <rect x="38.836658" y="26.88" width="1212.924065" height="588.399992"/>
  </clipPath>
 </defs>
</svg>
