<?xml version="1.0" encoding="utf-8" standalone="no"?>
<!DOCTYPE svg PUBLIC "-//W3C//DTD SVG 1.1//EN"
  "http://www.w3.org/Graphics/SVG/1.1/DTD/svg11.dtd">
<svg xmlns:xlink="http://www.w3.org/1999/xlink" width="568.052008pt" height="144.479998pt" viewBox="0 0 568.052008 144.479998" xmlns="http://www.w3.org/2000/svg" version="1.1">
 <metadata>
  <rdf:RDF xmlns:dc="http://purl.org/dc/elements/1.1/" xmlns:cc="http://creativecommons.org/ns#" xmlns:rdf="http://www.w3.org/1999/02/22-rdf-syntax-ns#">
   <cc:Work>
    <dc:type rdf:resource="http://purl.org/dc/dcmitype/StillImage"/>
    <dc:date>2022-05-17T15:36:44.324596</dc:date>
    <dc:format>image/svg+xml</dc:format>
    <dc:creator>
     <cc:Agent>
      <dc:title>Matplotlib v3.5.1, https://matplotlib.org/</dc:title>
     </cc:Agent>
    </dc:creator>
   </cc:Work>
  </rdf:RDF>
 </metadata>
 <defs>
  <style type="text/css">*{stroke-linejoin: round; stroke-linecap: butt}</style>
 </defs>
 <g id="figure_1">
  <g id="patch_1">
   <path d="M 0 144.479998 
L 568.052008 144.479998 
L 568.052008 0 
L 0 0 
z
" style="fill: #ffffff"/>
  </g>
  <g id="axes_1">
   <g id="line2d_1">
    <path d="M 129.723883 54.420799 
L 505.191278 54.420799 
" clip-path="url(#pcaf6e8cb06)" style="fill: none; stroke: #000000; stroke-width: 2; stroke-linecap: square"/>
   </g>
   <g id="line2d_2">
    <path d="M 129.723883 100.774799 
L 505.191278 100.774799 
" clip-path="url(#pcaf6e8cb06)" style="fill: none; stroke: #000000; stroke-width: 2; stroke-linecap: square"/>
   </g>
   <g id="line2d_3">
    <path d="M 154.755042 100.774799 
L 154.755042 54.420799 
" clip-path="url(#pcaf6e8cb06)" style="fill: none; stroke: #000000; stroke-width: 2; stroke-linecap: square"/>
   </g>
   <g id="line2d_4">
    <path d="M 201.109042 100.774799 
L 201.109042 54.420799 
" clip-path="url(#pcaf6e8cb06)" style="fill: none; stroke: #000000; stroke-width: 2; stroke-linecap: square"/>
   </g>
   <g id="line2d_5">
    <path d="M 247.463041 100.774799 
L 247.463041 54.420799 
" clip-path="url(#pcaf6e8cb06)" style="fill: none; stroke: #000000; stroke-width: 2; stroke-linecap: square"/>
   </g>
   <g id="line2d_6">
    <path d="M 340.17104 100.774799 
L 340.17104 54.420799 
" clip-path="url(#pcaf6e8cb06)" style="fill: none; stroke: #000000; stroke-width: 2; stroke-linecap: square"/>
   </g>
   <g id="line2d_7">
    <path d="M 386.525039 100.774799 
L 386.525039 54.420799 
" clip-path="url(#pcaf6e8cb06)" style="fill: none; stroke: #000000; stroke-width: 2; stroke-linecap: square"/>
   </g>
   <g id="line2d_8">
    <path d="M 432.879039 100.774799 
L 432.879039 54.420799 
" clip-path="url(#pcaf6e8cb06)" style="fill: none; stroke: #000000; stroke-width: 2; stroke-linecap: square"/>
   </g>
   <g id="text_1">
    <!-- SWAP Gate -->
    <g transform="translate(257.716029 11.3376)scale(0.12 -0.12)">
     <defs>
      <path id="DejaVuSans-53" d="M 3425 4513 
L 3425 3897 
Q 3066 4069 2747 4153 
Q 2428 4238 2131 4238 
Q 1616 4238 1336 4038 
Q 1056 3838 1056 3469 
Q 1056 3159 1242 3001 
Q 1428 2844 1947 2747 
L 2328 2669 
Q 3034 2534 3370 2195 
Q 3706 1856 3706 1288 
Q 3706 609 3251 259 
Q 2797 -91 1919 -91 
Q 1588 -91 1214 -16 
Q 841 59 441 206 
L 441 856 
Q 825 641 1194 531 
Q 1563 422 1919 422 
Q 2459 422 2753 634 
Q 3047 847 3047 1241 
Q 3047 1584 2836 1778 
Q 2625 1972 2144 2069 
L 1759 2144 
Q 1053 2284 737 2584 
Q 422 2884 422 3419 
Q 422 4038 858 4394 
Q 1294 4750 2059 4750 
Q 2388 4750 2728 4690 
Q 3069 4631 3425 4513 
z
" transform="scale(0.015625)"/>
      <path id="DejaVuSans-57" d="M 213 4666 
L 850 4666 
L 1831 722 
L 2809 4666 
L 3519 4666 
L 4500 722 
L 5478 4666 
L 6119 4666 
L 4947 0 
L 4153 0 
L 3169 4050 
L 2175 0 
L 1381 0 
L 213 4666 
z
" transform="scale(0.015625)"/>
      <path id="DejaVuSans-41" d="M 2188 4044 
L 1331 1722 
L 3047 1722 
L 2188 4044 
z
M 1831 4666 
L 2547 4666 
L 4325 0 
L 3669 0 
L 3244 1197 
L 1141 1197 
L 716 0 
L 50 0 
L 1831 4666 
z
" transform="scale(0.015625)"/>
      <path id="DejaVuSans-50" d="M 1259 4147 
L 1259 2394 
L 2053 2394 
Q 2494 2394 2734 2622 
Q 2975 2850 2975 3272 
Q 2975 3691 2734 3919 
Q 2494 4147 2053 4147 
L 1259 4147 
z
M 628 4666 
L 2053 4666 
Q 2838 4666 3239 4311 
Q 3641 3956 3641 3272 
Q 3641 2581 3239 2228 
Q 2838 1875 2053 1875 
L 1259 1875 
L 1259 0 
L 628 0 
L 628 4666 
z
" transform="scale(0.015625)"/>
      <path id="DejaVuSans-20" transform="scale(0.015625)"/>
      <path id="DejaVuSans-47" d="M 3809 666 
L 3809 1919 
L 2778 1919 
L 2778 2438 
L 4434 2438 
L 4434 434 
Q 4069 175 3628 42 
Q 3188 -91 2688 -91 
Q 1594 -91 976 548 
Q 359 1188 359 2328 
Q 359 3472 976 4111 
Q 1594 4750 2688 4750 
Q 3144 4750 3555 4637 
Q 3966 4525 4313 4306 
L 4313 3634 
Q 3963 3931 3569 4081 
Q 3175 4231 2741 4231 
Q 1884 4231 1454 3753 
Q 1025 3275 1025 2328 
Q 1025 1384 1454 906 
Q 1884 428 2741 428 
Q 3075 428 3337 486 
Q 3600 544 3809 666 
z
" transform="scale(0.015625)"/>
      <path id="DejaVuSans-61" d="M 2194 1759 
Q 1497 1759 1228 1600 
Q 959 1441 959 1056 
Q 959 750 1161 570 
Q 1363 391 1709 391 
Q 2188 391 2477 730 
Q 2766 1069 2766 1631 
L 2766 1759 
L 2194 1759 
z
M 3341 1997 
L 3341 0 
L 2766 0 
L 2766 531 
Q 2569 213 2275 61 
Q 1981 -91 1556 -91 
Q 1019 -91 701 211 
Q 384 513 384 1019 
Q 384 1609 779 1909 
Q 1175 2209 1959 2209 
L 2766 2209 
L 2766 2266 
Q 2766 2663 2505 2880 
Q 2244 3097 1772 3097 
Q 1472 3097 1187 3025 
Q 903 2953 641 2809 
L 641 3341 
Q 956 3463 1253 3523 
Q 1550 3584 1831 3584 
Q 2591 3584 2966 3190 
Q 3341 2797 3341 1997 
z
" transform="scale(0.015625)"/>
      <path id="DejaVuSans-74" d="M 1172 4494 
L 1172 3500 
L 2356 3500 
L 2356 3053 
L 1172 3053 
L 1172 1153 
Q 1172 725 1289 603 
Q 1406 481 1766 481 
L 2356 481 
L 2356 0 
L 1766 0 
Q 1100 0 847 248 
Q 594 497 594 1153 
L 594 3053 
L 172 3053 
L 172 3500 
L 594 3500 
L 594 4494 
L 1172 4494 
z
" transform="scale(0.015625)"/>
      <path id="DejaVuSans-65" d="M 3597 1894 
L 3597 1613 
L 953 1613 
Q 991 1019 1311 708 
Q 1631 397 2203 397 
Q 2534 397 2845 478 
Q 3156 559 3463 722 
L 3463 178 
Q 3153 47 2828 -22 
Q 2503 -91 2169 -91 
Q 1331 -91 842 396 
Q 353 884 353 1716 
Q 353 2575 817 3079 
Q 1281 3584 2069 3584 
Q 2775 3584 3186 3129 
Q 3597 2675 3597 1894 
z
M 3022 2063 
Q 3016 2534 2758 2815 
Q 2500 3097 2075 3097 
Q 1594 3097 1305 2825 
Q 1016 2553 972 2059 
L 3022 2063 
z
" transform="scale(0.015625)"/>
     </defs>
     <use xlink:href="#DejaVuSans-53"/>
     <use xlink:href="#DejaVuSans-57" x="63.476562"/>
     <use xlink:href="#DejaVuSans-41" x="156.853516"/>
     <use xlink:href="#DejaVuSans-50" x="225.261719"/>
     <use xlink:href="#DejaVuSans-20" x="285.564453"/>
     <use xlink:href="#DejaVuSans-47" x="317.351562"/>
     <use xlink:href="#DejaVuSans-61" x="394.841797"/>
     <use xlink:href="#DejaVuSans-74" x="456.121094"/>
     <use xlink:href="#DejaVuSans-65" x="495.330078"/>
    </g>
   </g>
   <g id="patch_2">
    <path d="M 154.755042 58.940314 
C 155.953632 58.940314 157.103291 58.46411 157.950822 57.616579 
C 158.798353 56.769048 159.274557 55.619389 159.274557 54.420799 
C 159.274557 53.22221 158.798353 52.07255 157.950822 51.22502 
C 157.103291 50.377489 155.953632 49.901284 154.755042 49.901284 
C 153.556453 49.901284 152.406793 50.377489 151.559263 51.22502 
C 150.711732 52.07255 150.235527 53.22221 150.235527 54.420799 
C 150.235527 55.619389 150.711732 56.769048 151.559263 57.616579 
C 152.406793 58.46411 153.556453 58.940314 154.755042 58.940314 
z
" clip-path="url(#pcaf6e8cb06)" style="stroke: #000000; stroke-width: 1.5; stroke-linejoin: miter"/>
   </g>
   <g id="patch_3">
    <path d="M 154.755042 111.320334 
C 157.551751 111.320334 160.23429 110.209189 162.211862 108.231618 
C 164.189433 106.254046 165.300577 103.571507 165.300577 100.774799 
C 165.300577 97.97809 164.189433 95.295551 162.211862 93.317979 
C 160.23429 91.340408 157.551751 90.229264 154.755042 90.229264 
C 151.958334 90.229264 149.275795 91.340408 147.298223 93.317979 
C 145.320652 95.295551 144.209507 97.97809 144.209507 100.774799 
C 144.209507 103.571507 145.320652 106.254046 147.298223 108.231618 
C 149.275795 110.209189 151.958334 111.320334 154.755042 111.320334 
z
" clip-path="url(#pcaf6e8cb06)" style="stroke: #000000; stroke-width: 2; stroke-linejoin: miter"/>
   </g>
   <g id="patch_4">
    <path d="M 201.109042 105.294314 
C 202.307631 105.294314 203.457291 104.818109 204.304821 103.970578 
C 205.152352 103.123048 205.628557 101.973388 205.628557 100.774799 
C 205.628557 99.576209 205.152352 98.42655 204.304821 97.579019 
C 203.457291 96.731488 202.307631 96.255284 201.109042 96.255284 
C 199.910452 96.255284 198.760793 96.731488 197.913262 97.579019 
C 197.065731 98.42655 196.589527 99.576209 196.589527 100.774799 
C 196.589527 101.973388 197.065731 103.123048 197.913262 103.970578 
C 198.760793 104.818109 199.910452 105.294314 201.109042 105.294314 
z
" clip-path="url(#pcaf6e8cb06)" style="stroke: #000000; stroke-width: 1.5; stroke-linejoin: miter"/>
   </g>
   <g id="patch_5">
    <path d="M 201.109042 64.966334 
C 203.90575 64.966334 206.588289 63.85519 208.565861 61.877618 
C 210.543432 59.900047 211.654577 57.217508 211.654577 54.420799 
C 211.654577 51.624091 210.543432 48.941552 208.565861 46.96398 
C 206.588289 44.986408 203.90575 43.875264 201.109042 43.875264 
C 198.312333 43.875264 195.629794 44.986408 193.652222 46.96398 
C 191.674651 48.941552 190.563507 51.624091 190.563507 54.420799 
C 190.563507 57.217508 191.674651 59.900047 193.652222 61.877618 
C 195.629794 63.85519 198.312333 64.966334 201.109042 64.966334 
z
" clip-path="url(#pcaf6e8cb06)" style="stroke: #000000; stroke-width: 2; stroke-linejoin: miter"/>
   </g>
   <g id="patch_6">
    <path d="M 247.463041 58.940314 
C 248.66163 58.940314 249.81129 58.46411 250.658821 57.616579 
C 251.506351 56.769048 251.982556 55.619389 251.982556 54.420799 
C 251.982556 53.22221 251.506351 52.07255 250.658821 51.22502 
C 249.81129 50.377489 248.66163 49.901284 247.463041 49.901284 
C 246.264452 49.901284 245.114792 50.377489 244.267261 51.22502 
C 243.419731 52.07255 242.943526 53.22221 242.943526 54.420799 
C 242.943526 55.619389 243.419731 56.769048 244.267261 57.616579 
C 245.114792 58.46411 246.264452 58.940314 247.463041 58.940314 
z
" clip-path="url(#pcaf6e8cb06)" style="stroke: #000000; stroke-width: 1.5; stroke-linejoin: miter"/>
   </g>
   <g id="patch_7">
    <path d="M 247.463041 111.320334 
C 250.25975 111.320334 252.942289 110.209189 254.91986 108.231618 
C 256.897432 106.254046 258.008576 103.571507 258.008576 100.774799 
C 258.008576 97.97809 256.897432 95.295551 254.91986 93.317979 
C 252.942289 91.340408 250.25975 90.229264 247.463041 90.229264 
C 244.666333 90.229264 241.983793 91.340408 240.006222 93.317979 
C 238.02865 95.295551 236.917506 97.97809 236.917506 100.774799 
C 236.917506 103.571507 238.02865 106.254046 240.006222 108.231618 
C 241.983793 110.209189 244.666333 111.320334 247.463041 111.320334 
z
" clip-path="url(#pcaf6e8cb06)" style="stroke: #000000; stroke-width: 2; stroke-linejoin: miter"/>
   </g>
   <g id="patch_8">
    <path d="M 278.751991 69.485849 
L 308.88209 69.485849 
L 308.88209 39.355749 
L 278.751991 39.355749 
z
" clip-path="url(#pcaf6e8cb06)" style="fill: #ffffff; stroke: #000000; stroke-width: 1.5; stroke-linejoin: miter"/>
   </g>
   <g id="patch_9">
    <path d="M 278.751991 115.839848 
L 308.88209 115.839848 
L 308.88209 85.709749 
L 278.751991 85.709749 
z
" clip-path="url(#pcaf6e8cb06)" style="fill: #ffffff; stroke: #000000; stroke-width: 1.5; stroke-linejoin: miter"/>
   </g>
   <g id="patch_10">
    <path d="M 340.17104 58.940314 
C 341.369629 58.940314 342.519289 58.46411 343.36682 57.616579 
C 344.21435 56.769048 344.690555 55.619389 344.690555 54.420799 
C 344.690555 53.22221 344.21435 52.07255 343.36682 51.22502 
C 342.519289 50.377489 341.369629 49.901284 340.17104 49.901284 
C 338.97245 49.901284 337.822791 50.377489 336.97526 51.22502 
C 336.12773 52.07255 335.651525 53.22221 335.651525 54.420799 
C 335.651525 55.619389 336.12773 56.769048 336.97526 57.616579 
C 337.822791 58.46411 338.97245 58.940314 340.17104 58.940314 
z
" clip-path="url(#pcaf6e8cb06)" style="stroke: #000000; stroke-width: 1.5; stroke-linejoin: miter"/>
   </g>
   <g id="patch_11">
    <path d="M 340.17104 111.320334 
C 342.967748 111.320334 345.650287 110.209189 347.627859 108.231618 
C 349.605431 106.254046 350.716575 103.571507 350.716575 100.774799 
C 350.716575 97.97809 349.605431 95.295551 347.627859 93.317979 
C 345.650287 91.340408 342.967748 90.229264 340.17104 90.229264 
C 337.374331 90.229264 334.691792 91.340408 332.714221 93.317979 
C 330.736649 95.295551 329.625505 97.97809 329.625505 100.774799 
C 329.625505 103.571507 330.736649 106.254046 332.714221 108.231618 
C 334.691792 110.209189 337.374331 111.320334 340.17104 111.320334 
z
" clip-path="url(#pcaf6e8cb06)" style="stroke: #000000; stroke-width: 2; stroke-linejoin: miter"/>
   </g>
   <g id="patch_12">
    <path d="M 386.525039 105.294314 
C 387.723629 105.294314 388.873288 104.818109 389.720819 103.970578 
C 390.56835 103.123048 391.044554 101.973388 391.044554 100.774799 
C 391.044554 99.576209 390.56835 98.42655 389.720819 97.579019 
C 388.873288 96.731488 387.723629 96.255284 386.525039 96.255284 
C 385.32645 96.255284 384.17679 96.731488 383.32926 97.579019 
C 382.481729 98.42655 382.005524 99.576209 382.005524 100.774799 
C 382.005524 101.973388 382.481729 103.123048 383.32926 103.970578 
C 384.17679 104.818109 385.32645 105.294314 386.525039 105.294314 
z
" clip-path="url(#pcaf6e8cb06)" style="stroke: #000000; stroke-width: 1.5; stroke-linejoin: miter"/>
   </g>
   <g id="patch_13">
    <path d="M 386.525039 64.966334 
C 389.321748 64.966334 392.004287 63.85519 393.981858 61.877618 
C 395.95943 59.900047 397.070574 57.217508 397.070574 54.420799 
C 397.070574 51.624091 395.95943 48.941552 393.981858 46.96398 
C 392.004287 44.986408 389.321748 43.875264 386.525039 43.875264 
C 383.728331 43.875264 381.045792 44.986408 379.06822 46.96398 
C 377.090648 48.941552 375.979504 51.624091 375.979504 54.420799 
C 375.979504 57.217508 377.090648 59.900047 379.06822 61.877618 
C 381.045792 63.85519 383.728331 64.966334 386.525039 64.966334 
z
" clip-path="url(#pcaf6e8cb06)" style="stroke: #000000; stroke-width: 2; stroke-linejoin: miter"/>
   </g>
   <g id="patch_14">
    <path d="M 432.879039 58.940314 
C 434.077628 58.940314 435.227288 58.46411 436.074818 57.616579 
C 436.922349 56.769048 437.398554 55.619389 437.398554 54.420799 
C 437.398554 53.22221 436.922349 52.07255 436.074818 51.22502 
C 435.227288 50.377489 434.077628 49.901284 432.879039 49.901284 
C 431.680449 49.901284 430.53079 50.377489 429.683259 51.22502 
C 428.835728 52.07255 428.359524 53.22221 428.359524 54.420799 
C 428.359524 55.619389 428.835728 56.769048 429.683259 57.616579 
C 430.53079 58.46411 431.680449 58.940314 432.879039 58.940314 
z
" clip-path="url(#pcaf6e8cb06)" style="stroke: #000000; stroke-width: 1.5; stroke-linejoin: miter"/>
   </g>
   <g id="patch_15">
    <path d="M 432.879039 111.320334 
C 435.675747 111.320334 438.358286 110.209189 440.335858 108.231618 
C 442.313429 106.254046 443.424573 103.571507 443.424573 100.774799 
C 443.424573 97.97809 442.313429 95.295551 440.335858 93.317979 
C 438.358286 91.340408 435.675747 90.229264 432.879039 90.229264 
C 430.08233 90.229264 427.399791 91.340408 425.422219 93.317979 
C 423.444648 95.295551 422.333504 97.97809 422.333504 100.774799 
C 422.333504 103.571507 423.444648 106.254046 425.422219 108.231618 
C 427.399791 110.209189 430.08233 111.320334 432.879039 111.320334 
z
" clip-path="url(#pcaf6e8cb06)" style="stroke: #000000; stroke-width: 2; stroke-linejoin: miter"/>
   </g>
   <g id="patch_16">
    <path d="M 464.167988 69.485849 
L 494.298088 69.485849 
L 494.298088 39.355749 
L 464.167988 39.355749 
z
" clip-path="url(#pcaf6e8cb06)" style="fill: #ffffff; stroke: #000000; stroke-width: 1.5; stroke-linejoin: miter"/>
   </g>
   <g id="patch_17">
    <path d="M 464.167988 115.839848 
L 494.298088 115.839848 
L 494.298088 85.709749 
L 464.167988 85.709749 
z
" clip-path="url(#pcaf6e8cb06)" style="fill: #ffffff; stroke: #000000; stroke-width: 1.5; stroke-linejoin: miter"/>
   </g>
   <g id="text_2">
    <g clip-path="url(#pcaf6e8cb06)">
     <!-- ${q}_{0}$ -->
     <g transform="translate(102.415583 58.871776)scale(0.1625 -0.1625)">
      <defs>
       <path id="DejaVuSans-Oblique-71" d="M 2669 525 
Q 2438 222 2123 65 
Q 1809 -91 1428 -91 
Q 897 -91 595 267 
Q 294 625 294 1253 
Q 294 1759 480 2231 
Q 666 2703 1013 3078 
Q 1238 3322 1530 3453 
Q 1822 3584 2144 3584 
Q 2531 3584 2781 3431 
Q 3031 3278 3144 2969 
L 3244 3494 
L 3822 3494 
L 2888 -1319 
L 2309 -1319 
L 2669 525 
z
M 891 1338 
Q 891 875 1084 633 
Q 1278 391 1644 391 
Q 2188 391 2572 911 
Q 2956 1431 2956 2175 
Q 2956 2625 2757 2864 
Q 2559 3103 2188 3103 
Q 1916 3103 1684 2976 
Q 1453 2850 1281 2606 
Q 1100 2350 995 2006 
Q 891 1663 891 1338 
z
" transform="scale(0.015625)"/>
       <path id="DejaVuSans-30" d="M 2034 4250 
Q 1547 4250 1301 3770 
Q 1056 3291 1056 2328 
Q 1056 1369 1301 889 
Q 1547 409 2034 409 
Q 2525 409 2770 889 
Q 3016 1369 3016 2328 
Q 3016 3291 2770 3770 
Q 2525 4250 2034 4250 
z
M 2034 4750 
Q 2819 4750 3233 4129 
Q 3647 3509 3647 2328 
Q 3647 1150 3233 529 
Q 2819 -91 2034 -91 
Q 1250 -91 836 529 
Q 422 1150 422 2328 
Q 422 3509 836 4129 
Q 1250 4750 2034 4750 
z
" transform="scale(0.015625)"/>
      </defs>
      <use xlink:href="#DejaVuSans-Oblique-71"/>
      <use xlink:href="#DejaVuSans-30" transform="translate(63.476562 -16.40625)scale(0.7)"/>
     </g>
    </g>
   </g>
   <g id="text_3">
    <g clip-path="url(#pcaf6e8cb06)">
     <!-- ${q}_{1}$ -->
     <g transform="translate(102.415583 105.225775)scale(0.1625 -0.1625)">
      <defs>
       <path id="DejaVuSans-31" d="M 794 531 
L 1825 531 
L 1825 4091 
L 703 3866 
L 703 4441 
L 1819 4666 
L 2450 4666 
L 2450 531 
L 3481 531 
L 3481 0 
L 794 0 
L 794 531 
z
" transform="scale(0.015625)"/>
      </defs>
      <use xlink:href="#DejaVuSans-Oblique-71"/>
      <use xlink:href="#DejaVuSans-31" transform="translate(63.476562 -16.40625)scale(0.7)"/>
     </g>
    </g>
   </g>
   <g id="line2d_9">
    <path d="M 154.755042 106.800819 
L 154.755042 94.748779 
" clip-path="url(#pcaf6e8cb06)" style="fill: none; stroke: #ffffff; stroke-width: 2; stroke-linecap: square"/>
   </g>
   <g id="line2d_10">
    <path d="M 148.729022 100.774799 
L 160.781062 100.774799 
" clip-path="url(#pcaf6e8cb06)" style="fill: none; stroke: #ffffff; stroke-width: 2; stroke-linecap: square"/>
   </g>
   <g id="line2d_11">
    <path d="M 201.109042 60.446819 
L 201.109042 48.394779 
" clip-path="url(#pcaf6e8cb06)" style="fill: none; stroke: #ffffff; stroke-width: 2; stroke-linecap: square"/>
   </g>
   <g id="line2d_12">
    <path d="M 195.083022 54.420799 
L 207.135062 54.420799 
" clip-path="url(#pcaf6e8cb06)" style="fill: none; stroke: #ffffff; stroke-width: 2; stroke-linecap: square"/>
   </g>
   <g id="line2d_13">
    <path d="M 247.463041 106.800819 
L 247.463041 94.748779 
" clip-path="url(#pcaf6e8cb06)" style="fill: none; stroke: #ffffff; stroke-width: 2; stroke-linecap: square"/>
   </g>
   <g id="line2d_14">
    <path d="M 241.437021 100.774799 
L 253.489061 100.774799 
" clip-path="url(#pcaf6e8cb06)" style="fill: none; stroke: #ffffff; stroke-width: 2; stroke-linecap: square"/>
   </g>
   <g id="text_4">
    <g clip-path="url(#pcaf6e8cb06)">
     <!-- H -->
     <g transform="translate(288.928837 58.007987)scale(0.13 -0.13)">
      <defs>
       <path id="DejaVuSans-48" d="M 628 4666 
L 1259 4666 
L 1259 2753 
L 3553 2753 
L 3553 4666 
L 4184 4666 
L 4184 0 
L 3553 0 
L 3553 2222 
L 1259 2222 
L 1259 0 
L 628 0 
L 628 4666 
z
" transform="scale(0.015625)"/>
      </defs>
      <use xlink:href="#DejaVuSans-48"/>
     </g>
    </g>
   </g>
   <g id="text_5">
    <g clip-path="url(#pcaf6e8cb06)">
     <!-- H -->
     <g transform="translate(288.928837 104.361986)scale(0.13 -0.13)">
      <use xlink:href="#DejaVuSans-48"/>
     </g>
    </g>
   </g>
   <g id="line2d_15">
    <path d="M 340.17104 106.800819 
L 340.17104 94.748779 
" clip-path="url(#pcaf6e8cb06)" style="fill: none; stroke: #ffffff; stroke-width: 2; stroke-linecap: square"/>
   </g>
   <g id="line2d_16">
    <path d="M 334.14502 100.774799 
L 346.19706 100.774799 
" clip-path="url(#pcaf6e8cb06)" style="fill: none; stroke: #ffffff; stroke-width: 2; stroke-linecap: square"/>
   </g>
   <g id="line2d_17">
    <path d="M 386.525039 60.446819 
L 386.525039 48.394779 
" clip-path="url(#pcaf6e8cb06)" style="fill: none; stroke: #ffffff; stroke-width: 2; stroke-linecap: square"/>
   </g>
   <g id="line2d_18">
    <path d="M 380.499019 54.420799 
L 392.551059 54.420799 
" clip-path="url(#pcaf6e8cb06)" style="fill: none; stroke: #ffffff; stroke-width: 2; stroke-linecap: square"/>
   </g>
   <g id="line2d_19">
    <path d="M 432.879039 106.800819 
L 432.879039 94.748779 
" clip-path="url(#pcaf6e8cb06)" style="fill: none; stroke: #ffffff; stroke-width: 2; stroke-linecap: square"/>
   </g>
   <g id="line2d_20">
    <path d="M 426.853019 100.774799 
L 438.905059 100.774799 
" clip-path="url(#pcaf6e8cb06)" style="fill: none; stroke: #ffffff; stroke-width: 2; stroke-linecap: square"/>
   </g>
   <g id="text_6">
    <g clip-path="url(#pcaf6e8cb06)">
     <!-- H -->
     <g transform="translate(474.344835 58.007987)scale(0.13 -0.13)">
      <use xlink:href="#DejaVuSans-48"/>
     </g>
    </g>
   </g>
   <g id="text_7">
    <g clip-path="url(#pcaf6e8cb06)">
     <!-- H -->
     <g transform="translate(474.344835 104.361986)scale(0.13 -0.13)">
      <use xlink:href="#DejaVuSans-48"/>
     </g>
    </g>
   </g>
  </g>
 </g>
 <defs>
  <clipPath id="pcaf6e8cb06">
   <rect x="72.426631" y="17.3376" width="437.400047" height="111.249599"/>
  </clipPath>
 </defs>
</svg>
